<svg width="313" height="192" viewBox="0 0 313 192" fill="none" xmlns="http://www.w3.org/2000/svg">
<path d="M19 58.5L0.5 10.5L205 30L167.5 81L19 58.5Z" fill="white"/>
<path d="M8.32 25.58L8.5 25.46C15.08 27.32 13.22 31.98 10.86 30.28C10.48 28.68 9.3 26.84 8.32 25.58ZM11.58 33.88L11.64 34.12C9.78 35.34 7.16 36.88 3.26 38.72C3.16 38.96 2.96 39.18 2.74 39.26L1.46 36.56C2.12 36.44 3.06 36.24 4.18 35.96L3.98 23.14L7.12 23.36C7.1 23.64 6.96 23.86 6.4 23.94L6.58 35.32C8.16 34.9 9.9 34.4 11.58 33.88ZM15.82 23.2L19.18 23.5C19.12 23.82 18.88 24.06 18.42 24.1C18.22 28.42 17.98 32.02 16.02 34.9C22.22 37.22 20.68 41.7 18.24 40.16C17.7 38.7 16.56 37.04 15.44 35.66C13.68 37.78 10.8 39.48 6.08 40.78L5.9 40.46C15.32 36.2 15.7 31.1 15.82 23.2ZM29.44 36.92H32.58V34.56H29.44V36.92ZM34.74 34.88V37.88C34.72 38.02 33.68 38.46 32.94 38.46H32.58V37.48H29.44V38.12C29.44 38.3 28.46 38.76 27.6 38.76H27.3V33.1L29.52 33.98H32.38L33.38 32.94L35.48 34.48C35.36 34.64 35.12 34.8 34.74 34.88ZM36.74 31.84L37.8 30.66L40.12 32.38C40 32.54 39.72 32.72 39.3 32.8V38.24C39.3 39.74 38.96 40.6 36.36 40.8C36.3 40.12 36.22 39.6 35.94 39.28C35.66 38.96 35.28 38.7 34.34 38.54V38.28C34.34 38.28 36.1 38.4 36.56 38.4C36.86 38.4 36.94 38.26 36.94 38.02V32.4H25.26V40.02C25.26 40.26 24.24 40.78 23.28 40.78H22.94V30.86L25.44 31.84H36.74ZM28.32 29.62H33.84V27.28H28.32V29.62ZM34.24 31.08H33.84V30.18H28.32V30.62C28.32 30.8 27.28 31.3 26.32 31.3H26V25.74L28.44 26.7H33.64L34.7 25.52L36.98 27.24C36.86 27.4 36.6 27.58 36.2 27.66V30.6C36.18 30.72 34.98 31.08 34.24 31.08ZM36.38 24.56L37.76 22.82C37.76 22.82 39.36 23.98 40.32 24.8C40.26 25.02 40.04 25.12 39.76 25.12H21.98L21.8 24.56H30.3C30.08 23.64 29.32 22.66 28.62 22.1L28.76 21.98C32.58 21.78 32.9 23.8 32 24.56H36.38ZM50.5 26.64H46.44C45.86 30.96 44.68 35.94 41.78 39.52L41.52 39.38C43.2 35.76 43.96 30.94 44.24 26.64H41.82L41.66 26.08H44.28C44.36 24.64 44.38 23.28 44.38 22.04L47.6 22.26C47.56 22.52 47.42 22.74 46.82 22.82C46.74 23.82 46.64 24.92 46.5 26.08H47.92L49 24.56C49 24.56 50.28 25.6 51.04 26.32C50.98 26.54 50.78 26.64 50.5 26.64ZM47.52 33.38L47.76 33.28C52.52 36.68 50.58 40.78 48.74 38.92C48.76 38.3 48.68 37.64 48.56 36.98C47.82 37.52 46.82 38.2 45.68 38.86C45.5 39.26 45.28 39.52 45 39.64L43.92 37.04C43.92 37.04 44.44 36.9 44.58 36.76C45.44 35.06 46.54 30.72 46.8 28.32L49.62 28.9C49.56 29.14 49.34 29.36 48.9 29.38C48.12 31.7 46.66 34.84 45.32 36.9C46.2 36.82 47.32 36.62 48.44 36.4C48.2 35.32 47.84 34.28 47.52 33.38ZM53.36 34.86V38.58H54.88V34.86H53.36ZM54.88 26.74H53.36V30.18H54.88V26.74ZM54.88 34.28V30.76H53.36V34.28H54.88ZM57.42 38.58L58.58 37.02C58.58 37.02 59.86 38.1 60.62 38.82C60.58 39.04 60.36 39.14 60.08 39.14H53.36V40.12C53.36 40.28 52.68 40.76 51.56 40.76H51.18V29.66C50.66 30.42 50.06 31.14 49.42 31.76L49.18 31.58C50.68 28.8 51.62 24.68 51.94 22.04L54.88 22.82C54.74 22.52 54.6 22.26 54.46 22.02L54.66 21.9C59.52 23.4 57.18 27.06 55.38 25.32C55.44 24.56 55.24 23.74 54.96 23.02C54.86 23.18 54.68 23.26 54.32 23.28C54.04 24.12 53.68 25.06 53.24 26.02L53.62 26.16H57.26L58.38 24.68C58.38 24.68 59.6 25.7 60.36 26.42C60.3 26.64 60.1 26.74 59.82 26.74H56.94V30.18H57.36L58.34 28.8C58.34 28.8 59.44 29.76 60.1 30.44C60.06 30.66 59.86 30.76 59.58 30.76H56.94V34.28H57.4L58.4 32.92C58.4 32.92 59.5 33.86 60.14 34.54C60.1 34.76 59.9 34.86 59.62 34.86H56.94V38.58H57.42ZM62.98 22.3L63.16 22.18C68.46 23 66.62 26.84 64.62 25.42C64.42 24.32 63.62 23.1 62.98 22.3ZM61.52 26.62L61.7 26.5C66.78 27.24 64.92 30.98 63.02 29.54C62.88 28.5 62.2 27.34 61.52 26.62ZM75.06 30.7L75.62 31.1C75.36 30.56 75.14 29.96 74.94 29.34H71.98C71.62 30.08 71.16 30.78 70.64 31.44L71.28 31.68H74.1L75.06 30.7ZM71.02 34.72H74.28V32.26H71.02V34.72ZM71.64 25.96V28.76H73.94V25.96H71.64ZM79.98 29.34H75.4C76.62 30.88 78.72 32 80.68 32.5L80.64 32.72C79.78 32.94 79.16 33.68 78.88 34.88C77.9 34.28 77.08 33.48 76.42 32.5V35.82C76.4 35.94 75.3 36.24 74.64 36.24H74.28V35.28H71.02V37.88C71.02 38.22 71.14 38.32 71.98 38.32H74.48C75.42 38.32 76.24 38.32 76.6 38.28C76.92 38.26 77.08 38.2 77.22 38C77.46 37.66 77.78 36.8 78.16 35.66H78.38L78.44 38.08C79.1 38.32 79.3 38.58 79.3 38.98C79.3 39.96 78.36 40.36 74.28 40.36H71.64C69.38 40.36 68.78 39.98 68.78 38.36V33.24C67.8 34.02 66.68 34.7 65.44 35.28L65.28 35.02C67.18 33.54 68.58 31.46 69.42 29.34H66.6L66.46 28.84C65.88 30.86 65.24 33.06 65.08 33.74C64.94 34.36 64.8 35.04 64.82 35.54C64.86 36.58 65.64 37.34 65.58 39.12C65.54 40.1 64.88 40.76 63.96 40.76C63.54 40.76 63.1 40.46 62.96 39.72C63.34 37.6 63.24 35.76 62.78 35.46C62.5 35.26 62.2 35.16 61.76 35.12V34.74H62.66C62.94 34.74 63.02 34.74 63.24 34.34C63.64 33.64 63.64 33.64 66.82 26.5L67.14 26.56C66.96 27.18 66.72 27.96 66.5 28.76H69.5V25.96H66.92L66.76 25.38H69.5V22.16L72.38 22.4C72.34 22.7 72.18 22.9 71.64 22.98V25.38H73.94V22.16L76.92 22.42C76.88 22.7 76.72 22.9 76.18 22.98V25.38H76.96L78.12 23.8C78.12 23.8 79.42 24.88 80.2 25.64C80.14 25.86 79.92 25.96 79.64 25.96H76.18V28.76H77.2L78.4 27.12C78.4 27.12 79.74 28.24 80.54 29.02C80.5 29.24 80.28 29.34 79.98 29.34ZM84.26 22.28L84.42 22.16C89.96 23.02 87.96 27.16 85.84 25.6C85.7 24.42 84.98 23.12 84.26 22.28ZM85.18 35L85.46 34.98C86.56 37.6 85.74 39.4 84.68 40C83.96 40.42 83.06 40.24 82.78 39.5C82.56 38.8 82.98 38.26 83.58 37.94C84.4 37.52 85.26 36.38 85.18 35ZM87.4 35.02L87.64 34.96C91.48 37.66 88.74 40.92 87.28 38.9C87.64 37.6 87.62 36.14 87.4 35.02ZM89.92 34.88L90.12 34.78C94.82 36.16 92.78 39.7 91.02 38.14C91.02 37.02 90.48 35.74 89.92 34.88ZM92.74 34.56L92.9 34.42C97.62 34.58 96.26 38.16 94.4 37.06C94.2 36.16 93.44 35.12 92.74 34.56ZM93.78 27.08H90.6C90.16 28 89.66 28.9 89.08 29.8H93.16L93.78 27.08ZM95.7 30.36H88.72C88.06 31.32 87.32 32.28 86.48 33.16H95.16L95.7 30.36ZM98.62 32.08L100.66 33.76C100.5 33.9 100.26 34.04 99.84 34.08C99.54 37.6 98.94 39.44 97.94 40.16C97.3 40.62 96.5 40.82 95.52 40.82C95.52 40.2 95.44 39.66 95.18 39.36C94.9 39.04 94.36 38.8 93.64 38.64V38.36C94.3 38.44 95.4 38.5 95.8 38.5C96.12 38.5 96.28 38.46 96.48 38.32C96.96 37.94 97.42 36.38 97.66 33.74H85.92C84.7 34.96 83.26 36.08 81.62 37L81.42 36.82C84.54 34.28 86.78 30.66 88.28 27.08H83.1L82.92 26.5H88.52C89.14 24.9 89.62 23.32 89.96 21.86L93.02 22.78C92.94 23.02 92.76 23.16 92.22 23.16C91.86 24.24 91.42 25.36 90.88 26.5H93.74L94.6 25.58L96.56 27.06C96.4 27.24 96.22 27.3 95.86 27.34L95.28 29.8H95.6L96.44 28.88L98.36 30.34C98.2 30.52 98.04 30.58 97.68 30.62L97.2 33.16H97.5L98.62 32.08ZM115.08 29.96H115.94C116.18 28.04 116.2 26.08 116.22 24.18H115.56C115.48 25.68 115.28 28.26 115.08 29.96ZM112.92 24.28V30.1C113.08 30 113.26 29.88 113.44 29.8C113.64 28.22 113.84 25.6 113.88 24.18H113.5L113.46 24.04C113.36 24.14 113.16 24.24 112.92 24.28ZM109.84 31H111.16V27.78H109.84V31ZM109.84 24.1V27.2H111.16V24.1H109.84ZM119.96 35.9L120.02 38.34C120.46 38.56 120.52 38.8 120.52 39.14C120.52 39.86 119.88 40.28 118.4 40.28H117.7C116.42 40.28 116.28 39.86 116.28 38.7V35.14C115.22 37.24 113.5 39.2 110.82 40.88L110.54 40.56C114.04 37.52 115.38 34.08 115.88 30.52H115.2L114.5 31.36L112.92 30.36V32.02C112.92 32.18 112.04 32.56 111.44 32.56H111.16V31.58H109.84V35.8C110.34 35.56 110.9 35.3 111.44 35.04C111.22 34.34 110.9 33.66 110.62 33.1L110.82 33C115.3 34.94 113.4 38.24 111.78 36.76C111.76 36.42 111.7 36.04 111.62 35.68C110.98 36.4 110.12 37.36 109.1 38.32C108.92 38.7 108.64 38.94 108.4 39.06L107.32 36.72C107.88 36.42 107.96 36.26 107.96 35.76V27.44C107.86 27.52 107.72 27.56 107.56 27.56H105.72V28.8C109.12 30.64 107.56 33.22 106.32 31.98C106.36 31.2 106.06 30.24 105.72 29.44V40.06C105.72 40.28 104.88 40.78 104.14 40.78H103.74V33.1C103.18 34.16 102.52 35.14 101.76 36.04L101.5 35.82C102.62 33.52 103.28 30.46 103.62 27.56H101.88L101.72 26.98H103.74V21.98L106.46 22.26C106.42 22.54 106.26 22.74 105.72 22.82V26.88L106.52 25.68C106.52 25.68 107.4 26.52 107.96 27.12V22.52L110.08 23.54H110.98L111.84 22.66L113.42 23.9L113.36 23.62H117.3L118.44 22.06C118.44 22.06 119.72 23.14 120.5 23.86C120.44 24.08 120.22 24.18 119.94 24.18H118.26C118.2 26.12 118.14 28.08 117.86 29.96H118.1L119 28.58C119 28.58 120.02 29.54 120.6 30.2C120.54 30.42 120.36 30.52 120.08 30.52H117.76C117.64 31.24 117.48 31.96 117.26 32.66L118.74 32.8C118.7 33.06 118.52 33.24 118.16 33.3V38.2C118.16 38.4 118.18 38.46 118.36 38.46H118.58C118.7 38.46 118.78 38.48 118.84 38.46C118.94 38.46 119 38.44 119.08 38.26C119.22 37.98 119.48 36.94 119.72 35.9H119.96ZM124.54 34.18L124.82 34.16C125.8 36.64 125.04 38.4 124.08 39C123.4 39.42 122.52 39.28 122.24 38.58C122.04 37.92 122.4 37.36 123 37.06C123.76 36.62 124.58 35.48 124.54 34.18ZM125.14 30.2L124.98 29.64H134.02L135.26 28.6L137.38 30.06C137.26 30.26 137.08 30.3 136.66 30.34C135.94 31.6 134.54 32.88 133 33.74L132.82 33.5C133.32 32.64 133.84 31.3 134.1 30.2H125.14ZM131.72 27.34L132.72 25.96C132.72 25.96 133.86 26.92 134.54 27.6C134.48 27.82 134.28 27.92 134 27.92H127.62L127.46 27.34H131.72ZM129.82 33.08L130 32.96C135.16 34.08 133.28 38 131.34 36.48C131.26 35.3 130.54 33.94 129.82 33.08ZM135.64 35.72L135.7 38.06C136.4 38.3 136.58 38.54 136.58 38.96C136.58 39.96 135.6 40.24 131.66 40.24H129.12C126.84 40.24 126.32 39.86 126.32 38.32V33.68L129.3 33.92C129.26 34.18 129.08 34.36 128.68 34.42V37.9C128.68 38.2 128.78 38.28 129.52 38.28H131.92C132.76 38.28 133.54 38.28 133.88 38.26C134.2 38.24 134.32 38.18 134.46 37.98C134.7 37.64 135 36.84 135.44 35.72H135.64ZM135.7 34.14L135.88 34C141.92 35.38 140.04 39.94 137.84 38.26C137.68 36.8 136.72 35.16 135.7 34.14ZM129.3 21.8L132.7 22.8C132.62 23.06 132.4 23.2 131.72 23.26C133.68 24.9 137 26.04 140.54 26.38L140.52 26.68C139.54 27.06 139.12 28.14 138.96 29.06C135.6 28 133 26.08 131.42 23.48C129.76 25.68 126.08 28.32 121.72 29.44L121.64 29.22C125.12 27.48 128.14 24.42 129.3 21.8ZM143.62 22.42L143.76 22.3C149.04 22.56 147.14 26.56 145.02 25.16C144.88 24.16 144.22 23.08 143.62 22.42ZM147.56 25.9L148.56 24.6C148.56 24.6 149.7 25.5 150.4 26.16C150.36 26.38 150.14 26.48 149.86 26.48H141.78L141.62 25.9H147.56ZM142.46 28.46H146.84L147.8 27.2C147.8 27.2 148.88 28.08 149.56 28.72C149.5 28.94 149.3 29.04 149.02 29.04H142.62L142.46 28.46ZM152.92 24.02V25.04C152.92 26.68 152.56 29.38 149.2 30.94C149.32 31.06 149.46 31.18 149.58 31.3C149.52 31.52 149.32 31.62 149.04 31.62H142.6L142.44 31.04H146.84L147.8 29.82C147.8 29.82 148.36 30.26 148.92 30.72C150.6 28.98 150.82 26.8 150.82 25.04V22.56L153.28 23.46H154.98L156.04 22.32L157.98 23.92C157.86 24.06 157.62 24.16 157.26 24.22V27.52C157.26 27.72 157.32 27.8 157.58 27.8H158.1H158.62C158.74 27.8 158.94 27.78 159.04 27.78C159.16 27.76 159.36 27.72 159.5 27.7H159.68L159.76 27.72C160.24 27.96 160.42 28.16 160.42 28.56C160.42 29.36 159.74 29.8 157.82 29.8H156.86C155.36 29.8 155.18 29.38 155.18 28.08V24.02H152.92ZM144.74 38.14H147V34.22H144.74V38.14ZM147.34 39.78H147V38.7H144.74V39.9C144.74 40.1 143.86 40.56 143 40.56H142.7V32.8L144.82 33.66H146.82L147.78 32.64L149.82 34.16C149.7 34.3 149.44 34.46 149.06 34.54V39.18C149.04 39.34 148.04 39.78 147.34 39.78ZM155.96 31.82H151.24C151.84 33.44 152.76 34.68 153.96 35.64C154.84 34.48 155.5 33.22 155.96 31.82ZM157.18 30.02L159.26 31.9C159.12 32.1 158.9 32.16 158.42 32.2C157.72 33.9 156.76 35.38 155.48 36.66C156.94 37.48 158.66 38.02 160.48 38.38L160.46 38.6C159.54 38.8 158.86 39.5 158.56 40.58C156.76 39.9 155.24 39.08 154.02 37.9C152.32 39.18 150.12 40.12 147.42 40.74L147.3 40.48C149.64 39.56 151.56 38.32 153.02 36.76C152.06 35.48 151.34 33.88 150.88 31.82H149.92L149.74 31.24H155.9L157.18 30.02ZM164.42 22.24L164.58 22.14C169.96 22.42 168 26.6 165.84 25.12C165.7 24.06 165.06 22.94 164.42 22.24ZM168.82 25.82L169.96 24.36C169.96 24.36 171.24 25.36 172.02 26.08C171.98 26.3 171.76 26.4 171.48 26.4H161.74L161.58 25.82H168.82ZM162.62 28.42H167.84L168.96 27C168.96 27 170.22 27.96 170.96 28.66C170.9 28.88 170.7 28.98 170.42 28.98H162.78L162.62 28.42ZM167.84 31L168.96 29.6C168.96 29.6 170.22 30.56 170.96 31.26C170.9 31.48 170.7 31.58 170.42 31.58H162.78L162.62 31H167.84ZM165.1 38.08H168.18V34.28H165.1V38.08ZM167.98 33.72L169 32.64L171.12 34.24C171 34.38 170.72 34.56 170.32 34.64V39.18C170.3 39.34 169.26 39.78 168.54 39.78H168.18V38.64H165.1V39.82C165.1 40.02 164.18 40.5 163.3 40.5H163V32.84L165.18 33.72H167.98ZM177.36 29.38L178.52 27.82C178.52 27.82 179.84 28.9 180.64 29.64C180.58 29.86 180.36 29.96 180.08 29.96H176.4V39.88C176.4 40.14 175.4 40.7 174.52 40.7H174.08V29.96H170.88L170.72 29.38H174.08V22.12L177.14 22.42C177.08 22.7 176.94 22.92 176.4 23V29.38H177.36ZM5.04 52L8.34 52.96C8.26 53.22 8 53.38 7.54 53.38C6.98 54.92 6.32 56.34 5.6 57.64L6.58 58C6.52 58.2 6.34 58.32 5.98 58.38V70.1C5.94 70.28 5 70.76 4.1 70.76H3.68V60.54C3.04 61.34 2.36 62.08 1.64 62.72L1.38 62.56C2.82 59.96 4.28 55.86 5.04 52ZM8.8 65.96L8.96 65.84C14.02 66.58 11.88 70.22 9.96 68.68C9.86 67.72 9.32 66.64 8.8 65.96ZM14.7 62.06L16.86 61.98C16.52 61.68 16.18 61.42 15.86 61.2L16.02 61.04C16.28 61.04 16.54 61.04 16.78 61.06V60.6H14.7V62.06ZM10.4 60.02H12.4V58.58H10.4V60.02ZM12.4 56.56H10.4V58.02H12.4V56.56ZM16.78 56.56H14.7V58.02H16.78V56.56ZM16.78 60.02V58.58H14.7V60.02H16.78ZM19.12 56.9V60.64C19.1 60.74 18.12 61.08 17.42 61.14C20.66 61.62 20.44 63.94 19.12 64.04C19.58 64.4 20.26 64.94 20.74 65.36C20.68 65.58 20.46 65.68 20.18 65.68H16.78V68.24C16.78 69.8 16.44 70.6 13.96 70.82C13.92 70.16 13.84 69.66 13.58 69.34C13.36 69.04 12.98 68.8 12.14 68.66V68.38C12.14 68.38 13.8 68.5 14.14 68.5C14.42 68.5 14.5 68.42 14.5 68.2V65.68H7.02L6.86 65.12H14.5V63.26L17.46 63.52C17.42 63.82 17.22 63.96 16.78 64.02V65.12H17.42L18.42 63.82C18.18 63.36 17.76 62.86 17.3 62.4C15.24 62.88 12.44 63.46 8.56 64.16C8.44 64.4 8.2 64.56 8 64.6L7.12 62.26C8.2 62.28 10.1 62.22 12.4 62.14V60.6H10.4V60.98C10.4 61.2 9.38 61.68 8.44 61.68H8.12V55.06L10.54 56.02H12.4V54.74H7.5L7.34 54.16H12.4V52.02L15.44 52.3C15.4 52.58 15.24 52.8 14.7 52.86V54.16H16.9L18.18 52.52C18.18 52.52 19.6 53.64 20.48 54.42C20.42 54.64 20.18 54.74 19.9 54.74H14.7V56.02H16.58L17.64 54.88L19.84 56.52C19.74 56.66 19.48 56.82 19.12 56.9ZM31.82 59.8H34.28C34.54 59.02 34.82 58.02 34.96 57.24H30.36C32.7 57.92 32.6 59.32 31.82 59.8ZM26.94 56.66H32.16V54.8H28.36L28.2 54.22H32.16V52L35.04 52.24C35.02 52.46 34.88 52.62 34.48 52.7V54.22H35.76L36.9 52.82C36.9 52.82 38.2 53.78 39.02 54.48C38.96 54.7 38.76 54.8 38.46 54.8H34.48V56.66H37.02L38.18 55.22C38.18 55.22 39.52 56.2 40.34 56.92C40.3 57.14 40.1 57.24 39.8 57.24H35.66L37.88 57.88C37.8 58.14 37.56 58.28 37.14 58.26C36.6 58.72 35.78 59.3 34.98 59.8H36.42L37.52 58.46C37.52 58.46 38.82 59.36 39.62 60.04C39.56 60.26 39.34 60.36 39.06 60.36H34.48V62.2H35.98L37.06 60.86C37.06 60.86 38.32 61.78 39.08 62.44C39.04 62.66 38.84 62.76 38.56 62.76H34.48V64.64H36.86L38 63.26C38 63.26 39.3 64.2 40.1 64.9C40.06 65.12 39.84 65.22 39.56 65.22H34.48V67.44C34.48 67.56 33.76 68.04 32.58 68.04H32.16V65.22H27.38L27.22 64.64H32.16V62.76H28.44L28.28 62.2H32.16V60.36H27.74L27.58 59.8H30.6C30.5 59.74 30.38 59.66 30.28 59.56C30.28 58.74 29.94 57.82 29.52 57.24H27.1L26.94 56.66ZM22.4 52.46L22.56 52.34C28.1 52.8 26.32 56.98 24.14 55.54C23.94 54.44 23.14 53.22 22.4 52.46ZM26.52 60.4L28.5 61.98C28.38 62.18 28.18 62.24 27.76 62.26C27.28 63.7 26.3 65.28 24.98 66.52C25.14 66.56 25.26 66.64 25.42 66.76C27 68.02 29.4 68.28 33.84 68.28C36.18 68.28 38.1 68.28 40.44 68.12V68.38C39.52 68.58 38.98 69.42 38.86 70.34H33.04C28.64 70.34 26.88 69.56 25.18 67.48C24.9 67.12 24.66 67.16 24.5 67.52C24.16 68.12 23.66 69.16 23.26 70.16C23.3 70.36 23.24 70.46 23.1 70.58L21.48 68.3C22.26 67.9 23.3 67.18 23.98 66.78C24.7 65.44 25.26 63.62 25.5 62.1H24.5L23.8 62.76L22.02 61.5C22.22 61.36 22.52 61.2 22.82 61.1C23.44 60.12 24.26 58.68 24.8 57.66H22.04L21.86 57.08H24.82L25.8 56.1L27.76 57.86C27.58 58.06 27.18 58.16 26.72 58.2C26.2 59.08 25.36 60.52 24.74 61.52H25.38L26.52 60.4ZM57.26 56.22L58 55.28C57.92 55.26 57.84 55.22 57.76 55.16C57.58 54.4 57 53.56 56.52 53.06C56.42 53.08 56.32 53.1 56.2 53.12C56.18 54.14 56.16 55.18 56.18 56.22H57.26ZM51.64 60.44H50.06V60.58C50.06 62.08 49.96 63.8 49.4 65.48C49.92 65.52 50.62 65.56 50.88 65.56C51.04 65.56 51.12 65.52 51.2 65.42C51.48 65.06 51.58 63.58 51.64 60.44ZM45.8 58.26V63.68C46.46 63.48 47.14 63.28 47.84 63.06C47.9 62.22 47.92 61.4 47.92 60.58V58.26H47.88H45.8ZM60.48 64.84L60.04 68.24C60.58 69.5 60.7 70.22 60.32 70.48C59.3 71.18 57.86 70.12 57.24 69.2C56.72 68.44 56.3 67.62 55.94 66.76C54.52 68.38 52.74 69.6 50.52 70.58L50.34 70.28C52.44 68.9 54.08 67.26 55.34 65.08C54.58 62.6 54.26 59.8 54.12 56.78H50.06V59.86H51.46L52.5 58.84L54.38 60.38C54.26 60.54 54 60.68 53.62 60.74C53.54 64.62 53.42 66.38 52.64 67.04C52.16 67.4 51.56 67.54 50.86 67.54C50.86 67.12 50.8 66.66 50.6 66.42C50.38 66.14 49.92 65.88 49.38 65.74V65.56C48.72 67.48 47.46 69.32 45.02 70.72L44.82 70.52C46.78 68.46 47.52 66.02 47.78 63.56C46.72 64.42 45.18 65.6 43.12 67C43.04 67.28 42.84 67.5 42.62 67.58L41.4 64.92C41.88 64.82 42.66 64.6 43.6 64.34V58.26H41.82L41.66 57.7H43.6V52.38L46.54 52.64C46.5 52.92 46.34 53.12 45.8 53.2V57.66L46.74 56.1C46.74 56.1 47.36 56.74 47.92 57.38V55.32L50.4 56.22H54.08C54.04 54.94 54.02 53.62 54.02 52.26L56.92 52.56C56.92 52.68 56.88 52.78 56.78 52.88C60.04 52.94 60 54.8 59.02 55.28C59.46 55.62 60.04 56.1 60.46 56.48C60.4 56.68 60.2 56.78 59.92 56.78H56.2C56.26 58.64 56.4 60.46 56.72 62.12C57.12 61.02 57.48 59.82 57.78 58.48L60.44 59.38C60.34 59.64 60.14 59.76 59.62 59.74C59.02 61.66 58.3 63.3 57.44 64.72C57.78 65.62 58.2 66.44 58.72 67.14C58.94 67.48 59.04 67.46 59.24 67.1C59.5 66.6 59.94 65.64 60.26 64.8L60.48 64.84ZM68.6 52.1L68.74 51.98C74.56 52.04 72.68 56.46 70.32 55.02C70.08 53.94 69.28 52.82 68.6 52.1ZM76.56 55.4L77.96 53.62C77.96 53.62 79.54 54.8 80.46 55.64C80.42 55.86 80.22 55.96 79.92 55.96H72.24V58.64H75.3L76.36 57.42L78.7 59.18C78.56 59.34 78.3 59.52 77.88 59.6V65.52C77.88 67.06 77.54 67.96 74.92 68.2C74.88 67.46 74.78 66.92 74.52 66.56C74.24 66.24 73.88 65.96 73 65.82V65.54C73 65.54 74.62 65.64 75.1 65.64C75.4 65.64 75.5 65.52 75.5 65.28V59.2H72.24V70.16C72.22 70.32 71.48 70.82 70.22 70.82H69.76V59.2H66.48V67.24C66.48 67.5 65.46 68.02 64.46 68.02H64.12V57.62L66.64 58.64H69.76V55.96H61.8L61.64 55.4H76.56ZM84.62 67.24H87.66V61.98H84.62V67.24ZM87.66 56.44H84.62V61.4H87.66V56.44ZM88.52 54.66L90.7 56.38C90.56 56.56 90.26 56.72 89.86 56.8V68.72C89.84 68.88 88.78 69.38 88 69.38H87.66V67.8H84.62V69.28C84.62 69.54 83.78 70.04 82.82 70.04H82.46V54.92L84.7 55.86H84.82C84.96 54.76 85.14 53.2 85.24 52.08L88.48 52.86C88.4 53.2 88.12 53.34 87.66 53.34C87.14 54.04 86.36 55.08 85.72 55.86H87.46L88.52 54.66ZM98.32 54.5L100.46 56.38C100.3 56.56 100.04 56.7 99.58 56.76C99.44 64.82 99.16 68.48 98.06 69.66C97.34 70.42 96.46 70.74 95.14 70.74C95.14 69.98 95.04 69.42 94.7 69.1C94.34 68.72 93.56 68.4 92.58 68.22L92.6 67.94C93.56 68.02 94.94 68.12 95.46 68.12C95.82 68.12 96 68.04 96.2 67.86C96.94 67.18 97.14 63.2 97.28 56.38H93.56C92.6 58.08 91.46 59.5 90.18 60.58L89.92 60.42C91.02 58.38 92.1 55.12 92.62 52.06L95.78 52.98C95.7 53.24 95.46 53.38 95 53.38C94.66 54.24 94.3 55.04 93.88 55.8H97.06L98.32 54.5ZM91.46 60L91.62 59.88C97.46 61.6 95.28 65.92 93.16 64.14C93.06 62.72 92.26 61.1 91.46 60ZM108.68 52.2L108.82 52.08C115.06 52.8 113.2 57.46 110.84 55.86C110.56 54.56 109.6 53.1 108.68 52.2ZM114.16 57.14H106.36C107.26 60.26 108.92 62.64 111.1 64.4C112.76 62.28 113.72 59.84 114.16 57.14ZM119.66 57.14H117.06C116.34 60.42 115 63.28 112.74 65.54C114.98 66.96 117.66 67.88 120.48 68.48L120.42 68.72C119.24 68.88 118.38 69.6 117.96 70.78C115.26 69.9 112.96 68.7 111.08 66.98C108.74 68.72 105.7 70 101.74 70.78L101.64 70.54C105.2 69.36 107.92 67.74 109.88 65.76C108.04 63.64 106.72 60.82 106 57.14H101.98L101.82 56.58H116.3L117.72 54.68C117.72 54.68 119.3 55.96 120.22 56.82C120.16 57.04 119.96 57.14 119.66 57.14ZM121.74 63.02L121.5 62.86C123.36 60.28 125.28 56.12 126.24 51.98L129.6 53.06C129.52 53.3 129.26 53.48 128.78 53.46C128.18 55 127.48 56.4 126.7 57.64L127.6 57.98C127.54 58.16 127.36 58.28 126.98 58.36V70.08C126.94 70.26 125.98 70.76 125.06 70.76H124.62V60.42C123.72 61.42 122.76 62.28 121.74 63.02ZM139.58 64.98L139.66 67.76C140.38 68.04 140.6 68.3 140.6 68.74C140.6 69.78 139.56 70.16 135.56 70.16H133.14C130.84 70.16 130.02 69.72 130.02 67.84V52.38L132.96 52.7C132.94 52.96 132.76 53.18 132.24 53.26V59.2H136.78L137.9 57.6C137.9 57.6 139.2 58.7 139.96 59.44C139.9 59.66 139.72 59.76 139.42 59.76H132.24V67.24C132.24 67.84 132.52 68.02 133.44 68.02H135.74C136.62 68.02 137.32 68.02 137.68 67.98C137.96 67.96 138.16 67.88 138.34 67.68C138.6 67.3 138.96 66.26 139.36 64.98H139.58ZM148.3 58.62L149.42 56.98C149.42 56.98 150.76 58.1 151.52 58.86C151.48 59.08 151.26 59.18 150.98 59.18H147.74V60.56C152.78 62.06 150.88 65.56 149.08 64.1C148.94 63.08 148.36 61.94 147.74 61.06V70.12C147.74 70.26 147 70.78 145.88 70.78H145.46V63.38C144.46 64.98 143.2 66.38 141.7 67.58L141.46 67.34C143.1 65.16 144.24 62.08 144.86 59.18H141.92L141.76 58.62H145.46V55.08C144.24 55.22 142.98 55.34 141.82 55.4L141.76 55.12C144.22 54.38 147.32 53 148.86 52L151.34 54.28C151.1 54.46 150.66 54.5 150.02 54.26C149.36 54.42 148.58 54.58 147.74 54.74V58.62H148.3ZM153.92 66.46H156.8V55.86H153.92V66.46ZM157.7 54.04L159.98 55.84C159.86 56.02 159.56 56.18 159.16 56.28V68.52C159.12 68.68 158 69.16 157.18 69.16H156.8V67.04H153.92V68.66C153.92 68.92 153 69.48 151.98 69.48H151.6V54.28L154.02 55.3H156.58L157.7 54.04ZM168.94 56.14L168.76 55.56H172.86V52L175.78 52.26C175.76 52.52 175.6 52.7 175.14 52.78V55.56H176.9L178.1 54C178.1 54 179.48 55.06 180.32 55.82C180.26 56.04 180.06 56.14 179.76 56.14H175.14V59.2H176.52L177.68 57.7C177.68 57.7 179.02 58.72 179.82 59.46C179.78 59.68 179.56 59.78 179.26 59.78H169.62L169.46 59.2H172.86V56.14H168.94ZM164 57.16H165.08V54.72C164.96 54.88 164.78 54.98 164.46 55.02C164.34 55.74 164.18 56.46 164 57.16ZM169.76 60.64L169.82 60.86C169.14 61.32 168.32 61.92 167.28 62.58V69.96C167.28 70.2 166.32 70.74 165.5 70.74H165.08V63.96C164.64 64.24 164.16 64.52 163.64 64.82C163.58 65.08 163.38 65.26 163.16 65.34L161.68 62.82C162.4 62.66 163.62 62.36 165.08 61.96V57.72H163.84C163.4 59.32 162.78 60.8 162 61.92L161.7 61.78C162.16 59.66 162.42 56.7 162.46 54.08L165.08 54.48V52.08L168.02 52.38C167.96 52.66 167.82 52.86 167.28 52.94V57.06L168.22 55.52C168.22 55.52 169.38 56.66 170 57.4C169.96 57.62 169.76 57.72 169.48 57.72H167.28V61.34C168.1 61.12 168.92 60.9 169.76 60.64ZM177.42 62.48L178.58 60.96C178.58 60.96 179.86 62 180.64 62.72C180.58 62.94 180.38 63.04 180.1 63.04H177V68.2C177 69.76 176.6 70.6 173.82 70.84C173.74 70.16 173.62 69.68 173.22 69.34C172.82 69.02 172.3 68.78 171.1 68.6V68.34C171.1 68.34 173.76 68.5 174.24 68.5C174.6 68.5 174.7 68.38 174.7 68.1V63.04H168.5L168.34 62.48H174.7V60.1L177.7 60.36C177.64 60.66 177.46 60.82 177 60.88V62.48H177.42ZM169.54 63.56L169.72 63.44C175.24 64.68 173.5 68.64 171.44 67.18C171.16 65.96 170.28 64.52 169.54 63.56ZM191.86 54.96H188C187.36 55.82 186.62 56.68 185.82 57.46L186.7 57.8H190.54C191.04 57 191.54 55.82 191.86 54.96ZM195.64 58.38H192.1V62.72H195.64V58.38ZM186.44 58.38V62.72H189.84V58.38H186.44ZM199 64.82L199.02 67.64C200.04 67.94 200.38 68.08 200.38 68.58C200.38 69.64 199.5 70.32 195.54 70.32H188.46C185.48 70.32 184.12 69.58 184.12 67.1V59C183.32 59.64 182.46 60.22 181.6 60.68L181.42 60.5C183.62 58.5 185.8 54.9 186.8 51.9L190.08 52.7C190 52.94 189.84 53.02 189.3 53C189.04 53.46 188.74 53.92 188.42 54.38H191.82L193.06 53.12L195.24 55C195.1 55.18 194.86 55.24 194.44 55.28C193.58 56.08 192.3 57.12 191.08 57.8H195.42L196.52 56.58L198.86 58.36C198.72 58.52 198.44 58.72 198 58.8V64C197.98 64.16 196.82 64.62 196.02 64.62H195.64V63.3H186.44V67.16C186.44 67.9 187 68.12 188.36 68.12H195.32C196.54 68.12 197.1 68.04 197.52 67.58C197.88 67.14 198.42 65.9 198.78 64.82H199Z" fill="black"/>
<path d="M283 175.469L313 100L24 120.5L47.9853 175.469H283Z" fill="white"/>
<path d="M157.84 122.44L157.92 122.2C158.74 122.04 159.48 122.08 159.88 122.48C160.42 123.02 159.68 124.04 158.92 123.34C158.72 123.04 158.28 122.62 157.84 122.44ZM157.46 124.56L157.56 124.34C158.42 124.2 159.18 124.28 159.58 124.72C160.1 125.3 159.24 126.32 158.52 125.54C158.34 125.22 157.94 124.76 157.46 124.56ZM156.84 125.86H160.16C160.28 125.46 160.38 124.9 160.46 124.16H157.24C157.1 124.76 156.98 125.34 156.84 125.86ZM160.66 121.96H157.68C157.6 122.44 157.48 123 157.36 123.58H160.52C160.58 123.1 160.62 122.56 160.66 121.96ZM166.78 129.9L166.98 129.74C171.98 130.52 170.68 134.04 168.86 132.94C168.74 132.54 168.52 132.1 168.24 131.66C167.2 131.86 165.96 132.08 164.54 132.32V134.54C164.54 135.94 164.18 136.68 161.74 136.86C161.72 136.3 161.64 135.84 161.4 135.56C161.16 135.32 160.82 135.1 159.98 134.96V134.7C159.98 134.7 161.5 134.8 161.88 134.8C162.18 134.8 162.24 134.68 162.24 134.5V132.68C161.34 132.82 160.4 132.96 159.4 133.12L161.34 133.94C161.24 134.14 161.08 134.24 160.64 134.2C159.38 135.18 156.82 136.2 154.72 136.64L154.52 136.4C155.98 135.58 157.62 134.28 158.56 133.24L157.22 133.4C157.12 133.58 156.98 133.72 156.82 133.78L155.82 131.7C155.82 131.7 156.34 131.66 156.62 131.58C157.9 131.3 159.36 130.8 160.8 130.2C159.98 130.34 159.1 130.46 158.2 130.58C158.1 130.76 157.98 130.86 157.86 130.92L157.06 129.34C157.06 129.34 157.38 129.28 157.54 129.22C158.38 129 159.34 128.56 160.2 128.04C159.86 128.12 159.46 128.1 159.02 128.12C159.02 127.74 158.96 127.6 158.78 127.4C158.58 127.18 158.2 127.08 157.7 126.98V126.68C158.18 126.72 158.92 126.76 159.26 126.76C159.54 126.76 159.68 126.72 159.8 126.6C159.84 126.56 159.88 126.5 159.92 126.44H156.86L156.12 127.28L154.3 126.08C154.5 125.94 154.8 125.76 155.1 125.64C155.2 125.2 155.32 124.72 155.44 124.16H154.1L153.94 123.58H155.56C155.72 122.76 155.88 121.92 155.98 121.22C155.36 121.68 154.72 122.1 154.08 122.4L153.9 122.22C154.82 121.2 155.8 119.4 156.28 118L159.14 118.62C159.08 118.84 158.92 118.92 158.4 118.9C158.16 119.22 157.86 119.56 157.52 119.88H161.42L162.44 118.62C162.44 118.62 163.6 119.5 164.32 120.14C164.28 120.36 164.08 120.46 163.8 120.46H156.9L156.62 120.72L158.2 121.4H160.48L161.36 120.52L163.04 121.9C162.9 122.06 162.64 122.16 162.26 122.2C162.24 122.7 162.2 123.16 162.18 123.58H162.38L163.12 122.38C163.12 122.38 164 123.24 164.48 123.84C164.44 124.06 164.26 124.16 164 124.16H162.12C162.06 124.84 161.98 125.4 161.88 125.86H162L162.72 124.92C162.72 124.92 163.54 125.6 164.06 126.12C164.02 126.34 163.82 126.44 163.56 126.44H161.74C161.64 126.78 161.52 127.06 161.38 127.26C161.68 127.06 161.94 126.84 162.14 126.68L163.62 128.34C163.48 128.46 163.16 128.52 162.78 128.28C161.94 128.66 160.62 129.1 159.3 129.46C160.26 129.44 161.4 129.42 162.62 129.4C164.26 128.62 165.68 127.84 166.52 127.22L168.54 128.8C168.42 128.98 168.08 129.08 167.62 128.9C165.68 129.8 162.16 130.94 158.88 131.72C161.24 131.62 164.52 131.46 167.96 131.24C167.58 130.74 167.16 130.24 166.78 129.9ZM165.82 133.58L165.9 133.32C172.72 133.06 171.76 137.22 169.72 136.46C169.16 135.72 167.68 134.46 165.82 133.58ZM168.3 121.36H165.74C165.66 121.48 165.56 121.6 165.46 121.7C165.88 122.64 166.48 123.42 167.24 124.06C167.74 123.24 168.1 122.34 168.3 121.36ZM171.7 121.36H170.72C170.3 122.76 169.6 123.94 168.6 124.9C169.62 125.4 170.84 125.76 172.3 125.98L172.26 126.2C171.5 126.5 171.08 127.12 170.96 128.14C169.36 127.66 168.2 126.92 167.3 125.96C166.24 126.7 164.94 127.26 163.42 127.7L163.3 127.46C164.68 126.78 165.74 125.94 166.56 125C165.98 124.14 165.54 123.14 165.18 122.02C164.82 122.38 164.44 122.7 164.06 122.98L163.78 122.8C164.36 121.6 164.86 119.78 165.08 118.02L167.82 118.74C167.74 118.98 167.5 119.16 167.08 119.16C166.82 119.74 166.5 120.3 166.16 120.8H169.04L170.18 119.26C170.18 119.26 171.46 120.3 172.22 121.04C172.16 121.26 171.96 121.36 171.7 121.36ZM183.94 118.32L184.12 118.2C189.6 119.58 187.5 123.76 185.46 122.06C185.4 120.76 184.7 119.28 183.94 118.32ZM175.06 121.88H175.36C176.26 124.18 176.08 125.98 175.46 126.84C175.04 127.46 174.08 127.54 173.7 126.94C173.36 126.4 173.6 125.82 174.1 125.42C174.62 124.8 175.18 123.26 175.06 121.88ZM176.24 118.04L179.18 118.34C179.12 118.62 178.98 118.82 178.46 118.9V136.16C178.46 136.36 177.52 136.8 176.68 136.8H176.24V118.04ZM178.52 121.78L178.78 121.7C182.28 123.7 180.46 126.46 179.18 125.1C179.26 124 178.9 122.68 178.52 121.78ZM188.98 122.72L190.2 121.12C190.2 121.12 191.58 122.2 192.42 122.96C192.38 123.18 192.16 123.28 191.88 123.28H184.46V123.74V133.06C184.46 133.5 184.6 133.62 185.36 133.62H187.4C188.1 133.62 188.82 133.62 189.12 133.6C189.34 133.58 189.64 133.56 189.8 133.54C190 133.52 190.24 133.46 190.48 133.38H190.66L190.78 133.42C191.5 133.64 191.72 133.92 191.72 134.32C191.72 135.22 190.84 135.5 187.16 135.5H184.94C182.78 135.5 182.2 135.1 182.2 133.5V123.28H180.66L180.5 122.72H188.98ZM198.72 127.74L200.56 129.26C200.42 129.42 200.24 129.48 199.8 129.5C199.24 130.78 198.26 132.14 196.96 133.22C197.08 133.26 197.18 133.3 197.32 133.38C198.82 134.32 201.28 134.52 205.52 134.52C207.82 134.52 209.76 134.52 212.08 134.38V134.62C211.14 134.8 210.6 135.68 210.5 136.58H204.72C200.5 136.58 198.78 135.86 197.12 134.12C196.78 133.78 196.58 133.8 196.4 134.16C196.14 134.68 195.88 135.46 195.58 136.38C195.62 136.56 195.56 136.66 195.44 136.76L193.84 134.5C194.48 134.24 195.28 133.76 195.84 133.46C196.66 132.28 197.36 130.7 197.72 129.36H196.76L196.04 129.98L194.32 128.72C194.52 128.6 194.82 128.46 195.12 128.36C195.58 127.64 196.18 126.66 196.6 125.9H194.4L194.22 125.34H196.72L197.44 124.58C197.26 124.56 197.06 124.48 196.86 124.36C196.68 123.4 195.96 122.32 195.3 121.68L195.48 121.54C196.6 121.66 197.38 121.94 197.88 122.28L197.66 120.5H193.76L193.6 119.92H197.6L197.36 118L200.3 118.22C200.28 118.46 200.12 118.64 199.72 118.76L199.88 119.92H200.18L201.24 118.44C201.24 118.44 202.42 119.46 203.14 120.18C203.08 120.4 202.86 120.5 202.6 120.5H199.96L200.12 121.7C199.78 122.14 198.96 122.34 197.92 122.32C199.06 123.14 198.7 124.34 197.88 124.56L199.58 126.08C199.4 126.28 198.98 126.4 198.5 126.42C198.1 127.1 197.48 128.06 196.98 128.8H197.64L198.72 127.74ZM206.8 123.5H203.56C203.26 123.76 202.94 124.02 202.62 124.26C203.8 124.34 204.82 124.46 205.72 124.6C206.12 124.24 206.48 123.88 206.8 123.5ZM209.44 130.8H206.44V132H208.56L209.6 130.78C209.54 130.8 209.5 130.8 209.44 130.8ZM202.8 121.32L205.52 122.1C205.44 122.28 205.28 122.38 204.76 122.32C204.58 122.54 204.36 122.72 204.16 122.94H206.96L208.2 121.88L210.06 123.52C209.94 123.7 209.72 123.76 209.24 123.78C208.86 124.22 208.42 124.64 207.92 125.02C213.34 126.36 211.1 128.5 209.46 127.52C208.72 127.04 207.7 126.5 206.4 126C205.78 126.34 205.08 126.64 204.36 126.92L206.96 127.14C206.92 127.34 206.82 127.5 206.44 127.56V128.46H207.86L208.86 127.3C208.86 127.3 209.98 128.12 210.72 128.7C210.66 128.92 210.46 129.02 210.18 129.02H206.44V130.22H207.28L208.22 129.12C208.22 129.12 209.28 129.9 209.96 130.48C209.94 130.62 209.84 130.72 209.68 130.76C209.9 130.92 210.96 131.66 211.64 132.24C211.58 132.46 211.4 132.56 211.1 132.56H206.44V133.8C206.44 134 205.4 134.44 204.58 134.44H204.2V132.56H199.94L199.78 132H204.2V130.8H201.1L200.94 130.22H204.2V129.02H200.62L200.46 128.46H204.2V126.98C202.76 127.5 201.18 127.86 199.52 128.08L199.38 127.8C201.36 127.24 203.22 126.42 204.72 125.38C203.92 125.1 203.04 124.86 202.1 124.62C201.36 125.16 200.52 125.62 199.7 125.96L199.52 125.76C200.8 124.7 202.14 122.84 202.8 121.32ZM209.48 119.92L210.56 118.44C210.56 118.44 211.78 119.46 212.48 120.18C212.42 120.4 212.22 120.5 211.94 120.5H207.94L207.74 121.7C207.3 122.04 206.38 122.16 205.44 121.98L205.68 120.5H203.68L203.52 119.92H205.76L206.06 118L208.94 118.48C208.92 118.72 208.74 118.96 208.18 119L208.04 119.92H209.48ZM224.1 129.08L224.12 129.36C223.04 129.78 221.7 130.24 220.04 130.8V134.16C220.04 135.72 219.74 136.54 217.36 136.74C217.32 136.06 217.26 135.56 217.02 135.22C216.78 134.92 216.44 134.66 215.68 134.54V134.26C215.68 134.26 217.18 134.34 217.5 134.34C217.74 134.34 217.82 134.28 217.82 134.06V131.5C217 131.76 216.12 132.04 215.18 132.32C215.04 132.54 214.84 132.7 214.62 132.76L213.66 130.24C214.52 130.18 216.02 130.02 217.82 129.82V127.94L219.12 128.06C219.46 127.6 219.8 127.06 220.06 126.6H215.82L215.64 126.04H220.12L221.22 124.9L221.38 125.04C221.48 124.72 221.56 124.36 221.64 124.06H215.96C216.08 125.16 215.76 125.96 215.24 126.34C214.7 126.7 213.82 126.58 213.56 125.88C213.34 125.22 213.72 124.68 214.32 124.38C214.8 124.04 215.34 123.16 215.22 122.42H215.52C215.68 122.8 215.78 123.14 215.86 123.48H217.8V121.28H214L213.84 120.72H217.8V118L220.8 118.26C220.76 118.54 220.6 118.74 220.08 118.8V120.72H220.92L222.14 119.1C222.14 119.1 223.52 120.2 224.36 120.96C224.32 121.18 224.1 121.28 223.8 121.28H220.08V123.48H221.6L222.66 122.46L224.54 124.26C224.38 124.42 224.18 124.46 223.78 124.48C223.32 124.8 222.64 125.24 222.02 125.6L223.2 126.64C223.04 126.8 222.82 126.84 222.4 126.88C221.76 127.28 220.94 127.76 220.1 128.14L220.7 128.2C220.64 128.48 220.48 128.64 220.04 128.7V129.58C221.34 129.42 222.72 129.26 224.1 129.08ZM230.44 122L232.5 123.78C232.34 123.96 232.06 124.08 231.62 124.16C231.44 131.98 231.08 134.72 230.02 135.82C229.34 136.5 228.48 136.76 227.46 136.76C227.48 136.04 227.42 135.52 227.18 135.22C226.92 134.88 226.4 134.62 225.7 134.46V134.18C226.3 134.22 227.24 134.28 227.64 134.28C227.96 134.28 228.14 134.22 228.34 134.04C229.02 133.4 229.3 130.32 229.46 123.78H227.8C227.62 129.4 226.7 133.74 221.18 136.72L220.96 136.44C224.76 133.16 225.44 129.04 225.56 123.78H224.24L224.06 123.2H225.56C225.58 121.62 225.56 119.94 225.56 118.16L228.62 118.46C228.56 118.76 228.36 118.94 227.88 119.02C227.86 120.48 227.86 121.88 227.82 123.2H229.24L230.44 122ZM236.62 133.24H239.66V127.98H236.62V133.24ZM239.66 122.44H236.62V127.4H239.66V122.44ZM240.52 120.66L242.7 122.38C242.56 122.56 242.26 122.72 241.86 122.8V134.72C241.84 134.88 240.78 135.38 240 135.38H239.66V133.8H236.62V135.28C236.62 135.54 235.78 136.04 234.82 136.04H234.46V120.92L236.7 121.86H236.82C236.96 120.76 237.14 119.2 237.24 118.08L240.48 118.86C240.4 119.2 240.12 119.34 239.66 119.34C239.14 120.04 238.36 121.08 237.72 121.86H239.46L240.52 120.66ZM250.32 120.5L252.46 122.38C252.3 122.56 252.04 122.7 251.58 122.76C251.44 130.82 251.16 134.48 250.06 135.66C249.34 136.42 248.46 136.74 247.14 136.74C247.14 135.98 247.04 135.42 246.7 135.1C246.34 134.72 245.56 134.4 244.58 134.22L244.6 133.94C245.56 134.02 246.94 134.12 247.46 134.12C247.82 134.12 248 134.04 248.2 133.86C248.94 133.18 249.14 129.2 249.28 122.38H245.56C244.6 124.08 243.46 125.5 242.18 126.58L241.92 126.42C243.02 124.38 244.1 121.12 244.62 118.06L247.78 118.98C247.7 119.24 247.46 119.38 247 119.38C246.66 120.24 246.3 121.04 245.88 121.8H249.06L250.32 120.5ZM243.46 126L243.62 125.88C249.46 127.6 247.28 131.92 245.16 130.14C245.06 128.72 244.26 127.1 243.46 126ZM261.44 132.92H264.58V130.56H261.44V132.92ZM266.74 130.88V133.88C266.72 134.02 265.68 134.46 264.94 134.46H264.58V133.48H261.44V134.12C261.44 134.3 260.46 134.76 259.6 134.76H259.3V129.1L261.52 129.98H264.38L265.38 128.94L267.48 130.48C267.36 130.64 267.12 130.8 266.74 130.88ZM268.74 127.84L269.8 126.66L272.12 128.38C272 128.54 271.72 128.72 271.3 128.8V134.24C271.3 135.74 270.96 136.6 268.36 136.8C268.3 136.12 268.22 135.6 267.94 135.28C267.66 134.96 267.28 134.7 266.34 134.54V134.28C266.34 134.28 268.1 134.4 268.56 134.4C268.86 134.4 268.94 134.26 268.94 134.02V128.4H257.26V136.02C257.26 136.26 256.24 136.78 255.28 136.78H254.94V126.86L257.44 127.84H268.74ZM260.32 125.62H265.84V123.28H260.32V125.62ZM266.24 127.08H265.84V126.18H260.32V126.62C260.32 126.8 259.28 127.3 258.32 127.3H258V121.74L260.44 122.7H265.64L266.7 121.52L268.98 123.24C268.86 123.4 268.6 123.58 268.2 123.66V126.6C268.18 126.72 266.98 127.08 266.24 127.08ZM268.38 120.56L269.76 118.82C269.76 118.82 271.36 119.98 272.32 120.8C272.26 121.02 272.04 121.12 271.76 121.12H253.98L253.8 120.56H262.3C262.08 119.64 261.32 118.66 260.62 118.1L260.76 117.98C264.58 117.78 264.9 119.8 264 120.56H268.38ZM282.5 122.64H278.44C277.86 126.96 276.68 131.94 273.78 135.52L273.52 135.38C275.2 131.76 275.96 126.94 276.24 122.64H273.82L273.66 122.08H276.28C276.36 120.64 276.38 119.28 276.38 118.04L279.6 118.26C279.56 118.52 279.42 118.74 278.82 118.82C278.74 119.82 278.64 120.92 278.5 122.08H279.92L281 120.56C281 120.56 282.28 121.6 283.04 122.32C282.98 122.54 282.78 122.64 282.5 122.64ZM279.52 129.38L279.76 129.28C284.52 132.68 282.58 136.78 280.74 134.92C280.76 134.3 280.68 133.64 280.56 132.98C279.82 133.52 278.82 134.2 277.68 134.86C277.5 135.26 277.28 135.52 277 135.64L275.92 133.04C275.92 133.04 276.44 132.9 276.58 132.76C277.44 131.06 278.54 126.72 278.8 124.32L281.62 124.9C281.56 125.14 281.34 125.36 280.9 125.38C280.12 127.7 278.66 130.84 277.32 132.9C278.2 132.82 279.32 132.62 280.44 132.4C280.2 131.32 279.84 130.28 279.52 129.38ZM285.36 130.86V134.58H286.88V130.86H285.36ZM286.88 122.74H285.36V126.18H286.88V122.74ZM286.88 130.28V126.76H285.36V130.28H286.88ZM289.42 134.58L290.58 133.02C290.58 133.02 291.86 134.1 292.62 134.82C292.58 135.04 292.36 135.14 292.08 135.14H285.36V136.12C285.36 136.28 284.68 136.76 283.56 136.76H283.18V125.66C282.66 126.42 282.06 127.14 281.42 127.76L281.18 127.58C282.68 124.8 283.62 120.68 283.94 118.04L286.88 118.82C286.74 118.52 286.6 118.26 286.46 118.02L286.66 117.9C291.52 119.4 289.18 123.06 287.38 121.32C287.44 120.56 287.24 119.74 286.96 119.02C286.86 119.18 286.68 119.26 286.32 119.28C286.04 120.12 285.68 121.06 285.24 122.02L285.62 122.16H289.26L290.38 120.68C290.38 120.68 291.6 121.7 292.36 122.42C292.3 122.64 292.1 122.74 291.82 122.74H288.94V126.18H289.36L290.34 124.8C290.34 124.8 291.44 125.76 292.1 126.44C292.06 126.66 291.86 126.76 291.58 126.76H288.94V130.28H289.4L290.4 128.92C290.4 128.92 291.5 129.86 292.14 130.54C292.1 130.76 291.9 130.86 291.62 130.86H288.94V134.58H289.42ZM294.98 118.3L295.16 118.18C300.46 119 298.62 122.84 296.62 121.42C296.42 120.32 295.62 119.1 294.98 118.3ZM293.52 122.62L293.7 122.5C298.78 123.24 296.92 126.98 295.02 125.54C294.88 124.5 294.2 123.34 293.52 122.62ZM307.06 126.7L307.62 127.1C307.36 126.56 307.14 125.96 306.94 125.34H303.98C303.62 126.08 303.16 126.78 302.64 127.44L303.28 127.68H306.1L307.06 126.7ZM303.02 130.72H306.28V128.26H303.02V130.72ZM303.64 121.96V124.76H305.94V121.96H303.64ZM311.98 125.34H307.4C308.62 126.88 310.72 128 312.68 128.5L312.64 128.72C311.78 128.94 311.16 129.68 310.88 130.88C309.9 130.28 309.08 129.48 308.42 128.5V131.82C308.4 131.94 307.3 132.24 306.64 132.24H306.28V131.28H303.02V133.88C303.02 134.22 303.14 134.32 303.98 134.32H306.48C307.42 134.32 308.24 134.32 308.6 134.28C308.92 134.26 309.08 134.2 309.22 134C309.46 133.66 309.78 132.8 310.16 131.66H310.38L310.44 134.08C311.1 134.32 311.3 134.58 311.3 134.98C311.3 135.96 310.36 136.36 306.28 136.36H303.64C301.38 136.36 300.78 135.98 300.78 134.36V129.24C299.8 130.02 298.68 130.7 297.44 131.28L297.28 131.02C299.18 129.54 300.58 127.46 301.42 125.34H298.6L298.46 124.84C297.88 126.86 297.24 129.06 297.08 129.74C296.94 130.36 296.8 131.04 296.82 131.54C296.86 132.58 297.64 133.34 297.58 135.12C297.54 136.1 296.88 136.76 295.96 136.76C295.54 136.76 295.1 136.46 294.96 135.72C295.34 133.6 295.24 131.76 294.78 131.46C294.5 131.26 294.2 131.16 293.76 131.12V130.74H294.66C294.94 130.74 295.02 130.74 295.24 130.34C295.64 129.64 295.64 129.64 298.82 122.5L299.14 122.56C298.96 123.18 298.72 123.96 298.5 124.76H301.5V121.96H298.92L298.76 121.38H301.5V118.16L304.38 118.4C304.34 118.7 304.18 118.9 303.64 118.98V121.38H305.94V118.16L308.92 118.42C308.88 118.7 308.72 118.9 308.18 118.98V121.38H308.96L310.12 119.8C310.12 119.8 311.42 120.88 312.2 121.64C312.14 121.86 311.92 121.96 311.64 121.96H308.18V124.76H309.2L310.4 123.12C310.4 123.12 311.74 124.24 312.54 125.02C312.5 125.24 312.28 125.34 311.98 125.34ZM59.18 156.3V158.98H66.8V156.3H59.18ZM66.8 149.9H59.18V152.5H66.8V149.9ZM66.8 155.74V153.06H59.18V155.74H66.8ZM71.56 161.24L71.6 164.02C72.24 164.26 72.38 164.52 72.38 164.96C72.38 165.9 71.54 166.34 68.18 166.34H66.1C64.1 166.34 63.66 165.94 63.66 164.4V159.56H62.14C61.68 163.66 59.3 165.82 53.78 166.72L53.7 166.48C57.86 165.04 59.3 162.94 59.56 159.56H59.18V159.96C59.18 160.22 58.2 160.76 57.22 160.76H56.86V148.34L59.34 149.34H66.6L67.72 148.1L70 149.86C69.86 150.04 69.58 150.2 69.16 150.3V159.94C69.14 160.1 68 160.58 67.2 160.58H66.8V159.56H65.92V159.66V163.86C65.92 164.14 66 164.22 66.62 164.22H68.42C69.06 164.22 69.64 164.22 69.92 164.2C70.2 164.18 70.28 164.12 70.42 163.9C70.62 163.54 70.92 162.52 71.32 161.24H71.56ZM75.36 148.48L75.52 148.36C80.7 148.6 78.86 152.56 76.76 151.18C76.6 150.22 75.94 149.14 75.36 148.48ZM78.8 151.92L79.78 150.66C79.78 150.66 80.88 151.54 81.56 152.18C81.5 152.4 81.3 152.5 81.02 152.5H73.76L73.6 151.92H78.8ZM78.42 154.48L79.34 153.3C79.34 153.3 80.4 154.12 81.04 154.74C80.98 154.96 80.78 155.06 80.5 155.06H74.54L74.38 154.48H78.42ZM76.62 164.16H78.52V160.2H76.62V164.16ZM79.3 158.6L81.3 160.12C81.2 160.26 80.94 160.42 80.58 160.5V165.16C80.56 165.32 79.56 165.76 78.88 165.76H78.52V164.72H76.62V165.94C76.62 166.14 75.76 166.58 74.9 166.58H74.6V158.78L76.72 159.64H78.34L79.3 158.6ZM89.1 165.52L90.24 163.96C90.24 163.96 91.56 165.04 92.32 165.78C92.28 166 92.06 166.1 91.78 166.1H80.9L80.74 165.52H86.68C87.02 164.38 87.34 162.84 87.46 161.76L90.28 162.42C90.22 162.66 89.98 162.84 89.54 162.82C89 163.62 88.12 164.68 87.24 165.52H89.1ZM84.06 160.56H87.96V157.8H84.06V160.56ZM88.28 161.8H87.96V161.14H84.06V161.36C84.06 161.52 83.2 161.96 82.38 161.96H82.1V156.42L84.14 157.24H87.76L88.7 156.2L90.74 157.74C90.62 157.9 90.32 158.08 89.9 158.16V161.32C89.88 161.46 88.9 161.8 88.28 161.8ZM82.76 161.98L82.96 161.9C87.44 163.1 85.22 166.32 83.56 164.8C83.56 163.82 83.16 162.72 82.76 161.98ZM90.3 150.64L92.28 152C92.14 152.22 91.94 152.28 91.46 152.16C90.82 152.48 90.08 152.82 89.42 153.08C90.32 153.96 91.34 154.68 92.42 155.14L92.4 155.36C91.64 155.54 91.04 156.16 90.78 157.18C88.74 155.66 87.5 153.34 86.76 150.16C86.64 150.24 86.46 150.28 86.16 150.3C85.68 151.94 84.88 153.6 83.62 155H86.3L87.18 153.8C87.18 153.8 88.18 154.64 88.8 155.24C88.76 155.46 88.56 155.56 88.28 155.56H83.64L83.52 155.12C82.78 155.9 81.92 156.62 80.92 157.22L81.02 157.32C80.96 157.54 80.76 157.64 80.48 157.64H74.56L74.4 157.06H78.42L79.34 155.88C79.34 155.88 80.02 156.42 80.6 156.94C81.66 155.92 82.48 154.6 83.06 153.22C82.74 153.44 82.28 153.44 81.84 153.08C81.82 152.32 81.42 151.42 81 150.88L81.22 150.78C82.68 151.08 83.3 151.7 83.44 152.24C83.68 151.52 83.88 150.8 84 150.06H81L80.82 149.5H83.9L85 148.38L86.7 149.8C86.62 149.48 86.56 149.16 86.5 148.82L86.78 148.74C87 149.42 87.28 150.08 87.62 150.68C88.06 150.12 88.54 149.38 88.92 148.72L90.98 150.06C90.84 150.28 90.66 150.34 90.16 150.22C89.44 150.6 88.66 150.98 87.98 151.24C88.24 151.68 88.56 152.1 88.9 152.5C89.36 151.94 89.88 151.24 90.3 150.64ZM109.26 152.22L110 151.28C109.92 151.26 109.84 151.22 109.76 151.16C109.58 150.4 109 149.56 108.52 149.06C108.42 149.08 108.32 149.1 108.2 149.12C108.18 150.14 108.16 151.18 108.18 152.22H109.26ZM103.64 156.44H102.06V156.58C102.06 158.08 101.96 159.8 101.4 161.48C101.92 161.52 102.62 161.56 102.88 161.56C103.04 161.56 103.12 161.52 103.2 161.42C103.48 161.06 103.58 159.58 103.64 156.44ZM97.8 154.26V159.68C98.46 159.48 99.14 159.28 99.84 159.06C99.9 158.22 99.92 157.4 99.92 156.58V154.26H99.88H97.8ZM112.48 160.84L112.04 164.24C112.58 165.5 112.7 166.22 112.32 166.48C111.3 167.18 109.86 166.12 109.24 165.2C108.72 164.44 108.3 163.62 107.94 162.76C106.52 164.38 104.74 165.6 102.52 166.58L102.34 166.28C104.44 164.9 106.08 163.26 107.34 161.08C106.58 158.6 106.26 155.8 106.12 152.78H102.06V155.86H103.46L104.5 154.84L106.38 156.38C106.26 156.54 106 156.68 105.62 156.74C105.54 160.62 105.42 162.38 104.64 163.04C104.16 163.4 103.56 163.54 102.86 163.54C102.86 163.12 102.8 162.66 102.6 162.42C102.38 162.14 101.92 161.88 101.38 161.74V161.56C100.72 163.48 99.46 165.32 97.02 166.72L96.82 166.52C98.78 164.46 99.52 162.02 99.78 159.56C98.72 160.42 97.18 161.6 95.12 163C95.04 163.28 94.84 163.5 94.62 163.58L93.4 160.92C93.88 160.82 94.66 160.6 95.6 160.34V154.26H93.82L93.66 153.7H95.6V148.38L98.54 148.64C98.5 148.92 98.34 149.12 97.8 149.2V153.66L98.74 152.1C98.74 152.1 99.36 152.74 99.92 153.38V151.32L102.4 152.22H106.08C106.04 150.94 106.02 149.62 106.02 148.26L108.92 148.56C108.92 148.68 108.88 148.78 108.78 148.88C112.04 148.94 112 150.8 111.02 151.28C111.46 151.62 112.04 152.1 112.46 152.48C112.4 152.68 112.2 152.78 111.92 152.78H108.2C108.26 154.64 108.4 156.46 108.72 158.12C109.12 157.02 109.48 155.82 109.78 154.48L112.44 155.38C112.34 155.64 112.14 155.76 111.62 155.74C111.02 157.66 110.3 159.3 109.44 160.72C109.78 161.62 110.2 162.44 110.72 163.14C110.94 163.48 111.04 163.46 111.24 163.1C111.5 162.6 111.94 161.64 112.26 160.8L112.48 160.84ZM120.6 148.1L120.74 147.98C126.56 148.04 124.68 152.46 122.32 151.02C122.08 149.94 121.28 148.82 120.6 148.1ZM128.56 151.4L129.96 149.62C129.96 149.62 131.54 150.8 132.46 151.64C132.42 151.86 132.22 151.96 131.92 151.96H124.24V154.64H127.3L128.36 153.42L130.7 155.18C130.56 155.34 130.3 155.52 129.88 155.6V161.52C129.88 163.06 129.54 163.96 126.92 164.2C126.88 163.46 126.78 162.92 126.52 162.56C126.24 162.24 125.88 161.96 125 161.82V161.54C125 161.54 126.62 161.64 127.1 161.64C127.4 161.64 127.5 161.52 127.5 161.28V155.2H124.24V166.16C124.22 166.32 123.48 166.82 122.22 166.82H121.76V155.2H118.48V163.24C118.48 163.5 117.46 164.02 116.46 164.02H116.12V153.62L118.64 154.64H121.76V151.96H113.8L113.64 151.4H128.56ZM136.62 163.24H139.66V157.98H136.62V163.24ZM139.66 152.44H136.62V157.4H139.66V152.44ZM140.52 150.66L142.7 152.38C142.56 152.56 142.26 152.72 141.86 152.8V164.72C141.84 164.88 140.78 165.38 140 165.38H139.66V163.8H136.62V165.28C136.62 165.54 135.78 166.04 134.82 166.04H134.46V150.92L136.7 151.86H136.82C136.96 150.76 137.14 149.2 137.24 148.08L140.48 148.86C140.4 149.2 140.12 149.34 139.66 149.34C139.14 150.04 138.36 151.08 137.72 151.86H139.46L140.52 150.66ZM150.32 150.5L152.46 152.38C152.3 152.56 152.04 152.7 151.58 152.76C151.44 160.82 151.16 164.48 150.06 165.66C149.34 166.42 148.46 166.74 147.14 166.74C147.14 165.98 147.04 165.42 146.7 165.1C146.34 164.72 145.56 164.4 144.58 164.22L144.6 163.94C145.56 164.02 146.94 164.12 147.46 164.12C147.82 164.12 148 164.04 148.2 163.86C148.94 163.18 149.14 159.2 149.28 152.38H145.56C144.6 154.08 143.46 155.5 142.18 156.58L141.92 156.42C143.02 154.38 144.1 151.12 144.62 148.06L147.78 148.98C147.7 149.24 147.46 149.38 147 149.38C146.66 150.24 146.3 151.04 145.88 151.8H149.06L150.32 150.5ZM143.46 156L143.62 155.88C149.46 157.6 147.28 161.92 145.16 160.14C145.06 158.72 144.26 157.1 143.46 156ZM157.84 152.44L157.92 152.2C158.74 152.04 159.48 152.08 159.88 152.48C160.42 153.02 159.68 154.04 158.92 153.34C158.72 153.04 158.28 152.62 157.84 152.44ZM157.46 154.56L157.56 154.34C158.42 154.2 159.18 154.28 159.58 154.72C160.1 155.3 159.24 156.32 158.52 155.54C158.34 155.22 157.94 154.76 157.46 154.56ZM156.84 155.86H160.16C160.28 155.46 160.38 154.9 160.46 154.16H157.24C157.1 154.76 156.98 155.34 156.84 155.86ZM160.66 151.96H157.68C157.6 152.44 157.48 153 157.36 153.58H160.52C160.58 153.1 160.62 152.56 160.66 151.96ZM166.78 159.9L166.98 159.74C171.98 160.52 170.68 164.04 168.86 162.94C168.74 162.54 168.52 162.1 168.24 161.66C167.2 161.86 165.96 162.08 164.54 162.32V164.54C164.54 165.94 164.18 166.68 161.74 166.86C161.72 166.3 161.64 165.84 161.4 165.56C161.16 165.32 160.82 165.1 159.98 164.96V164.7C159.98 164.7 161.5 164.8 161.88 164.8C162.18 164.8 162.24 164.68 162.24 164.5V162.68C161.34 162.82 160.4 162.96 159.4 163.12L161.34 163.94C161.24 164.14 161.08 164.24 160.64 164.2C159.38 165.18 156.82 166.2 154.72 166.64L154.52 166.4C155.98 165.58 157.62 164.28 158.56 163.24L157.22 163.4C157.12 163.58 156.98 163.72 156.82 163.78L155.82 161.7C155.82 161.7 156.34 161.66 156.62 161.58C157.9 161.3 159.36 160.8 160.8 160.2C159.98 160.34 159.1 160.46 158.2 160.58C158.1 160.76 157.98 160.86 157.86 160.92L157.06 159.34C157.06 159.34 157.38 159.28 157.54 159.22C158.38 159 159.34 158.56 160.2 158.04C159.86 158.12 159.46 158.1 159.02 158.12C159.02 157.74 158.96 157.6 158.78 157.4C158.58 157.18 158.2 157.08 157.7 156.98V156.68C158.18 156.72 158.92 156.76 159.26 156.76C159.54 156.76 159.68 156.72 159.8 156.6C159.84 156.56 159.88 156.5 159.92 156.44H156.86L156.12 157.28L154.3 156.08C154.5 155.94 154.8 155.76 155.1 155.64C155.2 155.2 155.32 154.72 155.44 154.16H154.1L153.94 153.58H155.56C155.72 152.76 155.88 151.92 155.98 151.22C155.36 151.68 154.72 152.1 154.08 152.4L153.9 152.22C154.82 151.2 155.8 149.4 156.28 148L159.14 148.62C159.08 148.84 158.92 148.92 158.4 148.9C158.16 149.22 157.86 149.56 157.52 149.88H161.42L162.44 148.62C162.44 148.62 163.6 149.5 164.32 150.14C164.28 150.36 164.08 150.46 163.8 150.46H156.9L156.62 150.72L158.2 151.4H160.48L161.36 150.52L163.04 151.9C162.9 152.06 162.64 152.16 162.26 152.2C162.24 152.7 162.2 153.16 162.18 153.58H162.38L163.12 152.38C163.12 152.38 164 153.24 164.48 153.84C164.44 154.06 164.26 154.16 164 154.16H162.12C162.06 154.84 161.98 155.4 161.88 155.86H162L162.72 154.92C162.72 154.92 163.54 155.6 164.06 156.12C164.02 156.34 163.82 156.44 163.56 156.44H161.74C161.64 156.78 161.52 157.06 161.38 157.26C161.68 157.06 161.94 156.84 162.14 156.68L163.62 158.34C163.48 158.46 163.16 158.52 162.78 158.28C161.94 158.66 160.62 159.1 159.3 159.46C160.26 159.44 161.4 159.42 162.62 159.4C164.26 158.62 165.68 157.84 166.52 157.22L168.54 158.8C168.42 158.98 168.08 159.08 167.62 158.9C165.68 159.8 162.16 160.94 158.88 161.72C161.24 161.62 164.52 161.46 167.96 161.24C167.58 160.74 167.16 160.24 166.78 159.9ZM165.82 163.58L165.9 163.32C172.72 163.06 171.76 167.22 169.72 166.46C169.16 165.72 167.68 164.46 165.82 163.58ZM168.3 151.36H165.74C165.66 151.48 165.56 151.6 165.46 151.7C165.88 152.64 166.48 153.42 167.24 154.06C167.74 153.24 168.1 152.34 168.3 151.36ZM171.7 151.36H170.72C170.3 152.76 169.6 153.94 168.6 154.9C169.62 155.4 170.84 155.76 172.3 155.98L172.26 156.2C171.5 156.5 171.08 157.12 170.96 158.14C169.36 157.66 168.2 156.92 167.3 155.96C166.24 156.7 164.94 157.26 163.42 157.7L163.3 157.46C164.68 156.78 165.74 155.94 166.56 155C165.98 154.14 165.54 153.14 165.18 152.02C164.82 152.38 164.44 152.7 164.06 152.98L163.78 152.8C164.36 151.6 164.86 149.78 165.08 148.02L167.82 148.74C167.74 148.98 167.5 149.16 167.08 149.16C166.82 149.74 166.5 150.3 166.16 150.8H169.04L170.18 149.26C170.18 149.26 171.46 150.3 172.22 151.04C172.16 151.26 171.96 151.36 171.7 151.36ZM182.92 149.58L183.14 149.48C187.28 150.8 185.5 153.7 184.02 152.38C183.92 151.44 183.4 150.32 182.92 149.58ZM174.68 149.62L174.9 149.5C178.98 150.96 177.14 153.9 175.64 152.54C175.58 151.56 175.12 150.38 174.68 149.62ZM174.74 166L174.56 165.76C175.98 164.68 177.68 162.72 178.86 160.64L181.44 162.38C181.32 162.56 181.02 162.68 180.56 162.56C178.88 164.22 176.76 165.34 174.74 166ZM184.98 161.28L185.16 161.14C192.26 162.46 191.12 166.98 188.72 165.78C187.98 164.28 186.26 162.46 184.98 161.28ZM190.64 155.64L192.1 157.06C191.96 157.22 191.76 157.28 191.34 157.3C190.78 157.74 189.86 158.4 189.22 158.76C189.62 159.08 190.14 159.52 190.52 159.86C190.46 160.08 190.26 160.18 189.98 160.18H184.2V166.24C184.2 166.42 183.14 166.86 182.22 166.86H181.78V160.18H175.66L175.5 159.6H181.78V157.08L184.88 157.34C184.84 157.6 184.7 157.78 184.2 157.86V159.6H187.44L188.52 158.2L189 158.58C189.06 158.12 189.12 157.44 189.16 156.88H176.34C176.7 160.38 172.3 159.32 174.2 157.02C174.82 156.74 175.46 156.14 175.7 155.38C175.36 155.52 174.98 155.64 174.58 155.74L174.4 155.52C177.42 154.08 177.94 151.9 177.94 150.04V148.06L180.6 148.32C180.56 148.58 180.42 148.78 179.94 148.84V150.1C179.94 150.48 179.9 150.84 179.82 151.24C180.5 150.54 181.2 149.7 181.56 149.2L183.3 151.1C183.16 151.24 182.84 151.3 182.5 151.08C181.84 151.38 180.68 151.76 179.58 152.04C179.54 152.16 179.5 152.28 179.44 152.38C184.1 152.78 182.96 156.32 181.08 155.3C180.78 154.44 180 153.46 179.22 152.8C178.64 153.78 177.6 154.66 175.82 155.34H175.96C176.08 155.68 176.18 156 176.24 156.3H188.98L189.58 155.68C189.54 155.66 189.48 155.64 189.42 155.6C189.08 154.72 188.26 153.72 187.48 152.96C186.74 154.16 185.28 155.22 182.54 155.88L182.4 155.64C185.54 154.28 186.14 152.2 186.14 150.34V148.06L188.84 148.32C188.8 148.56 188.64 148.76 188.18 148.82V150.38C188.18 150.62 188.16 150.84 188.12 151.08C188.86 150.44 189.6 149.7 189.98 149.24L191.52 151.18C191.38 151.3 191.04 151.34 190.68 151.1C190.08 151.34 188.98 151.68 187.94 151.94C187.9 152.1 187.84 152.26 187.76 152.42C191.3 153.02 191.54 155.06 190.64 155.64ZM200.3 154.62L201.42 152.98C201.42 152.98 202.76 154.1 203.52 154.86C203.48 155.08 203.26 155.18 202.98 155.18H199.74V156.56C204.78 158.06 202.88 161.56 201.08 160.1C200.94 159.08 200.36 157.94 199.74 157.06V166.12C199.74 166.26 199 166.78 197.88 166.78H197.46V159.38C196.46 160.98 195.2 162.38 193.7 163.58L193.46 163.34C195.1 161.16 196.24 158.08 196.86 155.18H193.92L193.76 154.62H197.46V151.08C196.24 151.22 194.98 151.34 193.82 151.4L193.76 151.12C196.22 150.38 199.32 149 200.86 148L203.34 150.28C203.1 150.46 202.66 150.5 202.02 150.26C201.36 150.42 200.58 150.58 199.74 150.74V154.62H200.3ZM205.92 162.46H208.8V151.86H205.92V162.46ZM209.7 150.04L211.98 151.84C211.86 152.02 211.56 152.18 211.16 152.28V164.52C211.12 164.68 210 165.16 209.18 165.16H208.8V163.04H205.92V164.66C205.92 164.92 205 165.48 203.98 165.48H203.6V150.28L206.02 151.3H208.58L209.7 150.04ZM214.06 166.8L213.98 166.54C216.52 165.76 219.36 164.22 220.7 163.04L223.24 164.8C223.04 165.02 222.66 165.1 222.04 164.92C220.14 165.82 216.98 166.56 214.06 166.8ZM223.86 163.94L223.94 163.68C235.28 163.86 231.28 167.96 229.14 166.44C228.16 165.64 226.38 164.62 223.86 163.94ZM219.46 162.36H227.3V160.74H219.46V162.36ZM227.3 158.56H219.46V160.16H227.3V158.56ZM227.3 156.34H219.46V157.98H227.3V156.34ZM230.22 148.28L232.16 149.86C232.02 150.02 231.8 150.12 231.42 150.18C231.3 152.96 231.04 154.14 230.26 154.68C229.88 154.94 229.44 155.1 228.9 155.16L230.38 156.3C230.26 156.44 230.02 156.6 229.66 156.66V163.1C229.64 163.26 228.46 163.68 227.7 163.68H227.3V162.94H219.46V163.36C219.46 163.56 218.44 164.1 217.5 164.1H217.14V155.22C216.8 155.4 216.44 155.6 216.08 155.78C215.92 156.04 215.7 156.22 215.5 156.32L214.5 154.2C215.24 153.84 215.34 153.64 215.34 153.28V148.92L217.64 149.66C218.86 149.12 220.14 148.42 220.78 147.96L222.66 149.74C222.52 149.88 222.26 149.88 221.96 149.74C220.98 149.96 219.16 150.24 217.48 150.36V153.6C218.28 153.42 219.14 153.22 220.04 153C219.7 152.34 219.24 151.68 218.8 151.22L218.98 151.1C224.06 152.04 222.4 155.86 220.5 154.48C220.46 154.16 220.36 153.8 220.24 153.46C219.54 153.88 218.64 154.4 217.6 154.98L219.58 155.76H227.12L228.18 154.62L228.2 154.64C228.16 154.3 228.08 154.02 227.94 153.82C227.7 153.56 227.32 153.36 226.74 153.22V152.96C227.2 153 228 153.04 228.32 153.04C228.6 153.04 228.74 153.02 228.82 152.9C229.08 152.68 229.24 151.74 229.32 149.88H227.24C226.94 152.16 225.96 154.28 221.68 155.72L221.46 155.44C224.38 153.74 224.78 151.82 224.9 149.88H222.88L222.7 149.3H229.14L230.22 148.28ZM246.64 149.9H239.4V152.3H246.64V149.9ZM239.4 155.36H246.64V152.86H239.4V155.36ZM249.56 157.12L251.7 158.92C251.56 159.1 251.3 159.22 250.86 159.28C250.4 162.88 249.56 165.22 248.32 166.08C247.56 166.58 246.68 166.8 245.54 166.78C245.54 166.12 245.46 165.52 245.16 165.2C244.82 164.84 244.12 164.54 243.24 164.36V164.1C244.12 164.18 245.5 164.28 245.98 164.28C246.32 164.28 246.52 164.24 246.78 164.08C247.44 163.62 248.08 161.62 248.44 158.86H247.2C245.66 162.6 242.58 165.28 237.66 166.84L237.5 166.58C240.98 164.82 243.32 162.06 244.48 158.86H243.52C241.8 161.6 238.76 163.7 235.02 165.06L234.86 164.8C237.38 163.3 239.52 161.08 240.8 158.86H239.7C238.16 160.12 236.16 161.3 233.94 161.98L233.8 161.82C235.72 160.56 237.46 158.66 238.56 156.98C238.22 157.1 237.82 157.18 237.42 157.18H237.08V148.36L239.54 149.34H246.44L247.54 148.14L249.82 149.88C249.7 150.04 249.42 150.22 249.02 150.3V156.36C249 156.5 247.8 156.94 247.04 156.94H246.64V155.92H240.12L242.54 156.7C242.46 156.94 242.2 157.1 241.56 157.1C241.22 157.5 240.82 157.9 240.36 158.3H248.3L249.56 157.12ZM256.62 163.24H259.66V157.98H256.62V163.24ZM259.66 152.44H256.62V157.4H259.66V152.44ZM260.52 150.66L262.7 152.38C262.56 152.56 262.26 152.72 261.86 152.8V164.72C261.84 164.88 260.78 165.38 260 165.38H259.66V163.8H256.62V165.28C256.62 165.54 255.78 166.04 254.82 166.04H254.46V150.92L256.7 151.86H256.82C256.96 150.76 257.14 149.2 257.24 148.08L260.48 148.86C260.4 149.2 260.12 149.34 259.66 149.34C259.14 150.04 258.36 151.08 257.72 151.86H259.46L260.52 150.66ZM270.32 150.5L272.46 152.38C272.3 152.56 272.04 152.7 271.58 152.76C271.44 160.82 271.16 164.48 270.06 165.66C269.34 166.42 268.46 166.74 267.14 166.74C267.14 165.98 267.04 165.42 266.7 165.1C266.34 164.72 265.56 164.4 264.58 164.22L264.6 163.94C265.56 164.02 266.94 164.12 267.46 164.12C267.82 164.12 268 164.04 268.2 163.86C268.94 163.18 269.14 159.2 269.28 152.38H265.56C264.6 154.08 263.46 155.5 262.18 156.58L261.92 156.42C263.02 154.38 264.1 151.12 264.62 148.06L267.78 148.98C267.7 149.24 267.46 149.38 267 149.38C266.66 150.24 266.3 151.04 265.88 151.8H269.06L270.32 150.5ZM263.46 156L263.62 155.88C269.46 157.6 267.28 161.92 265.16 160.14C265.06 158.72 264.26 157.1 263.46 156ZM276.46 153.72V155.52C276.46 156.32 276.46 157.16 276.42 158.04C276.96 157.8 277.72 157.42 278.56 156.98V154.82C278.42 154.86 278.24 154.88 278.04 154.84C277.68 154.48 277.08 154.04 276.46 153.72ZM278.56 149.9H276.46V152.96C277.46 152.8 278.12 152.94 278.56 153.18V149.9ZM280.4 150.16V164.38C280.4 165.74 280.14 166.48 278.06 166.68C278 166.1 277.94 165.64 277.72 165.38C277.48 165.1 277.12 164.88 276.38 164.76V164.46C276.38 164.46 277.86 164.56 278.18 164.56C278.5 164.56 278.56 164.44 278.56 164.18V158.1C278.24 158.54 277.86 159.04 277.48 159.58C277.46 159.82 277.32 160.06 277.12 160.18L276.38 158.8C276.2 161.58 275.62 164.54 273.64 166.82L273.36 166.66C274.66 163.4 274.64 159.28 274.64 155.56V148.5L276.78 149.32H278.38L279.24 148.3L281.14 149.78C281.02 149.94 280.76 150.08 280.4 150.16ZM283.92 151V156.2C283.92 159.62 283.76 163.88 280.28 166.8L280.02 166.58C281.76 163.52 281.88 159.74 281.88 156.16V149.42L284.1 150.4C286.3 149.78 288.72 148.86 290.04 148.14L292.3 150.18C292.08 150.36 291.64 150.4 291.04 150.18C289.26 150.56 286.46 150.88 283.92 151ZM290.3 154.32L292.4 156.32C292.28 156.46 291.98 156.54 291.62 156.36C290.96 156.78 289.74 157.44 288.62 157.96C289.38 160.78 290.6 163.16 292.54 164.32L292.5 164.54C291.82 164.8 291.2 165.52 290.92 166.6C288.26 163.84 287.68 159.62 287.48 153.3C287.16 153.32 286.86 153.34 286.56 153.36V163.88C287.14 163.7 287.76 163.5 288.38 163.3L288.48 163.54C287.92 164.06 286.72 165.12 285.38 166.18C285.2 166.5 284.96 166.7 284.76 166.8L283.72 164.66C284.46 164.3 284.58 164.12 284.58 163.68V152.16L286.38 152.6C287.66 152.1 288.96 151.46 289.7 150.96L291.78 152.88C291.56 153.04 291.14 153.08 290.6 152.88C289.88 153.04 288.88 153.18 287.82 153.28C287.94 154.7 288.16 156.1 288.48 157.44C289.18 156.38 289.94 155.02 290.3 154.32ZM296.28 158.9H297.76V157.02H296.28V158.9ZM297.76 154.54H296.28V156.44H297.76V154.54ZM301.32 154.54H299.8V156.44H301.32V154.54ZM299.8 158.9H301.32V157.02H299.8V158.9ZM303.92 163L303.96 163.26C302.08 164 299.36 164.94 295.32 166.14C295.18 166.4 294.96 166.56 294.72 166.6L293.72 163.84C294.58 163.8 296.02 163.7 297.76 163.56V161.88H294.14L293.98 161.32H297.76V159.48H296.28V159.8C296.28 159.96 295.64 160.3 294.64 160.3H294.28V153.1L296.5 153.98H297.76V152.52H293.82L293.66 151.96H297.76V150.44C296.4 150.52 295 150.58 293.72 150.58L293.68 150.26C296.48 149.74 300.12 148.72 301.98 147.96L304 150.02C303.78 150.22 303.34 150.2 302.76 149.96C301.92 150.08 300.9 150.18 299.8 150.28V151.96H301.3L302.42 150.56C302.42 150.56 303.7 151.52 304.48 152.22C304.44 152.44 304.24 152.52 303.94 152.52H299.8V153.98H301.26L302.24 152.84L304.18 154.32C304.06 154.48 303.88 154.6 303.44 154.68V159.46C303.44 159.56 302.74 159.94 301.7 159.94H301.32V159.48H299.8V161.32H300.96L302.02 160C302.02 160 303.22 160.92 303.98 161.56C303.92 161.78 303.72 161.88 303.44 161.88H299.8V163.38C301.1 163.26 302.5 163.14 303.92 163ZM310.54 151.86L312.58 153.62C312.44 153.8 312.16 153.94 311.72 154C311.6 161.96 311.36 164.6 310.34 165.66C309.72 166.34 308.86 166.6 307.84 166.6C307.86 165.88 307.8 165.38 307.56 165.06C307.3 164.72 306.78 164.48 306.1 164.3V164.02C306.7 164.08 307.6 164.14 308 164.14C308.3 164.14 308.48 164.06 308.66 163.9C309.28 163.3 309.46 160.26 309.58 153.64H307.76C307.64 159.62 306.94 163.92 301.76 166.82L301.54 166.52C305.02 163.32 305.52 159.22 305.58 153.64H303.82L303.64 153.06H305.58C305.58 151.56 305.56 149.98 305.56 148.26L308.54 148.54C308.48 148.84 308.28 149.04 307.8 149.1C307.78 150.5 307.78 151.82 307.76 153.06H309.36L310.54 151.86Z" fill="black"/>
</svg>
