<svg width="1186" height="196" viewBox="0 0 1186 196" fill="none" xmlns="http://www.w3.org/2000/svg">
<path d="M89 192L0 0L1112 100L1061.5 172.5L89 192Z" fill="white"/>
<path d="M17.568 52.792L18 52.504C33.792 56.968 29.328 68.152 23.664 64.072C22.752 60.232 19.92 55.816 17.568 52.792ZM25.392 72.712L25.536 73.288C21.072 76.216 14.784 79.912 5.424 84.328C5.184 84.904 4.704 85.432 4.176 85.624L1.104 79.144C2.688 78.856 4.944 78.376 7.632 77.704L7.152 46.936L14.688 47.464C14.64 48.136 14.304 48.664 12.96 48.856L13.392 76.168C17.184 75.16 21.36 73.96 25.392 72.712ZM35.568 47.08L43.632 47.8C43.488 48.568 42.912 49.144 41.808 49.24C41.328 59.608 40.752 68.248 36.048 75.16C50.928 80.728 47.232 91.48 41.376 87.784C40.08 84.28 37.344 80.296 34.656 76.984C30.432 82.072 23.52 86.152 12.192 89.272L11.76 88.504C34.368 78.28 35.28 66.04 35.568 47.08ZM68.256 80.008H75.792V74.344H68.256V80.008ZM80.976 75.112V82.312C80.928 82.648 78.432 83.704 76.656 83.704H75.792V81.352H68.256V82.888C68.256 83.32 65.904 84.424 63.84 84.424H63.12V70.84L68.448 72.952H75.312L77.712 70.456L82.752 74.152C82.464 74.536 81.888 74.92 80.976 75.112ZM85.776 67.816L88.32 64.984L93.888 69.112C93.6 69.496 92.928 69.928 91.92 70.12V83.176C91.92 86.776 91.104 88.84 84.864 89.32C84.72 87.688 84.528 86.44 83.856 85.672C83.184 84.904 82.272 84.28 80.016 83.896V83.272C80.016 83.272 84.24 83.56 85.344 83.56C86.064 83.56 86.256 83.224 86.256 82.648V69.16H58.224V87.448C58.224 88.024 55.776 89.272 53.472 89.272H52.656V65.464L58.656 67.816H85.776ZM65.568 62.488H78.816V56.872H65.568V62.488ZM79.776 65.992H78.816V63.832H65.568V64.888C65.568 65.32 63.072 66.52 60.768 66.52H60V53.176L65.856 55.48H78.336L80.88 52.648L86.352 56.776C86.064 57.16 85.44 57.592 84.48 57.784V64.84C84.432 65.128 81.552 65.992 79.776 65.992ZM84.912 50.344L88.224 46.168C88.224 46.168 92.064 48.952 94.368 50.92C94.224 51.448 93.696 51.688 93.024 51.688H50.352L49.92 50.344H70.32C69.792 48.136 67.968 45.784 66.288 44.44L66.624 44.152C75.792 43.672 76.56 48.52 74.4 50.344H84.912ZM118.8 55.336H109.056C107.664 65.704 104.832 77.656 97.872 86.248L97.248 85.912C101.28 77.224 103.104 65.656 103.776 55.336H97.968L97.584 53.992H103.872C104.064 50.536 104.112 47.272 104.112 44.296L111.84 44.824C111.744 45.448 111.408 45.976 109.968 46.168C109.776 48.568 109.536 51.208 109.2 53.992H112.608L115.2 50.344C115.2 50.344 118.272 52.84 120.096 54.568C119.952 55.096 119.472 55.336 118.8 55.336ZM111.648 71.512L112.224 71.272C123.648 79.432 118.992 89.272 114.576 84.808C114.624 83.32 114.432 81.736 114.144 80.152C112.368 81.448 109.968 83.08 107.232 84.664C106.8 85.624 106.272 86.248 105.6 86.536L103.008 80.296C103.008 80.296 104.256 79.96 104.592 79.624C106.656 75.544 109.296 65.128 109.92 59.368L116.688 60.76C116.544 61.336 116.016 61.864 114.96 61.912C113.088 67.48 109.584 75.016 106.368 79.96C108.48 79.768 111.168 79.288 113.856 78.76C113.28 76.168 112.416 73.672 111.648 71.512ZM125.664 75.064V83.992H129.312V75.064H125.664ZM129.312 55.576H125.664V63.832H129.312V55.576ZM129.312 73.672V65.224H125.664V73.672H129.312ZM135.408 83.992L138.192 80.248C138.192 80.248 141.264 82.84 143.088 84.568C142.992 85.096 142.464 85.336 141.792 85.336H125.664V87.688C125.664 88.072 124.032 89.224 121.344 89.224H120.432V62.584C119.184 64.408 117.744 66.136 116.208 67.624L115.632 67.192C119.232 60.52 121.488 50.632 122.256 44.296L129.312 46.168C128.976 45.448 128.64 44.824 128.304 44.248L128.784 43.96C140.448 47.56 134.832 56.344 130.512 52.168C130.656 50.344 130.176 48.376 129.504 46.648C129.264 47.032 128.832 47.224 127.968 47.272C127.296 49.288 126.432 51.544 125.376 53.848L126.288 54.184H135.024L137.712 50.632C137.712 50.632 140.64 53.08 142.464 54.808C142.32 55.336 141.84 55.576 141.168 55.576H134.256V63.832H135.264L137.616 60.52C137.616 60.52 140.256 62.824 141.84 64.456C141.744 64.984 141.264 65.224 140.592 65.224H134.256V73.672H135.36L137.76 70.408C137.76 70.408 140.4 72.664 141.936 74.296C141.84 74.824 141.36 75.064 140.688 75.064H134.256V83.992H135.408ZM148.752 44.92L149.184 44.632C161.904 46.6 157.488 55.816 152.688 52.408C152.208 49.768 150.288 46.84 148.752 44.92ZM145.248 55.288L145.68 55C157.872 56.776 153.408 65.752 148.848 62.296C148.512 59.8 146.88 57.016 145.248 55.288ZM177.744 65.08L179.088 66.04C178.464 64.744 177.936 63.304 177.456 61.816H170.352C169.488 63.592 168.384 65.272 167.136 66.856L168.672 67.432H175.44L177.744 65.08ZM168.048 74.728H175.872V68.824H168.048V74.728ZM169.536 53.704V60.424H175.056V53.704H169.536ZM189.552 61.816H178.56C181.488 65.512 186.528 68.2 191.232 69.4L191.136 69.928C189.072 70.456 187.584 72.232 186.912 75.112C184.56 73.672 182.592 71.752 181.008 69.4V77.368C180.96 77.656 178.32 78.376 176.736 78.376H175.872V76.072H168.048V82.312C168.048 83.128 168.336 83.368 170.352 83.368H176.352C178.608 83.368 180.576 83.368 181.44 83.272C182.208 83.224 182.592 83.08 182.928 82.6C183.504 81.784 184.272 79.72 185.184 76.984H185.712L185.856 82.792C187.44 83.368 187.92 83.992 187.92 84.952C187.92 87.304 185.664 88.264 175.872 88.264H169.536C164.112 88.264 162.672 87.352 162.672 83.464V71.176C160.32 73.048 157.632 74.68 154.656 76.072L154.272 75.448C158.832 71.896 162.192 66.904 164.208 61.816H157.44L157.104 60.616C155.712 65.464 154.176 70.744 153.792 72.376C153.456 73.864 153.12 75.496 153.168 76.696C153.264 79.192 155.136 81.016 154.992 85.288C154.896 87.64 153.312 89.224 151.104 89.224C150.096 89.224 149.04 88.504 148.704 86.728C149.616 81.64 149.376 77.224 148.272 76.504C147.6 76.024 146.88 75.784 145.824 75.688V74.776H147.984C148.656 74.776 148.848 74.776 149.376 73.816C150.336 72.136 150.336 72.136 157.968 55L158.736 55.144C158.304 56.632 157.728 58.504 157.2 60.424H164.4V53.704H158.208L157.824 52.312H164.4V44.584L171.312 45.16C171.216 45.88 170.832 46.36 169.536 46.552V52.312H175.056V44.584L182.208 45.208C182.112 45.88 181.728 46.36 180.432 46.552V52.312H182.304L185.088 48.52C185.088 48.52 188.208 51.112 190.08 52.936C189.936 53.464 189.408 53.704 188.736 53.704H180.432V60.424H182.88L185.76 56.488C185.76 56.488 188.976 59.176 190.896 61.048C190.8 61.576 190.272 61.816 189.552 61.816ZM199.824 44.872L200.208 44.584C213.504 46.648 208.704 56.584 203.616 52.84C203.28 50.008 201.552 46.888 199.824 44.872ZM202.032 75.4L202.704 75.352C205.344 81.64 203.376 85.96 200.832 87.4C199.104 88.408 196.944 87.976 196.272 86.2C195.744 84.52 196.752 83.224 198.192 82.456C200.16 81.448 202.224 78.712 202.032 75.4ZM207.36 75.448L207.936 75.304C217.152 81.784 210.576 89.608 207.072 84.76C207.936 81.64 207.888 78.136 207.36 75.448ZM213.408 75.112L213.888 74.872C225.168 78.184 220.272 86.68 216.048 82.936C216.048 80.248 214.752 77.176 213.408 75.112ZM220.176 74.344L220.56 74.008C231.888 74.392 228.624 82.984 224.16 80.344C223.68 78.184 221.856 75.688 220.176 74.344ZM222.672 56.392H215.04C213.984 58.6 212.784 60.76 211.392 62.92H221.184L222.672 56.392ZM227.28 64.264H210.528C208.944 66.568 207.168 68.872 205.152 70.984H225.984L227.28 64.264ZM234.288 68.392L239.184 72.424C238.8 72.76 238.224 73.096 237.216 73.192C236.496 81.64 235.056 86.056 232.656 87.784C231.12 88.888 229.2 89.368 226.848 89.368C226.848 87.88 226.656 86.584 226.032 85.864C225.36 85.096 224.064 84.52 222.336 84.136V83.464C223.92 83.656 226.56 83.8 227.52 83.8C228.288 83.8 228.672 83.704 229.152 83.368C230.304 82.456 231.408 78.712 231.984 72.376H203.808C200.88 75.304 197.424 77.992 193.488 80.2L193.008 79.768C200.496 73.672 205.872 64.984 209.472 56.392H197.04L196.608 55H210.048C211.536 51.16 212.688 47.368 213.504 43.864L220.848 46.072C220.656 46.648 220.224 46.984 218.928 46.984C218.064 49.576 217.008 52.264 215.712 55H222.576L224.64 52.792L229.344 56.344C228.96 56.776 228.528 56.92 227.664 57.016L226.272 62.92H227.04L229.056 60.712L233.664 64.216C233.28 64.648 232.896 64.792 232.032 64.888L230.88 70.984H231.6L234.288 68.392ZM273.792 63.304H275.856C276.432 58.696 276.48 53.992 276.528 49.432H274.944C274.752 53.032 274.272 59.224 273.792 63.304ZM268.608 49.672V63.64C268.992 63.4 269.424 63.112 269.856 62.92C270.336 59.128 270.816 52.84 270.912 49.432H270L269.904 49.096C269.664 49.336 269.184 49.576 268.608 49.672ZM261.216 65.8H264.384V58.072H261.216V65.8ZM261.216 49.24V56.68H264.384V49.24H261.216ZM285.504 77.56L285.648 83.416C286.704 83.944 286.848 84.52 286.848 85.336C286.848 87.064 285.312 88.072 281.76 88.072H280.08C277.008 88.072 276.672 87.064 276.672 84.28V75.736C274.128 80.776 270 85.48 263.568 89.512L262.896 88.744C271.296 81.448 274.512 73.192 275.712 64.648H274.08L272.4 66.664L268.608 64.264V68.248C268.608 68.632 266.496 69.544 265.056 69.544H264.384V67.192H261.216V77.32C262.416 76.744 263.76 76.12 265.056 75.496C264.528 73.816 263.76 72.184 263.088 70.84L263.568 70.6C274.32 75.256 269.76 83.176 265.872 79.624C265.824 78.808 265.68 77.896 265.488 77.032C263.952 78.76 261.888 81.064 259.44 83.368C259.008 84.28 258.336 84.856 257.76 85.144L255.168 79.528C256.512 78.808 256.704 78.424 256.704 77.224V57.256C256.464 57.448 256.128 57.544 255.744 57.544H251.328V60.52C259.488 64.936 255.744 71.128 252.768 68.152C252.864 66.28 252.144 63.976 251.328 62.056V87.544C251.328 88.072 249.312 89.272 247.536 89.272H246.576V70.84C245.232 73.384 243.648 75.736 241.824 77.896L241.2 77.368C243.888 71.848 245.472 64.504 246.288 57.544H242.112L241.728 56.152H246.576V44.152L253.104 44.824C253.008 45.496 252.624 45.976 251.328 46.168V55.912L253.248 53.032C253.248 53.032 255.36 55.048 256.704 56.488V45.448L261.792 47.896H263.952L266.016 45.784L269.808 48.76L269.664 48.088H279.12L281.856 44.344C281.856 44.344 284.928 46.936 286.8 48.664C286.656 49.192 286.128 49.432 285.456 49.432H281.424C281.28 54.088 281.136 58.792 280.464 63.304H281.04L283.2 59.992C283.2 59.992 285.648 62.296 287.04 63.88C286.896 64.408 286.464 64.648 285.792 64.648H280.224C279.936 66.376 279.552 68.104 279.024 69.784L282.576 70.12C282.48 70.744 282.048 71.176 281.184 71.32V83.08C281.184 83.56 281.232 83.704 281.664 83.704H282.192C282.48 83.704 282.672 83.752 282.816 83.704C283.056 83.704 283.2 83.656 283.392 83.224C283.728 82.552 284.352 80.056 284.928 77.56H285.504ZM296.496 73.432L297.168 73.384C299.52 79.336 297.696 83.56 295.392 85C293.76 86.008 291.648 85.672 290.976 83.992C290.496 82.408 291.36 81.064 292.8 80.344C294.624 79.288 296.592 76.552 296.496 73.432ZM297.936 63.88L297.552 62.536H319.248L322.224 60.04L327.312 63.544C327.024 64.024 326.592 64.12 325.584 64.216C323.856 67.24 320.496 70.312 316.8 72.376L316.368 71.8C317.568 69.736 318.816 66.52 319.44 63.88H297.936ZM313.728 57.016L316.128 53.704C316.128 53.704 318.864 56.008 320.496 57.64C320.352 58.168 319.872 58.408 319.2 58.408H303.888L303.504 57.016H313.728ZM309.168 70.792L309.6 70.504C321.984 73.192 317.472 82.6 312.816 78.952C312.624 76.12 310.896 72.856 309.168 70.792ZM323.136 77.128L323.28 82.744C324.96 83.32 325.392 83.896 325.392 84.904C325.392 87.304 323.04 87.976 313.584 87.976H307.488C302.016 87.976 300.768 87.064 300.768 83.368V72.232L307.92 72.808C307.824 73.432 307.392 73.864 306.432 74.008V82.36C306.432 83.08 306.672 83.272 308.448 83.272H314.208C316.224 83.272 318.096 83.272 318.912 83.224C319.68 83.176 319.968 83.032 320.304 82.552C320.88 81.736 321.6 79.816 322.656 77.128H323.136ZM323.28 73.336L323.712 73C338.208 76.312 333.696 87.256 328.416 83.224C328.032 79.72 325.728 75.784 323.28 73.336ZM307.92 43.72L316.08 46.12C315.888 46.744 315.36 47.08 313.728 47.224C318.432 51.16 326.4 53.896 334.896 54.712L334.848 55.432C332.496 56.344 331.488 58.936 331.104 61.144C323.04 58.6 316.8 53.992 313.008 47.752C309.024 53.032 300.192 59.368 289.728 62.056L289.536 61.528C297.888 57.352 305.136 50.008 307.92 43.72ZM342.288 45.208L342.624 44.92C355.296 45.544 350.736 55.144 345.648 51.784C345.312 49.384 343.728 46.792 342.288 45.208ZM351.744 53.56L354.144 50.44C354.144 50.44 356.88 52.6 358.56 54.184C358.464 54.712 357.936 54.952 357.264 54.952H337.872L337.488 53.56H351.744ZM339.504 59.704H350.016L352.32 56.68C352.32 56.68 354.912 58.792 356.544 60.328C356.4 60.856 355.92 61.096 355.248 61.096H339.888L339.504 59.704ZM364.608 49.048V51.496C364.608 55.432 363.744 61.912 355.68 65.656C355.968 65.944 356.304 66.232 356.592 66.52C356.448 67.048 355.968 67.288 355.296 67.288H339.84L339.456 65.896H350.016L352.32 62.968C352.32 62.968 353.664 64.024 355.008 65.128C359.04 60.952 359.568 55.72 359.568 51.496V45.544L365.472 47.704H369.552L372.096 44.968L376.752 48.808C376.464 49.144 375.888 49.384 375.024 49.528V57.448C375.024 57.928 375.168 58.12 375.792 58.12H377.04H378.288C378.576 58.12 379.056 58.072 379.296 58.072C379.584 58.024 380.064 57.928 380.4 57.88H380.832L381.024 57.928C382.176 58.504 382.608 58.984 382.608 59.944C382.608 61.864 380.976 62.92 376.368 62.92H374.064C370.464 62.92 370.032 61.912 370.032 58.792V49.048H364.608ZM344.976 82.936H350.4V73.528H344.976V82.936ZM351.216 86.872H350.4V84.28H344.976V87.16C344.976 87.64 342.864 88.744 340.8 88.744H340.08V70.12L345.168 72.184H349.968L352.272 69.736L357.168 73.384C356.88 73.72 356.256 74.104 355.344 74.296V85.432C355.296 85.816 352.896 86.872 351.216 86.872ZM371.904 67.768H360.576C362.016 71.656 364.224 74.632 367.104 76.936C369.216 74.152 370.8 71.128 371.904 67.768ZM374.832 63.448L379.824 67.96C379.488 68.44 378.96 68.584 377.808 68.68C376.128 72.76 373.824 76.312 370.752 79.384C374.256 81.352 378.384 82.648 382.752 83.512L382.704 84.04C380.496 84.52 378.864 86.2 378.144 88.792C373.824 87.16 370.176 85.192 367.248 82.36C363.168 85.432 357.888 87.688 351.408 89.176L351.12 88.552C356.736 86.344 361.344 83.368 364.848 79.624C362.544 76.552 360.816 72.712 359.712 67.768H357.408L356.976 66.376H371.76L374.832 63.448ZM392.208 44.776L392.592 44.536C405.504 45.208 400.8 55.24 395.616 51.688C395.28 49.144 393.744 46.456 392.208 44.776ZM402.768 53.368L405.504 49.864C405.504 49.864 408.576 52.264 410.448 53.992C410.352 54.52 409.824 54.76 409.152 54.76H385.776L385.392 53.368H402.768ZM387.888 59.608H400.416L403.104 56.2C403.104 56.2 406.128 58.504 407.904 60.184C407.76 60.712 407.28 60.952 406.608 60.952H388.272L387.888 59.608ZM400.416 65.8L403.104 62.44C403.104 62.44 406.128 64.744 407.904 66.424C407.76 66.952 407.28 67.192 406.608 67.192H388.272L387.888 65.8H400.416ZM393.84 82.792H401.232V73.672H393.84V82.792ZM400.752 72.328L403.2 69.736L408.288 73.576C408 73.912 407.328 74.344 406.368 74.536V85.432C406.32 85.816 403.824 86.872 402.096 86.872H401.232V84.136H393.84V86.968C393.84 87.448 391.632 88.6 389.52 88.6H388.8V70.216L394.032 72.328H400.752ZM423.264 61.912L426.048 58.168C426.048 58.168 429.216 60.76 431.136 62.536C430.992 63.064 430.464 63.304 429.792 63.304H420.96V87.112C420.96 87.736 418.56 89.08 416.448 89.08H415.392V63.304H407.712L407.328 61.912H415.392V44.488L422.736 45.208C422.592 45.88 422.256 46.408 420.96 46.6V61.912H423.264ZM452.688 73.864L451.872 72.328C454.944 70.696 456.336 68.488 457.008 65.8C454.32 64.744 452.256 63.496 452.256 61.096C452.256 59.128 453.744 57.448 456.048 57.448C458.352 57.448 460.128 59.176 460.128 62.344C460.128 66.376 458.16 71.368 452.688 73.864ZM489.696 44.2L497.616 46.504C497.424 47.128 496.8 47.512 495.696 47.512C494.352 51.208 492.768 54.616 491.04 57.736L493.392 58.6C493.248 59.08 492.816 59.368 491.952 59.512V87.64C491.856 88.072 489.6 89.224 487.44 89.224H486.432V64.696C484.896 66.616 483.264 68.392 481.536 69.928L480.912 69.544C484.368 63.304 487.872 53.464 489.696 44.2ZM498.72 77.704L499.104 77.416C511.248 79.192 506.112 87.928 501.504 84.232C501.264 81.928 499.968 79.336 498.72 77.704ZM512.88 68.344L518.064 68.152C517.248 67.432 516.432 66.808 515.664 66.28L516.048 65.896C516.672 65.896 517.296 65.896 517.872 65.944V64.84H512.88V68.344ZM502.56 63.448H507.36V59.992H502.56V63.448ZM507.36 55.144H502.56V58.648H507.36V55.144ZM517.872 55.144H512.88V58.648H517.872V55.144ZM517.872 63.448V59.992H512.88V63.448H517.872ZM523.488 55.96V64.936C523.44 65.176 521.088 65.992 519.408 66.136C527.184 67.288 526.656 72.856 523.488 73.096C524.592 73.96 526.224 75.256 527.376 76.264C527.232 76.792 526.704 77.032 526.032 77.032H517.872V83.176C517.872 86.92 517.056 88.84 511.104 89.368C511.008 87.784 510.816 86.584 510.192 85.816C509.664 85.096 508.752 84.52 506.736 84.184V83.512C506.736 83.512 510.72 83.8 511.536 83.8C512.208 83.8 512.4 83.608 512.4 83.08V77.032H494.448L494.064 75.688H512.4V71.224L519.504 71.848C519.408 72.568 518.928 72.904 517.872 73.048V75.688H519.408L521.808 72.568C521.232 71.464 520.224 70.264 519.12 69.16C514.176 70.312 507.456 71.704 498.144 73.384C497.856 73.96 497.28 74.344 496.8 74.44L494.688 68.824C497.28 68.872 501.84 68.728 507.36 68.536V64.84H502.56V65.752C502.56 66.28 500.112 67.432 497.856 67.432H497.088V51.544L502.896 53.848H507.36V50.776H495.6L495.216 49.384H507.36V44.248L514.656 44.92C514.56 45.592 514.176 46.12 512.88 46.264V49.384H518.16L521.232 45.448C521.232 45.448 524.64 48.136 526.752 50.008C526.608 50.536 526.032 50.776 525.36 50.776H512.88V53.848H517.392L519.936 51.112L525.216 55.048C524.976 55.384 524.352 55.768 523.488 55.96ZM553.968 62.92H559.872C560.496 61.048 561.168 58.648 561.504 56.776H550.464C556.08 58.408 555.84 61.768 553.968 62.92ZM542.256 55.384H554.784V50.92H545.664L545.28 49.528H554.784V44.2L561.696 44.776C561.648 45.304 561.312 45.688 560.352 45.88V49.528H563.424L566.16 46.168C566.16 46.168 569.28 48.472 571.248 50.152C571.104 50.68 570.624 50.92 569.904 50.92H560.352V55.384H566.448L569.232 51.928C569.232 51.928 572.448 54.28 574.416 56.008C574.32 56.536 573.84 56.776 573.12 56.776H563.184L568.512 58.312C568.32 58.936 567.744 59.272 566.736 59.224C565.44 60.328 563.472 61.72 561.552 62.92H565.008L567.648 59.704C567.648 59.704 570.768 61.864 572.688 63.496C572.544 64.024 572.016 64.264 571.344 64.264H560.352V68.68H563.952L566.544 65.464C566.544 65.464 569.568 67.672 571.392 69.256C571.296 69.784 570.816 70.024 570.144 70.024H560.352V74.536H566.064L568.8 71.224C568.8 71.224 571.92 73.48 573.84 75.16C573.744 75.688 573.216 75.928 572.544 75.928H560.352V81.256C560.352 81.544 558.624 82.696 555.792 82.696H554.784V75.928H543.312L542.928 74.536H554.784V70.024H545.856L545.472 68.68H554.784V64.264H544.176L543.792 62.92H551.04C550.8 62.776 550.512 62.584 550.272 62.344C550.272 60.376 549.456 58.168 548.448 56.776H542.64L542.256 55.384ZM531.36 45.304L531.744 45.016C545.04 46.12 540.768 56.152 535.536 52.696C535.056 50.056 533.136 47.128 531.36 45.304ZM541.248 64.36L546 68.152C545.712 68.632 545.232 68.776 544.224 68.824C543.072 72.28 540.72 76.072 537.552 79.048C537.936 79.144 538.224 79.336 538.608 79.624C542.4 82.648 548.16 83.272 558.816 83.272C564.432 83.272 569.04 83.272 574.656 82.888V83.512C572.448 83.992 571.152 86.008 570.864 88.216H556.896C546.336 88.216 542.112 86.344 538.032 81.352C537.36 80.488 536.784 80.584 536.4 81.448C535.584 82.888 534.384 85.384 533.424 87.784C533.52 88.264 533.376 88.504 533.04 88.792L529.152 83.32C531.024 82.36 533.52 80.632 535.152 79.672C536.88 76.456 538.224 72.088 538.8 68.44H536.4L534.72 70.024L530.448 67C530.928 66.664 531.648 66.28 532.368 66.04C533.856 63.688 535.824 60.232 537.12 57.784H530.496L530.064 56.392H537.168L539.52 54.04L544.224 58.264C543.792 58.744 542.832 58.984 541.728 59.08C540.48 61.192 538.464 64.648 536.976 67.048H538.512L541.248 64.36ZM615.024 54.328L616.8 52.072C616.608 52.024 616.416 51.928 616.224 51.784C615.792 49.96 614.4 47.944 613.248 46.744C613.008 46.792 612.768 46.84 612.48 46.888C612.432 49.336 612.384 51.832 612.432 54.328H615.024ZM601.536 64.456H597.744V64.792C597.744 68.392 597.504 72.52 596.16 76.552C597.408 76.648 599.088 76.744 599.712 76.744C600.096 76.744 600.288 76.648 600.48 76.408C601.152 75.544 601.392 71.992 601.536 64.456ZM587.52 59.224V72.232C589.104 71.752 590.736 71.272 592.416 70.744C592.56 68.728 592.608 66.76 592.608 64.792V59.224H592.512H587.52ZM622.752 75.016L621.696 83.176C622.992 86.2 623.28 87.928 622.368 88.552C619.92 90.232 616.464 87.688 614.976 85.48C613.728 83.656 612.72 81.688 611.856 79.624C608.448 83.512 604.176 86.44 598.848 88.792L598.416 88.072C603.456 84.76 607.392 80.824 610.416 75.592C608.592 69.64 607.824 62.92 607.488 55.672H597.744V63.064H601.104L603.6 60.616L608.112 64.312C607.824 64.696 607.2 65.032 606.288 65.176C606.096 74.488 605.808 78.712 603.936 80.296C602.784 81.16 601.344 81.496 599.664 81.496C599.664 80.488 599.52 79.384 599.04 78.808C598.512 78.136 597.408 77.512 596.112 77.176V76.744C594.528 81.352 591.504 85.768 585.648 89.128L585.168 88.648C589.872 83.704 591.648 77.848 592.272 71.944C589.728 74.008 586.032 76.84 581.088 80.2C580.896 80.872 580.416 81.4 579.888 81.592L576.96 75.208C578.112 74.968 579.984 74.44 582.24 73.816V59.224H577.968L577.584 57.88H582.24V45.112L589.296 45.736C589.2 46.408 588.816 46.888 587.52 47.08V57.784L589.776 54.04C589.776 54.04 591.264 55.576 592.608 57.112V52.168L598.56 54.328H607.392C607.296 51.256 607.248 48.088 607.248 44.824L614.208 45.544C614.208 45.832 614.112 46.072 613.872 46.312C621.696 46.456 621.6 50.92 619.248 52.072C620.304 52.888 621.696 54.04 622.704 54.952C622.56 55.432 622.08 55.672 621.408 55.672H612.48C612.624 60.136 612.96 64.504 613.728 68.488C614.688 65.848 615.552 62.968 616.272 59.752L622.656 61.912C622.416 62.536 621.936 62.824 620.688 62.776C619.248 67.384 617.52 71.32 615.456 74.728C616.272 76.888 617.28 78.856 618.528 80.536C619.056 81.352 619.296 81.304 619.776 80.44C620.4 79.24 621.456 76.936 622.224 74.92L622.752 75.016ZM642.24 44.44L642.576 44.152C656.544 44.296 652.032 54.904 646.368 51.448C645.792 48.856 643.872 46.168 642.24 44.44ZM661.344 52.36L664.704 48.088C664.704 48.088 668.496 50.92 670.704 52.936C670.608 53.464 670.128 53.704 669.408 53.704H650.976V60.136H658.32L660.864 57.208L666.48 61.432C666.144 61.816 665.52 62.248 664.512 62.44V76.648C664.512 80.344 663.696 82.504 657.408 83.08C657.312 81.304 657.072 80.008 656.448 79.144C655.776 78.376 654.912 77.704 652.8 77.368V76.696C652.8 76.696 656.688 76.936 657.84 76.936C658.56 76.936 658.8 76.648 658.8 76.072V61.48H650.976V87.784C650.928 88.168 649.152 89.368 646.128 89.368H645.024V61.48H637.152V80.776C637.152 81.4 634.704 82.648 632.304 82.648H631.488V57.688L637.536 60.136H645.024V53.704H625.92L625.536 52.36H661.344ZM680.688 80.776H687.984V68.152H680.688V80.776ZM687.984 54.856H680.688V66.76H687.984V54.856ZM690.048 50.584L695.28 54.712C694.944 55.144 694.224 55.528 693.264 55.72V84.328C693.216 84.712 690.672 85.912 688.8 85.912H687.984V82.12H680.688V85.672C680.688 86.296 678.672 87.496 676.368 87.496H675.504V51.208L680.88 53.464H681.168C681.504 50.824 681.936 47.08 682.176 44.392L689.952 46.264C689.76 47.08 689.088 47.416 687.984 47.416C686.736 49.096 684.864 51.592 683.328 53.464H687.504L690.048 50.584ZM713.568 50.2L718.704 54.712C718.32 55.144 717.696 55.48 716.592 55.624C716.256 74.968 715.584 83.752 712.944 86.584C711.216 88.408 709.104 89.176 705.936 89.176C705.936 87.352 705.696 86.008 704.88 85.24C704.016 84.328 702.144 83.56 699.792 83.128L699.84 82.456C702.144 82.648 705.456 82.888 706.704 82.888C707.568 82.888 708 82.696 708.48 82.264C710.256 80.632 710.736 71.08 711.072 54.712H702.144C699.84 58.792 697.104 62.2 694.032 64.792L693.408 64.408C696.048 59.512 698.64 51.688 699.888 44.344L707.472 46.552C707.28 47.176 706.704 47.512 705.6 47.512C704.784 49.576 703.92 51.496 702.912 53.32H710.544L713.568 50.2ZM697.104 63.4L697.488 63.112C711.504 67.24 706.272 77.608 701.184 73.336C700.944 69.928 699.024 66.04 697.104 63.4ZM738.432 44.68L738.768 44.392C753.744 46.12 749.28 57.304 743.616 53.464C742.944 50.344 740.64 46.84 738.432 44.68ZM751.584 56.536H732.864C735.024 64.024 739.008 69.736 744.24 73.96C748.224 68.872 750.528 63.016 751.584 56.536ZM764.784 56.536H758.544C756.816 64.408 753.6 71.272 748.176 76.696C753.552 80.104 759.984 82.312 766.752 83.752L766.608 84.328C763.776 84.712 761.712 86.44 760.704 89.272C754.224 87.16 748.704 84.28 744.192 80.152C738.576 84.328 731.28 87.4 721.776 89.272L721.536 88.696C730.08 85.864 736.608 81.976 741.312 77.224C736.896 72.136 733.728 65.368 732 56.536H722.352L721.968 55.192H756.72L760.128 50.632C760.128 50.632 763.92 53.704 766.128 55.768C765.984 56.296 765.504 56.536 764.784 56.536ZM769.776 70.648L769.2 70.264C773.664 64.072 778.272 54.088 780.576 44.152L788.64 46.744C788.448 47.32 787.824 47.752 786.672 47.704C785.232 51.4 783.552 54.76 781.68 57.736L783.84 58.552C783.696 58.984 783.264 59.272 782.352 59.464V87.592C782.256 88.024 779.952 89.224 777.744 89.224H776.688V64.408C774.528 66.808 772.224 68.872 769.776 70.648ZM812.592 75.352L812.784 82.024C814.512 82.696 815.04 83.32 815.04 84.376C815.04 86.872 812.544 87.784 802.944 87.784H797.136C791.616 87.784 789.648 86.728 789.648 82.216V45.112L796.704 45.88C796.656 46.504 796.224 47.032 794.976 47.224V61.48H805.872L808.56 57.64C808.56 57.64 811.68 60.28 813.504 62.056C813.36 62.584 812.928 62.824 812.208 62.824H794.976V80.776C794.976 82.216 795.648 82.648 797.856 82.648H803.376C805.488 82.648 807.168 82.648 808.032 82.552C808.704 82.504 809.184 82.312 809.616 81.832C810.24 80.92 811.104 78.424 812.064 75.352H812.592ZM833.52 60.088L836.208 56.152C836.208 56.152 839.424 58.84 841.248 60.664C841.152 61.192 840.624 61.432 839.952 61.432H832.176V64.744C844.272 68.344 839.712 76.744 835.392 73.24C835.056 70.792 833.664 68.056 832.176 65.944V87.688C832.176 88.024 830.4 89.272 827.712 89.272H826.704V71.512C824.304 75.352 821.28 78.712 817.68 81.592L817.104 81.016C821.04 75.784 823.776 68.392 825.264 61.432H818.208L817.824 60.088H826.704V51.592C823.776 51.928 820.752 52.216 817.968 52.36L817.824 51.688C823.728 49.912 831.168 46.6 834.864 44.2L840.816 49.672C840.24 50.104 839.184 50.2 837.648 49.624C836.064 50.008 834.192 50.392 832.176 50.776V60.088H833.52ZM847.008 78.904H853.92V53.464H847.008V78.904ZM856.08 49.096L861.552 53.416C861.264 53.848 860.544 54.232 859.584 54.472V83.848C859.488 84.232 856.8 85.384 854.832 85.384H853.92V80.296H847.008V84.184C847.008 84.808 844.8 86.152 842.352 86.152H841.44V49.672L847.248 52.12H853.392L856.08 49.096ZM883.056 54.136L882.624 52.744H892.464V44.2L899.472 44.824C899.424 45.448 899.04 45.88 897.936 46.072V52.744H902.16L905.04 49C905.04 49 908.352 51.544 910.368 53.368C910.224 53.896 909.744 54.136 909.024 54.136H897.936V61.48H901.248L904.032 57.88C904.032 57.88 907.248 60.328 909.168 62.104C909.072 62.632 908.544 62.872 907.824 62.872H884.688L884.304 61.48H892.464V54.136H883.056ZM871.2 56.584H873.792V50.728C873.504 51.112 873.072 51.352 872.304 51.448C872.016 53.176 871.632 54.904 871.2 56.584ZM885.024 64.936L885.168 65.464C883.536 66.568 881.568 68.008 879.072 69.592V87.304C879.072 87.88 876.768 89.176 874.8 89.176H873.792V72.904C872.736 73.576 871.584 74.248 870.336 74.968C870.192 75.592 869.712 76.024 869.184 76.216L865.632 70.168C867.36 69.784 870.288 69.064 873.792 68.104V57.928H870.816C869.76 61.768 868.272 65.32 866.4 68.008L865.68 67.672C866.784 62.584 867.408 55.48 867.504 49.192L873.792 50.152V44.392L880.848 45.112C880.704 45.784 880.368 46.264 879.072 46.456V56.344L881.328 52.648C881.328 52.648 884.112 55.384 885.6 57.16C885.504 57.688 885.024 57.928 884.352 57.928H879.072V66.616C881.04 66.088 883.008 65.56 885.024 64.936ZM903.408 69.352L906.192 65.704C906.192 65.704 909.264 68.2 911.136 69.928C910.992 70.456 910.512 70.696 909.84 70.696H902.4V83.08C902.4 86.824 901.44 88.84 894.768 89.416C894.576 87.784 894.288 86.632 893.328 85.816C892.368 85.048 891.12 84.472 888.24 84.04V83.416C888.24 83.416 894.624 83.8 895.776 83.8C896.64 83.8 896.88 83.512 896.88 82.84V70.696H882L881.616 69.352H896.88V63.64L904.08 64.264C903.936 64.984 903.504 65.368 902.4 65.512V69.352H903.408ZM884.496 71.944L884.928 71.656C898.176 74.632 894 84.136 889.056 80.632C888.384 77.704 886.272 74.248 884.496 71.944ZM938.064 51.304H928.8C927.264 53.368 925.488 55.432 923.568 57.304L925.68 58.12H934.896C936.096 56.2 937.296 53.368 938.064 51.304ZM947.136 59.512H938.64V69.928H947.136V59.512ZM925.056 59.512V69.928H933.216V59.512H925.056ZM955.2 74.968L955.248 81.736C957.696 82.456 958.512 82.792 958.512 83.992C958.512 86.536 956.4 88.168 946.896 88.168H929.904C922.752 88.168 919.488 86.392 919.488 80.44V61C917.568 62.536 915.504 63.928 913.44 65.032L913.008 64.6C918.288 59.8 923.52 51.16 925.92 43.96L933.792 45.88C933.6 46.456 933.216 46.648 931.92 46.6C931.296 47.704 930.576 48.808 929.808 49.912H937.968L940.944 46.888L946.176 51.4C945.84 51.832 945.264 51.976 944.256 52.072C942.192 53.992 939.12 56.488 936.192 58.12H946.608L949.248 55.192L954.864 59.464C954.528 59.848 953.856 60.328 952.8 60.52V73C952.752 73.384 949.968 74.488 948.048 74.488H947.136V71.32H925.056V80.584C925.056 82.36 926.4 82.888 929.664 82.888H946.368C949.296 82.888 950.64 82.696 951.648 81.592C952.512 80.536 953.808 77.56 954.672 74.968H955.2ZM980.688 73.864L979.872 72.328C982.944 70.696 984.336 68.488 985.008 65.8C982.32 64.744 980.256 63.496 980.256 61.096C980.256 59.128 981.744 57.448 984.048 57.448C986.352 57.448 988.128 59.176 988.128 62.344C988.128 66.376 986.16 71.368 980.688 73.864ZM11.616 126.856L11.808 126.28C13.776 125.896 15.552 125.992 16.512 126.952C17.808 128.248 16.032 130.696 14.208 129.016C13.728 128.296 12.672 127.288 11.616 126.856ZM10.704 131.944L10.944 131.416C13.008 131.08 14.832 131.272 15.792 132.328C17.04 133.72 14.976 136.168 13.248 134.296C12.816 133.528 11.856 132.424 10.704 131.944ZM9.216 135.064H17.184C17.472 134.104 17.712 132.76 17.904 130.984H10.176C9.84 132.424 9.552 133.816 9.216 135.064ZM18.384 125.704H11.232C11.04 126.856 10.752 128.2 10.464 129.592H18.048C18.192 128.44 18.288 127.144 18.384 125.704ZM33.072 144.76L33.552 144.376C45.552 146.248 42.432 154.696 38.064 152.056C37.776 151.096 37.248 150.04 36.576 148.984C34.08 149.464 31.104 149.992 27.696 150.568V155.896C27.696 159.256 26.832 161.032 20.976 161.464C20.928 160.12 20.736 159.016 20.16 158.344C19.584 157.768 18.768 157.24 16.752 156.904V156.28C16.752 156.28 20.4 156.52 21.312 156.52C22.032 156.52 22.176 156.232 22.176 155.8V151.432C20.016 151.768 17.76 152.104 15.36 152.488L20.016 154.456C19.776 154.936 19.392 155.176 18.336 155.08C15.312 157.432 9.168 159.88 4.128 160.936L3.648 160.36C7.152 158.392 11.088 155.272 13.344 152.776L10.128 153.16C9.888 153.592 9.552 153.928 9.168 154.072L6.768 149.08C6.768 149.08 8.016 148.984 8.688 148.792C11.76 148.12 15.264 146.92 18.72 145.48C16.752 145.816 14.64 146.104 12.48 146.392C12.24 146.824 11.952 147.064 11.664 147.208L9.744 143.416C9.744 143.416 10.512 143.272 10.896 143.128C12.912 142.6 15.216 141.544 17.28 140.296C16.464 140.488 15.504 140.44 14.448 140.488C14.448 139.576 14.304 139.24 13.872 138.76C13.392 138.232 12.48 137.992 11.28 137.752V137.032C12.432 137.128 14.208 137.224 15.024 137.224C15.696 137.224 16.032 137.128 16.32 136.84C16.416 136.744 16.512 136.6 16.608 136.456H9.264L7.488 138.472L3.12 135.592C3.6 135.256 4.32 134.824 5.04 134.536C5.28 133.48 5.568 132.328 5.856 130.984H2.64L2.256 129.592H6.144C6.528 127.624 6.912 125.608 7.152 123.928C5.664 125.032 4.128 126.04 2.592 126.76L2.16 126.328C4.368 123.88 6.72 119.56 7.872 116.2L14.736 117.688C14.592 118.216 14.208 118.408 12.96 118.36C12.384 119.128 11.664 119.944 10.848 120.712H20.208L22.656 117.688C22.656 117.688 25.44 119.8 27.168 121.336C27.072 121.864 26.592 122.104 25.92 122.104H9.36L8.688 122.728L12.48 124.36H17.952L20.064 122.248L24.096 125.56C23.76 125.944 23.136 126.184 22.224 126.28C22.176 127.48 22.08 128.584 22.032 129.592H22.512L24.288 126.712C24.288 126.712 26.4 128.776 27.552 130.216C27.456 130.744 27.024 130.984 26.4 130.984H21.888C21.744 132.616 21.552 133.96 21.312 135.064H21.6L23.328 132.808C23.328 132.808 25.296 134.44 26.544 135.688C26.448 136.216 25.968 136.456 25.344 136.456H20.976C20.736 137.272 20.448 137.944 20.112 138.424C20.832 137.944 21.456 137.416 21.936 137.032L25.488 141.016C25.152 141.304 24.384 141.448 23.472 140.872C21.456 141.784 18.288 142.84 15.12 143.704C17.424 143.656 20.16 143.608 23.088 143.56C27.024 141.688 30.432 139.816 32.448 138.328L37.296 142.12C37.008 142.552 36.192 142.792 35.088 142.36C30.432 144.52 21.984 147.256 14.112 149.128C19.776 148.888 27.648 148.504 35.904 147.976C34.992 146.776 33.984 145.576 33.072 144.76ZM30.768 153.592L30.96 152.968C47.328 152.344 45.024 162.328 40.128 160.504C38.784 158.728 35.232 155.704 30.768 153.592ZM36.72 124.264H30.576C30.384 124.552 30.144 124.84 29.904 125.08C30.912 127.336 32.352 129.208 34.176 130.744C35.376 128.776 36.24 126.616 36.72 124.264ZM44.88 124.264H42.528C41.52 127.624 39.84 130.456 37.44 132.76C39.888 133.96 42.816 134.824 46.32 135.352L46.224 135.88C44.4 136.6 43.392 138.088 43.104 140.536C39.264 139.384 36.48 137.608 34.32 135.304C31.776 137.08 28.656 138.424 25.008 139.48L24.72 138.904C28.032 137.272 30.576 135.256 32.544 133C31.152 130.936 30.096 128.536 29.232 125.848C28.368 126.712 27.456 127.48 26.544 128.152L25.872 127.72C27.264 124.84 28.464 120.472 28.992 116.248L35.568 117.976C35.376 118.552 34.8 118.984 33.792 118.984C33.168 120.376 32.4 121.72 31.584 122.92H38.496L41.232 119.224C41.232 119.224 44.304 121.72 46.128 123.496C45.984 124.024 45.504 124.264 44.88 124.264ZM74.256 116.968L74.688 116.68C87.84 119.992 82.8 130.024 77.904 125.944C77.76 122.824 76.08 119.272 74.256 116.968ZM52.944 125.512H53.664C55.824 131.032 55.392 135.352 53.904 137.416C52.896 138.904 50.592 139.096 49.68 137.656C48.864 136.36 49.44 134.968 50.64 134.008C51.888 132.52 53.232 128.824 52.944 125.512ZM55.776 116.296L62.832 117.016C62.688 117.688 62.352 118.168 61.104 118.36V159.784C61.104 160.264 58.848 161.32 56.832 161.32H55.776V116.296ZM61.248 125.272L61.872 125.08C70.272 129.88 65.904 136.504 62.832 133.24C63.024 130.6 62.16 127.432 61.248 125.272ZM86.352 127.528L89.28 123.688C89.28 123.688 92.592 126.28 94.608 128.104C94.512 128.632 93.984 128.872 93.312 128.872H75.504V129.976V152.344C75.504 153.4 75.84 153.688 77.664 153.688H82.56C84.24 153.688 85.968 153.688 86.688 153.64C87.216 153.592 87.936 153.544 88.32 153.496C88.8 153.448 89.376 153.304 89.952 153.112H90.384L90.672 153.208C92.4 153.736 92.928 154.408 92.928 155.368C92.928 157.528 90.816 158.2 81.984 158.2H76.656C71.472 158.2 70.08 157.24 70.08 153.4V128.872H66.384L66 127.528H86.352ZM109.728 139.576L114.144 143.224C113.808 143.608 113.376 143.752 112.32 143.8C110.976 146.872 108.624 150.136 105.504 152.728C105.792 152.824 106.032 152.92 106.368 153.112C109.968 155.368 115.872 155.848 126.048 155.848C131.568 155.848 136.224 155.848 141.792 155.512V156.088C139.536 156.52 138.24 158.632 138 160.792H124.128C114 160.792 109.872 159.064 105.888 154.888C105.072 154.072 104.592 154.12 104.16 154.984C103.536 156.232 102.912 158.104 102.192 160.312C102.288 160.744 102.144 160.984 101.856 161.224L98.016 155.8C99.552 155.176 101.472 154.024 102.816 153.304C104.784 150.472 106.464 146.68 107.328 143.464H105.024L103.296 144.952L99.168 141.928C99.648 141.64 100.368 141.304 101.088 141.064C102.192 139.336 103.632 136.984 104.64 135.16H99.36L98.928 133.816H104.928L106.656 131.992C106.224 131.944 105.744 131.752 105.264 131.464C104.832 129.16 103.104 126.568 101.52 125.032L101.952 124.696C104.64 124.984 106.512 125.656 107.712 126.472L107.184 122.2H97.824L97.44 120.808H107.04L106.464 116.2L113.52 116.728C113.472 117.304 113.088 117.736 112.128 118.024L112.512 120.808H113.232L115.776 117.256C115.776 117.256 118.608 119.704 120.336 121.432C120.192 121.96 119.664 122.2 119.04 122.2H112.704L113.088 125.08C112.272 126.136 110.304 126.616 107.808 126.568C110.544 128.536 109.68 131.416 107.712 131.944L111.792 135.592C111.36 136.072 110.352 136.36 109.2 136.408C108.24 138.04 106.752 140.344 105.552 142.12H107.136L109.728 139.576ZM129.12 129.4H121.344C120.624 130.024 119.856 130.648 119.088 131.224C121.92 131.416 124.368 131.704 126.528 132.04C127.488 131.176 128.352 130.312 129.12 129.4ZM135.456 146.92H128.256V149.8H133.344L135.84 146.872C135.696 146.92 135.6 146.92 135.456 146.92ZM119.52 124.168L126.048 126.04C125.856 126.472 125.472 126.712 124.224 126.568C123.792 127.096 123.264 127.528 122.784 128.056H129.504L132.48 125.512L136.944 129.448C136.656 129.88 136.128 130.024 134.976 130.072C134.064 131.128 133.008 132.136 131.808 133.048C144.816 136.264 139.44 141.4 135.504 139.048C133.728 137.896 131.28 136.6 128.16 135.4C126.672 136.216 124.992 136.936 123.264 137.608L129.504 138.136C129.408 138.616 129.168 139 128.256 139.144V141.304H131.664L134.064 138.52C134.064 138.52 136.752 140.488 138.528 141.88C138.384 142.408 137.904 142.648 137.232 142.648H128.256V145.528H130.272L132.528 142.888C132.528 142.888 135.072 144.76 136.704 146.152C136.656 146.488 136.416 146.728 136.032 146.824C136.56 147.208 139.104 148.984 140.736 150.376C140.592 150.904 140.16 151.144 139.44 151.144H128.256V154.12C128.256 154.6 125.76 155.656 123.792 155.656H122.88V151.144H112.656L112.272 149.8H122.88V146.92H115.44L115.056 145.528H122.88V142.648H114.288L113.904 141.304H122.88V137.752C119.424 139 115.632 139.864 111.648 140.392L111.312 139.72C116.064 138.376 120.528 136.408 124.128 133.912C122.208 133.24 120.096 132.664 117.84 132.088C116.064 133.384 114.048 134.488 112.08 135.304L111.648 134.824C114.72 132.28 117.936 127.816 119.52 124.168ZM135.552 120.808L138.144 117.256C138.144 117.256 141.072 119.704 142.752 121.432C142.608 121.96 142.128 122.2 141.456 122.2H131.856L131.376 125.08C130.32 125.896 128.112 126.184 125.856 125.752L126.432 122.2H121.632L121.248 120.808H126.624L127.344 116.2L134.256 117.352C134.208 117.928 133.776 118.504 132.432 118.6L132.096 120.808H135.552ZM170.64 142.792L170.688 143.464C168.096 144.472 164.88 145.576 160.896 146.92V154.984C160.896 158.728 160.176 160.696 154.464 161.176C154.368 159.544 154.224 158.344 153.648 157.528C153.072 156.808 152.256 156.184 150.432 155.896V155.224C150.432 155.224 154.032 155.416 154.8 155.416C155.376 155.416 155.568 155.272 155.568 154.744V148.6C153.6 149.224 151.488 149.896 149.232 150.568C148.896 151.096 148.416 151.48 147.888 151.624L145.584 145.576C147.648 145.432 151.248 145.048 155.568 144.568V140.056L158.688 140.344C159.504 139.24 160.32 137.944 160.944 136.84H150.768L150.336 135.496H161.088L163.728 132.76L164.112 133.096C164.352 132.328 164.544 131.464 164.736 130.744H151.104C151.392 133.384 150.624 135.304 149.376 136.216C148.08 137.08 145.968 136.792 145.344 135.112C144.816 133.528 145.728 132.232 147.168 131.512C148.32 130.696 149.616 128.584 149.328 126.808H150.048C150.432 127.72 150.672 128.536 150.864 129.352H155.52V124.072H146.4L146.016 122.728H155.52V116.2L162.72 116.824C162.624 117.496 162.24 117.976 160.992 118.12V122.728H163.008L165.936 118.84C165.936 118.84 169.248 121.48 171.264 123.304C171.168 123.832 170.64 124.072 169.92 124.072H160.992V129.352H164.64L167.184 126.904L171.696 131.224C171.312 131.608 170.832 131.704 169.872 131.752C168.768 132.52 167.136 133.576 165.648 134.44L168.48 136.936C168.096 137.32 167.568 137.416 166.56 137.512C165.024 138.472 163.056 139.624 161.04 140.536L162.48 140.68C162.336 141.352 161.952 141.736 160.896 141.88V143.992C164.016 143.608 167.328 143.224 170.64 142.792ZM185.856 125.8L190.8 130.072C190.416 130.504 189.744 130.792 188.688 130.984C188.256 149.752 187.392 156.328 184.848 158.968C183.216 160.6 181.152 161.224 178.704 161.224C178.752 159.496 178.608 158.248 178.032 157.528C177.408 156.712 176.16 156.088 174.48 155.704V155.032C175.92 155.128 178.176 155.272 179.136 155.272C179.904 155.272 180.336 155.128 180.816 154.696C182.448 153.16 183.12 145.768 183.504 130.072H179.52C179.088 143.56 176.88 153.976 163.632 161.128L163.104 160.456C172.224 152.584 173.856 142.696 174.144 130.072H170.976L170.544 128.68H174.144C174.192 124.888 174.144 120.856 174.144 116.584L181.488 117.304C181.344 118.024 180.864 118.456 179.712 118.648C179.664 122.152 179.664 125.512 179.568 128.68H182.976L185.856 125.8ZM200.688 152.776H207.984V140.152H200.688V152.776ZM207.984 126.856H200.688V138.76H207.984V126.856ZM210.048 122.584L215.28 126.712C214.944 127.144 214.224 127.528 213.264 127.72V156.328C213.216 156.712 210.672 157.912 208.8 157.912H207.984V154.12H200.688V157.672C200.688 158.296 198.672 159.496 196.368 159.496H195.504V123.208L200.88 125.464H201.168C201.504 122.824 201.936 119.08 202.176 116.392L209.952 118.264C209.76 119.08 209.088 119.416 207.984 119.416C206.736 121.096 204.864 123.592 203.328 125.464H207.504L210.048 122.584ZM233.568 122.2L238.704 126.712C238.32 127.144 237.696 127.48 236.592 127.624C236.256 146.968 235.584 155.752 232.944 158.584C231.216 160.408 229.104 161.176 225.936 161.176C225.936 159.352 225.696 158.008 224.88 157.24C224.016 156.328 222.144 155.56 219.792 155.128L219.84 154.456C222.144 154.648 225.456 154.888 226.704 154.888C227.568 154.888 228 154.696 228.48 154.264C230.256 152.632 230.736 143.08 231.072 126.712H222.144C219.84 130.792 217.104 134.2 214.032 136.792L213.408 136.408C216.048 131.512 218.64 123.688 219.888 116.344L227.472 118.552C227.28 119.176 226.704 119.512 225.6 119.512C224.784 121.576 223.92 123.496 222.912 125.32H230.544L233.568 122.2ZM217.104 135.4L217.488 135.112C231.504 139.24 226.272 149.608 221.184 145.336C220.944 141.928 219.024 138.04 217.104 135.4ZM260.256 152.008H267.792V146.344H260.256V152.008ZM272.976 147.112V154.312C272.928 154.648 270.432 155.704 268.656 155.704H267.792V153.352H260.256V154.888C260.256 155.32 257.904 156.424 255.84 156.424H255.12V142.84L260.448 144.952H267.312L269.712 142.456L274.752 146.152C274.464 146.536 273.888 146.92 272.976 147.112ZM277.776 139.816L280.32 136.984L285.888 141.112C285.6 141.496 284.928 141.928 283.92 142.12V155.176C283.92 158.776 283.104 160.84 276.864 161.32C276.72 159.688 276.528 158.44 275.856 157.672C275.184 156.904 274.272 156.28 272.016 155.896V155.272C272.016 155.272 276.24 155.56 277.344 155.56C278.064 155.56 278.256 155.224 278.256 154.648V141.16H250.224V159.448C250.224 160.024 247.776 161.272 245.472 161.272H244.656V137.464L250.656 139.816H277.776ZM257.568 134.488H270.816V128.872H257.568V134.488ZM271.776 137.992H270.816V135.832H257.568V136.888C257.568 137.32 255.072 138.52 252.768 138.52H252V125.176L257.856 127.48H270.336L272.88 124.648L278.352 128.776C278.064 129.16 277.44 129.592 276.48 129.784V136.84C276.432 137.128 273.552 137.992 271.776 137.992ZM276.912 122.344L280.224 118.168C280.224 118.168 284.064 120.952 286.368 122.92C286.224 123.448 285.696 123.688 285.024 123.688H242.352L241.92 122.344H262.32C261.792 120.136 259.968 117.784 258.288 116.44L258.624 116.152C267.792 115.672 268.56 120.52 266.4 122.344H276.912ZM310.8 127.336H301.056C299.664 137.704 296.832 149.656 289.872 158.248L289.248 157.912C293.28 149.224 295.104 137.656 295.776 127.336H289.968L289.584 125.992H295.872C296.064 122.536 296.112 119.272 296.112 116.296L303.84 116.824C303.744 117.448 303.408 117.976 301.968 118.168C301.776 120.568 301.536 123.208 301.2 125.992H304.608L307.2 122.344C307.2 122.344 310.272 124.84 312.096 126.568C311.952 127.096 311.472 127.336 310.8 127.336ZM303.648 143.512L304.224 143.272C315.648 151.432 310.992 161.272 306.576 156.808C306.624 155.32 306.432 153.736 306.144 152.152C304.368 153.448 301.968 155.08 299.232 156.664C298.8 157.624 298.272 158.248 297.6 158.536L295.008 152.296C295.008 152.296 296.256 151.96 296.592 151.624C298.656 147.544 301.296 137.128 301.92 131.368L308.688 132.76C308.544 133.336 308.016 133.864 306.96 133.912C305.088 139.48 301.584 147.016 298.368 151.96C300.48 151.768 303.168 151.288 305.856 150.76C305.28 148.168 304.416 145.672 303.648 143.512ZM317.664 147.064V155.992H321.312V147.064H317.664ZM321.312 127.576H317.664V135.832H321.312V127.576ZM321.312 145.672V137.224H317.664V145.672H321.312ZM327.408 155.992L330.192 152.248C330.192 152.248 333.264 154.84 335.088 156.568C334.992 157.096 334.464 157.336 333.792 157.336H317.664V159.688C317.664 160.072 316.032 161.224 313.344 161.224H312.432V134.584C311.184 136.408 309.744 138.136 308.208 139.624L307.632 139.192C311.232 132.52 313.488 122.632 314.256 116.296L321.312 118.168C320.976 117.448 320.64 116.824 320.304 116.248L320.784 115.96C332.448 119.56 326.832 128.344 322.512 124.168C322.656 122.344 322.176 120.376 321.504 118.648C321.264 119.032 320.832 119.224 319.968 119.272C319.296 121.288 318.432 123.544 317.376 125.848L318.288 126.184H327.024L329.712 122.632C329.712 122.632 332.64 125.08 334.464 126.808C334.32 127.336 333.84 127.576 333.168 127.576H326.256V135.832H327.264L329.616 132.52C329.616 132.52 332.256 134.824 333.84 136.456C333.744 136.984 333.264 137.224 332.592 137.224H326.256V145.672H327.36L329.76 142.408C329.76 142.408 332.4 144.664 333.936 146.296C333.84 146.824 333.36 147.064 332.688 147.064H326.256V155.992H327.408ZM340.752 116.92L341.184 116.632C353.904 118.6 349.488 127.816 344.688 124.408C344.208 121.768 342.288 118.84 340.752 116.92ZM337.248 127.288L337.68 127C349.872 128.776 345.408 137.752 340.848 134.296C340.512 131.8 338.88 129.016 337.248 127.288ZM369.744 137.08L371.088 138.04C370.464 136.744 369.936 135.304 369.456 133.816H362.352C361.488 135.592 360.384 137.272 359.136 138.856L360.672 139.432H367.44L369.744 137.08ZM360.048 146.728H367.872V140.824H360.048V146.728ZM361.536 125.704V132.424H367.056V125.704H361.536ZM381.552 133.816H370.56C373.488 137.512 378.528 140.2 383.232 141.4L383.136 141.928C381.072 142.456 379.584 144.232 378.912 147.112C376.56 145.672 374.592 143.752 373.008 141.4V149.368C372.96 149.656 370.32 150.376 368.736 150.376H367.872V148.072H360.048V154.312C360.048 155.128 360.336 155.368 362.352 155.368H368.352C370.608 155.368 372.576 155.368 373.44 155.272C374.208 155.224 374.592 155.08 374.928 154.6C375.504 153.784 376.272 151.72 377.184 148.984H377.712L377.856 154.792C379.44 155.368 379.92 155.992 379.92 156.952C379.92 159.304 377.664 160.264 367.872 160.264H361.536C356.112 160.264 354.672 159.352 354.672 155.464V143.176C352.32 145.048 349.632 146.68 346.656 148.072L346.272 147.448C350.832 143.896 354.192 138.904 356.208 133.816H349.44L349.104 132.616C347.712 137.464 346.176 142.744 345.792 144.376C345.456 145.864 345.12 147.496 345.168 148.696C345.264 151.192 347.136 153.016 346.992 157.288C346.896 159.64 345.312 161.224 343.104 161.224C342.096 161.224 341.04 160.504 340.704 158.728C341.616 153.64 341.376 149.224 340.272 148.504C339.6 148.024 338.88 147.784 337.824 147.688V146.776H339.984C340.656 146.776 340.848 146.776 341.376 145.816C342.336 144.136 342.336 144.136 349.968 127L350.736 127.144C350.304 128.632 349.728 130.504 349.2 132.424H356.4V125.704H350.208L349.824 124.312H356.4V116.584L363.312 117.16C363.216 117.88 362.832 118.36 361.536 118.552V124.312H367.056V116.584L374.208 117.208C374.112 117.88 373.728 118.36 372.432 118.552V124.312H374.304L377.088 120.52C377.088 120.52 380.208 123.112 382.08 124.936C381.936 125.464 381.408 125.704 380.736 125.704H372.432V132.424H374.88L377.76 128.488C377.76 128.488 380.976 131.176 382.896 133.048C382.8 133.576 382.272 133.816 381.552 133.816ZM398.832 136.12V142.552H417.12V136.12H398.832ZM417.12 120.76H398.832V127H417.12V120.76ZM417.12 134.776V128.344H398.832V134.776H417.12ZM428.544 147.976L428.64 154.648C430.176 155.224 430.512 155.848 430.512 156.904C430.512 159.16 428.496 160.216 420.432 160.216H415.44C410.64 160.216 409.584 159.256 409.584 155.56V143.944H405.936C404.832 153.784 399.12 158.968 385.872 161.128L385.68 160.552C395.664 157.096 399.12 152.056 399.744 143.944H398.832V144.904C398.832 145.528 396.48 146.824 394.128 146.824H393.264V117.016L399.216 119.416H416.64L419.328 116.44L424.8 120.664C424.464 121.096 423.792 121.48 422.784 121.72V144.856C422.736 145.24 420 146.392 418.08 146.392H417.12V143.944H415.008V144.184V154.264C415.008 154.936 415.2 155.128 416.688 155.128H421.008C422.544 155.128 423.936 155.128 424.608 155.08C425.28 155.032 425.472 154.888 425.808 154.36C426.288 153.496 427.008 151.048 427.968 147.976H428.544ZM437.664 117.352L438.048 117.064C450.48 117.64 446.064 127.144 441.024 123.832C440.64 121.528 439.056 118.936 437.664 117.352ZM445.92 125.608L448.272 122.584C448.272 122.584 450.912 124.696 452.544 126.232C452.4 126.76 451.92 127 451.248 127H433.824L433.44 125.608H445.92ZM445.008 131.752L447.216 128.92C447.216 128.92 449.76 130.888 451.296 132.376C451.152 132.904 450.672 133.144 450 133.144H435.696L435.312 131.752H445.008ZM440.688 154.984H445.248V145.48H440.688V154.984ZM447.12 141.64L451.92 145.288C451.68 145.624 451.056 146.008 450.192 146.2V157.384C450.144 157.768 447.744 158.824 446.112 158.824H445.248V156.328H440.688V159.256C440.688 159.736 438.624 160.792 436.56 160.792H435.84V142.072L440.928 144.136H444.816L447.12 141.64ZM470.64 158.248L473.376 154.504C473.376 154.504 476.544 157.096 478.368 158.872C478.272 159.4 477.744 159.64 477.072 159.64H450.96L450.576 158.248H464.832C465.648 155.512 466.416 151.816 466.704 149.224L473.472 150.808C473.328 151.384 472.752 151.816 471.696 151.768C470.4 153.688 468.288 156.232 466.176 158.248H470.64ZM458.544 146.344H467.904V139.72H458.544V146.344ZM468.672 149.32H467.904V147.736H458.544V148.264C458.544 148.648 456.48 149.704 454.512 149.704H453.84V136.408L458.736 138.376H467.424L469.68 135.88L474.576 139.576C474.288 139.96 473.568 140.392 472.56 140.584V148.168C472.512 148.504 470.16 149.32 468.672 149.32ZM455.424 149.752L455.904 149.56C466.656 152.44 461.328 160.168 457.344 156.52C457.344 154.168 456.384 151.528 455.424 149.752ZM473.52 122.536L478.272 125.8C477.936 126.328 477.456 126.472 476.304 126.184C474.768 126.952 472.992 127.768 471.408 128.392C473.568 130.504 476.016 132.232 478.608 133.336L478.56 133.864C476.736 134.296 475.296 135.784 474.672 138.232C469.776 134.584 466.8 129.016 465.024 121.384C464.736 121.576 464.304 121.672 463.584 121.72C462.432 125.656 460.512 129.64 457.488 133H463.92L466.032 130.12C466.032 130.12 468.432 132.136 469.92 133.576C469.824 134.104 469.344 134.344 468.672 134.344H457.536L457.248 133.288C455.472 135.16 453.408 136.888 451.008 138.328L451.248 138.568C451.104 139.096 450.624 139.336 449.952 139.336H435.744L435.36 137.944H445.008L447.216 135.112C447.216 135.112 448.848 136.408 450.24 137.656C452.784 135.208 454.752 132.04 456.144 128.728C455.376 129.256 454.272 129.256 453.216 128.392C453.168 126.568 452.208 124.408 451.2 123.112L451.728 122.872C455.232 123.592 456.72 125.08 457.056 126.376C457.632 124.648 458.112 122.92 458.4 121.144H451.2L450.768 119.8H458.16L460.8 117.112L464.88 120.52C464.688 119.752 464.544 118.984 464.4 118.168L465.072 117.976C465.6 119.608 466.272 121.192 467.088 122.632C468.144 121.288 469.296 119.512 470.208 117.928L475.152 121.144C474.816 121.672 474.384 121.816 473.184 121.528C471.456 122.44 469.584 123.352 467.952 123.976C468.576 125.032 469.344 126.04 470.16 127C471.264 125.656 472.512 123.976 473.52 122.536ZM519.024 126.328L520.8 124.072C520.608 124.024 520.416 123.928 520.224 123.784C519.792 121.96 518.4 119.944 517.248 118.744C517.008 118.792 516.768 118.84 516.48 118.888C516.432 121.336 516.384 123.832 516.432 126.328H519.024ZM505.536 136.456H501.744V136.792C501.744 140.392 501.504 144.52 500.16 148.552C501.408 148.648 503.088 148.744 503.712 148.744C504.096 148.744 504.288 148.648 504.48 148.408C505.152 147.544 505.392 143.992 505.536 136.456ZM491.52 131.224V144.232C493.104 143.752 494.736 143.272 496.416 142.744C496.56 140.728 496.608 138.76 496.608 136.792V131.224H496.512H491.52ZM526.752 147.016L525.696 155.176C526.992 158.2 527.28 159.928 526.368 160.552C523.92 162.232 520.464 159.688 518.976 157.48C517.728 155.656 516.72 153.688 515.856 151.624C512.448 155.512 508.176 158.44 502.848 160.792L502.416 160.072C507.456 156.76 511.392 152.824 514.416 147.592C512.592 141.64 511.824 134.92 511.488 127.672H501.744V135.064H505.104L507.6 132.616L512.112 136.312C511.824 136.696 511.2 137.032 510.288 137.176C510.096 146.488 509.808 150.712 507.936 152.296C506.784 153.16 505.344 153.496 503.664 153.496C503.664 152.488 503.52 151.384 503.04 150.808C502.512 150.136 501.408 149.512 500.112 149.176V148.744C498.528 153.352 495.504 157.768 489.648 161.128L489.168 160.648C493.872 155.704 495.648 149.848 496.272 143.944C493.728 146.008 490.032 148.84 485.088 152.2C484.896 152.872 484.416 153.4 483.888 153.592L480.96 147.208C482.112 146.968 483.984 146.44 486.24 145.816V131.224H481.968L481.584 129.88H486.24V117.112L493.296 117.736C493.2 118.408 492.816 118.888 491.52 119.08V129.784L493.776 126.04C493.776 126.04 495.264 127.576 496.608 129.112V124.168L502.56 126.328H511.392C511.296 123.256 511.248 120.088 511.248 116.824L518.208 117.544C518.208 117.832 518.112 118.072 517.872 118.312C525.696 118.456 525.6 122.92 523.248 124.072C524.304 124.888 525.696 126.04 526.704 126.952C526.56 127.432 526.08 127.672 525.408 127.672H516.48C516.624 132.136 516.96 136.504 517.728 140.488C518.688 137.848 519.552 134.968 520.272 131.752L526.656 133.912C526.416 134.536 525.936 134.824 524.688 134.776C523.248 139.384 521.52 143.32 519.456 146.728C520.272 148.888 521.28 150.856 522.528 152.536C523.056 153.352 523.296 153.304 523.776 152.44C524.4 151.24 525.456 148.936 526.224 146.92L526.752 147.016ZM546.24 116.44L546.576 116.152C560.544 116.296 556.032 126.904 550.368 123.448C549.792 120.856 547.872 118.168 546.24 116.44ZM565.344 124.36L568.704 120.088C568.704 120.088 572.496 122.92 574.704 124.936C574.608 125.464 574.128 125.704 573.408 125.704H554.976V132.136H562.32L564.864 129.208L570.48 133.432C570.144 133.816 569.52 134.248 568.512 134.44V148.648C568.512 152.344 567.696 154.504 561.408 155.08C561.312 153.304 561.072 152.008 560.448 151.144C559.776 150.376 558.912 149.704 556.8 149.368V148.696C556.8 148.696 560.688 148.936 561.84 148.936C562.56 148.936 562.8 148.648 562.8 148.072V133.48H554.976V159.784C554.928 160.168 553.152 161.368 550.128 161.368H549.024V133.48H541.152V152.776C541.152 153.4 538.704 154.648 536.304 154.648H535.488V129.688L541.536 132.136H549.024V125.704H529.92L529.536 124.36H565.344ZM584.688 152.776H591.984V140.152H584.688V152.776ZM591.984 126.856H584.688V138.76H591.984V126.856ZM594.048 122.584L599.28 126.712C598.944 127.144 598.224 127.528 597.264 127.72V156.328C597.216 156.712 594.672 157.912 592.8 157.912H591.984V154.12H584.688V157.672C584.688 158.296 582.672 159.496 580.368 159.496H579.504V123.208L584.88 125.464H585.168C585.504 122.824 585.936 119.08 586.176 116.392L593.952 118.264C593.76 119.08 593.088 119.416 591.984 119.416C590.736 121.096 588.864 123.592 587.328 125.464H591.504L594.048 122.584ZM617.568 122.2L622.704 126.712C622.32 127.144 621.696 127.48 620.592 127.624C620.256 146.968 619.584 155.752 616.944 158.584C615.216 160.408 613.104 161.176 609.936 161.176C609.936 159.352 609.696 158.008 608.88 157.24C608.016 156.328 606.144 155.56 603.792 155.128L603.84 154.456C606.144 154.648 609.456 154.888 610.704 154.888C611.568 154.888 612 154.696 612.48 154.264C614.256 152.632 614.736 143.08 615.072 126.712H606.144C603.84 130.792 601.104 134.2 598.032 136.792L597.408 136.408C600.048 131.512 602.64 123.688 603.888 116.344L611.472 118.552C611.28 119.176 610.704 119.512 609.6 119.512C608.784 121.576 607.92 123.496 606.912 125.32H614.544L617.568 122.2ZM601.104 135.4L601.488 135.112C615.504 139.24 610.272 149.608 605.184 145.336C604.944 141.928 603.024 138.04 601.104 135.4ZM635.616 126.856L635.808 126.28C637.776 125.896 639.552 125.992 640.512 126.952C641.808 128.248 640.032 130.696 638.208 129.016C637.728 128.296 636.672 127.288 635.616 126.856ZM634.704 131.944L634.944 131.416C637.008 131.08 638.832 131.272 639.792 132.328C641.04 133.72 638.976 136.168 637.248 134.296C636.816 133.528 635.856 132.424 634.704 131.944ZM633.216 135.064H641.184C641.472 134.104 641.712 132.76 641.904 130.984H634.176C633.84 132.424 633.552 133.816 633.216 135.064ZM642.384 125.704H635.232C635.04 126.856 634.752 128.2 634.464 129.592H642.048C642.192 128.44 642.288 127.144 642.384 125.704ZM657.072 144.76L657.552 144.376C669.552 146.248 666.432 154.696 662.064 152.056C661.776 151.096 661.248 150.04 660.576 148.984C658.08 149.464 655.104 149.992 651.696 150.568V155.896C651.696 159.256 650.832 161.032 644.976 161.464C644.928 160.12 644.736 159.016 644.16 158.344C643.584 157.768 642.768 157.24 640.752 156.904V156.28C640.752 156.28 644.4 156.52 645.312 156.52C646.032 156.52 646.176 156.232 646.176 155.8V151.432C644.016 151.768 641.76 152.104 639.36 152.488L644.016 154.456C643.776 154.936 643.392 155.176 642.336 155.08C639.312 157.432 633.168 159.88 628.128 160.936L627.648 160.36C631.152 158.392 635.088 155.272 637.344 152.776L634.128 153.16C633.888 153.592 633.552 153.928 633.168 154.072L630.768 149.08C630.768 149.08 632.016 148.984 632.688 148.792C635.76 148.12 639.264 146.92 642.72 145.48C640.752 145.816 638.64 146.104 636.48 146.392C636.24 146.824 635.952 147.064 635.664 147.208L633.744 143.416C633.744 143.416 634.512 143.272 634.896 143.128C636.912 142.6 639.216 141.544 641.28 140.296C640.464 140.488 639.504 140.44 638.448 140.488C638.448 139.576 638.304 139.24 637.872 138.76C637.392 138.232 636.48 137.992 635.28 137.752V137.032C636.432 137.128 638.208 137.224 639.024 137.224C639.696 137.224 640.032 137.128 640.32 136.84C640.416 136.744 640.512 136.6 640.608 136.456H633.264L631.488 138.472L627.12 135.592C627.6 135.256 628.32 134.824 629.04 134.536C629.28 133.48 629.568 132.328 629.856 130.984H626.64L626.256 129.592H630.144C630.528 127.624 630.912 125.608 631.152 123.928C629.664 125.032 628.128 126.04 626.592 126.76L626.16 126.328C628.368 123.88 630.72 119.56 631.872 116.2L638.736 117.688C638.592 118.216 638.208 118.408 636.96 118.36C636.384 119.128 635.664 119.944 634.848 120.712H644.208L646.656 117.688C646.656 117.688 649.44 119.8 651.168 121.336C651.072 121.864 650.592 122.104 649.92 122.104H633.36L632.688 122.728L636.48 124.36H641.952L644.064 122.248L648.096 125.56C647.76 125.944 647.136 126.184 646.224 126.28C646.176 127.48 646.08 128.584 646.032 129.592H646.512L648.288 126.712C648.288 126.712 650.4 128.776 651.552 130.216C651.456 130.744 651.024 130.984 650.4 130.984H645.888C645.744 132.616 645.552 133.96 645.312 135.064H645.6L647.328 132.808C647.328 132.808 649.296 134.44 650.544 135.688C650.448 136.216 649.968 136.456 649.344 136.456H644.976C644.736 137.272 644.448 137.944 644.112 138.424C644.832 137.944 645.456 137.416 645.936 137.032L649.488 141.016C649.152 141.304 648.384 141.448 647.472 140.872C645.456 141.784 642.288 142.84 639.12 143.704C641.424 143.656 644.16 143.608 647.088 143.56C651.024 141.688 654.432 139.816 656.448 138.328L661.296 142.12C661.008 142.552 660.192 142.792 659.088 142.36C654.432 144.52 645.984 147.256 638.112 149.128C643.776 148.888 651.648 148.504 659.904 147.976C658.992 146.776 657.984 145.576 657.072 144.76ZM654.768 153.592L654.96 152.968C671.328 152.344 669.024 162.328 664.128 160.504C662.784 158.728 659.232 155.704 654.768 153.592ZM660.72 124.264H654.576C654.384 124.552 654.144 124.84 653.904 125.08C654.912 127.336 656.352 129.208 658.176 130.744C659.376 128.776 660.24 126.616 660.72 124.264ZM668.88 124.264H666.528C665.52 127.624 663.84 130.456 661.44 132.76C663.888 133.96 666.816 134.824 670.32 135.352L670.224 135.88C668.4 136.6 667.392 138.088 667.104 140.536C663.264 139.384 660.48 137.608 658.32 135.304C655.776 137.08 652.656 138.424 649.008 139.48L648.72 138.904C652.032 137.272 654.576 135.256 656.544 133C655.152 130.936 654.096 128.536 653.232 125.848C652.368 126.712 651.456 127.48 650.544 128.152L649.872 127.72C651.264 124.84 652.464 120.472 652.992 116.248L659.568 117.976C659.376 118.552 658.8 118.984 657.792 118.984C657.168 120.376 656.4 121.72 655.584 122.92H662.496L665.232 119.224C665.232 119.224 668.304 121.72 670.128 123.496C669.984 124.024 669.504 124.264 668.88 124.264ZM695.808 119.992L696.336 119.752C706.272 122.92 702 129.88 698.448 126.712C698.208 124.456 696.96 121.768 695.808 119.992ZM676.032 120.088L676.56 119.8C686.352 123.304 681.936 130.36 678.336 127.096C678.192 124.744 677.088 121.912 676.032 120.088ZM676.176 159.4L675.744 158.824C679.152 156.232 683.232 151.528 686.064 146.536L692.256 150.712C691.968 151.144 691.248 151.432 690.144 151.144C686.112 155.128 681.024 157.816 676.176 159.4ZM700.752 148.072L701.184 147.736C718.224 150.904 715.488 161.752 709.728 158.872C707.952 155.272 703.824 150.904 700.752 148.072ZM714.336 134.536L717.84 137.944C717.504 138.328 717.024 138.472 716.016 138.52C714.672 139.576 712.464 141.16 710.928 142.024C711.888 142.792 713.136 143.848 714.048 144.664C713.904 145.192 713.424 145.432 712.752 145.432H698.88V159.976C698.88 160.408 696.336 161.464 694.128 161.464H693.072V145.432H678.384L678 144.04H693.072V137.992L700.512 138.616C700.416 139.24 700.08 139.672 698.88 139.864V144.04H706.656L709.248 140.68L710.4 141.592C710.544 140.488 710.688 138.856 710.784 137.512H680.016C680.88 145.912 670.32 143.368 674.88 137.848C676.368 137.176 677.904 135.736 678.48 133.912C677.664 134.248 676.752 134.536 675.792 134.776L675.36 134.248C682.608 130.792 683.856 125.56 683.856 121.096V116.344L690.24 116.968C690.144 117.592 689.808 118.072 688.656 118.216V121.24C688.656 122.152 688.56 123.016 688.368 123.976C690 122.296 691.68 120.28 692.544 119.08L696.72 123.64C696.384 123.976 695.616 124.12 694.8 123.592C693.216 124.312 690.432 125.224 687.792 125.896C687.696 126.184 687.6 126.472 687.456 126.712C698.64 127.672 695.904 136.168 691.392 133.72C690.672 131.656 688.8 129.304 686.928 127.72C685.536 130.072 683.04 132.184 678.768 133.816H679.104C679.392 134.632 679.632 135.4 679.776 136.12H710.352L711.792 134.632C711.696 134.584 711.552 134.536 711.408 134.44C710.592 132.328 708.624 129.928 706.752 128.104C704.976 130.984 701.472 133.528 694.896 135.112L694.56 134.536C702.096 131.272 703.536 126.28 703.536 121.816V116.344L710.016 116.968C709.92 117.544 709.536 118.024 708.432 118.168V121.912C708.432 122.488 708.384 123.016 708.288 123.592C710.064 122.056 711.84 120.28 712.752 119.176L716.448 123.832C716.112 124.12 715.296 124.216 714.432 123.64C712.992 124.216 710.352 125.032 707.856 125.656C707.76 126.04 707.616 126.424 707.424 126.808C715.92 128.248 716.496 133.144 714.336 134.536ZM737.52 132.088L740.208 128.152C740.208 128.152 743.424 130.84 745.248 132.664C745.152 133.192 744.624 133.432 743.952 133.432H736.176V136.744C748.272 140.344 743.712 148.744 739.392 145.24C739.056 142.792 737.664 140.056 736.176 137.944V159.688C736.176 160.024 734.4 161.272 731.712 161.272H730.704V143.512C728.304 147.352 725.28 150.712 721.68 153.592L721.104 153.016C725.04 147.784 727.776 140.392 729.264 133.432H722.208L721.824 132.088H730.704V123.592C727.776 123.928 724.752 124.216 721.968 124.36L721.824 123.688C727.728 121.912 735.168 118.6 738.864 116.2L744.816 121.672C744.24 122.104 743.184 122.2 741.648 121.624C740.064 122.008 738.192 122.392 736.176 122.776V132.088H737.52ZM751.008 150.904H757.92V125.464H751.008V150.904ZM760.08 121.096L765.552 125.416C765.264 125.848 764.544 126.232 763.584 126.472V155.848C763.488 156.232 760.8 157.384 758.832 157.384H757.92V152.296H751.008V156.184C751.008 156.808 748.8 158.152 746.352 158.152H745.44V121.672L751.248 124.12H757.392L760.08 121.096ZM770.544 161.32L770.352 160.696C776.448 158.824 783.264 155.128 786.48 152.296L792.576 156.52C792.096 157.048 791.184 157.24 789.696 156.808C785.136 158.968 777.552 160.744 770.544 161.32ZM794.064 154.456L794.256 153.832C821.472 154.264 811.872 164.104 806.736 160.456C804.384 158.536 800.112 156.088 794.064 154.456ZM783.504 150.664H802.32V146.776H783.504V150.664ZM802.32 141.544H783.504V145.384H802.32V141.544ZM802.32 136.216H783.504V140.152H802.32V136.216ZM809.328 116.872L813.984 120.664C813.648 121.048 813.12 121.288 812.208 121.432C811.92 128.104 811.296 130.936 809.424 132.232C808.512 132.856 807.456 133.24 806.16 133.384L809.712 136.12C809.424 136.456 808.848 136.84 807.984 136.984V152.44C807.936 152.824 805.104 153.832 803.28 153.832H802.32V152.056H783.504V153.064C783.504 153.544 781.056 154.84 778.8 154.84H777.936V133.528C777.12 133.96 776.256 134.44 775.392 134.872C775.008 135.496 774.48 135.928 774 136.168L771.6 131.08C773.376 130.216 773.616 129.736 773.616 128.872V118.408L779.136 120.184C782.064 118.888 785.136 117.208 786.672 116.104L791.184 120.376C790.848 120.712 790.224 120.712 789.504 120.376C787.152 120.904 782.784 121.576 778.752 121.864V129.64C780.672 129.208 782.736 128.728 784.896 128.2C784.08 126.616 782.976 125.032 781.92 123.928L782.352 123.64C794.544 125.896 790.56 135.064 786 131.752C785.904 130.984 785.664 130.12 785.376 129.304C783.696 130.312 781.536 131.56 779.04 132.952L783.792 134.824H801.888L804.432 132.088L804.48 132.136C804.384 131.32 804.192 130.648 803.856 130.168C803.28 129.544 802.368 129.064 800.976 128.728V128.104C802.08 128.2 804 128.296 804.768 128.296C805.44 128.296 805.776 128.248 805.968 127.96C806.592 127.432 806.976 125.176 807.168 120.712H802.176C801.456 126.184 799.104 131.272 788.832 134.728L788.304 134.056C795.312 129.976 796.272 125.368 796.56 120.712H791.712L791.28 119.32H806.736L809.328 116.872ZM848.736 120.76H831.36V126.52H848.736V120.76ZM831.36 133.864H848.736V127.864H831.36V133.864ZM855.744 138.088L860.88 142.408C860.544 142.84 859.92 143.128 858.864 143.272C857.76 151.912 855.744 157.528 852.768 159.592C850.944 160.792 848.832 161.32 846.096 161.272C846.096 159.688 845.904 158.248 845.184 157.48C844.368 156.616 842.688 155.896 840.576 155.464V154.84C842.688 155.032 846 155.272 847.152 155.272C847.968 155.272 848.448 155.176 849.072 154.792C850.656 153.688 852.192 148.888 853.056 142.264H850.08C846.384 151.24 838.992 157.672 827.184 161.416L826.8 160.792C835.152 156.568 840.768 149.944 843.552 142.264H841.248C837.12 148.84 829.824 153.88 820.848 157.144L820.464 156.52C826.512 152.92 831.648 147.592 834.72 142.264H832.08C828.384 145.288 823.584 148.12 818.256 149.752L817.92 149.368C822.528 146.344 826.704 141.784 829.344 137.752C828.528 138.04 827.568 138.232 826.608 138.232H825.792V117.064L831.696 119.416H848.256L850.896 116.536L856.368 120.712C856.08 121.096 855.408 121.528 854.448 121.72V136.264C854.4 136.6 851.52 137.656 849.696 137.656H848.736V135.208H833.088L838.896 137.08C838.704 137.656 838.08 138.04 836.544 138.04C835.728 139 834.768 139.96 833.664 140.92H852.72L855.744 138.088ZM872.688 152.776H879.984V140.152H872.688V152.776ZM879.984 126.856H872.688V138.76H879.984V126.856ZM882.048 122.584L887.28 126.712C886.944 127.144 886.224 127.528 885.264 127.72V156.328C885.216 156.712 882.672 157.912 880.8 157.912H879.984V154.12H872.688V157.672C872.688 158.296 870.672 159.496 868.368 159.496H867.504V123.208L872.88 125.464H873.168C873.504 122.824 873.936 119.08 874.176 116.392L881.952 118.264C881.76 119.08 881.088 119.416 879.984 119.416C878.736 121.096 876.864 123.592 875.328 125.464H879.504L882.048 122.584ZM905.568 122.2L910.704 126.712C910.32 127.144 909.696 127.48 908.592 127.624C908.256 146.968 907.584 155.752 904.944 158.584C903.216 160.408 901.104 161.176 897.936 161.176C897.936 159.352 897.696 158.008 896.88 157.24C896.016 156.328 894.144 155.56 891.792 155.128L891.84 154.456C894.144 154.648 897.456 154.888 898.704 154.888C899.568 154.888 900 154.696 900.48 154.264C902.256 152.632 902.736 143.08 903.072 126.712H894.144C891.84 130.792 889.104 134.2 886.032 136.792L885.408 136.408C888.048 131.512 890.64 123.688 891.888 116.344L899.472 118.552C899.28 119.176 898.704 119.512 897.6 119.512C896.784 121.576 895.92 123.496 894.912 125.32H902.544L905.568 122.2ZM889.104 135.4L889.488 135.112C903.504 139.24 898.272 149.608 893.184 145.336C892.944 141.928 891.024 138.04 889.104 135.4ZM920.304 129.928V134.248C920.304 136.168 920.304 138.184 920.208 140.296C921.504 139.72 923.328 138.808 925.344 137.752V132.568C925.008 132.664 924.576 132.712 924.096 132.616C923.232 131.752 921.792 130.696 920.304 129.928ZM925.344 120.76H920.304V128.104C922.704 127.72 924.288 128.056 925.344 128.632V120.76ZM929.76 121.384V155.512C929.76 158.776 929.136 160.552 924.144 161.032C924 159.64 923.856 158.536 923.328 157.912C922.752 157.24 921.888 156.712 920.112 156.424V155.704C920.112 155.704 923.664 155.944 924.432 155.944C925.2 155.944 925.344 155.656 925.344 155.032V140.44C924.576 141.496 923.664 142.696 922.752 143.992C922.704 144.568 922.368 145.144 921.888 145.432L920.112 142.12C919.68 148.792 918.288 155.896 913.536 161.368L912.864 160.984C915.984 153.16 915.936 143.272 915.936 134.344V117.4L921.072 119.368H924.912L926.976 116.92L931.536 120.472C931.248 120.856 930.624 121.192 929.76 121.384ZM938.208 123.4V135.88C938.208 144.088 937.824 154.312 929.472 161.32L928.848 160.792C933.024 153.448 933.312 144.376 933.312 135.784V119.608L938.64 121.96C943.92 120.472 949.728 118.264 952.896 116.536L958.32 121.432C957.792 121.864 956.736 121.96 955.296 121.432C951.024 122.344 944.304 123.112 938.208 123.4ZM953.52 131.368L958.56 136.168C958.272 136.504 957.552 136.696 956.688 136.264C955.104 137.272 952.176 138.856 949.488 140.104C951.312 146.872 954.24 152.584 958.896 155.368L958.8 155.896C957.168 156.52 955.68 158.248 955.008 160.84C948.624 154.216 947.232 144.088 946.752 128.92C945.984 128.968 945.264 129.016 944.544 129.064V154.312C945.936 153.88 947.424 153.4 948.912 152.92L949.152 153.496C947.808 154.744 944.928 157.288 941.712 159.832C941.28 160.6 940.704 161.08 940.224 161.32L937.728 156.184C939.504 155.32 939.792 154.888 939.792 153.832V126.184L944.112 127.24C947.184 126.04 950.304 124.504 952.08 123.304L957.072 127.912C956.544 128.296 955.536 128.392 954.24 127.912C952.512 128.296 950.112 128.632 947.568 128.872C947.856 132.28 948.384 135.64 949.152 138.856C950.832 136.312 952.656 133.048 953.52 131.368ZM967.872 142.36H971.424V137.848H967.872V142.36ZM971.424 131.896H967.872V136.456H971.424V131.896ZM979.968 131.896H976.32V136.456H979.968V131.896ZM976.32 142.36H979.968V137.848H976.32V142.36ZM986.208 152.2L986.304 152.824C981.792 154.6 975.264 156.856 965.568 159.736C965.232 160.36 964.704 160.744 964.128 160.84L961.728 154.216C963.792 154.12 967.248 153.88 971.424 153.544V149.512H962.736L962.352 148.168H971.424V143.752H967.872V144.52C967.872 144.904 966.336 145.72 963.936 145.72H963.072V128.44L968.4 130.552H971.424V127.048H961.968L961.584 125.704H971.424V122.056C968.16 122.248 964.8 122.392 961.728 122.392L961.632 121.624C968.352 120.376 977.088 117.928 981.552 116.104L986.4 121.048C985.872 121.528 984.816 121.48 983.424 120.904C981.408 121.192 978.96 121.432 976.32 121.672V125.704H979.92L982.608 122.344C982.608 122.344 985.68 124.648 987.552 126.328C987.456 126.856 986.976 127.048 986.256 127.048H976.32V130.552H979.824L982.176 127.816L986.832 131.368C986.544 131.752 986.112 132.04 985.056 132.232V143.704C985.056 143.944 983.376 144.856 980.88 144.856H979.968V143.752H976.32V148.168H979.104L981.648 145C981.648 145 984.528 147.208 986.352 148.744C986.208 149.272 985.728 149.512 985.056 149.512H976.32V153.112C979.44 152.824 982.8 152.536 986.208 152.2ZM1002.1 125.464L1006.99 129.688C1006.66 130.12 1005.98 130.456 1004.93 130.6C1004.64 149.704 1004.06 156.04 1001.62 158.584C1000.13 160.216 998.064 160.84 995.616 160.84C995.664 159.112 995.52 157.912 994.944 157.144C994.32 156.328 993.072 155.752 991.44 155.32V154.648C992.88 154.792 995.04 154.936 996 154.936C996.72 154.936 997.152 154.744 997.584 154.36C999.072 152.92 999.504 145.624 999.792 129.736H995.424C995.136 144.088 993.456 154.408 981.024 161.368L980.496 160.648C988.848 152.968 990.048 143.128 990.192 129.736H985.968L985.536 128.344H990.192C990.192 124.744 990.144 120.952 990.144 116.824L997.296 117.496C997.152 118.216 996.672 118.696 995.52 118.84C995.472 122.2 995.472 125.368 995.424 128.344H999.264L1002.1 125.464ZM1032.05 145.576C1028.3 145.576 1025.23 142.504 1025.23 138.76C1025.23 135.016 1028.3 131.992 1032.05 131.992C1035.79 131.992 1038.82 135.016 1038.82 138.76C1038.82 142.504 1035.79 145.576 1032.05 145.576ZM1032.05 133.72C1029.22 133.72 1026.96 135.976 1026.96 138.76C1026.96 141.544 1029.22 143.848 1032.05 143.848C1034.83 143.848 1037.09 141.544 1037.09 138.76C1037.09 135.976 1034.83 133.72 1032.05 133.72Z" fill="black"/>
</svg>
