<svg width="845" height="183" viewBox="0 0 845 183" fill="none" xmlns="http://www.w3.org/2000/svg">
<path d="M43 175.5L0.5 0L845 20L784 150.5L43 175.5Z" fill="white"/>
<path d="M79.712 53.528L80 53.336C90.528 56.312 87.552 63.768 83.776 61.048C83.168 58.488 81.28 55.544 79.712 53.528ZM84.928 66.808L85.024 67.192C82.048 69.144 77.856 71.608 71.616 74.552C71.456 74.936 71.136 75.288 70.784 75.416L68.736 71.096C69.792 70.904 71.296 70.584 73.088 70.136L72.768 49.624L77.792 49.976C77.76 50.424 77.536 50.776 76.64 50.904L76.928 69.112C79.456 68.44 82.24 67.64 84.928 66.808ZM91.712 49.72L97.088 50.2C96.992 50.712 96.608 51.096 95.872 51.16C95.552 58.072 95.168 63.832 92.032 68.44C101.952 72.152 99.488 79.32 95.584 76.856C94.72 74.52 92.896 71.864 91.104 69.656C88.288 73.048 83.68 75.768 76.128 77.848L75.84 77.336C90.912 70.52 91.52 62.36 91.712 49.72ZM113.504 71.672H118.528V67.896H113.504V71.672ZM121.984 68.408V73.208C121.952 73.432 120.288 74.136 119.104 74.136H118.528V72.568H113.504V73.592C113.504 73.88 111.936 74.616 110.56 74.616H110.08V65.56L113.632 66.968H118.208L119.808 65.304L123.168 67.768C122.976 68.024 122.592 68.28 121.984 68.408ZM125.184 63.544L126.88 61.656L130.592 64.408C130.4 64.664 129.952 64.952 129.28 65.08V73.784C129.28 76.184 128.736 77.56 124.576 77.88C124.48 76.792 124.352 75.96 123.904 75.448C123.456 74.936 122.848 74.52 121.344 74.264V73.848C121.344 73.848 124.16 74.04 124.896 74.04C125.376 74.04 125.504 73.816 125.504 73.432V64.44H106.816V76.632C106.816 77.016 105.184 77.848 103.648 77.848H103.104V61.976L107.104 63.544H125.184ZM111.712 59.992H120.544V56.248H111.712V59.992ZM121.184 62.328H120.544V60.888H111.712V61.592C111.712 61.88 110.048 62.68 108.512 62.68H108V53.784L111.904 55.32H120.224L121.92 53.432L125.568 56.184C125.376 56.44 124.96 56.728 124.32 56.856V61.56C124.288 61.752 122.368 62.328 121.184 62.328ZM124.608 51.896L126.816 49.112C126.816 49.112 129.376 50.968 130.912 52.28C130.816 52.632 130.464 52.792 130.016 52.792H101.568L101.28 51.896H114.88C114.528 50.424 113.312 48.856 112.192 47.96L112.416 47.768C118.528 47.448 119.04 50.68 117.6 51.896H124.608ZM147.2 55.224H140.704C139.776 62.136 137.888 70.104 133.248 75.832L132.832 75.608C135.52 69.816 136.736 62.104 137.184 55.224H133.312L133.056 54.328H137.248C137.376 52.024 137.408 49.848 137.408 47.864L142.56 48.216C142.496 48.632 142.272 48.984 141.312 49.112C141.184 50.712 141.024 52.472 140.8 54.328H143.072L144.8 51.896C144.8 51.896 146.848 53.56 148.064 54.712C147.968 55.064 147.648 55.224 147.2 55.224ZM142.432 66.008L142.816 65.848C150.432 71.288 147.328 77.848 144.384 74.872C144.416 73.88 144.288 72.824 144.096 71.768C142.912 72.632 141.312 73.72 139.488 74.776C139.2 75.416 138.848 75.832 138.4 76.024L136.672 71.864C136.672 71.864 137.504 71.64 137.728 71.416C139.104 68.696 140.864 61.752 141.28 57.912L145.792 58.84C145.696 59.224 145.344 59.576 144.64 59.608C143.392 63.32 141.056 68.344 138.912 71.64C140.32 71.512 142.112 71.192 143.904 70.84C143.52 69.112 142.944 67.448 142.432 66.008ZM151.776 68.376V74.328H154.208V68.376H151.776ZM154.208 55.384H151.776V60.888H154.208V55.384ZM154.208 67.448V61.816H151.776V67.448H154.208ZM158.272 74.328L160.128 71.832C160.128 71.832 162.176 73.56 163.392 74.712C163.328 75.064 162.976 75.224 162.528 75.224H151.776V76.792C151.776 77.048 150.688 77.816 148.896 77.816H148.288V60.056C147.456 61.272 146.496 62.424 145.472 63.416L145.088 63.128C147.488 58.68 148.992 52.088 149.504 47.864L154.208 49.112C153.984 48.632 153.76 48.216 153.536 47.832L153.856 47.64C161.632 50.04 157.888 55.896 155.008 53.112C155.104 51.896 154.784 50.584 154.336 49.432C154.176 49.688 153.888 49.816 153.312 49.848C152.864 51.192 152.288 52.696 151.584 54.232L152.192 54.456H158.016L159.808 52.088C159.808 52.088 161.76 53.72 162.976 54.872C162.88 55.224 162.56 55.384 162.112 55.384H157.504V60.888H158.176L159.744 58.68C159.744 58.68 161.504 60.216 162.56 61.304C162.496 61.656 162.176 61.816 161.728 61.816H157.504V67.448H158.24L159.84 65.272C159.84 65.272 161.6 66.776 162.624 67.864C162.56 68.216 162.24 68.376 161.792 68.376H157.504V74.328H158.272ZM167.168 48.28L167.456 48.088C175.936 49.4 172.992 55.544 169.792 53.272C169.472 51.512 168.192 49.56 167.168 48.28ZM164.832 55.192L165.12 55C173.248 56.184 170.272 62.168 167.232 59.864C167.008 58.2 165.92 56.344 164.832 55.192ZM186.496 61.72L187.392 62.36C186.976 61.496 186.624 60.536 186.304 59.544H181.568C180.992 60.728 180.256 61.848 179.424 62.904L180.448 63.288H184.96L186.496 61.72ZM180.032 68.152H185.248V64.216H180.032V68.152ZM181.024 54.136V58.616H184.704V54.136H181.024ZM194.368 59.544H187.04C188.992 62.008 192.352 63.8 195.488 64.6L195.424 64.952C194.048 65.304 193.056 66.488 192.608 68.408C191.04 67.448 189.728 66.168 188.672 64.6V69.912C188.64 70.104 186.88 70.584 185.824 70.584H185.248V69.048H180.032V73.208C180.032 73.752 180.224 73.912 181.568 73.912H185.568C187.072 73.912 188.384 73.912 188.96 73.848C189.472 73.816 189.728 73.72 189.952 73.4C190.336 72.856 190.848 71.48 191.456 69.656H191.808L191.904 73.528C192.96 73.912 193.28 74.328 193.28 74.968C193.28 76.536 191.776 77.176 185.248 77.176H181.024C177.408 77.176 176.448 76.568 176.448 73.976V65.784C174.88 67.032 173.088 68.12 171.104 69.048L170.848 68.632C173.888 66.264 176.128 62.936 177.472 59.544H172.96L172.736 58.744C171.808 61.976 170.784 65.496 170.528 66.584C170.304 67.576 170.08 68.664 170.112 69.464C170.176 71.128 171.424 72.344 171.328 75.192C171.264 76.76 170.208 77.816 168.736 77.816C168.064 77.816 167.36 77.336 167.136 76.152C167.744 72.76 167.584 69.816 166.848 69.336C166.4 69.016 165.92 68.856 165.216 68.792V68.184H166.656C167.104 68.184 167.232 68.184 167.584 67.544C168.224 66.424 168.224 66.424 173.312 55L173.824 55.096C173.536 56.088 173.152 57.336 172.8 58.616H177.6V54.136H173.472L173.216 53.208H177.6V48.056L182.208 48.44C182.144 48.92 181.888 49.24 181.024 49.368V53.208H184.704V48.056L189.472 48.472C189.408 48.92 189.152 49.24 188.288 49.368V53.208H189.536L191.392 50.68C191.392 50.68 193.472 52.408 194.72 53.624C194.624 53.976 194.272 54.136 193.824 54.136H188.288V58.616H189.92L191.84 55.992C191.84 55.992 193.984 57.784 195.264 59.032C195.2 59.384 194.848 59.544 194.368 59.544ZM201.216 48.248L201.472 48.056C210.336 49.432 207.136 56.056 203.744 53.56C203.52 51.672 202.368 49.592 201.216 48.248ZM202.688 68.6L203.136 68.568C204.896 72.76 203.584 75.64 201.888 76.6C200.736 77.272 199.296 76.984 198.848 75.8C198.496 74.68 199.168 73.816 200.128 73.304C201.44 72.632 202.816 70.808 202.688 68.6ZM206.24 68.632L206.624 68.536C212.768 72.856 208.384 78.072 206.048 74.84C206.624 72.76 206.592 70.424 206.24 68.632ZM210.272 68.408L210.592 68.248C218.112 70.456 214.848 76.12 212.032 73.624C212.032 71.832 211.168 69.784 210.272 68.408ZM214.784 67.896L215.04 67.672C222.592 67.928 220.416 73.656 217.44 71.896C217.12 70.456 215.904 68.792 214.784 67.896ZM216.448 55.928H211.36C210.656 57.4 209.856 58.84 208.928 60.28H215.456L216.448 55.928ZM219.52 61.176H208.352C207.296 62.712 206.112 64.248 204.768 65.656H218.656L219.52 61.176ZM224.192 63.928L227.456 66.616C227.2 66.84 226.816 67.064 226.144 67.128C225.664 72.76 224.704 75.704 223.104 76.856C222.08 77.592 220.8 77.912 219.232 77.912C219.232 76.92 219.104 76.056 218.688 75.576C218.24 75.064 217.376 74.68 216.224 74.424V73.976C217.28 74.104 219.04 74.2 219.68 74.2C220.192 74.2 220.448 74.136 220.768 73.912C221.536 73.304 222.272 70.808 222.656 66.584H203.872C201.92 68.536 199.616 70.328 196.992 71.8L196.672 71.512C201.664 67.448 205.248 61.656 207.648 55.928H199.36L199.072 55H208.032C209.024 52.44 209.792 49.912 210.336 47.576L215.232 49.048C215.104 49.432 214.816 49.656 213.952 49.656C213.376 51.384 212.672 53.176 211.808 55H216.384L217.76 53.528L220.896 55.896C220.64 56.184 220.352 56.28 219.776 56.344L218.848 60.28H219.36L220.704 58.808L223.776 61.144C223.52 61.432 223.264 61.528 222.688 61.592L221.92 65.656H222.4L224.192 63.928ZM250.528 60.536H251.904C252.288 57.464 252.32 54.328 252.352 51.288H251.296C251.168 53.688 250.848 57.816 250.528 60.536ZM247.072 51.448V60.76C247.328 60.6 247.616 60.408 247.904 60.28C248.224 57.752 248.544 53.56 248.608 51.288H248L247.936 51.064C247.776 51.224 247.456 51.384 247.072 51.448ZM242.144 62.2H244.256V57.048H242.144V62.2ZM242.144 51.16V56.12H244.256V51.16H242.144ZM258.336 70.04L258.432 73.944C259.136 74.296 259.232 74.68 259.232 75.224C259.232 76.376 258.208 77.048 255.84 77.048H254.72C252.672 77.048 252.448 76.376 252.448 74.52V68.824C250.752 72.184 248 75.32 243.712 78.008L243.264 77.496C248.864 72.632 251.008 67.128 251.808 61.432H250.72L249.6 62.776L247.072 61.176V63.832C247.072 64.088 245.664 64.696 244.704 64.696H244.256V63.128H242.144V69.88C242.944 69.496 243.84 69.08 244.704 68.664C244.352 67.544 243.84 66.456 243.392 65.56L243.712 65.4C250.88 68.504 247.84 73.784 245.248 71.416C245.216 70.872 245.12 70.264 244.992 69.688C243.968 70.84 242.592 72.376 240.96 73.912C240.672 74.52 240.224 74.904 239.84 75.096L238.112 71.352C239.008 70.872 239.136 70.616 239.136 69.816V56.504C238.976 56.632 238.752 56.696 238.496 56.696H235.552V58.68C240.992 61.624 238.496 65.752 236.512 63.768C236.576 62.52 236.096 60.984 235.552 59.704V76.696C235.552 77.048 234.208 77.848 233.024 77.848H232.384V65.56C231.488 67.256 230.432 68.824 229.216 70.264L228.8 69.912C230.592 66.232 231.648 61.336 232.192 56.696H229.408L229.152 55.768H232.384V47.768L236.736 48.216C236.672 48.664 236.416 48.984 235.552 49.112V55.608L236.832 53.688C236.832 53.688 238.24 55.032 239.136 55.992V48.632L242.528 50.264H243.968L245.344 48.856L247.872 50.84L247.776 50.392H254.08L255.904 47.896C255.904 47.896 257.952 49.624 259.2 50.776C259.104 51.128 258.752 51.288 258.304 51.288H255.616C255.52 54.392 255.424 57.528 254.976 60.536H255.36L256.8 58.328C256.8 58.328 258.432 59.864 259.36 60.92C259.264 61.272 258.976 61.432 258.528 61.432H254.816C254.624 62.584 254.368 63.736 254.016 64.856L256.384 65.08C256.32 65.496 256.032 65.784 255.456 65.88V73.72C255.456 74.04 255.488 74.136 255.776 74.136H256.128C256.32 74.136 256.448 74.168 256.544 74.136C256.704 74.136 256.8 74.104 256.928 73.816C257.152 73.368 257.568 71.704 257.952 70.04H258.336ZM265.664 67.288L266.112 67.256C267.68 71.224 266.464 74.04 264.928 75C263.84 75.672 262.432 75.448 261.984 74.328C261.664 73.272 262.24 72.376 263.2 71.896C264.416 71.192 265.728 69.368 265.664 67.288ZM266.624 60.92L266.368 60.024H280.832L282.816 58.36L286.208 60.696C286.016 61.016 285.728 61.08 285.056 61.144C283.904 63.16 281.664 65.208 279.2 66.584L278.912 66.2C279.712 64.824 280.544 62.68 280.96 60.92H266.624ZM277.152 56.344L278.752 54.136C278.752 54.136 280.576 55.672 281.664 56.76C281.568 57.112 281.248 57.272 280.8 57.272H270.592L270.336 56.344H277.152ZM274.112 65.528L274.4 65.336C282.656 67.128 279.648 73.4 276.544 70.968C276.416 69.08 275.264 66.904 274.112 65.528ZM283.424 69.752L283.52 73.496C284.64 73.88 284.928 74.264 284.928 74.936C284.928 76.536 283.36 76.984 277.056 76.984H272.992C269.344 76.984 268.512 76.376 268.512 73.912V66.488L273.28 66.872C273.216 67.288 272.928 67.576 272.288 67.672V73.24C272.288 73.72 272.448 73.848 273.632 73.848H277.472C278.816 73.848 280.064 73.848 280.608 73.816C281.12 73.784 281.312 73.688 281.536 73.368C281.92 72.824 282.4 71.544 283.104 69.752H283.424ZM283.52 67.224L283.808 67C293.472 69.208 290.464 76.504 286.944 73.816C286.688 71.48 285.152 68.856 283.52 67.224ZM273.28 47.48L278.72 49.08C278.592 49.496 278.24 49.72 277.152 49.816C280.288 52.44 285.6 54.264 291.264 54.808L291.232 55.288C289.664 55.896 288.992 57.624 288.736 59.096C283.36 57.4 279.2 54.328 276.672 50.168C274.016 53.688 268.128 57.912 261.152 59.704L261.024 59.352C266.592 56.568 271.424 51.672 273.28 47.48ZM296.192 48.472L296.416 48.28C304.864 48.696 301.824 55.096 298.432 52.856C298.208 51.256 297.152 49.528 296.192 48.472ZM302.496 54.04L304.096 51.96C304.096 51.96 305.92 53.4 307.04 54.456C306.976 54.808 306.624 54.968 306.176 54.968H293.248L292.992 54.04H302.496ZM294.336 58.136H301.344L302.88 56.12C302.88 56.12 304.608 57.528 305.696 58.552C305.6 58.904 305.28 59.064 304.832 59.064H294.592L294.336 58.136ZM311.072 51.032V52.664C311.072 55.288 310.496 59.608 305.12 62.104C305.312 62.296 305.536 62.488 305.728 62.68C305.632 63.032 305.312 63.192 304.864 63.192H294.56L294.304 62.264H301.344L302.88 60.312C302.88 60.312 303.776 61.016 304.672 61.752C307.36 58.968 307.712 55.48 307.712 52.664V48.696L311.648 50.136H314.368L316.064 48.312L319.168 50.872C318.976 51.096 318.592 51.256 318.016 51.352V56.632C318.016 56.952 318.112 57.08 318.528 57.08H319.36H320.192C320.384 57.08 320.704 57.048 320.864 57.048C321.056 57.016 321.376 56.952 321.6 56.92H321.888L322.016 56.952C322.784 57.336 323.072 57.656 323.072 58.296C323.072 59.576 321.984 60.28 318.912 60.28H317.376C314.976 60.28 314.688 59.608 314.688 57.528V51.032H311.072ZM297.984 73.624H301.6V67.352H297.984V73.624ZM302.144 76.248H301.6V74.52H297.984V76.44C297.984 76.76 296.576 77.496 295.2 77.496H294.72V65.08L298.112 66.456H301.312L302.848 64.824L306.112 67.256C305.92 67.48 305.504 67.736 304.896 67.864V75.288C304.864 75.544 303.264 76.248 302.144 76.248ZM315.936 63.512H308.384C309.344 66.104 310.816 68.088 312.736 69.624C314.144 67.768 315.2 65.752 315.936 63.512ZM317.888 60.632L321.216 63.64C320.992 63.96 320.64 64.056 319.872 64.12C318.752 66.84 317.216 69.208 315.168 71.256C317.504 72.568 320.256 73.432 323.168 74.008L323.136 74.36C321.664 74.68 320.576 75.8 320.096 77.528C317.216 76.44 314.784 75.128 312.832 73.24C310.112 75.288 306.592 76.792 302.272 77.784L302.08 77.368C305.824 75.896 308.896 73.912 311.232 71.416C309.696 69.368 308.544 66.808 307.808 63.512H306.272L305.984 62.584H315.84L317.888 60.632ZM329.472 48.184L329.728 48.024C338.336 48.472 335.2 55.16 331.744 52.792C331.52 51.096 330.496 49.304 329.472 48.184ZM336.512 53.912L338.336 51.576C338.336 51.576 340.384 53.176 341.632 54.328C341.568 54.68 341.216 54.84 340.768 54.84H325.184L324.928 53.912H336.512ZM326.592 58.072H334.944L336.736 55.8C336.736 55.8 338.752 57.336 339.936 58.456C339.84 58.808 339.52 58.968 339.072 58.968H326.848L326.592 58.072ZM334.944 62.2L336.736 59.96C336.736 59.96 338.752 61.496 339.936 62.616C339.84 62.968 339.52 63.128 339.072 63.128H326.848L326.592 62.2H334.944ZM330.56 73.528H335.488V67.448H330.56V73.528ZM335.168 66.552L336.8 64.824L340.192 67.384C340 67.608 339.552 67.896 338.912 68.024V75.288C338.88 75.544 337.216 76.248 336.064 76.248H335.488V74.424H330.56V76.312C330.56 76.632 329.088 77.4 327.68 77.4H327.2V65.144L330.688 66.552H335.168ZM350.176 59.608L352.032 57.112C352.032 57.112 354.144 58.84 355.424 60.024C355.328 60.376 354.976 60.536 354.528 60.536H348.64V76.408C348.64 76.824 347.04 77.72 345.632 77.72H344.928V60.536H339.808L339.552 59.608H344.928V47.992L349.824 48.472C349.728 48.92 349.504 49.272 348.64 49.4V59.608H350.176ZM369.792 67.576L369.248 66.552C371.296 65.464 372.224 63.992 372.672 62.2C370.88 61.496 369.504 60.664 369.504 59.064C369.504 57.752 370.496 56.632 372.032 56.632C373.568 56.632 374.752 57.784 374.752 59.896C374.752 62.584 373.44 65.912 369.792 67.576ZM394.464 47.8L399.744 49.336C399.616 49.752 399.2 50.008 398.464 50.008C397.568 52.472 396.512 54.744 395.36 56.824L396.928 57.4C396.832 57.72 396.544 57.912 395.968 58.008V76.76C395.904 77.048 394.4 77.816 392.96 77.816H392.288V61.464C391.264 62.744 390.176 63.928 389.024 64.952L388.608 64.696C390.912 60.536 393.248 53.976 394.464 47.8ZM400.48 70.136L400.736 69.944C408.832 71.128 405.408 76.952 402.336 74.488C402.176 72.952 401.312 71.224 400.48 70.136ZM409.92 63.896L413.376 63.768C412.832 63.288 412.288 62.872 411.776 62.52L412.032 62.264C412.448 62.264 412.864 62.264 413.248 62.296V61.56H409.92V63.896ZM403.04 60.632H406.24V58.328H403.04V60.632ZM406.24 55.096H403.04V57.432H406.24V55.096ZM413.248 55.096H409.92V57.432H413.248V55.096ZM413.248 60.632V58.328H409.92V60.632H413.248ZM416.992 55.64V61.624C416.96 61.784 415.392 62.328 414.272 62.424C419.456 63.192 419.104 66.904 416.992 67.064C417.728 67.64 418.816 68.504 419.584 69.176C419.488 69.528 419.136 69.688 418.688 69.688H413.248V73.784C413.248 76.28 412.704 77.56 408.736 77.912C408.672 76.856 408.544 76.056 408.128 75.544C407.776 75.064 407.168 74.68 405.824 74.456V74.008C405.824 74.008 408.48 74.2 409.024 74.2C409.472 74.2 409.6 74.072 409.6 73.72V69.688H397.632L397.376 68.792H409.6V65.816L414.336 66.232C414.272 66.712 413.952 66.936 413.248 67.032V68.792H414.272L415.872 66.712C415.488 65.976 414.816 65.176 414.08 64.44C410.784 65.208 406.304 66.136 400.096 67.256C399.904 67.64 399.52 67.896 399.2 67.96L397.792 64.216C399.52 64.248 402.56 64.152 406.24 64.024V61.56H403.04V62.168C403.04 62.52 401.408 63.288 399.904 63.288H399.392V52.696L403.264 54.232H406.24V52.184H398.4L398.144 51.256H406.24V47.832L411.104 48.28C411.04 48.728 410.784 49.08 409.92 49.176V51.256H413.44L415.488 48.632C415.488 48.632 417.76 50.424 419.168 51.672C419.072 52.024 418.688 52.184 418.24 52.184H409.92V54.232H412.928L414.624 52.408L418.144 55.032C417.984 55.256 417.568 55.512 416.992 55.64ZM437.312 60.28H441.248C441.664 59.032 442.112 57.432 442.336 56.184H434.976C438.72 57.272 438.56 59.512 437.312 60.28ZM429.504 55.256H437.856V52.28H431.776L431.52 51.352H437.856V47.8L442.464 48.184C442.432 48.536 442.208 48.792 441.568 48.92V51.352H443.616L445.44 49.112C445.44 49.112 447.52 50.648 448.832 51.768C448.736 52.12 448.416 52.28 447.936 52.28H441.568V55.256H445.632L447.488 52.952C447.488 52.952 449.632 54.52 450.944 55.672C450.88 56.024 450.56 56.184 450.08 56.184H443.456L447.008 57.208C446.88 57.624 446.496 57.848 445.824 57.816C444.96 58.552 443.648 59.48 442.368 60.28H444.672L446.432 58.136C446.432 58.136 448.512 59.576 449.792 60.664C449.696 61.016 449.344 61.176 448.896 61.176H441.568V64.12H443.968L445.696 61.976C445.696 61.976 447.712 63.448 448.928 64.504C448.864 64.856 448.544 65.016 448.096 65.016H441.568V68.024H445.376L447.2 65.816C447.2 65.816 449.28 67.32 450.56 68.44C450.496 68.792 450.144 68.952 449.696 68.952H441.568V72.504C441.568 72.696 440.416 73.464 438.528 73.464H437.856V68.952H430.208L429.952 68.024H437.856V65.016H431.904L431.648 64.12H437.856V61.176H430.784L430.528 60.28H435.36C435.2 60.184 435.008 60.056 434.848 59.896C434.848 58.584 434.304 57.112 433.632 56.184H429.76L429.504 55.256ZM422.24 48.536L422.496 48.344C431.36 49.08 428.512 55.768 425.024 53.464C424.704 51.704 423.424 49.752 422.24 48.536ZM428.832 61.24L432 63.768C431.808 64.088 431.488 64.184 430.816 64.216C430.048 66.52 428.48 69.048 426.368 71.032C426.624 71.096 426.816 71.224 427.072 71.416C429.6 73.432 433.44 73.848 440.544 73.848C444.288 73.848 447.36 73.848 451.104 73.592V74.008C449.632 74.328 448.768 75.672 448.576 77.144H439.264C432.224 77.144 429.408 75.896 426.688 72.568C426.24 71.992 425.856 72.056 425.6 72.632C425.056 73.592 424.256 75.256 423.616 76.856C423.68 77.176 423.584 77.336 423.36 77.528L420.768 73.88C422.016 73.24 423.68 72.088 424.768 71.448C425.92 69.304 426.816 66.392 427.2 63.96H425.6L424.48 65.016L421.632 63C421.952 62.776 422.432 62.52 422.912 62.36C423.904 60.792 425.216 58.488 426.08 56.856H421.664L421.376 55.928H426.112L427.68 54.36L430.816 57.176C430.528 57.496 429.888 57.656 429.152 57.72C428.32 59.128 426.976 61.432 425.984 63.032H427.008L428.832 61.24ZM478.016 54.552L479.2 53.048C479.072 53.016 478.944 52.952 478.816 52.856C478.528 51.64 477.6 50.296 476.832 49.496C476.672 49.528 476.512 49.56 476.32 49.592C476.288 51.224 476.256 52.888 476.288 54.552H478.016ZM469.024 61.304H466.496V61.528C466.496 63.928 466.336 66.68 465.44 69.368C466.272 69.432 467.392 69.496 467.808 69.496C468.064 69.496 468.192 69.432 468.32 69.272C468.768 68.696 468.928 66.328 469.024 61.304ZM459.68 57.816V66.488C460.736 66.168 461.824 65.848 462.944 65.496C463.04 64.152 463.072 62.84 463.072 61.528V57.816H463.008H459.68ZM483.168 68.344L482.464 73.784C483.328 75.8 483.52 76.952 482.912 77.368C481.28 78.488 478.976 76.792 477.984 75.32C477.152 74.104 476.48 72.792 475.904 71.416C473.632 74.008 470.784 75.96 467.232 77.528L466.944 77.048C470.304 74.84 472.928 72.216 474.944 68.728C473.728 64.76 473.216 60.28 472.992 55.448H466.496V60.376H468.736L470.4 58.744L473.408 61.208C473.216 61.464 472.8 61.688 472.192 61.784C472.064 67.992 471.872 70.808 470.624 71.864C469.856 72.44 468.896 72.664 467.776 72.664C467.776 71.992 467.68 71.256 467.36 70.872C467.008 70.424 466.272 70.008 465.408 69.784V69.496C464.352 72.568 462.336 75.512 458.432 77.752L458.112 77.432C461.248 74.136 462.432 70.232 462.848 66.296C461.152 67.672 458.688 69.56 455.392 71.8C455.264 72.248 454.944 72.6 454.592 72.728L452.64 68.472C453.408 68.312 454.656 67.96 456.16 67.544V57.816H453.312L453.056 56.92H456.16V48.408L460.864 48.824C460.8 49.272 460.544 49.592 459.68 49.72V56.856L461.184 54.36C461.184 54.36 462.176 55.384 463.072 56.408V53.112L467.04 54.552H472.928C472.864 52.504 472.832 50.392 472.832 48.216L477.472 48.696C477.472 48.888 477.408 49.048 477.248 49.208C482.464 49.304 482.4 52.28 480.832 53.048C481.536 53.592 482.464 54.36 483.136 54.968C483.04 55.288 482.72 55.448 482.272 55.448H476.32C476.416 58.424 476.64 61.336 477.152 63.992C477.792 62.232 478.368 60.312 478.848 58.168L483.104 59.608C482.944 60.024 482.624 60.216 481.792 60.184C480.832 63.256 479.68 65.88 478.304 68.152C478.848 69.592 479.52 70.904 480.352 72.024C480.704 72.568 480.864 72.536 481.184 71.96C481.6 71.16 482.304 69.624 482.816 68.28L483.168 68.344ZM496.16 47.96L496.384 47.768C505.696 47.864 502.688 54.936 498.912 52.632C498.528 50.904 497.248 49.112 496.16 47.96ZM508.896 53.24L511.136 50.392C511.136 50.392 513.664 52.28 515.136 53.624C515.072 53.976 514.752 54.136 514.272 54.136H501.984V58.424H506.88L508.576 56.472L512.32 59.288C512.096 59.544 511.68 59.832 511.008 59.96V69.432C511.008 71.896 510.464 73.336 506.272 73.72C506.208 72.536 506.048 71.672 505.632 71.096C505.184 70.584 504.608 70.136 503.2 69.912V69.464C503.2 69.464 505.792 69.624 506.56 69.624C507.04 69.624 507.2 69.432 507.2 69.048V59.32H501.984V76.856C501.952 77.112 500.768 77.912 498.752 77.912H498.016V59.32H492.768V72.184C492.768 72.6 491.136 73.432 489.536 73.432H488.992V56.792L493.024 58.424H498.016V54.136H485.28L485.024 53.24H508.896ZM521.792 72.184H526.656V63.768H521.792V72.184ZM526.656 54.904H521.792V62.84H526.656V54.904ZM528.032 52.056L531.52 54.808C531.296 55.096 530.816 55.352 530.176 55.48V74.552C530.144 74.808 528.448 75.608 527.2 75.608H526.656V73.08H521.792V75.448C521.792 75.864 520.448 76.664 518.912 76.664H518.336V52.472L521.92 53.976H522.112C522.336 52.216 522.624 49.72 522.784 47.928L527.968 49.176C527.84 49.72 527.392 49.944 526.656 49.944C525.824 51.064 524.576 52.728 523.552 53.976H526.336L528.032 52.056ZM543.712 51.8L547.136 54.808C546.88 55.096 546.464 55.32 545.728 55.416C545.504 68.312 545.056 74.168 543.296 76.056C542.144 77.272 540.736 77.784 538.624 77.784C538.624 76.568 538.464 75.672 537.92 75.16C537.344 74.552 536.096 74.04 534.528 73.752L534.56 73.304C536.096 73.432 538.304 73.592 539.136 73.592C539.712 73.592 540 73.464 540.32 73.176C541.504 72.088 541.824 65.72 542.048 54.808H536.096C534.56 57.528 532.736 59.8 530.688 61.528L530.272 61.272C532.032 58.008 533.76 52.792 534.592 47.896L539.648 49.368C539.52 49.784 539.136 50.008 538.4 50.008C537.856 51.384 537.28 52.664 536.608 53.88H541.696L543.712 51.8ZM532.736 60.6L532.992 60.408C542.336 63.16 538.848 70.072 535.456 67.224C535.296 64.952 534.016 62.36 532.736 60.6ZM560.288 48.12L560.512 47.928C570.496 49.08 567.52 56.536 563.744 53.976C563.296 51.896 561.76 49.56 560.288 48.12ZM569.056 56.024H556.576C558.016 61.016 560.672 64.824 564.16 67.64C566.816 64.248 568.352 60.344 569.056 56.024ZM577.856 56.024H573.696C572.544 61.272 570.4 65.848 566.784 69.464C570.368 71.736 574.656 73.208 579.168 74.168L579.072 74.552C577.184 74.808 575.808 75.96 575.136 77.848C570.816 76.44 567.136 74.52 564.128 71.768C560.384 74.552 555.52 76.6 549.184 77.848L549.024 77.464C554.72 75.576 559.072 72.984 562.208 69.816C559.264 66.424 557.152 61.912 556 56.024H549.568L549.312 55.128H572.48L574.752 52.088C574.752 52.088 577.28 54.136 578.752 55.512C578.656 55.864 578.336 56.024 577.856 56.024ZM581.184 65.432L580.8 65.176C583.776 61.048 586.848 54.392 588.384 47.768L593.76 49.496C593.632 49.88 593.216 50.168 592.448 50.136C591.488 52.6 590.368 54.84 589.12 56.824L590.56 57.368C590.464 57.656 590.176 57.848 589.568 57.976V76.728C589.504 77.016 587.968 77.816 586.496 77.816H585.792V61.272C584.352 62.872 582.816 64.248 581.184 65.432ZM609.728 68.568L609.856 73.016C611.008 73.464 611.36 73.88 611.36 74.584C611.36 76.248 609.696 76.856 603.296 76.856H599.424C595.744 76.856 594.432 76.152 594.432 73.144V48.408L599.136 48.92C599.104 49.336 598.816 49.688 597.984 49.816V59.32H605.248L607.04 56.76C607.04 56.76 609.12 58.52 610.336 59.704C610.24 60.056 609.952 60.216 609.472 60.216H597.984V72.184C597.984 73.144 598.432 73.432 599.904 73.432H603.584C604.992 73.432 606.112 73.432 606.688 73.368C607.136 73.336 607.456 73.208 607.744 72.888C608.16 72.28 608.736 70.616 609.376 68.568H609.728ZM623.68 58.392L625.472 55.768C625.472 55.768 627.616 57.56 628.832 58.776C628.768 59.128 628.416 59.288 627.968 59.288H622.784V61.496C630.848 63.896 627.808 69.496 624.928 67.16C624.704 65.528 623.776 63.704 622.784 62.296V76.792C622.784 77.016 621.6 77.848 619.808 77.848H619.136V66.008C617.536 68.568 615.52 70.808 613.12 72.728L612.736 72.344C615.36 68.856 617.184 63.928 618.176 59.288H613.472L613.216 58.392H619.136V52.728C617.184 52.952 615.168 53.144 613.312 53.24L613.216 52.792C617.152 51.608 622.112 49.4 624.576 47.8L628.544 51.448C628.16 51.736 627.456 51.8 626.432 51.416C625.376 51.672 624.128 51.928 622.784 52.184V58.392H623.68ZM632.672 70.936H637.28V53.976H632.672V70.936ZM638.72 51.064L642.368 53.944C642.176 54.232 641.696 54.488 641.056 54.648V74.232C640.992 74.488 639.2 75.256 637.888 75.256H637.28V71.864H632.672V74.456C632.672 74.872 631.2 75.768 629.568 75.768H628.96V51.448L632.832 53.08H636.928L638.72 51.064ZM656.704 54.424L656.416 53.496H662.976V47.8L667.648 48.216C667.616 48.632 667.36 48.92 666.624 49.048V53.496H669.44L671.36 51C671.36 51 673.568 52.696 674.912 53.912C674.816 54.264 674.496 54.424 674.016 54.424H666.624V59.32H668.832L670.688 56.92C670.688 56.92 672.832 58.552 674.112 59.736C674.048 60.088 673.696 60.248 673.216 60.248H657.792L657.536 59.32H662.976V54.424H656.704ZM648.8 56.056H650.528V52.152C650.336 52.408 650.048 52.568 649.536 52.632C649.344 53.784 649.088 54.936 648.8 56.056ZM658.016 61.624L658.112 61.976C657.024 62.712 655.712 63.672 654.048 64.728V76.536C654.048 76.92 652.512 77.784 651.2 77.784H650.528V66.936C649.824 67.384 649.056 67.832 648.224 68.312C648.128 68.728 647.808 69.016 647.456 69.144L645.088 65.112C646.24 64.856 648.192 64.376 650.528 63.736V56.952H648.544C647.84 59.512 646.848 61.88 645.6 63.672L645.12 63.448C645.856 60.056 646.272 55.32 646.336 51.128L650.528 51.768V47.928L655.232 48.408C655.136 48.856 654.912 49.176 654.048 49.304V55.896L655.552 53.432C655.552 53.432 657.408 55.256 658.4 56.44C658.336 56.792 658.016 56.952 657.568 56.952H654.048V62.744C655.36 62.392 656.672 62.04 658.016 61.624ZM670.272 64.568L672.128 62.136C672.128 62.136 674.176 63.8 675.424 64.952C675.328 65.304 675.008 65.464 674.56 65.464H669.6V73.72C669.6 76.216 668.96 77.56 664.512 77.944C664.384 76.856 664.192 76.088 663.552 75.544C662.912 75.032 662.08 74.648 660.16 74.36V73.944C660.16 73.944 664.416 74.2 665.184 74.2C665.76 74.2 665.92 74.008 665.92 73.56V65.464H656L655.744 64.568H665.92V60.76L670.72 61.176C670.624 61.656 670.336 61.912 669.6 62.008V64.568H670.272ZM657.664 66.296L657.952 66.104C666.784 68.088 664 74.424 660.704 72.088C660.256 70.136 658.848 67.832 657.664 66.296ZM693.376 52.536H687.2C686.176 53.912 684.992 55.288 683.712 56.536L685.12 57.08H691.264C692.064 55.8 692.864 53.912 693.376 52.536ZM699.424 58.008H693.76V64.952H699.424V58.008ZM684.704 58.008V64.952H690.144V58.008H684.704ZM704.8 68.312L704.832 72.824C706.464 73.304 707.008 73.528 707.008 74.328C707.008 76.024 705.6 77.112 699.264 77.112H687.936C683.168 77.112 680.992 75.928 680.992 71.96V59C679.712 60.024 678.336 60.952 676.96 61.688L676.672 61.4C680.192 58.2 683.68 52.44 685.28 47.64L690.528 48.92C690.4 49.304 690.144 49.432 689.28 49.4C688.864 50.136 688.384 50.872 687.872 51.608H693.312L695.296 49.592L698.784 52.6C698.56 52.888 698.176 52.984 697.504 53.048C696.128 54.328 694.08 55.992 692.128 57.08H699.072L700.832 55.128L704.576 57.976C704.352 58.232 703.904 58.552 703.2 58.68V67C703.168 67.256 701.312 67.992 700.032 67.992H699.424V65.88H684.704V72.056C684.704 73.24 685.6 73.592 687.776 73.592H698.912C700.864 73.592 701.76 73.464 702.432 72.728C703.008 72.024 703.872 70.04 704.448 68.312H704.8ZM721.792 67.576L721.248 66.552C723.296 65.464 724.224 63.992 724.672 62.2C722.88 61.496 721.504 60.664 721.504 59.064C721.504 57.752 722.496 56.632 724.032 56.632C725.568 56.632 726.752 57.784 726.752 59.896C726.752 62.584 725.44 65.912 721.792 67.576ZM75.744 102.904L75.872 102.52C77.184 102.264 78.368 102.328 79.008 102.968C79.872 103.832 78.688 105.464 77.472 104.344C77.152 103.864 76.448 103.192 75.744 102.904ZM75.136 106.296L75.296 105.944C76.672 105.72 77.888 105.848 78.528 106.552C79.36 107.48 77.984 109.112 76.832 107.864C76.544 107.352 75.904 106.616 75.136 106.296ZM74.144 108.376H79.456C79.648 107.736 79.808 106.84 79.936 105.656H74.784C74.56 106.616 74.368 107.544 74.144 108.376ZM80.256 102.136H75.488C75.36 102.904 75.168 103.8 74.976 104.728H80.032C80.128 103.96 80.192 103.096 80.256 102.136ZM90.048 114.84L90.368 114.584C98.368 115.832 96.288 121.464 93.376 119.704C93.184 119.064 92.832 118.36 92.384 117.656C90.72 117.976 88.736 118.328 86.464 118.712V122.264C86.464 124.504 85.888 125.688 81.984 125.976C81.952 125.08 81.824 124.344 81.44 123.896C81.056 123.512 80.512 123.16 79.168 122.936V122.52C79.168 122.52 81.6 122.68 82.208 122.68C82.688 122.68 82.784 122.488 82.784 122.2V119.288C81.344 119.512 79.84 119.736 78.24 119.992L81.344 121.304C81.184 121.624 80.928 121.784 80.224 121.72C78.208 123.288 74.112 124.92 70.752 125.624L70.432 125.24C72.768 123.928 75.392 121.848 76.896 120.184L74.752 120.44C74.592 120.728 74.368 120.952 74.112 121.048L72.512 117.72C72.512 117.72 73.344 117.656 73.792 117.528C75.84 117.08 78.176 116.28 80.48 115.32C79.168 115.544 77.76 115.736 76.32 115.928C76.16 116.216 75.968 116.376 75.776 116.472L74.496 113.944C74.496 113.944 75.008 113.848 75.264 113.752C76.608 113.4 78.144 112.696 79.52 111.864C78.976 111.992 78.336 111.96 77.632 111.992C77.632 111.384 77.536 111.16 77.248 110.84C76.928 110.488 76.32 110.328 75.52 110.168V109.688C76.288 109.752 77.472 109.816 78.016 109.816C78.464 109.816 78.688 109.752 78.88 109.56C78.944 109.496 79.008 109.4 79.072 109.304H74.176L72.992 110.648L70.08 108.728C70.4 108.504 70.88 108.216 71.36 108.024C71.52 107.32 71.712 106.552 71.904 105.656H69.76L69.504 104.728H72.096C72.352 103.416 72.608 102.072 72.768 100.952C71.776 101.688 70.752 102.36 69.728 102.84L69.44 102.552C70.912 100.92 72.48 98.04 73.248 95.8L77.824 96.792C77.728 97.144 77.472 97.272 76.64 97.24C76.256 97.752 75.776 98.296 75.232 98.808H81.472L83.104 96.792C83.104 96.792 84.96 98.2 86.112 99.224C86.048 99.576 85.728 99.736 85.28 99.736H74.24L73.792 100.152L76.32 101.24H79.968L81.376 99.832L84.064 102.04C83.84 102.296 83.424 102.456 82.816 102.52C82.784 103.32 82.72 104.056 82.688 104.728H83.008L84.192 102.808C84.192 102.808 85.6 104.184 86.368 105.144C86.304 105.496 86.016 105.656 85.6 105.656H82.592C82.496 106.744 82.368 107.64 82.208 108.376H82.4L83.552 106.872C83.552 106.872 84.864 107.96 85.696 108.792C85.632 109.144 85.312 109.304 84.896 109.304H81.984C81.824 109.848 81.632 110.296 81.408 110.616C81.888 110.296 82.304 109.944 82.624 109.688L84.992 112.344C84.768 112.536 84.256 112.632 83.648 112.248C82.304 112.856 80.192 113.56 78.08 114.136C79.616 114.104 81.44 114.072 83.392 114.04C86.016 112.792 88.288 111.544 89.632 110.552L92.864 113.08C92.672 113.368 92.128 113.528 91.392 113.24C88.288 114.68 82.656 116.504 77.408 117.752C81.184 117.592 86.432 117.336 91.936 116.984C91.328 116.184 90.656 115.384 90.048 114.84ZM88.512 120.728L88.64 120.312C99.552 119.896 98.016 126.552 94.752 125.336C93.856 124.152 91.488 122.136 88.512 120.728ZM92.48 101.176H88.384C88.256 101.368 88.096 101.56 87.936 101.72C88.608 103.224 89.568 104.472 90.784 105.496C91.584 104.184 92.16 102.744 92.48 101.176ZM97.92 101.176H96.352C95.68 103.416 94.56 105.304 92.96 106.84C94.592 107.64 96.544 108.216 98.88 108.568L98.816 108.92C97.6 109.4 96.928 110.392 96.736 112.024C94.176 111.256 92.32 110.072 90.88 108.536C89.184 109.72 87.104 110.616 84.672 111.32L84.48 110.936C86.688 109.848 88.384 108.504 89.696 107C88.768 105.624 88.064 104.024 87.488 102.232C86.912 102.808 86.304 103.32 85.696 103.768L85.248 103.48C86.176 101.56 86.976 98.648 87.328 95.832L91.712 96.984C91.584 97.368 91.2 97.656 90.528 97.656C90.112 98.584 89.6 99.48 89.056 100.28H93.664L95.488 97.816C95.488 97.816 97.536 99.48 98.752 100.664C98.656 101.016 98.336 101.176 97.92 101.176ZM117.504 96.312L117.792 96.12C126.56 98.328 123.2 105.016 119.936 102.296C119.84 100.216 118.72 97.848 117.504 96.312ZM103.296 102.008H103.776C105.216 105.688 104.928 108.568 103.936 109.944C103.264 110.936 101.728 111.064 101.12 110.104C100.576 109.24 100.96 108.312 101.76 107.672C102.592 106.68 103.488 104.216 103.296 102.008ZM105.184 95.864L109.888 96.344C109.792 96.792 109.568 97.112 108.736 97.24V124.856C108.736 125.176 107.232 125.88 105.888 125.88H105.184V95.864ZM108.832 101.848L109.248 101.72C114.848 104.92 111.936 109.336 109.888 107.16C110.016 105.4 109.44 103.288 108.832 101.848ZM125.568 103.352L127.52 100.792C127.52 100.792 129.728 102.52 131.072 103.736C131.008 104.088 130.656 104.248 130.208 104.248H118.336V104.984V119.896C118.336 120.6 118.56 120.792 119.776 120.792H123.04C124.16 120.792 125.312 120.792 125.792 120.76C126.144 120.728 126.624 120.696 126.88 120.664C127.2 120.632 127.584 120.536 127.968 120.408H128.256L128.448 120.472C129.6 120.824 129.952 121.272 129.952 121.912C129.952 123.352 128.544 123.8 122.656 123.8H119.104C115.648 123.8 114.72 123.16 114.72 120.6V104.248H112.256L112 103.352H125.568ZM141.152 111.384L144.096 113.816C143.872 114.072 143.584 114.168 142.88 114.2C141.984 116.248 140.416 118.424 138.336 120.152C138.528 120.216 138.688 120.28 138.912 120.408C141.312 121.912 145.248 122.232 152.032 122.232C155.712 122.232 158.816 122.232 162.528 122.008V122.392C161.024 122.68 160.16 124.088 160 125.528H150.752C144 125.528 141.248 124.376 138.592 121.592C138.048 121.048 137.728 121.08 137.44 121.656C137.024 122.488 136.608 123.736 136.128 125.208C136.192 125.496 136.096 125.656 135.904 125.816L133.344 122.2C134.368 121.784 135.648 121.016 136.544 120.536C137.856 118.648 138.976 116.12 139.552 113.976H138.016L136.864 114.968L134.112 112.952C134.432 112.76 134.912 112.536 135.392 112.376C136.128 111.224 137.088 109.656 137.76 108.44H134.24L133.952 107.544H137.952L139.104 106.328C138.816 106.296 138.496 106.168 138.176 105.976C137.888 104.44 136.736 102.712 135.68 101.688L135.968 101.464C137.76 101.656 139.008 102.104 139.808 102.648L139.456 99.8H133.216L132.96 98.872H139.36L138.976 95.8L143.68 96.152C143.648 96.536 143.392 96.824 142.752 97.016L143.008 98.872H143.488L145.184 96.504C145.184 96.504 147.072 98.136 148.224 99.288C148.128 99.64 147.776 99.8 147.36 99.8H143.136L143.392 101.72C142.848 102.424 141.536 102.744 139.872 102.712C141.696 104.024 141.12 105.944 139.808 106.296L142.528 108.728C142.24 109.048 141.568 109.24 140.8 109.272C140.16 110.36 139.168 111.896 138.368 113.08H139.424L141.152 111.384ZM154.08 104.6H148.896C148.416 105.016 147.904 105.432 147.392 105.816C149.28 105.944 150.912 106.136 152.352 106.36C152.992 105.784 153.568 105.208 154.08 104.6ZM158.304 116.28H153.504V118.2H156.896L158.56 116.248C158.464 116.28 158.4 116.28 158.304 116.28ZM147.68 101.112L152.032 102.36C151.904 102.648 151.648 102.808 150.816 102.712C150.528 103.064 150.176 103.352 149.856 103.704H154.336L156.32 102.008L159.296 104.632C159.104 104.92 158.752 105.016 157.984 105.048C157.376 105.752 156.672 106.424 155.872 107.032C164.544 109.176 160.96 112.6 158.336 111.032C157.152 110.264 155.52 109.4 153.44 108.6C152.448 109.144 151.328 109.624 150.176 110.072L154.336 110.424C154.272 110.744 154.112 111 153.504 111.096V112.536H155.776L157.376 110.68C157.376 110.68 159.168 111.992 160.352 112.92C160.256 113.272 159.936 113.432 159.488 113.432H153.504V115.352H154.848L156.352 113.592C156.352 113.592 158.048 114.84 159.136 115.768C159.104 115.992 158.944 116.152 158.688 116.216C159.04 116.472 160.736 117.656 161.824 118.584C161.728 118.936 161.44 119.096 160.96 119.096H153.504V121.08C153.504 121.4 151.84 122.104 150.528 122.104H149.92V119.096H143.104L142.848 118.2H149.92V116.28H144.96L144.704 115.352H149.92V113.432H144.192L143.936 112.536H149.92V110.168C147.616 111 145.088 111.576 142.432 111.928L142.208 111.48C145.376 110.584 148.352 109.272 150.752 107.608C149.472 107.16 148.064 106.776 146.56 106.392C145.376 107.256 144.032 107.992 142.72 108.536L142.432 108.216C144.48 106.52 146.624 103.544 147.68 101.112ZM158.368 98.872L160.096 96.504C160.096 96.504 162.048 98.136 163.168 99.288C163.072 99.64 162.752 99.8 162.304 99.8H155.904L155.584 101.72C154.88 102.264 153.408 102.456 151.904 102.168L152.288 99.8H149.088L148.832 98.872H152.416L152.896 95.8L157.504 96.568C157.472 96.952 157.184 97.336 156.288 97.4L156.064 98.872H158.368ZM181.76 113.528L181.792 113.976C180.064 114.648 177.92 115.384 175.264 116.28V121.656C175.264 124.152 174.784 125.464 170.976 125.784C170.912 124.696 170.816 123.896 170.432 123.352C170.048 122.872 169.504 122.456 168.288 122.264V121.816C168.288 121.816 170.688 121.944 171.2 121.944C171.584 121.944 171.712 121.848 171.712 121.496V117.4C170.4 117.816 168.992 118.264 167.488 118.712C167.264 119.064 166.944 119.32 166.592 119.416L165.056 115.384C166.432 115.288 168.832 115.032 171.712 114.712V111.704L173.792 111.896C174.336 111.16 174.88 110.296 175.296 109.56H168.512L168.224 108.664H175.392L177.152 106.84L177.408 107.064C177.568 106.552 177.696 105.976 177.824 105.496H168.736C168.928 107.256 168.416 108.536 167.584 109.144C166.72 109.72 165.312 109.528 164.896 108.408C164.544 107.352 165.152 106.488 166.112 106.008C166.88 105.464 167.744 104.056 167.552 102.872H168.032C168.288 103.48 168.448 104.024 168.576 104.568H171.68V101.048H165.6L165.344 100.152H171.68V95.8L176.48 96.216C176.416 96.664 176.16 96.984 175.328 97.08V100.152H176.672L178.624 97.56C178.624 97.56 180.832 99.32 182.176 100.536C182.112 100.888 181.76 101.048 181.28 101.048H175.328V104.568H177.76L179.456 102.936L182.464 105.816C182.208 106.072 181.888 106.136 181.248 106.168C180.512 106.68 179.424 107.384 178.432 107.96L180.32 109.624C180.064 109.88 179.712 109.944 179.04 110.008C178.016 110.648 176.704 111.416 175.36 112.024L176.32 112.12C176.224 112.568 175.968 112.824 175.264 112.92V114.328C177.344 114.072 179.552 113.816 181.76 113.528ZM191.904 102.2L195.2 105.048C194.944 105.336 194.496 105.528 193.792 105.656C193.504 118.168 192.928 122.552 191.232 124.312C190.144 125.4 188.768 125.816 187.136 125.816C187.168 124.664 187.072 123.832 186.688 123.352C186.272 122.808 185.44 122.392 184.32 122.136V121.688C185.28 121.752 186.784 121.848 187.424 121.848C187.936 121.848 188.224 121.752 188.544 121.464C189.632 120.44 190.08 115.512 190.336 105.048H187.68C187.392 114.04 185.92 120.984 177.088 125.752L176.736 125.304C182.816 120.056 183.904 113.464 184.096 105.048H181.984L181.696 104.12H184.096C184.128 101.592 184.096 98.904 184.096 96.056L188.992 96.536C188.896 97.016 188.576 97.304 187.808 97.432C187.776 99.768 187.776 102.008 187.712 104.12H189.984L191.904 102.2ZM201.792 120.184H206.656V111.768H201.792V120.184ZM206.656 102.904H201.792V110.84H206.656V102.904ZM208.032 100.056L211.52 102.808C211.296 103.096 210.816 103.352 210.176 103.48V122.552C210.144 122.808 208.448 123.608 207.2 123.608H206.656V121.08H201.792V123.448C201.792 123.864 200.448 124.664 198.912 124.664H198.336V100.472L201.92 101.976H202.112C202.336 100.216 202.624 97.72 202.784 95.928L207.968 97.176C207.84 97.72 207.392 97.944 206.656 97.944C205.824 99.064 204.576 100.728 203.552 101.976H206.336L208.032 100.056ZM223.712 99.8L227.136 102.808C226.88 103.096 226.464 103.32 225.728 103.416C225.504 116.312 225.056 122.168 223.296 124.056C222.144 125.272 220.736 125.784 218.624 125.784C218.624 124.568 218.464 123.672 217.92 123.16C217.344 122.552 216.096 122.04 214.528 121.752L214.56 121.304C216.096 121.432 218.304 121.592 219.136 121.592C219.712 121.592 220 121.464 220.32 121.176C221.504 120.088 221.824 113.72 222.048 102.808H216.096C214.56 105.528 212.736 107.8 210.688 109.528L210.272 109.272C212.032 106.008 213.76 100.792 214.592 95.896L219.648 97.368C219.52 97.784 219.136 98.008 218.4 98.008C217.856 99.384 217.28 100.664 216.608 101.88H221.696L223.712 99.8ZM212.736 108.6L212.992 108.408C222.336 111.16 218.848 118.072 215.456 115.224C215.296 112.952 214.016 110.36 212.736 108.6ZM241.504 119.672H246.528V115.896H241.504V119.672ZM249.984 116.408V121.208C249.952 121.432 248.288 122.136 247.104 122.136H246.528V120.568H241.504V121.592C241.504 121.88 239.936 122.616 238.56 122.616H238.08V113.56L241.632 114.968H246.208L247.808 113.304L251.168 115.768C250.976 116.024 250.592 116.28 249.984 116.408ZM253.184 111.544L254.88 109.656L258.592 112.408C258.4 112.664 257.952 112.952 257.28 113.08V121.784C257.28 124.184 256.736 125.56 252.576 125.88C252.48 124.792 252.352 123.96 251.904 123.448C251.456 122.936 250.848 122.52 249.344 122.264V121.848C249.344 121.848 252.16 122.04 252.896 122.04C253.376 122.04 253.504 121.816 253.504 121.432V112.44H234.816V124.632C234.816 125.016 233.184 125.848 231.648 125.848H231.104V109.976L235.104 111.544H253.184ZM239.712 107.992H248.544V104.248H239.712V107.992ZM249.184 110.328H248.544V108.888H239.712V109.592C239.712 109.88 238.048 110.68 236.512 110.68H236V101.784L239.904 103.32H248.224L249.92 101.432L253.568 104.184C253.376 104.44 252.96 104.728 252.32 104.856V109.56C252.288 109.752 250.368 110.328 249.184 110.328ZM252.608 99.896L254.816 97.112C254.816 97.112 257.376 98.968 258.912 100.28C258.816 100.632 258.464 100.792 258.016 100.792H229.568L229.28 99.896H242.88C242.528 98.424 241.312 96.856 240.192 95.96L240.416 95.768C246.528 95.448 247.04 98.68 245.6 99.896H252.608ZM275.2 103.224H268.704C267.776 110.136 265.888 118.104 261.248 123.832L260.832 123.608C263.52 117.816 264.736 110.104 265.184 103.224H261.312L261.056 102.328H265.248C265.376 100.024 265.408 97.848 265.408 95.864L270.56 96.216C270.496 96.632 270.272 96.984 269.312 97.112C269.184 98.712 269.024 100.472 268.8 102.328H271.072L272.8 99.896C272.8 99.896 274.848 101.56 276.064 102.712C275.968 103.064 275.648 103.224 275.2 103.224ZM270.432 114.008L270.816 113.848C278.432 119.288 275.328 125.848 272.384 122.872C272.416 121.88 272.288 120.824 272.096 119.768C270.912 120.632 269.312 121.72 267.488 122.776C267.2 123.416 266.848 123.832 266.4 124.024L264.672 119.864C264.672 119.864 265.504 119.64 265.728 119.416C267.104 116.696 268.864 109.752 269.28 105.912L273.792 106.84C273.696 107.224 273.344 107.576 272.64 107.608C271.392 111.32 269.056 116.344 266.912 119.64C268.32 119.512 270.112 119.192 271.904 118.84C271.52 117.112 270.944 115.448 270.432 114.008ZM279.776 116.376V122.328H282.208V116.376H279.776ZM282.208 103.384H279.776V108.888H282.208V103.384ZM282.208 115.448V109.816H279.776V115.448H282.208ZM286.272 122.328L288.128 119.832C288.128 119.832 290.176 121.56 291.392 122.712C291.328 123.064 290.976 123.224 290.528 123.224H279.776V124.792C279.776 125.048 278.688 125.816 276.896 125.816H276.288V108.056C275.456 109.272 274.496 110.424 273.472 111.416L273.088 111.128C275.488 106.68 276.992 100.088 277.504 95.864L282.208 97.112C281.984 96.632 281.76 96.216 281.536 95.832L281.856 95.64C289.632 98.04 285.888 103.896 283.008 101.112C283.104 99.896 282.784 98.584 282.336 97.432C282.176 97.688 281.888 97.816 281.312 97.848C280.864 99.192 280.288 100.696 279.584 102.232L280.192 102.456H286.016L287.808 100.088C287.808 100.088 289.76 101.72 290.976 102.872C290.88 103.224 290.56 103.384 290.112 103.384H285.504V108.888H286.176L287.744 106.68C287.744 106.68 289.504 108.216 290.56 109.304C290.496 109.656 290.176 109.816 289.728 109.816H285.504V115.448H286.24L287.84 113.272C287.84 113.272 289.6 114.776 290.624 115.864C290.56 116.216 290.24 116.376 289.792 116.376H285.504V122.328H286.272ZM295.168 96.28L295.456 96.088C303.936 97.4 300.992 103.544 297.792 101.272C297.472 99.512 296.192 97.56 295.168 96.28ZM292.832 103.192L293.12 103C301.248 104.184 298.272 110.168 295.232 107.864C295.008 106.2 293.92 104.344 292.832 103.192ZM314.496 109.72L315.392 110.36C314.976 109.496 314.624 108.536 314.304 107.544H309.568C308.992 108.728 308.256 109.848 307.424 110.904L308.448 111.288H312.96L314.496 109.72ZM308.032 116.152H313.248V112.216H308.032V116.152ZM309.024 102.136V106.616H312.704V102.136H309.024ZM322.368 107.544H315.04C316.992 110.008 320.352 111.8 323.488 112.6L323.424 112.952C322.048 113.304 321.056 114.488 320.608 116.408C319.04 115.448 317.728 114.168 316.672 112.6V117.912C316.64 118.104 314.88 118.584 313.824 118.584H313.248V117.048H308.032V121.208C308.032 121.752 308.224 121.912 309.568 121.912H313.568C315.072 121.912 316.384 121.912 316.96 121.848C317.472 121.816 317.728 121.72 317.952 121.4C318.336 120.856 318.848 119.48 319.456 117.656H319.808L319.904 121.528C320.96 121.912 321.28 122.328 321.28 122.968C321.28 124.536 319.776 125.176 313.248 125.176H309.024C305.408 125.176 304.448 124.568 304.448 121.976V113.784C302.88 115.032 301.088 116.12 299.104 117.048L298.848 116.632C301.888 114.264 304.128 110.936 305.472 107.544H300.96L300.736 106.744C299.808 109.976 298.784 113.496 298.528 114.584C298.304 115.576 298.08 116.664 298.112 117.464C298.176 119.128 299.424 120.344 299.328 123.192C299.264 124.76 298.208 125.816 296.736 125.816C296.064 125.816 295.36 125.336 295.136 124.152C295.744 120.76 295.584 117.816 294.848 117.336C294.4 117.016 293.92 116.856 293.216 116.792V116.184H294.656C295.104 116.184 295.232 116.184 295.584 115.544C296.224 114.424 296.224 114.424 301.312 103L301.824 103.096C301.536 104.088 301.152 105.336 300.8 106.616H305.6V102.136H301.472L301.216 101.208H305.6V96.056L310.208 96.44C310.144 96.92 309.888 97.24 309.024 97.368V101.208H312.704V96.056L317.472 96.472C317.408 96.92 317.152 97.24 316.288 97.368V101.208H317.536L319.392 98.68C319.392 98.68 321.472 100.408 322.72 101.624C322.624 101.976 322.272 102.136 321.824 102.136H316.288V106.616H317.92L319.84 103.992C319.84 103.992 321.984 105.784 323.264 107.032C323.2 107.384 322.848 107.544 322.368 107.544ZM333.888 109.08V113.368H346.08V109.08H333.888ZM346.08 98.84H333.888V103H346.08V98.84ZM346.08 108.184V103.896H333.888V108.184H346.08ZM353.696 116.984L353.76 121.432C354.784 121.816 355.008 122.232 355.008 122.936C355.008 124.44 353.664 125.144 348.288 125.144H344.96C341.76 125.144 341.056 124.504 341.056 122.04V114.296H338.624C337.888 120.856 334.08 124.312 325.248 125.752L325.12 125.368C331.776 123.064 334.08 119.704 334.496 114.296H333.888V114.936C333.888 115.352 332.32 116.216 330.752 116.216H330.176V96.344L334.144 97.944H345.76L347.552 95.96L351.2 98.776C350.976 99.064 350.528 99.32 349.856 99.48V114.904C349.824 115.16 348 115.928 346.72 115.928H346.08V114.296H344.672V114.456V121.176C344.672 121.624 344.8 121.752 345.792 121.752H348.672C349.696 121.752 350.624 121.752 351.072 121.72C351.52 121.688 351.648 121.592 351.872 121.24C352.192 120.664 352.672 119.032 353.312 116.984H353.696ZM359.776 96.568L360.032 96.376C368.32 96.76 365.376 103.096 362.016 100.888C361.76 99.352 360.704 97.624 359.776 96.568ZM365.28 102.072L366.848 100.056C366.848 100.056 368.608 101.464 369.696 102.488C369.6 102.84 369.28 103 368.832 103H357.216L356.96 102.072H365.28ZM364.672 106.168L366.144 104.28C366.144 104.28 367.84 105.592 368.864 106.584C368.768 106.936 368.448 107.096 368 107.096H358.464L358.208 106.168H364.672ZM361.792 121.656H364.832V115.32H361.792V121.656ZM366.08 112.76L369.28 115.192C369.12 115.416 368.704 115.672 368.128 115.8V123.256C368.096 123.512 366.496 124.216 365.408 124.216H364.832V122.552H361.792V124.504C361.792 124.824 360.416 125.528 359.04 125.528H358.56V113.048L361.952 114.424H364.544L366.08 112.76ZM381.76 123.832L383.584 121.336C383.584 121.336 385.696 123.064 386.912 124.248C386.848 124.6 386.496 124.76 386.048 124.76H368.64L368.384 123.832H377.888C378.432 122.008 378.944 119.544 379.136 117.816L383.648 118.872C383.552 119.256 383.168 119.544 382.464 119.512C381.6 120.792 380.192 122.488 378.784 123.832H381.76ZM373.696 115.896H379.936V111.48H373.696V115.896ZM380.448 117.88H379.936V116.824H373.696V117.176C373.696 117.432 372.32 118.136 371.008 118.136H370.56V109.272L373.824 110.584H379.616L381.12 108.92L384.384 111.384C384.192 111.64 383.712 111.928 383.04 112.056V117.112C383.008 117.336 381.44 117.88 380.448 117.88ZM371.616 118.168L371.936 118.04C379.104 119.96 375.552 125.112 372.896 122.68C372.896 121.112 372.256 119.352 371.616 118.168ZM383.68 100.024L386.848 102.2C386.624 102.552 386.304 102.648 385.536 102.456C384.512 102.968 383.328 103.512 382.272 103.928C383.712 105.336 385.344 106.488 387.072 107.224L387.04 107.576C385.824 107.864 384.864 108.856 384.448 110.488C381.184 108.056 379.2 104.344 378.016 99.256C377.824 99.384 377.536 99.448 377.056 99.48C376.288 102.104 375.008 104.76 372.992 107H377.28L378.688 105.08C378.688 105.08 380.288 106.424 381.28 107.384C381.216 107.736 380.896 107.896 380.448 107.896H373.024L372.832 107.192C371.648 108.44 370.272 109.592 368.672 110.552L368.832 110.712C368.736 111.064 368.416 111.224 367.968 111.224H358.496L358.24 110.296H364.672L366.144 108.408C366.144 108.408 367.232 109.272 368.16 110.104C369.856 108.472 371.168 106.36 372.096 104.152C371.584 104.504 370.848 104.504 370.144 103.928C370.112 102.712 369.472 101.272 368.8 100.408L369.152 100.248C371.488 100.728 372.48 101.72 372.704 102.584C373.088 101.432 373.408 100.28 373.6 99.096H368.8L368.512 98.2H373.44L375.2 96.408L377.92 98.68C377.792 98.168 377.696 97.656 377.6 97.112L378.048 96.984C378.4 98.072 378.848 99.128 379.392 100.088C380.096 99.192 380.864 98.008 381.472 96.952L384.768 99.096C384.544 99.448 384.256 99.544 383.456 99.352C382.304 99.96 381.056 100.568 379.968 100.984C380.384 101.688 380.896 102.36 381.44 103C382.176 102.104 383.008 100.984 383.68 100.024ZM414.016 102.552L415.2 101.048C415.072 101.016 414.944 100.952 414.816 100.856C414.528 99.64 413.6 98.296 412.832 97.496C412.672 97.528 412.512 97.56 412.32 97.592C412.288 99.224 412.256 100.888 412.288 102.552H414.016ZM405.024 109.304H402.496V109.528C402.496 111.928 402.336 114.68 401.44 117.368C402.272 117.432 403.392 117.496 403.808 117.496C404.064 117.496 404.192 117.432 404.32 117.272C404.768 116.696 404.928 114.328 405.024 109.304ZM395.68 105.816V114.488C396.736 114.168 397.824 113.848 398.944 113.496C399.04 112.152 399.072 110.84 399.072 109.528V105.816H399.008H395.68ZM419.168 116.344L418.464 121.784C419.328 123.8 419.52 124.952 418.912 125.368C417.28 126.488 414.976 124.792 413.984 123.32C413.152 122.104 412.48 120.792 411.904 119.416C409.632 122.008 406.784 123.96 403.232 125.528L402.944 125.048C406.304 122.84 408.928 120.216 410.944 116.728C409.728 112.76 409.216 108.28 408.992 103.448H402.496V108.376H404.736L406.4 106.744L409.408 109.208C409.216 109.464 408.8 109.688 408.192 109.784C408.064 115.992 407.872 118.808 406.624 119.864C405.856 120.44 404.896 120.664 403.776 120.664C403.776 119.992 403.68 119.256 403.36 118.872C403.008 118.424 402.272 118.008 401.408 117.784V117.496C400.352 120.568 398.336 123.512 394.432 125.752L394.112 125.432C397.248 122.136 398.432 118.232 398.848 114.296C397.152 115.672 394.688 117.56 391.392 119.8C391.264 120.248 390.944 120.6 390.592 120.728L388.64 116.472C389.408 116.312 390.656 115.96 392.16 115.544V105.816H389.312L389.056 104.92H392.16V96.408L396.864 96.824C396.8 97.272 396.544 97.592 395.68 97.72V104.856L397.184 102.36C397.184 102.36 398.176 103.384 399.072 104.408V101.112L403.04 102.552H408.928C408.864 100.504 408.832 98.392 408.832 96.216L413.472 96.696C413.472 96.888 413.408 97.048 413.248 97.208C418.464 97.304 418.4 100.28 416.832 101.048C417.536 101.592 418.464 102.36 419.136 102.968C419.04 103.288 418.72 103.448 418.272 103.448H412.32C412.416 106.424 412.64 109.336 413.152 111.992C413.792 110.232 414.368 108.312 414.848 106.168L419.104 107.608C418.944 108.024 418.624 108.216 417.792 108.184C416.832 111.256 415.68 113.88 414.304 116.152C414.848 117.592 415.52 118.904 416.352 120.024C416.704 120.568 416.864 120.536 417.184 119.96C417.6 119.16 418.304 117.624 418.816 116.28L419.168 116.344ZM432.16 95.96L432.384 95.768C441.696 95.864 438.688 102.936 434.912 100.632C434.528 98.904 433.248 97.112 432.16 95.96ZM444.896 101.24L447.136 98.392C447.136 98.392 449.664 100.28 451.136 101.624C451.072 101.976 450.752 102.136 450.272 102.136H437.984V106.424H442.88L444.576 104.472L448.32 107.288C448.096 107.544 447.68 107.832 447.008 107.96V117.432C447.008 119.896 446.464 121.336 442.272 121.72C442.208 120.536 442.048 119.672 441.632 119.096C441.184 118.584 440.608 118.136 439.2 117.912V117.464C439.2 117.464 441.792 117.624 442.56 117.624C443.04 117.624 443.2 117.432 443.2 117.048V107.32H437.984V124.856C437.952 125.112 436.768 125.912 434.752 125.912H434.016V107.32H428.768V120.184C428.768 120.6 427.136 121.432 425.536 121.432H424.992V104.792L429.024 106.424H434.016V102.136H421.28L421.024 101.24H444.896ZM457.792 120.184H462.656V111.768H457.792V120.184ZM462.656 102.904H457.792V110.84H462.656V102.904ZM464.032 100.056L467.52 102.808C467.296 103.096 466.816 103.352 466.176 103.48V122.552C466.144 122.808 464.448 123.608 463.2 123.608H462.656V121.08H457.792V123.448C457.792 123.864 456.448 124.664 454.912 124.664H454.336V100.472L457.92 101.976H458.112C458.336 100.216 458.624 97.72 458.784 95.928L463.968 97.176C463.84 97.72 463.392 97.944 462.656 97.944C461.824 99.064 460.576 100.728 459.552 101.976H462.336L464.032 100.056ZM479.712 99.8L483.136 102.808C482.88 103.096 482.464 103.32 481.728 103.416C481.504 116.312 481.056 122.168 479.296 124.056C478.144 125.272 476.736 125.784 474.624 125.784C474.624 124.568 474.464 123.672 473.92 123.16C473.344 122.552 472.096 122.04 470.528 121.752L470.56 121.304C472.096 121.432 474.304 121.592 475.136 121.592C475.712 121.592 476 121.464 476.32 121.176C477.504 120.088 477.824 113.72 478.048 102.808H472.096C470.56 105.528 468.736 107.8 466.688 109.528L466.272 109.272C468.032 106.008 469.76 100.792 470.592 95.896L475.648 97.368C475.52 97.784 475.136 98.008 474.4 98.008C473.856 99.384 473.28 100.664 472.608 101.88H477.696L479.712 99.8ZM468.736 108.6L468.992 108.408C478.336 111.16 474.848 118.072 471.456 115.224C471.296 112.952 470.016 110.36 468.736 108.6ZM491.744 102.904L491.872 102.52C493.184 102.264 494.368 102.328 495.008 102.968C495.872 103.832 494.688 105.464 493.472 104.344C493.152 103.864 492.448 103.192 491.744 102.904ZM491.136 106.296L491.296 105.944C492.672 105.72 493.888 105.848 494.528 106.552C495.36 107.48 493.984 109.112 492.832 107.864C492.544 107.352 491.904 106.616 491.136 106.296ZM490.144 108.376H495.456C495.648 107.736 495.808 106.84 495.936 105.656H490.784C490.56 106.616 490.368 107.544 490.144 108.376ZM496.256 102.136H491.488C491.36 102.904 491.168 103.8 490.976 104.728H496.032C496.128 103.96 496.192 103.096 496.256 102.136ZM506.048 114.84L506.368 114.584C514.368 115.832 512.288 121.464 509.376 119.704C509.184 119.064 508.832 118.36 508.384 117.656C506.72 117.976 504.736 118.328 502.464 118.712V122.264C502.464 124.504 501.888 125.688 497.984 125.976C497.952 125.08 497.824 124.344 497.44 123.896C497.056 123.512 496.512 123.16 495.168 122.936V122.52C495.168 122.52 497.6 122.68 498.208 122.68C498.688 122.68 498.784 122.488 498.784 122.2V119.288C497.344 119.512 495.84 119.736 494.24 119.992L497.344 121.304C497.184 121.624 496.928 121.784 496.224 121.72C494.208 123.288 490.112 124.92 486.752 125.624L486.432 125.24C488.768 123.928 491.392 121.848 492.896 120.184L490.752 120.44C490.592 120.728 490.368 120.952 490.112 121.048L488.512 117.72C488.512 117.72 489.344 117.656 489.792 117.528C491.84 117.08 494.176 116.28 496.48 115.32C495.168 115.544 493.76 115.736 492.32 115.928C492.16 116.216 491.968 116.376 491.776 116.472L490.496 113.944C490.496 113.944 491.008 113.848 491.264 113.752C492.608 113.4 494.144 112.696 495.52 111.864C494.976 111.992 494.336 111.96 493.632 111.992C493.632 111.384 493.536 111.16 493.248 110.84C492.928 110.488 492.32 110.328 491.52 110.168V109.688C492.288 109.752 493.472 109.816 494.016 109.816C494.464 109.816 494.688 109.752 494.88 109.56C494.944 109.496 495.008 109.4 495.072 109.304H490.176L488.992 110.648L486.08 108.728C486.4 108.504 486.88 108.216 487.36 108.024C487.52 107.32 487.712 106.552 487.904 105.656H485.76L485.504 104.728H488.096C488.352 103.416 488.608 102.072 488.768 100.952C487.776 101.688 486.752 102.36 485.728 102.84L485.44 102.552C486.912 100.92 488.48 98.04 489.248 95.8L493.824 96.792C493.728 97.144 493.472 97.272 492.64 97.24C492.256 97.752 491.776 98.296 491.232 98.808H497.472L499.104 96.792C499.104 96.792 500.96 98.2 502.112 99.224C502.048 99.576 501.728 99.736 501.28 99.736H490.24L489.792 100.152L492.32 101.24H495.968L497.376 99.832L500.064 102.04C499.84 102.296 499.424 102.456 498.816 102.52C498.784 103.32 498.72 104.056 498.688 104.728H499.008L500.192 102.808C500.192 102.808 501.6 104.184 502.368 105.144C502.304 105.496 502.016 105.656 501.6 105.656H498.592C498.496 106.744 498.368 107.64 498.208 108.376H498.4L499.552 106.872C499.552 106.872 500.864 107.96 501.696 108.792C501.632 109.144 501.312 109.304 500.896 109.304H497.984C497.824 109.848 497.632 110.296 497.408 110.616C497.888 110.296 498.304 109.944 498.624 109.688L500.992 112.344C500.768 112.536 500.256 112.632 499.648 112.248C498.304 112.856 496.192 113.56 494.08 114.136C495.616 114.104 497.44 114.072 499.392 114.04C502.016 112.792 504.288 111.544 505.632 110.552L508.864 113.08C508.672 113.368 508.128 113.528 507.392 113.24C504.288 114.68 498.656 116.504 493.408 117.752C497.184 117.592 502.432 117.336 507.936 116.984C507.328 116.184 506.656 115.384 506.048 114.84ZM504.512 120.728L504.64 120.312C515.552 119.896 514.016 126.552 510.752 125.336C509.856 124.152 507.488 122.136 504.512 120.728ZM508.48 101.176H504.384C504.256 101.368 504.096 101.56 503.936 101.72C504.608 103.224 505.568 104.472 506.784 105.496C507.584 104.184 508.16 102.744 508.48 101.176ZM513.92 101.176H512.352C511.68 103.416 510.56 105.304 508.96 106.84C510.592 107.64 512.544 108.216 514.88 108.568L514.816 108.92C513.6 109.4 512.928 110.392 512.736 112.024C510.176 111.256 508.32 110.072 506.88 108.536C505.184 109.72 503.104 110.616 500.672 111.32L500.48 110.936C502.688 109.848 504.384 108.504 505.696 107C504.768 105.624 504.064 104.024 503.488 102.232C502.912 102.808 502.304 103.32 501.696 103.768L501.248 103.48C502.176 101.56 502.976 98.648 503.328 95.832L507.712 96.984C507.584 97.368 507.2 97.656 506.528 97.656C506.112 98.584 505.6 99.48 505.056 100.28H509.664L511.488 97.816C511.488 97.816 513.536 99.48 514.752 100.664C514.656 101.016 514.336 101.176 513.92 101.176ZM531.872 98.328L532.224 98.168C538.848 100.28 536 104.92 533.632 102.808C533.472 101.304 532.64 99.512 531.872 98.328ZM518.688 98.392L519.04 98.2C525.568 100.536 522.624 105.24 520.224 103.064C520.128 101.496 519.392 99.608 518.688 98.392ZM518.784 124.6L518.496 124.216C520.768 122.488 523.488 119.352 525.376 116.024L529.504 118.808C529.312 119.096 528.832 119.288 528.096 119.096C525.408 121.752 522.016 123.544 518.784 124.6ZM535.168 117.048L535.456 116.824C546.816 118.936 544.992 126.168 541.152 124.248C539.968 121.848 537.216 118.936 535.168 117.048ZM544.224 108.024L546.56 110.296C546.336 110.552 546.016 110.648 545.344 110.68C544.448 111.384 542.976 112.44 541.952 113.016C542.592 113.528 543.424 114.232 544.032 114.776C543.936 115.128 543.616 115.288 543.168 115.288H533.92V124.984C533.92 125.272 532.224 125.976 530.752 125.976H530.048V115.288H520.256L520 114.36H530.048V110.328L535.008 110.744C534.944 111.16 534.72 111.448 533.92 111.576V114.36H539.104L540.832 112.12L541.6 112.728C541.696 111.992 541.792 110.904 541.856 110.008H521.344C521.92 115.608 514.88 113.912 517.92 110.232C518.912 109.784 519.936 108.824 520.32 107.608C519.776 107.832 519.168 108.024 518.528 108.184L518.24 107.832C523.072 105.528 523.904 102.04 523.904 99.064V95.896L528.16 96.312C528.096 96.728 527.872 97.048 527.104 97.144V99.16C527.104 99.768 527.04 100.344 526.912 100.984C528 99.864 529.12 98.52 529.696 97.72L532.48 100.76C532.256 100.984 531.744 101.08 531.2 100.728C530.144 101.208 528.288 101.816 526.528 102.264C526.464 102.456 526.4 102.648 526.304 102.808C533.76 103.448 531.936 109.112 528.928 107.48C528.448 106.104 527.2 104.536 525.952 103.48C525.024 105.048 523.36 106.456 520.512 107.544H520.736C520.928 108.088 521.088 108.6 521.184 109.08H541.568L542.528 108.088C542.464 108.056 542.368 108.024 542.272 107.96C541.728 106.552 540.416 104.952 539.168 103.736C537.984 105.656 535.648 107.352 531.264 108.408L531.04 108.024C536.064 105.848 537.024 102.52 537.024 99.544V95.896L541.344 96.312C541.28 96.696 541.024 97.016 540.288 97.112V99.608C540.288 99.992 540.256 100.344 540.192 100.728C541.376 99.704 542.56 98.52 543.168 97.784L545.632 100.888C545.408 101.08 544.864 101.144 544.288 100.76C543.328 101.144 541.568 101.688 539.904 102.104C539.84 102.36 539.744 102.616 539.616 102.872C545.28 103.832 545.664 107.096 544.224 108.024ZM559.68 106.392L561.472 103.768C561.472 103.768 563.616 105.56 564.832 106.776C564.768 107.128 564.416 107.288 563.968 107.288H558.784V109.496C566.848 111.896 563.808 117.496 560.928 115.16C560.704 113.528 559.776 111.704 558.784 110.296V124.792C558.784 125.016 557.6 125.848 555.808 125.848H555.136V114.008C553.536 116.568 551.52 118.808 549.12 120.728L548.736 120.344C551.36 116.856 553.184 111.928 554.176 107.288H549.472L549.216 106.392H555.136V100.728C553.184 100.952 551.168 101.144 549.312 101.24L549.216 100.792C553.152 99.608 558.112 97.4 560.576 95.8L564.544 99.448C564.16 99.736 563.456 99.8 562.432 99.416C561.376 99.672 560.128 99.928 558.784 100.184V106.392H559.68ZM568.672 118.936H573.28V101.976H568.672V118.936ZM574.72 99.064L578.368 101.944C578.176 102.232 577.696 102.488 577.056 102.648V122.232C576.992 122.488 575.2 123.256 573.888 123.256H573.28V119.864H568.672V122.456C568.672 122.872 567.2 123.768 565.568 123.768H564.96V99.448L568.832 101.08H572.928L574.72 99.064ZM581.696 125.88L581.568 125.464C585.632 124.216 590.176 121.752 592.32 119.864L596.384 122.68C596.064 123.032 595.456 123.16 594.464 122.872C591.424 124.312 586.368 125.496 581.696 125.88ZM597.376 121.304L597.504 120.888C615.648 121.176 609.248 127.736 605.824 125.304C604.256 124.024 601.408 122.392 597.376 121.304ZM590.336 118.776H602.88V116.184H590.336V118.776ZM602.88 112.696H590.336V115.256H602.88V112.696ZM602.88 109.144H590.336V111.768H602.88V109.144ZM607.552 96.248L610.656 98.776C610.432 99.032 610.08 99.192 609.472 99.288C609.28 103.736 608.864 105.624 607.616 106.488C607.008 106.904 606.304 107.16 605.44 107.256L607.808 109.08C607.616 109.304 607.232 109.56 606.656 109.656V119.96C606.624 120.216 604.736 120.888 603.52 120.888H602.88V119.704H590.336V120.376C590.336 120.696 588.704 121.56 587.2 121.56H586.624V107.352C586.08 107.64 585.504 107.96 584.928 108.248C584.672 108.664 584.32 108.952 584 109.112L582.4 105.72C583.584 105.144 583.744 104.824 583.744 104.248V97.272L587.424 98.456C589.376 97.592 591.424 96.472 592.448 95.736L595.456 98.584C595.232 98.808 594.816 98.808 594.336 98.584C592.768 98.936 589.856 99.384 587.168 99.576V104.76C588.448 104.472 589.824 104.152 591.264 103.8C590.72 102.744 589.984 101.688 589.28 100.952L589.568 100.76C597.696 102.264 595.04 108.376 592 106.168C591.936 105.656 591.776 105.08 591.584 104.536C590.464 105.208 589.024 106.04 587.36 106.968L590.528 108.216H602.592L604.288 106.392L604.32 106.424C604.256 105.88 604.128 105.432 603.904 105.112C603.52 104.696 602.912 104.376 601.984 104.152V103.736C602.72 103.8 604 103.864 604.512 103.864C604.96 103.864 605.184 103.832 605.312 103.64C605.728 103.288 605.984 101.784 606.112 98.808H602.784C602.304 102.456 600.736 105.848 593.888 108.152L593.536 107.704C598.208 104.984 598.848 101.912 599.04 98.808H595.808L595.52 97.88H605.824L607.552 96.248ZM633.824 98.84H622.24V102.68H633.824V98.84ZM622.24 107.576H633.824V103.576H622.24V107.576ZM638.496 110.392L641.92 113.272C641.696 113.56 641.28 113.752 640.576 113.848C639.84 119.608 638.496 123.352 636.512 124.728C635.296 125.528 633.888 125.88 632.064 125.848C632.064 124.792 631.936 123.832 631.456 123.32C630.912 122.744 629.792 122.264 628.384 121.976V121.56C629.792 121.688 632 121.848 632.768 121.848C633.312 121.848 633.632 121.784 634.048 121.528C635.104 120.792 636.128 117.592 636.704 113.176H634.72C632.256 119.16 627.328 123.448 619.456 125.944L619.2 125.528C624.768 122.712 628.512 118.296 630.368 113.176H628.832C626.08 117.56 621.216 120.92 615.232 123.096L614.976 122.68C619.008 120.28 622.432 116.728 624.48 113.176H622.72C620.256 115.192 617.056 117.08 613.504 118.168L613.28 117.912C616.352 115.896 619.136 112.856 620.896 110.168C620.352 110.36 619.712 110.488 619.072 110.488H618.528V96.376L622.464 97.944H633.504L635.264 96.024L638.912 98.808C638.72 99.064 638.272 99.352 637.632 99.48V109.176C637.6 109.4 635.68 110.104 634.464 110.104H633.824V108.472H623.392L627.264 109.72C627.136 110.104 626.72 110.36 625.696 110.36C625.152 111 624.512 111.64 623.776 112.28H636.48L638.496 110.392ZM649.792 120.184H654.656V111.768H649.792V120.184ZM654.656 102.904H649.792V110.84H654.656V102.904ZM656.032 100.056L659.52 102.808C659.296 103.096 658.816 103.352 658.176 103.48V122.552C658.144 122.808 656.448 123.608 655.2 123.608H654.656V121.08H649.792V123.448C649.792 123.864 648.448 124.664 646.912 124.664H646.336V100.472L649.92 101.976H650.112C650.336 100.216 650.624 97.72 650.784 95.928L655.968 97.176C655.84 97.72 655.392 97.944 654.656 97.944C653.824 99.064 652.576 100.728 651.552 101.976H654.336L656.032 100.056ZM671.712 99.8L675.136 102.808C674.88 103.096 674.464 103.32 673.728 103.416C673.504 116.312 673.056 122.168 671.296 124.056C670.144 125.272 668.736 125.784 666.624 125.784C666.624 124.568 666.464 123.672 665.92 123.16C665.344 122.552 664.096 122.04 662.528 121.752L662.56 121.304C664.096 121.432 666.304 121.592 667.136 121.592C667.712 121.592 668 121.464 668.32 121.176C669.504 120.088 669.824 113.72 670.048 102.808H664.096C662.56 105.528 660.736 107.8 658.688 109.528L658.272 109.272C660.032 106.008 661.76 100.792 662.592 95.896L667.648 97.368C667.52 97.784 667.136 98.008 666.4 98.008C665.856 99.384 665.28 100.664 664.608 101.88H669.696L671.712 99.8ZM660.736 108.6L660.992 108.408C670.336 111.16 666.848 118.072 663.456 115.224C663.296 112.952 662.016 110.36 660.736 108.6ZM681.536 104.952V107.832C681.536 109.112 681.536 110.456 681.472 111.864C682.336 111.48 683.552 110.872 684.896 110.168V106.712C684.672 106.776 684.384 106.808 684.064 106.744C683.488 106.168 682.528 105.464 681.536 104.952ZM684.896 98.84H681.536V103.736C683.136 103.48 684.192 103.704 684.896 104.088V98.84ZM687.84 99.256V122.008C687.84 124.184 687.424 125.368 684.096 125.688C684 124.76 683.904 124.024 683.552 123.608C683.168 123.16 682.592 122.808 681.408 122.616V122.136C681.408 122.136 683.776 122.296 684.288 122.296C684.8 122.296 684.896 122.104 684.896 121.688V111.96C684.384 112.664 683.776 113.464 683.168 114.328C683.136 114.712 682.912 115.096 682.592 115.288L681.408 113.08C681.12 117.528 680.192 122.264 677.024 125.912L676.576 125.656C678.656 120.44 678.624 113.848 678.624 107.896V96.6L682.048 97.912H684.608L685.984 96.28L689.024 98.648C688.832 98.904 688.416 99.128 687.84 99.256ZM693.472 100.6V108.92C693.472 114.392 693.216 121.208 687.648 125.88L687.232 125.528C690.016 120.632 690.208 114.584 690.208 108.856V98.072L693.76 99.64C697.28 98.648 701.152 97.176 703.264 96.024L706.88 99.288C706.528 99.576 705.824 99.64 704.864 99.288C702.016 99.896 697.536 100.408 693.472 100.6ZM703.68 105.912L707.04 109.112C706.848 109.336 706.368 109.464 705.792 109.176C704.736 109.848 702.784 110.904 700.992 111.736C702.208 116.248 704.16 120.056 707.264 121.912L707.2 122.264C706.112 122.68 705.12 123.832 704.672 125.56C700.416 121.144 699.488 114.392 699.168 104.28C698.656 104.312 698.176 104.344 697.696 104.376V121.208C698.624 120.92 699.616 120.6 700.608 120.28L700.768 120.664C699.872 121.496 697.952 123.192 695.808 124.888C695.52 125.4 695.136 125.72 694.816 125.88L693.152 122.456C694.336 121.88 694.528 121.592 694.528 120.888V102.456L697.408 103.16C699.456 102.36 701.536 101.336 702.72 100.536L706.048 103.608C705.696 103.864 705.024 103.928 704.16 103.608C703.008 103.864 701.408 104.088 699.712 104.248C699.904 106.52 700.256 108.76 700.768 110.904C701.888 109.208 703.104 107.032 703.68 105.912ZM713.248 113.24H715.616V110.232H713.248V113.24ZM715.616 106.264H713.248V109.304H715.616V106.264ZM721.312 106.264H718.88V109.304H721.312V106.264ZM718.88 113.24H721.312V110.232H718.88V113.24ZM725.472 119.8L725.536 120.216C722.528 121.4 718.176 122.904 711.712 124.824C711.488 125.24 711.136 125.496 710.752 125.56L709.152 121.144C710.528 121.08 712.832 120.92 715.616 120.696V118.008H709.824L709.568 117.112H715.616V114.168H713.248V114.68C713.248 114.936 712.224 115.48 710.624 115.48H710.048V103.96L713.6 105.368H715.616V103.032H709.312L709.056 102.136H715.616V99.704C713.44 99.832 711.2 99.928 709.152 99.928L709.088 99.416C713.568 98.584 719.392 96.952 722.368 95.736L725.6 99.032C725.248 99.352 724.544 99.32 723.616 98.936C722.272 99.128 720.64 99.288 718.88 99.448V102.136H721.28L723.072 99.896C723.072 99.896 725.12 101.432 726.368 102.552C726.304 102.904 725.984 103.032 725.504 103.032H718.88V105.368H721.216L722.784 103.544L725.888 105.912C725.696 106.168 725.408 106.36 724.704 106.488V114.136C724.704 114.296 723.584 114.904 721.92 114.904H721.312V114.168H718.88V117.112H720.736L722.432 115C722.432 115 724.352 116.472 725.568 117.496C725.472 117.848 725.152 118.008 724.704 118.008H718.88V120.408C720.96 120.216 723.2 120.024 725.472 119.8ZM736.064 101.976L739.328 104.792C739.104 105.08 738.656 105.304 737.952 105.4C737.76 118.136 737.376 122.36 735.744 124.056C734.752 125.144 733.376 125.56 731.744 125.56C731.776 124.408 731.68 123.608 731.296 123.096C730.88 122.552 730.048 122.168 728.96 121.88V121.432C729.92 121.528 731.36 121.624 732 121.624C732.48 121.624 732.768 121.496 733.056 121.24C734.048 120.28 734.336 115.416 734.528 104.824H731.616C731.424 114.392 730.304 121.272 722.016 125.912L721.664 125.432C727.232 120.312 728.032 113.752 728.128 104.824H725.312L725.024 103.896H728.128C728.128 101.496 728.096 98.968 728.096 96.216L732.864 96.664C732.768 97.144 732.448 97.464 731.68 97.56C731.648 99.8 731.648 101.912 731.616 103.896H734.176L736.064 101.976ZM756.032 115.384C753.536 115.384 751.488 113.336 751.488 110.84C751.488 108.344 753.536 106.328 756.032 106.328C758.528 106.328 760.544 108.344 760.544 110.84C760.544 113.336 758.528 115.384 756.032 115.384ZM756.032 107.48C754.144 107.48 752.64 108.984 752.64 110.84C752.64 112.696 754.144 114.232 756.032 114.232C757.888 114.232 759.392 112.696 759.392 110.84C759.392 108.984 757.888 107.48 756.032 107.48Z" fill="#5B8B8F"/>
</svg>
