<svg width="90" height="351" viewBox="0 0 90 351" fill="none" xmlns="http://www.w3.org/2000/svg">
<path d="M6.482 1.36199L7.17 0.845996C30.476 3.082 22.478 20.11 13.534 14.004C12.588 9.446 9.32 4.54399 6.482 1.36199ZM1.064 21.4L1.752 20.798C23.854 22.432 16.114 38.6 7.514 32.752C6.74 28.71 3.73 24.152 1.064 21.4ZM24.714 13.832L26.004 14.262C23.166 25.012 18.264 44.964 17.318 49.78C16.63 52.79 16.2 55.886 16.286 57.95C16.458 62.68 19.898 65.862 19.554 73.516C19.382 77.816 16.716 80.74 12.674 80.74C10.696 80.74 8.718 79.536 8.116 76.182C9.664 67.324 9.32 59.068 7.342 57.778C6.138 56.918 4.762 56.574 2.956 56.402V54.682H6.74C7.944 54.682 8.288 54.682 9.148 52.876C10.782 49.608 10.782 49.608 24.714 13.832ZM42.258 52.274L53.008 57.262C52.664 58.208 51.89 58.638 49.912 58.466C46.042 64.486 39.678 71.882 31.852 76.44L30.992 75.494C36.324 69.044 40.538 58.982 42.258 52.274ZM65.22 54.338L66.166 53.822C89.558 62.766 82.248 79.536 73.992 73C72.96 66.808 68.746 59.326 65.22 54.338ZM68.402 22.948H49.568V33.01H68.402V22.948ZM49.568 44.964H68.402V35.504H49.568V44.964ZM67.972 7.554L73.218 0.587994C73.218 0.587994 79.238 5.31799 82.764 8.586C82.592 9.532 81.646 9.962 80.442 9.962H57.05L65.908 12.026C65.564 13.144 64.532 13.918 62.726 14.004C60.662 16.24 58.168 18.648 55.674 20.454H67.628L71.842 15.982L80.7 22.69C80.27 23.292 79.152 23.894 77.604 24.238V48.318C77.518 48.92 72.96 50.64 69.95 50.64H68.402V47.458H63.93V68.7C63.93 75.236 62.382 79.794 52.234 80.654C52.148 77.558 51.718 75.236 50.686 73.774C49.74 72.312 48.02 71.28 44.322 70.592V69.474C44.322 69.474 51.374 69.904 52.922 69.904C54.126 69.904 54.47 69.388 54.47 68.442V47.458H49.568V48.748C49.568 49.522 45.784 51.586 42 51.586H40.71V16.67L49.998 20.454H52.32C52.75 17.616 53.094 13.746 53.266 9.962H36.324V28.108C36.324 43.846 35.55 65.948 19.726 80.396L18.694 79.794C26.262 64.314 26.864 44.964 26.864 28.108V3.512L37.786 7.554H67.972ZM33.142 104.95L32.454 102.456H46.042C45.698 102.284 45.354 102.112 45.01 101.854C44.322 97.898 41.484 93.426 38.904 90.76L39.678 90.158C54.556 91.534 54.556 100.22 50.428 102.456H58.684C60.146 98.586 61.694 93.34 62.554 89.642L75.11 92.738C74.766 93.77 73.906 94.544 71.928 94.458C69.434 96.866 65.478 99.876 61.866 102.456H68.66L73.39 96.78C73.39 96.78 78.55 100.736 81.904 103.574C81.646 104.52 80.786 104.95 79.582 104.95H60.49V111.314H66.424L70.982 105.724C70.982 105.724 76.142 109.508 79.324 112.346C79.066 113.292 78.292 113.722 77.088 113.722H60.49V120.946H69.004L73.992 114.582C73.992 114.582 79.496 118.968 82.936 122.064C82.678 123.01 81.818 123.44 80.614 123.44H30.992L30.304 120.946H50.858V113.722H35.98L35.292 111.314H50.858V104.95H33.142ZM22.22 113.636V122.924C41.14 130.148 32.454 143.736 25.832 137.286C25.66 133.33 24.026 128.686 22.22 125.074V167.816C22.22 168.676 18.264 170.568 14.566 170.568H12.674V137.458C9.836 142.188 6.31 146.574 2.268 150.53L1.236 149.498C6.998 139.608 10.18 126.45 11.986 113.636H1.924L1.236 111.228H12.674V90.072L25.316 91.276C25.144 92.566 24.542 93.426 22.22 93.77V111.228H23.08L27.466 104.778C27.466 104.778 32.368 109.25 35.12 112.26C34.862 113.206 34.002 113.636 32.798 113.636H22.22ZM51.202 159.56V146.66C50.686 147.09 49.912 147.262 48.536 147.348C46.644 152.336 43.462 156.894 38.99 160.678C40.624 160.85 47.848 161.28 49.482 161.28C50.858 161.28 51.202 160.678 51.202 159.56ZM72.702 133.33L82.764 140.21C82.248 141.07 81.388 141.5 79.41 140.984C75.798 142.962 70.38 145.8 65.564 147.95C70.208 153.11 76.744 156.808 83.71 158.614L83.538 159.474C80.012 160.506 77.518 163.602 76.486 168.59C68.402 163.602 63.586 156.12 60.662 145.198V160.592C60.662 166.44 59.2 169.88 48.192 170.826C47.934 168.16 47.59 166.01 46.128 164.806C44.838 163.516 43.032 162.57 38.646 161.882V161.022C35.12 163.86 30.82 166.354 25.746 168.16L25.144 167.042C32.454 162.14 36.926 154.572 38.99 146.574H29.53L28.756 144.08H38.732L43.376 139.436L51.202 145.714V137.888H37.442L37.012 135.48H50.944L54.556 131.266C51.546 129.546 47.676 127.912 43.462 126.708L43.72 125.504C69.434 121.806 68.144 137.458 60.49 135.652C59.286 134.448 57.308 132.9 54.814 131.438L64.36 138.576C63.758 139.264 62.468 140.038 60.662 140.382C61.608 142.618 62.898 144.768 64.532 146.746C67.37 142.618 71.068 136.598 72.702 133.33ZM25.488 190.392H14.566V209.14H25.488V190.392ZM14.566 230.726H25.488V211.634H14.566V230.726ZM25.488 233.22H14.566V241.82C14.566 242.422 11.642 244.916 6.912 244.916H5.278V183.856L15.684 187.898H24.628L29.272 182.824L38.474 190.134C37.872 190.908 36.668 191.596 34.948 191.94V237.434C34.862 238.208 30.476 240.616 27.036 240.616H25.488V233.22ZM51.804 225.566H68.66V208.28H52.406V213.784C52.406 217.654 52.234 221.696 51.804 225.566ZM68.66 188.758H52.406V205.786H68.66V188.758ZM72.186 181.104L81.818 188.586C81.216 189.274 80.012 190.048 78.206 190.306V248.786C78.206 255.58 76.658 259.536 64.79 260.568C64.446 257.472 63.844 255.15 62.296 253.688C60.662 252.14 58.34 251.022 53.352 250.248V249.044C53.352 249.044 64.36 249.646 66.51 249.646C68.23 249.646 68.66 249.13 68.66 247.754V228.06H51.46C49.31 240.702 43.032 252.656 24.886 260.568L24.112 259.794C40.366 247.324 42.86 231.758 42.86 213.87V182.308L53.782 186.264H67.8L72.186 181.104ZM16.458 318.404V323.478C16.458 325.112 16.458 326.832 16.286 328.638C18.522 327.95 22.048 326.746 25.832 325.456V322.016C24.972 322.876 23.596 323.392 21.962 322.876C20.758 321.414 18.522 319.694 16.458 318.404ZM25.832 311.868H16.458V316.254C21.618 315.48 24.542 316.426 25.832 317.888V311.868ZM15.598 278.414V298.796H18.608V283.316L24.37 285.896H26.262V278.414H15.598ZM23.166 288.39V298.796H26.262V288.39H23.166ZM51.374 282.456H47.676V290.712H51.374V282.456ZM60.49 282.456H56.792V290.712H60.49V282.456ZM69.606 282.456H65.908V290.712H69.606V282.456ZM65.908 301.548H69.606V293.206H65.908V301.548ZM56.792 293.206V301.548H60.49V293.206H56.792ZM51.374 301.548V293.206H47.676V301.548H51.374ZM28.498 305.246L36.84 311.352C36.324 312.04 35.034 312.814 33.4 313.072V340.85C33.4 346.268 32.282 349.192 24.026 349.966C23.854 347.73 23.596 345.924 22.736 344.892C21.79 343.774 20.586 343 17.748 342.484V341.194C17.748 341.194 22.994 341.624 24.37 341.624C25.574 341.624 25.832 341.108 25.832 340.076V329.068C24.37 330.702 22.65 332.594 20.844 334.744C20.586 335.776 19.898 336.636 19.038 336.98L16.028 330.788C15.082 337.84 12.072 345.15 3.042 350.482L2.182 349.45C8.202 342.054 8.546 332.508 8.546 323.392V306.536C8.202 307.568 7.686 308.428 7.084 308.944C5.45 310.32 2.268 310.148 1.236 307.912C0.376 305.762 1.666 303.698 3.644 302.58C5.106 301.29 6.396 297.936 5.708 295.442L7.084 295.528C7.6 296.646 7.944 297.764 8.202 298.796H9.148V272.824L16.458 275.92H25.316L28.584 271.62L36.84 277.554C36.152 278.414 35.12 278.93 32.884 279.188V297.678L35.378 295.184L40.194 299.914V276.694L48.708 280.048H51.374V270.244L58.856 271.104C58.77 271.964 58.168 272.652 56.792 272.91V280.048H60.49V270.244L68.316 271.104C68.144 272.136 67.542 272.738 65.908 273.082V280.048H69.348L73.046 275.748L80.7 281.51C80.184 282.198 79.324 282.714 77.518 282.972V303.612C77.518 303.784 76.744 304.3 75.454 304.816C77.174 306.106 79.84 308.17 81.818 309.89C81.56 310.836 80.7 311.266 79.496 311.266H38.474L37.786 308.772H69.434L72.186 305.418C71.842 305.504 71.412 305.504 70.982 305.504H69.606V303.956H47.676V304.816C47.676 305.418 45.354 306.88 41.398 306.88H40.194V302.064C39.678 302.15 39.162 302.236 38.474 302.236C37.012 303.956 34.604 306.708 33.142 308.17L31.938 307.568C32.024 306.02 32.368 303.354 32.54 301.204H8.804C9.062 303.01 9.062 304.644 8.718 306.02L17.662 309.46H25.058L28.498 305.246ZM51.03 330.616V332.25C51.03 332.508 50.6 332.938 49.654 333.282C58.426 337.324 56.792 343.086 53.18 344.204H60.146C61.608 340.334 63.156 335.432 63.93 331.734L65.564 332.25V330.616H51.03ZM65.564 318.49H51.03V328.122H65.564V318.49ZM69.778 344.204L74.508 338.356C74.508 338.356 79.754 342.398 83.022 345.322C82.764 346.268 81.904 346.698 80.614 346.698H35.378L34.69 344.204H50.686C49.826 343.946 48.966 343.43 48.192 342.656C48.278 339.818 47.504 336.55 46.558 334.056C45.87 334.142 45.096 334.228 44.236 334.228H42.774V312.384L51.976 315.996H65.392L69.348 311.524L77.346 317.458C76.916 318.232 76.056 318.662 74.25 319.006V331.218C74.25 331.562 71.842 332.938 67.886 333.11L74.25 335.26C73.906 336.206 72.874 336.894 70.982 336.722C68.918 338.872 65.908 341.71 62.898 344.204H69.778Z" fill="black"/>
</svg>
