<svg width="90" height="339" viewBox="0 0 90 339" fill="none" xmlns="http://www.w3.org/2000/svg">
<path d="M6.482 1.36199L7.17 0.845996C30.476 3.082 22.478 20.11 13.534 14.004C12.588 9.446 9.32 4.54399 6.482 1.36199ZM1.064 21.4L1.752 20.798C23.854 22.432 16.114 38.6 7.514 32.752C6.74 28.71 3.73 24.152 1.064 21.4ZM24.714 13.832L26.004 14.262C23.166 25.012 18.264 44.964 17.318 49.78C16.63 52.79 16.2 55.886 16.286 57.95C16.458 62.68 19.898 65.862 19.554 73.516C19.382 77.816 16.716 80.74 12.674 80.74C10.696 80.74 8.718 79.536 8.116 76.182C9.664 67.324 9.32 59.068 7.342 57.778C6.138 56.918 4.762 56.574 2.956 56.402V54.682H6.74C7.944 54.682 8.288 54.682 9.148 52.876C10.782 49.608 10.782 49.608 24.714 13.832ZM42.258 52.274L53.008 57.262C52.664 58.208 51.89 58.638 49.912 58.466C46.042 64.486 39.678 71.882 31.852 76.44L30.992 75.494C36.324 69.044 40.538 58.982 42.258 52.274ZM65.22 54.338L66.166 53.822C89.558 62.766 82.248 79.536 73.992 73C72.96 66.808 68.746 59.326 65.22 54.338ZM68.402 22.948H49.568V33.01H68.402V22.948ZM49.568 44.964H68.402V35.504H49.568V44.964ZM67.972 7.554L73.218 0.587994C73.218 0.587994 79.238 5.31799 82.764 8.586C82.592 9.532 81.646 9.962 80.442 9.962H57.05L65.908 12.026C65.564 13.144 64.532 13.918 62.726 14.004C60.662 16.24 58.168 18.648 55.674 20.454H67.628L71.842 15.982L80.7 22.69C80.27 23.292 79.152 23.894 77.604 24.238V48.318C77.518 48.92 72.96 50.64 69.95 50.64H68.402V47.458H63.93V68.7C63.93 75.236 62.382 79.794 52.234 80.654C52.148 77.558 51.718 75.236 50.686 73.774C49.74 72.312 48.02 71.28 44.322 70.592V69.474C44.322 69.474 51.374 69.904 52.922 69.904C54.126 69.904 54.47 69.388 54.47 68.442V47.458H49.568V48.748C49.568 49.522 45.784 51.586 42 51.586H40.71V16.67L49.998 20.454H52.32C52.75 17.616 53.094 13.746 53.266 9.962H36.324V28.108C36.324 43.846 35.55 65.948 19.726 80.396L18.694 79.794C26.262 64.314 26.864 44.964 26.864 28.108V3.512L37.786 7.554H67.972ZM33.142 100.95L32.454 98.456H46.042C45.698 98.284 45.354 98.112 45.01 97.854C44.322 93.898 41.484 89.426 38.904 86.76L39.678 86.158C54.556 87.534 54.556 96.22 50.428 98.456H58.684C60.146 94.586 61.694 89.34 62.554 85.642L75.11 88.738C74.766 89.77 73.906 90.544 71.928 90.458C69.434 92.866 65.478 95.876 61.866 98.456H68.66L73.39 92.78C73.39 92.78 78.55 96.736 81.904 99.574C81.646 100.52 80.786 100.95 79.582 100.95H60.49V107.314H66.424L70.982 101.724C70.982 101.724 76.142 105.508 79.324 108.346C79.066 109.292 78.292 109.722 77.088 109.722H60.49V116.946H69.004L73.992 110.582C73.992 110.582 79.496 114.968 82.936 118.064C82.678 119.01 81.818 119.44 80.614 119.44H30.992L30.304 116.946H50.858V109.722H35.98L35.292 107.314H50.858V100.95H33.142ZM22.22 109.636V118.924C41.14 126.148 32.454 139.736 25.832 133.286C25.66 129.33 24.026 124.686 22.22 121.074V163.816C22.22 164.676 18.264 166.568 14.566 166.568H12.674V133.458C9.836 138.188 6.31 142.574 2.268 146.53L1.236 145.498C6.998 135.608 10.18 122.45 11.986 109.636H1.924L1.236 107.228H12.674V86.072L25.316 87.276C25.144 88.566 24.542 89.426 22.22 89.77V107.228H23.08L27.466 100.778C27.466 100.778 32.368 105.25 35.12 108.26C34.862 109.206 34.002 109.636 32.798 109.636H22.22ZM51.202 155.56V142.66C50.686 143.09 49.912 143.262 48.536 143.348C46.644 148.336 43.462 152.894 38.99 156.678C40.624 156.85 47.848 157.28 49.482 157.28C50.858 157.28 51.202 156.678 51.202 155.56ZM72.702 129.33L82.764 136.21C82.248 137.07 81.388 137.5 79.41 136.984C75.798 138.962 70.38 141.8 65.564 143.95C70.208 149.11 76.744 152.808 83.71 154.614L83.538 155.474C80.012 156.506 77.518 159.602 76.486 164.59C68.402 159.602 63.586 152.12 60.662 141.198V156.592C60.662 162.44 59.2 165.88 48.192 166.826C47.934 164.16 47.59 162.01 46.128 160.806C44.838 159.516 43.032 158.57 38.646 157.882V157.022C35.12 159.86 30.82 162.354 25.746 164.16L25.144 163.042C32.454 158.14 36.926 150.572 38.99 142.574H29.53L28.756 140.08H38.732L43.376 135.436L51.202 141.714V133.888H37.442L37.012 131.48H50.944L54.556 127.266C51.546 125.546 47.676 123.912 43.462 122.708L43.72 121.504C69.434 117.806 68.144 133.458 60.49 131.652C59.286 130.448 57.308 128.9 54.814 127.438L64.36 134.576C63.758 135.264 62.468 136.038 60.662 136.382C61.608 138.618 62.898 140.768 64.532 142.746C67.37 138.618 71.068 132.598 72.702 129.33ZM25.488 182.392H14.566V201.14H25.488V182.392ZM14.566 222.726H25.488V203.634H14.566V222.726ZM25.488 225.22H14.566V233.82C14.566 234.422 11.642 236.916 6.912 236.916H5.278V175.856L15.684 179.898H24.628L29.272 174.824L38.474 182.134C37.872 182.908 36.668 183.596 34.948 183.94V229.434C34.862 230.208 30.476 232.616 27.036 232.616H25.488V225.22ZM51.804 217.566H68.66V200.28H52.406V205.784C52.406 209.654 52.234 213.696 51.804 217.566ZM68.66 180.758H52.406V197.786H68.66V180.758ZM72.186 173.104L81.818 180.586C81.216 181.274 80.012 182.048 78.206 182.306V240.786C78.206 247.58 76.658 251.536 64.79 252.568C64.446 249.472 63.844 247.15 62.296 245.688C60.662 244.14 58.34 243.022 53.352 242.248V241.044C53.352 241.044 64.36 241.646 66.51 241.646C68.23 241.646 68.66 241.13 68.66 239.754V220.06H51.46C49.31 232.702 43.032 244.656 24.886 252.568L24.112 251.794C40.366 239.324 42.86 223.758 42.86 205.87V174.308L53.782 178.264H67.8L72.186 173.104ZM16.458 306.404V311.478C16.458 313.112 16.458 314.832 16.286 316.638C18.522 315.95 22.048 314.746 25.832 313.456V310.016C24.972 310.876 23.596 311.392 21.962 310.876C20.758 309.414 18.522 307.694 16.458 306.404ZM25.832 299.868H16.458V304.254C21.618 303.48 24.542 304.426 25.832 305.888V299.868ZM15.598 266.414V286.796H18.608V271.316L24.37 273.896H26.262V266.414H15.598ZM23.166 276.39V286.796H26.262V276.39H23.166ZM51.374 270.456H47.676V278.712H51.374V270.456ZM60.49 270.456H56.792V278.712H60.49V270.456ZM69.606 270.456H65.908V278.712H69.606V270.456ZM65.908 289.548H69.606V281.206H65.908V289.548ZM56.792 281.206V289.548H60.49V281.206H56.792ZM51.374 289.548V281.206H47.676V289.548H51.374ZM28.498 293.246L36.84 299.352C36.324 300.04 35.034 300.814 33.4 301.072V328.85C33.4 334.268 32.282 337.192 24.026 337.966C23.854 335.73 23.596 333.924 22.736 332.892C21.79 331.774 20.586 331 17.748 330.484V329.194C17.748 329.194 22.994 329.624 24.37 329.624C25.574 329.624 25.832 329.108 25.832 328.076V317.068C24.37 318.702 22.65 320.594 20.844 322.744C20.586 323.776 19.898 324.636 19.038 324.98L16.028 318.788C15.082 325.84 12.072 333.15 3.042 338.482L2.182 337.45C8.202 330.054 8.546 320.508 8.546 311.392V294.536C8.202 295.568 7.686 296.428 7.084 296.944C5.45 298.32 2.268 298.148 1.236 295.912C0.376 293.762 1.666 291.698 3.644 290.58C5.106 289.29 6.396 285.936 5.708 283.442L7.084 283.528C7.6 284.646 7.944 285.764 8.202 286.796H9.148V260.824L16.458 263.92H25.316L28.584 259.62L36.84 265.554C36.152 266.414 35.12 266.93 32.884 267.188V285.678L35.378 283.184L40.194 287.914V264.694L48.708 268.048H51.374V258.244L58.856 259.104C58.77 259.964 58.168 260.652 56.792 260.91V268.048H60.49V258.244L68.316 259.104C68.144 260.136 67.542 260.738 65.908 261.082V268.048H69.348L73.046 263.748L80.7 269.51C80.184 270.198 79.324 270.714 77.518 270.972V291.612C77.518 291.784 76.744 292.3 75.454 292.816C77.174 294.106 79.84 296.17 81.818 297.89C81.56 298.836 80.7 299.266 79.496 299.266H38.474L37.786 296.772H69.434L72.186 293.418C71.842 293.504 71.412 293.504 70.982 293.504H69.606V291.956H47.676V292.816C47.676 293.418 45.354 294.88 41.398 294.88H40.194V290.064C39.678 290.15 39.162 290.236 38.474 290.236C37.012 291.956 34.604 294.708 33.142 296.17L31.938 295.568C32.024 294.02 32.368 291.354 32.54 289.204H8.804C9.062 291.01 9.062 292.644 8.718 294.02L17.662 297.46H25.058L28.498 293.246ZM51.03 318.616V320.25C51.03 320.508 50.6 320.938 49.654 321.282C58.426 325.324 56.792 331.086 53.18 332.204H60.146C61.608 328.334 63.156 323.432 63.93 319.734L65.564 320.25V318.616H51.03ZM65.564 306.49H51.03V316.122H65.564V306.49ZM69.778 332.204L74.508 326.356C74.508 326.356 79.754 330.398 83.022 333.322C82.764 334.268 81.904 334.698 80.614 334.698H35.378L34.69 332.204H50.686C49.826 331.946 48.966 331.43 48.192 330.656C48.278 327.818 47.504 324.55 46.558 322.056C45.87 322.142 45.096 322.228 44.236 322.228H42.774V300.384L51.976 303.996H65.392L69.348 299.524L77.346 305.458C76.916 306.232 76.056 306.662 74.25 307.006V319.218C74.25 319.562 71.842 320.938 67.886 321.11L74.25 323.26C73.906 324.206 72.874 324.894 70.982 324.722C68.918 326.872 65.908 329.71 62.898 332.204H69.778Z" fill="black"/>
</svg>
