<svg width="196" height="500" viewBox="0 0 196 500" fill="none" xmlns="http://www.w3.org/2000/svg">
<path d="M131.1 99.4C133.5 101.1 133 102.4 130.5 102.4L99.1 102.5C101.6 117.8 117.2 144.4 135.4 145.7C137 145.8 136.5 147.2 135.5 147.4C131.8 148 131.1 151.2 128.7 153.1C124.7 156.2 120 154.4 119.6 154.2C107.6 149.8 95.8 127 94.6 103.7C89.8 135.9 76.9 147.6 56.8 155.2C53.1 156.6 52.3 153.9 54.9 152.8C74.1 144.7 81.2 121 83.7 102.6L62.7 102.7C60.8 102.7 56.9 103.4 56 102.7C53.9 101.1 53.5 95.9 53.7 94.7C53.8 94.2 54.1 94.1 54.4 94.4C59.4 98.6 69.5 98.8 72.5 98.8L84.2 98.7C85.4 87.1 85 78.4 85 78.4C93.9 78.9 97.2 79.9 98.5 80.5C99.8 81.1 99.8 83 97.8 83.4C96.4 83.7 96.4 84.4 96.2 87.6C96 91.5 95.7 95.2 95.3 98.7C101.5 99.2 108.4 97.1 108.4 97.1C121 92.8 127.7 96.7 131.1 99.4ZM97.6 246.6C90.8 246.6 86.5 242.5 86.5 234.3C86.5 231.9 86.3 220.7 86.3 211.8C83.1 213.9 79.4 215.6 75.1 216.5C72.3 229 65.8 240 62 243C58.4 246.1 55.7 245.5 54.5 243.3C53.3 241.2 54 236.7 52 235.9C50.6 235.4 50.6 234.4 51.9 234.1C62 231.9 71.5 215.8 74 204.1C74.8 199.9 76.6 200.7 76.6 204.4C76.6 207.6 76.3 210.9 75.7 214C83.9 209 87.7 200.6 88.9 196.1H82.9C78.7 196.1 76.9 196.8 75.9 196.1C73.7 194.8 73.8 190.9 73.8 190.3C73.8 190 73.9 189.9 74.1 190.1C76.3 192.2 80.2 192.9 83.1 192.9H89.5V185C89.5 183 88.8 181.9 86.6 181.9H84.3C83.4 181.9 80.1 182.4 79.4 181.8C77.2 180 77.3 177.2 77.4 176.4C77.4 176.2 77.5 176.2 77.6 176.3C80.6 179 85.4 179.1 86.8 179.1H89.5V168.5C93.8 168.5 97.6 168.8 99.9 170.3C101.1 171 101 172.1 99.7 172.8C99.2 173 98.8 173.4 98.8 174.7V179.1H108.6V168.3C112.9 168.3 116.7 168.6 119 170.1C120.2 170.8 120.1 171.9 118.8 172.6C118.3 172.8 117.9 173.3 117.9 174.5V177.5L118.4 177.3C124.9 174.8 129.5 177.7 131.5 179.4C135 182.1 132.5 181.8 129.5 181.8H120.5C118.4 182 117.9 183 117.9 184.9V191.8L119.3 191.2C125.6 188.6 130.2 191.5 132.3 193.2C135.4 195.6 133 196 130.7 196H116.6C121.6 204.3 127 209.2 134.3 209.2C135.4 209.2 135.5 210.5 134.6 210.8C132 212 132.5 213.7 130.2 215.5C129.1 216.4 127.7 217.1 125.6 216.6C124.4 215.9 123.2 215 122 214V222.2C122 225.1 120.8 228 117.5 228.1C114.2 228.2 113.6 226.2 113.1 225.3C112.1 223.1 108 222.8 106.1 222.8H98.2C96 222.8 94.7 224.2 94.7 226.9V232C94.7 236.8 96.6 238.4 101.1 238.4H115.6C121.3 238.4 123.8 237.9 123.8 232.4L124 225.1C124.7 225.1 125.6 225.5 125.8 227.4C126 229.1 125.2 233.3 128.6 234.3C132.4 235.5 133.1 238.2 133.1 240.8C133.1 245 127.5 246.6 118.5 246.6H97.6ZM52.6 171.9C51.8 170.9 52.4 170.3 53.4 170.6C57.8 171.9 68.3 175.6 69.9 180.8C70.7 183.7 70.2 190.9 64.7 189.7C62.7 189.2 61.3 186.7 60.3 183.7C59.1 180.3 56.9 177.2 52.6 171.9ZM52.7 190.8C52 189.8 52.5 189.2 53.5 189.5C57.9 190.8 68.4 194.5 70 199.7C70.9 202.7 70.4 209.8 64.9 208.6C62.9 208.2 61.4 205.7 60.5 202.7C59.3 199.2 57 196.2 52.7 190.8ZM92.2 206.9C94.9 207.5 97.6 207.7 98.5 207.7H100.7C105.6 207.7 111.3 205.8 111.3 205.8C112.6 205.2 113.8 204.9 115 204.8C113.6 202.1 112.6 199.1 112 196L99.5 196.1C99.1 197.9 96.5 202.5 92.2 206.9ZM94.7 219.2H114.2V214.5C114.2 212.5 113.3 210.8 110.5 210.8L98.9 210.9C95.3 210.9 94.7 212.6 94.7 214.4V219.2ZM98.8 192.9H108.6V184.9C108.6 183.2 108.1 182.1 106.5 181.9H100.8C99.3 182.1 98.8 183.2 98.8 184.9V192.9ZM132.9 262.6C134 263.6 133.6 264.2 132.6 264.4C130.4 264.5 129.5 265.3 129.5 266.8V328.7C129.5 333.4 127.6 336.1 122.8 336.1C120.5 336.1 117.9 334.3 117.3 332.3C116.4 329.2 110.5 329.6 107 329.5C105.8 329.4 104.7 328.4 104.6 327.5H119.4V302.7C119.2 301.1 118.4 298.5 115.1 298.4H104.7C102.4 298.4 101.4 300.1 101 301.4C97.9 322.2 87.1 331.8 71.4 335.4C69.1 335.9 68.5 334 70.5 333.2C86.5 327.3 92.2 310.6 92.2 288V261.7C91.9 260.6 92 259.6 92 259.3C92 258.9 92.2 258.8 92.5 259C95.8 261 101.8 261.8 103.5 261.8H109.1C114.1 261.8 115.7 259.8 122.8 259.1C126.7 258.7 129.4 259.9 132.9 262.6ZM52.4 261.8C52.5 261.4 52.7 261.5 52.8 261.6C55.2 264 64.4 264.7 65.1 264.7H65.8C69.9 264.7 73.4 263.1 75.8 262.4C82.1 260.7 85.4 262.9 87.5 265.1C87.9 265.4 87.6 266.1 86.7 266.1C84.4 266.2 84.5 267.9 84.5 271L84.4 304.8C84.4 308.8 81.2 310.2 79.5 310.2C76.9 310.2 75.9 309.4 74.6 307C74.1 305.9 73 305.6 71.8 305.4H65.8C62.4 305.4 61.9 307.2 61.9 311.1V312.5C61.9 312.5 56.9 315.7 52.5 312.5V264.6C52.3 263.4 52.3 262.2 52.4 261.8ZM61.9 301.9H75V289.9C75 288.9 74.7 285.1 71 285.1H65.9C61.9 285.1 61.9 289.5 61.9 289.7V301.9ZM61.9 281.8H75V271.3C75 268.8 73.4 267 71.4 267L66.3 267.1H65.4H65.5C62.3 267.1 61.9 269.1 61.9 271.3V281.8ZM101.7 295H119.3C119.3 292.1 119.3 289.3 119.3 286.6C119.3 286.6 119.8 281.1 115.2 281H105.5C101.7 281 101.9 285.3 101.9 285.3V288.5C101.9 290.8 101.8 292.9 101.7 295ZM101.7 268.5L101.8 277.4H119.3V269.8C119.3 266.4 117.6 264.5 114.4 264.5L109.7 264.6H105.8C102.5 264.6 101.6 266.7 101.7 268.5ZM51.5 372.6C51 371.1 51.2 369.9 51.3 369.6C51.4 369.2 51.6 369.3 51.7 369.4C52.9 370.4 54.6 371 56.4 371.5V353.3C56 351.7 56 348.9 56.2 348.2C56.3 347.9 56.4 347.9 56.6 348.1C58.8 349.7 62.7 350.1 64.9 350.1H73.6C76.4 350.1 78.6 349.2 79.8 348.8C83.4 347.6 86.5 349.7 87.9 350.7C88.7 351.3 89.1 352.4 87.9 352.4C86.9 352.4 86.5 353.2 86.5 354V369.5C89 369.9 90.9 371.2 92.4 372.3V355.7C92.1 354.4 92.1 353.6 92.2 353.4C92.2 353.4 92.2 352.6 92.6 352.8C95.9 354.7 102.6 355.1 103.1 355.1H103.4L103.3 347C104.1 346.8 108.4 346.3 111.1 348.2C112 348.7 112 349.9 110.9 350.3C110.5 350.5 110.1 350.9 110.1 351.5V355.1H112.4L114.3 355V346.7C115.4 346.5 119.6 346.4 121.8 348.2C122.8 348.8 122.7 349.9 121.6 350.3C121.2 350.5 121 350.9 121 351.5V354L121.6 353.8C127.1 351.6 132.2 353.8 133.7 355.5C134.4 356.1 134.7 357.1 133.6 357.2C132.5 357.3 131.4 358.1 131.4 359.3V364.3V371.1C131.4 380.2 131.2 380.6 131 381.3C130.7 382 130.1 383.6 127.7 383.6C125.9 383.6 124.4 382.6 124.1 381.6C123.6 379.6 118.9 379.6 117.2 379.6H102.6C99.2 379.6 99 379.8 99 381.1C99 381.1 95.7 384 92.4 381.3V374.8H92.3C91 374.9 91 376.2 91 377.4V383.8C90.5 384.2 88 385.7 85.3 384.3C85.1 384.5 85 384.8 85 385.1V422.4C85 425.4 83.8 427.3 80.7 427.3C79.1 427.3 77.3 426 77 424.8C76.4 422.7 72.6 423 70.2 422.9C68.5 422.9 68.7 421.7 68.7 421.1H76V409.2C76 409 76 408.7 76 408.5C75.9 407.6 75.6 406.2 74 406.1H68.9C67.4 406.1 67 406.9 66.9 409C66.8 419.1 66.8 421.4 66.8 426.7C66.8 426.7 62.1 429.1 58.6 426.8C58.8 422.6 58.7 413.1 58.7 381.8C58.6 381.2 58.6 380.4 58.6 380.2C58.6 380 58.7 379.9 58.9 380C61.1 381.5 65 381.9 66.2 381.9H71.6C74.9 381.9 75.9 380.5 80.7 380.1C82.2 380 83.4 380.2 84.6 380.7V378.8C84.6 376.7 83.7 375 81.9 375L61.7 375.2C58.4 375.2 58.6 376.9 58.6 379.6V383.6C58.6 383.6 55.3 386.2 51.5 383.8V372.6ZM64 372.6H68.1V362.5C67.9 362 67.9 359.3 68 359.1C68 359.1 68.1 359 68.3 359.1C69.7 360.2 72.2 360.4 74.5 360.5H79.4V356.3C79.4 354.5 79.1 352.8 77.2 352.8H68C64.5 352.8 64 354.1 64 357V372.6ZM66.8 387L67 393H76V387.1C76 385.6 75.5 384.4 73.3 384.4L69.5 384.5C67.4 384.5 66.8 385.4 66.8 387ZM67 403.1H76V398.7C76 398.7 76 396 73.4 396H69.3C67.4 396 67.1 397.5 67.1 398.3V398.7C67.1 400.3 67.1 401.7 67 403.1ZM73.9 372.3C76 372 78.2 371.4 79.4 371V363.3H75.5C74.1 363.3 73.9 364.3 73.9 365.5V372.3ZM86.9 420.4C86.9 419.5 87.3 419.5 87.5 419.6C91.7 422.4 95.1 422.4 100.2 422.4H102.5C102.2 421.8 102 421.1 101.9 420.4C101.4 418.3 99.9 416.1 97.2 412.4C96.6 411.8 97.2 411.4 97.9 411.8C101.3 413.1 109 416.6 109.7 419.9C109.8 420.6 109.8 421.6 109.4 422.5C111 422.5 112.3 422.5 113.5 422.5C115.1 420.6 117.6 415.3 118.4 411.1C118.4 410.9 118.8 410.9 119.1 410.9C120.3 411.5 126.1 413.9 126.8 415.4C126.8 415.4 127 416 126.1 415.9C125.6 415.8 125.3 416 125.1 416.3C124.8 417 122.5 419.6 119.2 421.8L120.8 421.5C126.8 420.3 130.7 420.5 134.9 422.6C137.4 424 137.4 425.6 134.3 425.6H96.2C93.2 425.6 89.4 426.5 88.4 425.4C86.7 424 86.9 420.7 86.9 420.4ZM91.7 384.2C91.8 383 92 382.6 92.7 383C95.4 384.6 99.5 385.7 103.7 385.7H107.7C114.4 385.9 116.3 385.4 119.4 384.6C124.3 383.5 128.3 383.9 131.8 386C133.7 387.3 133.7 388.5 131.2 388.5H99.7C97.2 388.5 94.4 389.4 93.4 388.5C92 387 91.6 384.8 91.7 384.2ZM95 409.1L95.1 392.5C94.9 391.7 94.9 390.8 95 390.5C95.1 390.2 95.3 390 95.3 390.1C98 391.9 101.4 392.2 101.8 392.2H114.5C118 392.2 120.7 391 120.7 391C125.2 389.2 127.9 391.2 129.6 392.5C130.4 393.1 130.4 393.7 129.8 393.9C128.4 394.4 128.3 394.8 128.3 395.6V405.7C128.3 409.4 127.6 411.5 124.2 411.3C121.8 411.2 120.9 409.7 120.5 408.6C119.9 407.2 118.4 406.7 116.8 406.7H106.9C103.5 406.7 103.3 407.3 103.3 408.9V409.1C103.3 409.1 99 412.8 95 409.1ZM99 376.7H103.6V369.3C103.6 368.4 103.3 366.2 101.5 366.2H101.1C99.3 366.2 99 368.4 99 369.3V369.8C99 371.7 99 373.9 99 376.7ZM99 364.1H103.6L103.5 359.2C103.3 358.3 102.8 357.2 101.7 357.2C100.3 357.2 99 357.3 99 360.1V364.1ZM103.2 403.3H120.5L120.4 397.5C120.4 396.4 120 395.3 118 395.3L105.7 395.4C104.2 395.4 103.2 396.2 103.2 397.6V403.3ZM110.1 376.7H114.3V369.3C114.3 368.4 114 366.2 112.2 366.2C110.4 366.2 110.1 368.4 110.1 369.3V376.7ZM110.1 364.1H114.3V360.3C114.3 359.4 114 357.2 112.2 357.2H112C110.3 357.2 110.1 359.9 110.1 360.6V364.1ZM121 376.7H125.3V369.8C125.3 369.8 125.3 366.2 122.9 366.2C121.5 366.3 121.1 367.6 121 368.7V376.7ZM121 364.1H125.3V359.9C125.3 358.5 124.8 357.2 123.7 357.2H122.7C121.3 357.2 121 358.6 121 359.7V364.1Z" fill="black"/>
</svg>
