<svg width="88" height="352" viewBox="0 0 88 352" fill="none" xmlns="http://www.w3.org/2000/svg">
<path d="M81.1 21.4C83.5 23.1 83 24.4 80.5 24.4L49.1 24.5C51.6 39.8 67.2 66.4 85.4 67.7C87 67.8 86.5 69.2 85.5 69.4C81.8 70 81.1 73.2 78.7 75.1C74.7 78.2 70 76.4 69.6 76.2C57.6 71.8 45.8 49 44.6 25.7C39.8 57.9 26.9 69.6 6.8 77.2C3.1 78.6 2.3 75.9 4.9 74.8C24.1 66.7 31.2 43 33.7 24.6L12.7 24.7C10.8 24.7 6.9 25.4 6 24.7C3.9 23.1 3.5 17.9 3.7 16.7C3.8 16.2 4.1 16.1 4.4 16.4C9.4 20.6 19.5 20.8 22.5 20.8L34.2 20.7C35.4 9.1 35 0.399994 35 0.399994C43.9 0.899999 47.2 1.9 48.5 2.5C49.8 3.09999 49.8 4.99999 47.8 5.4C46.4 5.7 46.4 6.39999 46.2 9.59999C46 13.5 45.7 17.2 45.3 20.7C51.5 21.2 58.4 19.1 58.4 19.1C71 14.8 77.7 18.7 81.1 21.4ZM47.6 168.6C40.8 168.6 36.5 164.5 36.5 156.3C36.5 153.9 36.3 142.7 36.3 133.8C33.1 135.9 29.4 137.6 25.1 138.5C22.3 151 15.8 162 12 165C8.4 168.1 5.7 167.5 4.5 165.3C3.3 163.2 4 158.7 2 157.9C0.600001 157.4 0.600001 156.4 1.9 156.1C12 153.9 21.5 137.8 24 126.1C24.8 121.9 26.6 122.7 26.6 126.4C26.6 129.6 26.3 132.9 25.7 136C33.9 131 37.7 122.6 38.9 118.1H32.9C28.7 118.1 26.9 118.8 25.9 118.1C23.7 116.8 23.8 112.9 23.8 112.3C23.8 112 23.9 111.9 24.1 112.1C26.3 114.2 30.2 114.9 33.1 114.9H39.5V107C39.5 105 38.8 103.9 36.6 103.9H34.3C33.4 103.9 30.1 104.4 29.4 103.8C27.2 102 27.3 99.2 27.4 98.4C27.4 98.2 27.5 98.2 27.6 98.3C30.6 101 35.4 101.1 36.8 101.1H39.5V90.5C43.8 90.5 47.6 90.8 49.9 92.3C51.1 93 51 94.1 49.7 94.8C49.2 95 48.8 95.4 48.8 96.7V101.1H58.6V90.3C62.9 90.3 66.7 90.6 69 92.1C70.2 92.8 70.1 93.9 68.8 94.6C68.3 94.8 67.9 95.3 67.9 96.5V99.5L68.4 99.3C74.9 96.8 79.5 99.7 81.5 101.4C85 104.1 82.5 103.8 79.5 103.8H70.5C68.4 104 67.9 105 67.9 106.9V113.8L69.3 113.2C75.6 110.6 80.2 113.5 82.3 115.2C85.4 117.6 83 118 80.7 118H66.6C71.6 126.3 77 131.2 84.3 131.2C85.4 131.2 85.5 132.5 84.6 132.8C82 134 82.5 135.7 80.2 137.5C79.1 138.4 77.7 139.1 75.6 138.6C74.4 137.9 73.2 137 72 136V144.2C72 147.1 70.8 150 67.5 150.1C64.2 150.2 63.6 148.2 63.1 147.3C62.1 145.1 58 144.8 56.1 144.8H48.2C46 144.8 44.7 146.2 44.7 148.9V154C44.7 158.8 46.6 160.4 51.1 160.4H65.6C71.3 160.4 73.8 159.9 73.8 154.4L74 147.1C74.7 147.1 75.6 147.5 75.8 149.4C76 151.1 75.2 155.3 78.6 156.3C82.4 157.5 83.1 160.2 83.1 162.8C83.1 167 77.5 168.6 68.5 168.6H47.6ZM2.6 93.9C1.8 92.9 2.4 92.3 3.4 92.6C7.8 93.9 18.3 97.6 19.9 102.8C20.7 105.7 20.2 112.9 14.7 111.7C12.7 111.2 11.3 108.7 10.3 105.7C9.1 102.3 6.9 99.2 2.6 93.9ZM2.7 112.8C2 111.8 2.5 111.2 3.5 111.5C7.9 112.8 18.4 116.5 20 121.7C20.9 124.7 20.4 131.8 14.9 130.6C12.9 130.2 11.4 127.7 10.5 124.7C9.3 121.2 7 118.2 2.7 112.8ZM42.2 128.9C44.9 129.5 47.6 129.7 48.5 129.7H50.7C55.6 129.7 61.3 127.8 61.3 127.8C62.6 127.2 63.8 126.9 65 126.8C63.6 124.1 62.6 121.1 62 118L49.5 118.1C49.1 119.9 46.5 124.5 42.2 128.9ZM44.7 141.2H64.2V136.5C64.2 134.5 63.3 132.8 60.5 132.8L48.9 132.9C45.3 132.9 44.7 134.6 44.7 136.4V141.2ZM48.8 114.9H58.6V106.9C58.6 105.2 58.1 104.1 56.5 103.9H50.8C49.3 104.1 48.8 105.2 48.8 106.9V114.9ZM82.9 184.6C84 185.6 83.6 186.2 82.6 186.4C80.4 186.5 79.5 187.3 79.5 188.8V250.7C79.5 255.4 77.6 258.1 72.8 258.1C70.5 258.1 67.9 256.3 67.3 254.3C66.4 251.2 60.5 251.6 57 251.5C55.8 251.4 54.7 250.4 54.6 249.5H69.4V224.7C69.2 223.1 68.4 220.5 65.1 220.4H54.7C52.4 220.4 51.4 222.1 51 223.4C47.9 244.2 37.1 253.8 21.4 257.4C19.1 257.9 18.5 256 20.5 255.2C36.5 249.3 42.2 232.6 42.2 210V183.7C41.9 182.6 42 181.6 42 181.3C42 180.9 42.2 180.8 42.5 181C45.8 183 51.8 183.8 53.5 183.8H59.1C64.1 183.8 65.7 181.8 72.8 181.1C76.7 180.7 79.4 181.9 82.9 184.6ZM2.4 183.8C2.5 183.4 2.7 183.5 2.8 183.6C5.2 186 14.4 186.7 15.1 186.7H15.8C19.9 186.7 23.4 185.1 25.8 184.4C32.1 182.7 35.4 184.9 37.5 187.1C37.9 187.4 37.6 188.1 36.7 188.1C34.4 188.2 34.5 189.9 34.5 193L34.4 226.8C34.4 230.8 31.2 232.2 29.5 232.2C26.9 232.2 25.9 231.4 24.6 229C24.1 227.9 23 227.6 21.8 227.4H15.8C12.4 227.4 11.9 229.2 11.9 233.1V234.5C11.9 234.5 6.9 237.7 2.5 234.5V186.6C2.3 185.4 2.3 184.2 2.4 183.8ZM11.9 223.9H25V211.9C25 210.9 24.7 207.1 21 207.1H15.9C11.9 207.1 11.9 211.5 11.9 211.7V223.9ZM11.9 203.8H25V193.3C25 190.8 23.4 189 21.4 189L16.3 189.1H15.4H15.5C12.3 189.1 11.9 191.1 11.9 193.3V203.8ZM51.7 217H69.3C69.3 214.1 69.3 211.3 69.3 208.6C69.3 208.6 69.8 203.1 65.2 203H55.5C51.7 203 51.9 207.3 51.9 207.3V210.5C51.9 212.8 51.8 214.9 51.7 217ZM51.7 190.5L51.8 199.4H69.3V191.8C69.3 188.4 67.6 186.5 64.4 186.5L59.7 186.6H55.8C52.5 186.6 51.6 188.7 51.7 190.5ZM1.5 294.6C1 293.1 1.2 291.9 1.3 291.6C1.4 291.2 1.6 291.3 1.7 291.4C2.9 292.4 4.6 293 6.4 293.5V275.3C6 273.7 6 270.9 6.2 270.2C6.3 269.9 6.4 269.9 6.6 270.1C8.8 271.7 12.7 272.1 14.9 272.1H23.6C26.4 272.1 28.6 271.2 29.8 270.8C33.4 269.6 36.5 271.7 37.9 272.7C38.7 273.3 39.1 274.4 37.9 274.4C36.9 274.4 36.5 275.2 36.5 276V291.5C39 291.9 40.9 293.2 42.4 294.3V277.7C42.1 276.4 42.1 275.6 42.2 275.4C42.2 275.4 42.2 274.6 42.6 274.8C45.9 276.7 52.6 277.1 53.1 277.1H53.4L53.3 269C54.1 268.8 58.4 268.3 61.1 270.2C62 270.7 62 271.9 60.9 272.3C60.5 272.5 60.1 272.9 60.1 273.5V277.1H62.4L64.3 277V268.7C65.4 268.5 69.6 268.4 71.8 270.2C72.8 270.8 72.7 271.9 71.6 272.3C71.2 272.5 71 272.9 71 273.5V276L71.6 275.8C77.1 273.6 82.2 275.8 83.7 277.5C84.4 278.1 84.7 279.1 83.6 279.2C82.5 279.3 81.4 280.1 81.4 281.3V286.3V293.1C81.4 302.2 81.2 302.6 81 303.3C80.7 304 80.1 305.6 77.7 305.6C75.9 305.6 74.4 304.6 74.1 303.6C73.6 301.6 68.9 301.6 67.2 301.6H52.6C49.2 301.6 49 301.8 49 303.1C49 303.1 45.7 306 42.4 303.3V296.8H42.3C41 296.9 41 298.2 41 299.4V305.8C40.5 306.2 38 307.7 35.3 306.3C35.1 306.5 35 306.8 35 307.1V344.4C35 347.4 33.8 349.3 30.7 349.3C29.1 349.3 27.3 348 27 346.8C26.4 344.7 22.6 345 20.2 344.9C18.5 344.9 18.7 343.7 18.7 343.1H26V331.2C26 331 26 330.7 26 330.5C25.9 329.6 25.6 328.2 24 328.1H18.9C17.4 328.1 17 328.9 16.9 331C16.8 341.1 16.8 343.4 16.8 348.7C16.8 348.7 12.1 351.1 8.6 348.8C8.8 344.6 8.7 335.1 8.7 303.8C8.6 303.2 8.6 302.4 8.6 302.2C8.6 302 8.7 301.9 8.9 302C11.1 303.5 15 303.9 16.2 303.9H21.6C24.9 303.9 25.9 302.5 30.7 302.1C32.2 302 33.4 302.2 34.6 302.7V300.8C34.6 298.7 33.7 297 31.9 297L11.7 297.2C8.4 297.2 8.6 298.9 8.6 301.6V305.6C8.6 305.6 5.3 308.2 1.5 305.8V294.6ZM14 294.6H18.1V284.5C17.9 284 17.9 281.3 18 281.1C18 281.1 18.1 281 18.3 281.1C19.7 282.2 22.2 282.4 24.5 282.5H29.4V278.3C29.4 276.5 29.1 274.8 27.2 274.8H18C14.5 274.8 14 276.1 14 279V294.6ZM16.8 309L17 315H26V309.1C26 307.6 25.5 306.4 23.3 306.4L19.5 306.5C17.4 306.5 16.8 307.4 16.8 309ZM17 325.1H26V320.7C26 320.7 26 318 23.4 318H19.3C17.4 318 17.1 319.5 17.1 320.3V320.7C17.1 322.3 17.1 323.7 17 325.1ZM23.9 294.3C26 294 28.2 293.4 29.4 293V285.3H25.5C24.1 285.3 23.9 286.3 23.9 287.5V294.3ZM36.9 342.4C36.9 341.5 37.3 341.5 37.5 341.6C41.7 344.4 45.1 344.4 50.2 344.4H52.5C52.2 343.8 52 343.1 51.9 342.4C51.4 340.3 49.9 338.1 47.2 334.4C46.6 333.8 47.2 333.4 47.9 333.8C51.3 335.1 59 338.6 59.7 341.9C59.8 342.6 59.8 343.6 59.4 344.5C61 344.5 62.3 344.5 63.5 344.5C65.1 342.6 67.6 337.3 68.4 333.1C68.4 332.9 68.8 332.9 69.1 332.9C70.3 333.5 76.1 335.9 76.8 337.4C76.8 337.4 77 338 76.1 337.9C75.6 337.8 75.3 338 75.1 338.3C74.8 339 72.5 341.6 69.2 343.8L70.8 343.5C76.8 342.3 80.7 342.5 84.9 344.6C87.4 346 87.4 347.6 84.3 347.6H46.2C43.2 347.6 39.4 348.5 38.4 347.4C36.7 346 36.9 342.7 36.9 342.4ZM41.7 306.2C41.8 305 42 304.6 42.7 305C45.4 306.6 49.5 307.7 53.7 307.7H57.7C64.4 307.9 66.3 307.4 69.4 306.6C74.3 305.5 78.3 305.9 81.8 308C83.7 309.3 83.7 310.5 81.2 310.5H49.7C47.2 310.5 44.4 311.4 43.4 310.5C42 309 41.6 306.8 41.7 306.2ZM45 331.1L45.1 314.5C44.9 313.7 44.9 312.8 45 312.5C45.1 312.2 45.3 312 45.3 312.1C48 313.9 51.4 314.2 51.8 314.2H64.5C68 314.2 70.7 313 70.7 313C75.2 311.2 77.9 313.2 79.6 314.5C80.4 315.1 80.4 315.7 79.8 315.9C78.4 316.4 78.3 316.8 78.3 317.6V327.7C78.3 331.4 77.6 333.5 74.2 333.3C71.8 333.2 70.9 331.7 70.5 330.6C69.9 329.2 68.4 328.7 66.8 328.7H56.9C53.5 328.7 53.3 329.3 53.3 330.9V331.1C53.3 331.1 49 334.8 45 331.1ZM49 298.7H53.6V291.3C53.6 290.4 53.3 288.2 51.5 288.2H51.1C49.3 288.2 49 290.4 49 291.3V291.8C49 293.7 49 295.9 49 298.7ZM49 286.1H53.6L53.5 281.2C53.3 280.3 52.8 279.2 51.7 279.2C50.3 279.2 49 279.3 49 282.1V286.1ZM53.2 325.3H70.5L70.4 319.5C70.4 318.4 70 317.3 68 317.3L55.7 317.4C54.2 317.4 53.2 318.2 53.2 319.6V325.3ZM60.1 298.7H64.3V291.3C64.3 290.4 64 288.2 62.2 288.2C60.4 288.2 60.1 290.4 60.1 291.3V298.7ZM60.1 286.1H64.3V282.3C64.3 281.4 64 279.2 62.2 279.2H62C60.3 279.2 60.1 281.9 60.1 282.6V286.1ZM71 298.7H75.3V291.8C75.3 291.8 75.3 288.2 72.9 288.2C71.5 288.3 71.1 289.6 71 290.7V298.7ZM71 286.1H75.3V281.9C75.3 280.5 74.8 279.2 73.7 279.2H72.7C71.3 279.2 71 280.6 71 281.7V286.1Z" fill="black"/>
</svg>
