<svg width="139" height="31" viewBox="0 0 139 31" fill="none" xmlns="http://www.w3.org/2000/svg">
<path d="M28.716 9.064C29.58 9.676 29.4 10.144 28.5 10.144L17.196 10.18C18.096 15.688 23.712 25.264 30.264 25.732C30.84 25.768 30.66 26.272 30.3 26.344C28.968 26.56 28.716 27.712 27.852 28.396C26.412 29.512 24.72 28.864 24.576 28.792C20.256 27.208 16.008 19 15.576 10.612C13.848 22.204 9.204 26.416 1.968 29.152C0.636 29.656 0.348 28.684 1.284 28.288C8.196 25.372 10.752 16.84 11.652 10.216L4.092 10.252C3.408 10.252 2.004 10.504 1.68 10.252C0.924 9.676 0.78 7.804 0.852 7.372C0.888 7.192 0.996 7.156 1.104 7.264C2.904 8.776 6.54 8.848 7.62 8.848L11.832 8.812C12.264 4.636 12.12 1.504 12.12 1.504C15.324 1.684 16.512 2.044 16.98 2.26C17.448 2.476 17.448 3.16 16.728 3.304C16.224 3.412 16.224 3.664 16.152 4.816C16.08 6.22 15.972 7.552 15.828 8.812C18.06 8.992 20.544 8.236 20.544 8.236C25.08 6.688 27.492 8.092 28.716 9.064ZM52.656 29.656C50.208 29.656 48.66 28.18 48.66 25.228C48.66 24.364 48.588 20.332 48.588 17.128C47.436 17.884 46.104 18.496 44.556 18.82C43.548 23.32 41.208 27.28 39.84 28.36C38.544 29.476 37.572 29.26 37.14 28.468C36.708 27.712 36.96 26.092 36.24 25.804C35.736 25.624 35.736 25.264 36.204 25.156C39.84 24.364 43.26 18.568 44.16 14.356C44.448 12.844 45.096 13.132 45.096 14.464C45.096 15.616 44.988 16.804 44.772 17.92C47.724 16.12 49.092 13.096 49.524 11.476H47.364C45.852 11.476 45.204 11.728 44.844 11.476C44.052 11.008 44.088 9.604 44.088 9.388C44.088 9.28 44.124 9.244 44.196 9.316C44.988 10.072 46.392 10.324 47.436 10.324H49.74V7.48C49.74 6.76 49.488 6.364 48.696 6.364H47.868C47.544 6.364 46.356 6.544 46.104 6.328C45.312 5.68 45.348 4.672 45.384 4.384C45.384 4.312 45.42 4.312 45.456 4.348C46.536 5.32 48.264 5.356 48.768 5.356H49.74V1.54C51.288 1.54 52.656 1.648 53.484 2.188C53.916 2.44 53.88 2.836 53.412 3.088C53.232 3.16 53.088 3.304 53.088 3.772V5.356H56.616V1.468C58.164 1.468 59.532 1.576 60.36 2.116C60.792 2.368 60.756 2.764 60.288 3.016C60.108 3.088 59.964 3.268 59.964 3.7V4.78L60.144 4.708C62.484 3.808 64.14 4.852 64.86 5.464C66.12 6.436 65.22 6.328 64.14 6.328H60.9C60.144 6.4 59.964 6.76 59.964 7.444V9.928L60.468 9.712C62.736 8.776 64.392 9.82 65.148 10.432C66.264 11.296 65.4 11.44 64.572 11.44H59.496C61.296 14.428 63.24 16.192 65.868 16.192C66.264 16.192 66.3 16.66 65.976 16.768C65.04 17.2 65.22 17.812 64.392 18.46C63.996 18.784 63.492 19.036 62.736 18.856C62.304 18.604 61.872 18.28 61.44 17.92V20.872C61.44 21.916 61.008 22.96 59.82 22.996C58.632 23.032 58.416 22.312 58.236 21.988C57.876 21.196 56.4 21.088 55.716 21.088H52.872C52.08 21.088 51.612 21.592 51.612 22.564V24.4C51.612 26.128 52.296 26.704 53.916 26.704H59.136C61.188 26.704 62.088 26.524 62.088 24.544L62.16 21.916C62.412 21.916 62.736 22.06 62.808 22.744C62.88 23.356 62.592 24.868 63.816 25.228C65.184 25.66 65.436 26.632 65.436 27.568C65.436 29.08 63.42 29.656 60.18 29.656H52.656ZM36.456 2.764C36.168 2.404 36.384 2.188 36.744 2.296C38.328 2.764 42.108 4.096 42.684 5.968C42.972 7.012 42.792 9.604 40.812 9.172C40.092 8.992 39.588 8.092 39.228 7.012C38.796 5.788 38.004 4.672 36.456 2.764ZM36.492 9.568C36.24 9.208 36.42 8.992 36.78 9.1C38.364 9.568 42.144 10.9 42.72 12.772C43.044 13.852 42.864 16.408 40.884 15.976C40.164 15.832 39.624 14.932 39.3 13.852C38.868 12.592 38.04 11.512 36.492 9.568ZM50.712 15.364C51.684 15.58 52.656 15.652 52.98 15.652H53.772C55.536 15.652 57.588 14.968 57.588 14.968C58.056 14.752 58.488 14.644 58.92 14.608C58.416 13.636 58.056 12.556 57.84 11.44L53.34 11.476C53.196 12.124 52.26 13.78 50.712 15.364ZM51.612 19.792H58.632V18.1C58.632 17.38 58.308 16.768 57.3 16.768L53.124 16.804C51.828 16.804 51.612 17.416 51.612 18.064V19.792ZM53.088 10.324H56.616V7.444C56.616 6.832 56.436 6.436 55.86 6.364H53.808C53.268 6.436 53.088 6.832 53.088 7.444V10.324ZM101.364 3.016C101.76 3.376 101.616 3.592 101.256 3.664C100.464 3.7 100.14 3.988 100.14 4.528V26.812C100.14 28.504 99.456 29.476 97.728 29.476C96.9 29.476 95.964 28.828 95.748 28.108C95.424 26.992 93.3 27.136 92.04 27.1C91.608 27.064 91.212 26.704 91.176 26.38H96.504V17.452C96.432 16.876 96.144 15.94 94.956 15.904H91.212C90.384 15.904 90.024 16.516 89.88 16.984C88.764 24.472 84.876 27.928 79.224 29.224C78.396 29.404 78.18 28.72 78.9 28.432C84.66 26.308 86.712 20.296 86.712 12.16V2.692C86.604 2.296 86.64 1.936 86.64 1.828C86.64 1.684 86.712 1.648 86.82 1.72C88.008 2.44 90.168 2.728 90.78 2.728H92.796C94.596 2.728 95.172 2.008 97.728 1.756C99.132 1.612 100.104 2.044 101.364 3.016ZM72.384 2.728C72.42 2.584 72.492 2.62 72.528 2.656C73.392 3.52 76.704 3.772 76.956 3.772H77.208C78.684 3.772 79.944 3.196 80.808 2.944C83.076 2.332 84.264 3.124 85.02 3.916C85.164 4.024 85.056 4.276 84.732 4.276C83.904 4.312 83.94 4.924 83.94 6.04L83.904 18.208C83.904 19.648 82.752 20.152 82.14 20.152C81.204 20.152 80.844 19.864 80.376 19C80.196 18.604 79.8 18.496 79.368 18.424H77.208C75.984 18.424 75.804 19.072 75.804 20.476V20.98C75.804 20.98 74.004 22.132 72.42 20.98V3.736C72.348 3.304 72.348 2.872 72.384 2.728ZM75.804 17.164H80.52V12.844C80.52 12.484 80.412 11.116 79.08 11.116H77.244C75.804 11.116 75.804 12.7 75.804 12.772V17.164ZM75.804 9.928H80.52V6.148C80.52 5.248 79.944 4.6 79.224 4.6L77.388 4.636H77.064H77.1C75.948 4.636 75.804 5.356 75.804 6.148V9.928ZM90.132 14.68H96.468C96.468 13.636 96.468 12.628 96.468 11.656C96.468 11.656 96.648 9.676 94.992 9.64H91.5C90.132 9.64 90.204 11.188 90.204 11.188V12.34C90.204 13.168 90.168 13.924 90.132 14.68ZM90.132 5.14L90.168 8.344H96.468V5.608C96.468 4.384 95.856 3.7 94.704 3.7L93.012 3.736H91.608C90.42 3.736 90.096 4.492 90.132 5.14ZM108.06 10.216C107.88 9.676 107.952 9.244 107.988 9.136C108.024 8.992 108.096 9.028 108.132 9.064C108.564 9.424 109.176 9.64 109.824 9.82V3.268C109.68 2.692 109.68 1.684 109.752 1.432C109.788 1.324 109.824 1.324 109.896 1.396C110.688 1.972 112.092 2.116 112.884 2.116H116.016C117.024 2.116 117.816 1.792 118.248 1.648C119.544 1.216 120.66 1.972 121.164 2.332C121.452 2.548 121.596 2.944 121.164 2.944C120.804 2.944 120.66 3.232 120.66 3.52V9.1C121.56 9.244 122.244 9.712 122.784 10.108V4.132C122.676 3.664 122.676 3.376 122.712 3.304C122.712 3.304 122.712 3.016 122.856 3.088C124.044 3.772 126.456 3.916 126.636 3.916H126.744L126.708 0.999998C126.996 0.927999 128.544 0.747999 129.516 1.432C129.84 1.612 129.84 2.044 129.444 2.188C129.3 2.26 129.156 2.404 129.156 2.62V3.916H129.984L130.668 3.88V0.891999C131.064 0.819998 132.576 0.783998 133.368 1.432C133.728 1.648 133.692 2.044 133.296 2.188C133.152 2.26 133.08 2.404 133.08 2.62V3.52L133.296 3.448C135.276 2.656 137.112 3.448 137.652 4.06C137.904 4.276 138.012 4.636 137.616 4.672C137.22 4.708 136.824 4.996 136.824 5.428V7.228V9.676C136.824 12.952 136.752 13.096 136.68 13.348C136.572 13.6 136.356 14.176 135.492 14.176C134.844 14.176 134.304 13.816 134.196 13.456C134.016 12.736 132.324 12.736 131.712 12.736H126.456C125.232 12.736 125.16 12.808 125.16 13.276C125.16 13.276 123.972 14.32 122.784 13.348V11.008H122.748C122.28 11.044 122.28 11.512 122.28 11.944V14.248C122.1 14.392 121.2 14.932 120.228 14.428C120.156 14.5 120.12 14.608 120.12 14.716V28.144C120.12 29.224 119.688 29.908 118.572 29.908C117.996 29.908 117.348 29.44 117.24 29.008C117.024 28.252 115.656 28.36 114.792 28.324C114.18 28.324 114.252 27.892 114.252 27.676H116.88V23.392C116.88 23.32 116.88 23.212 116.88 23.14C116.844 22.816 116.736 22.312 116.16 22.276H114.324C113.784 22.276 113.64 22.564 113.604 23.32C113.568 26.956 113.568 27.784 113.568 29.692C113.568 29.692 111.876 30.556 110.616 29.728C110.688 28.216 110.652 24.796 110.652 13.528C110.616 13.312 110.616 13.024 110.616 12.952C110.616 12.88 110.652 12.844 110.724 12.88C111.516 13.42 112.92 13.564 113.352 13.564H115.296C116.484 13.564 116.844 13.06 118.572 12.916C119.112 12.88 119.544 12.952 119.976 13.132V12.448C119.976 11.692 119.652 11.08 119.004 11.08L111.732 11.152C110.544 11.152 110.616 11.764 110.616 12.736V14.176C110.616 14.176 109.428 15.112 108.06 14.248V10.216ZM112.56 10.216H114.036V6.58C113.964 6.4 113.964 5.428 114 5.356C114 5.356 114.036 5.32 114.108 5.356C114.612 5.752 115.512 5.824 116.34 5.86H118.104V4.348C118.104 3.7 117.996 3.088 117.312 3.088H114C112.74 3.088 112.56 3.556 112.56 4.6V10.216ZM113.568 15.4L113.64 17.56H116.88V15.436C116.88 14.896 116.7 14.464 115.908 14.464L114.54 14.5C113.784 14.5 113.568 14.824 113.568 15.4ZM113.64 21.196H116.88V19.612C116.88 19.612 116.88 18.64 115.944 18.64H114.468C113.784 18.64 113.676 19.18 113.676 19.468V19.612C113.676 20.188 113.676 20.692 113.64 21.196ZM116.124 10.108C116.88 10 117.672 9.784 118.104 9.64V6.868H116.7C116.196 6.868 116.124 7.228 116.124 7.66V10.108ZM120.804 27.424C120.804 27.1 120.948 27.1 121.02 27.136C122.532 28.144 123.756 28.144 125.592 28.144H126.42C126.312 27.928 126.24 27.676 126.204 27.424C126.024 26.668 125.484 25.876 124.512 24.544C124.296 24.328 124.512 24.184 124.764 24.328C125.988 24.796 128.76 26.056 129.012 27.244C129.048 27.496 129.048 27.856 128.904 28.18C129.48 28.18 129.948 28.18 130.38 28.18C130.956 27.496 131.856 25.588 132.144 24.076C132.144 24.004 132.288 24.004 132.396 24.004C132.828 24.22 134.916 25.084 135.168 25.624C135.168 25.624 135.24 25.84 134.916 25.804C134.736 25.768 134.628 25.84 134.556 25.948C134.448 26.2 133.62 27.136 132.432 27.928L133.008 27.82C135.168 27.388 136.572 27.46 138.084 28.216C138.984 28.72 138.984 29.296 137.868 29.296H124.152C123.072 29.296 121.704 29.62 121.344 29.224C120.732 28.72 120.804 27.532 120.804 27.424ZM122.532 14.392C122.568 13.96 122.64 13.816 122.892 13.96C123.864 14.536 125.34 14.932 126.852 14.932H128.292C130.704 15.004 131.388 14.824 132.504 14.536C134.268 14.14 135.708 14.284 136.968 15.04C137.652 15.508 137.652 15.94 136.752 15.94H125.412C124.512 15.94 123.504 16.264 123.144 15.94C122.64 15.4 122.496 14.608 122.532 14.392ZM123.72 23.356L123.756 17.38C123.684 17.092 123.684 16.768 123.72 16.66C123.756 16.552 123.828 16.48 123.828 16.516C124.8 17.164 126.024 17.272 126.168 17.272H130.74C132 17.272 132.972 16.84 132.972 16.84C134.592 16.192 135.564 16.912 136.176 17.38C136.464 17.596 136.464 17.812 136.248 17.884C135.744 18.064 135.708 18.208 135.708 18.496V22.132C135.708 23.464 135.456 24.22 134.232 24.148C133.368 24.112 133.044 23.572 132.9 23.176C132.684 22.672 132.144 22.492 131.568 22.492H128.004C126.78 22.492 126.708 22.708 126.708 23.284V23.356C126.708 23.356 125.16 24.688 123.72 23.356ZM125.16 11.692H126.816V9.028C126.816 8.704 126.708 7.912 126.06 7.912H125.916C125.268 7.912 125.16 8.704 125.16 9.028V9.208C125.16 9.892 125.16 10.684 125.16 11.692ZM125.16 7.156H126.816L126.78 5.392C126.708 5.068 126.528 4.672 126.132 4.672C125.628 4.672 125.16 4.708 125.16 5.716V7.156ZM126.672 21.268H132.9L132.864 19.18C132.864 18.784 132.72 18.388 132 18.388L127.572 18.424C127.032 18.424 126.672 18.712 126.672 19.216V21.268ZM129.156 11.692H130.668V9.028C130.668 8.704 130.56 7.912 129.912 7.912C129.264 7.912 129.156 8.704 129.156 9.028V11.692ZM129.156 7.156H130.668V5.788C130.668 5.464 130.56 4.672 129.912 4.672H129.84C129.228 4.672 129.156 5.644 129.156 5.896V7.156ZM133.08 11.692H134.628V9.208C134.628 9.208 134.628 7.912 133.764 7.912C133.26 7.948 133.116 8.416 133.08 8.812V11.692ZM133.08 7.156H134.628V5.644C134.628 5.14 134.448 4.672 134.052 4.672H133.692C133.188 4.672 133.08 5.176 133.08 5.572V7.156Z" fill="white"/>
</svg>
