<svg width="513" height="132" viewBox="0 0 513 132" fill="none" xmlns="http://www.w3.org/2000/svg">
<path d="M30.12 3.02C30.66 3.38 30.66 3.86 30 4.16C29.76 4.28 29.52 4.46 29.52 4.82V10.76C33.12 10.64 36.54 9.62 36.54 9.62C44.82 6.86 49.68 9.32 52.02 11C53.22 11.9 52.08 12.8 51.54 12.8L35.58 12.86C38.58 13.22 39.84 13.58 40.44 13.88C41.22 14.3 41.22 15.5 40.02 15.74C39.18 15.92 39.54 16.28 39.06 18.38C37.56 24.68 35.04 29.84 31.8 34.04C37.08 38.06 43.62 41 51.24 41.12C52.68 41.12 52.14 42.08 51.36 42.2C50.34 42.44 49.68 43.4 49.5 46.82C49.38 48.74 47.52 48.62 46.14 48.38C38.76 47.18 32.52 43.52 27.6 38.48C21.3 44.06 13.2 47.12 4.32 48.38C2.04 48.68 1.62 47.48 3.18 46.94C13.08 43.58 19.68 39.26 24.06 34.34C20.64 29.66 18.12 24.32 16.62 18.8C15.96 20.54 15 22.1 14.22 23.18C13.92 23.54 13.8 23.72 14.1 24.26C14.4 24.68 13.86 25.34 13.14 25.1C11.4 24.68 9.36 23.54 7.98 22.04C11.94 19.16 13.2 18.2 16.44 14.12C16.92 13.46 17.34 13.46 17.52 13.88C18.78 18.56 22.14 24.68 27.3 29.96C30.48 24.74 31.8 18.98 32.34 12.86L13.02 12.92L8.52 13.04C6.84 13.1 5.1 13.4 4.02 13.04C2.1 12.38 2.1 8.78 2.16 8.12C2.16 7.82 2.34 7.58 2.58 7.82C5.34 10.58 10.56 10.76 12.48 10.76H23.76L23.7 2.54C23.7 2.36 23.82 2.18 24.06 2.18C25.74 2.18 28.62 2.06 30.12 3.02ZM63.3 9.98C62.7 8.84 62.76 6.44 62.94 5.54C63.06 5.18 63.18 5.12 63.3 5.24C65.46 6.98 69.42 7.4 71.7 7.4H83.76L83.7 2.18C83.7 2 83.82 1.82 84.06 1.82C85.74 1.82 88.62 1.7 90.12 2.66C90.66 3.02 90.66 3.5 90 3.8C89.76 3.92 89.52 4.1 89.52 4.46V7.4H95.7C99.06 7.28 102.66 6.08 102.66 6.08C107.22 4.16 110.94 6.44 112.44 7.94C113.1 8.6 112.56 8.84 111.48 9.2C111.48 9.2 110.28 9.62 110.28 10.64V14.96C110.04 15.2 107.52 16.64 105.36 14.96V12.02C105.36 10.94 104.94 9.92 102.72 9.92H71.58C69.24 9.92 68.7 10.7 68.7 12.8V14.84C68.7 14.84 65.94 16.52 63.3 14.96V9.98ZM63.54 25.28C63.54 24.98 63.72 24.74 63.96 24.98C66.72 27.74 71.94 27.92 73.86 27.92H84.36V21.02H86.64C87.54 21.02 89.82 21.14 91.08 21.92C92.22 21.32 93.3 20.3 93.96 18.38C94.44 17 93.96 16.76 92.16 16.76H78.3C76.92 16.76 74.28 17.42 73.68 16.76C72.9 15.86 72.72 14.36 72.66 13.4C72.66 12.98 72.9 12.86 73.08 12.98C75.3 14.42 78.3 14.12 81.84 14.12H88.26C92.04 14.12 93.42 13.7 94.92 13.34C97.8 12.68 99.9 13.16 101.22 14.18C103.14 15.62 102.48 16.64 101.28 16.76C100.5 16.82 100.14 17.24 99.96 17.66C98.16 21.56 94.08 23.66 90.48 23.9C90.42 23.96 90.42 24.02 90.42 24.14V27.8C93.3 27.5 95.7 26.78 95.7 26.78C104.58 24.02 109.44 26.48 111.78 28.16C113.4 29.36 112.92 30.02 110.88 30.02L92.1 30.08C91.02 30.2 90.42 31.04 90.42 32.48V43.28C90.42 46.34 89.34 49.82 85.56 49.82C83.64 49.82 82.5 48.56 81.72 46.22C81.18 44.6 77.04 44.42 74.76 44.42C73.68 44.42 72.66 43.76 72.66 43.04H84.36V32.54C84.36 30.92 83.58 30.08 82.26 30.08L67.26 30.14C66.84 30.14 65.34 30.26 65.04 30.14C63.54 29.54 63.48 25.94 63.54 25.28ZM142.74 28.1C140.94 28.1 140.34 27.44 139.5 25.88C139.14 25.22 138.36 24.98 137.52 24.86H131.76C130.62 24.86 130.38 26.18 130.38 27.32V36.08C133.02 35.48 136.02 34.58 139.56 33.26C138.6 32.12 137.46 30.92 136.08 29.72C135.96 29.54 136.14 29 136.62 29.18C139.98 29.72 146.46 31.4 147.36 35.24C148.02 37.88 147.6 39.86 144.9 39.98C144.18 39.98 143.4 39.5 142.92 38.54C142.68 38 142.02 36.68 140.82 35C135.84 39.26 127.86 42.14 125.76 42.86C125.28 43.1 124.92 43.16 124.92 43.88C124.92 44.6 124.08 44.9 123.3 44.18C121.92 42.62 120.66 40.1 120.3 37.64C121.8 37.52 123.24 37.34 124.74 37.16V6.8C124.32 5.9 124.56 4.22 124.68 3.86C124.8 3.5 124.98 3.62 125.1 3.74C126.72 5.24 132.48 5.6 133.2 5.6H133.44C136.68 5.6 137.58 5.06 139.08 4.64C142.56 3.68 145.38 4.22 147.42 6.2C148.08 6.86 147.66 7.28 147.12 7.34C145.68 7.52 145.8 8.6 145.8 9.62L145.74 24.5C145.74 27.02 144.12 28.1 142.74 28.1ZM130.38 21.92H140.22V17.78C140.22 16.64 139.98 15.44 138.78 15.32L131.76 15.38C130.62 15.38 130.38 16.7 130.38 17.84V21.92ZM130.38 12.92H140.22V10.16C140.22 8.54 139.86 7.58 138.48 7.58H133.74L131.94 7.52V7.58C130.92 7.58 130.38 8.54 130.38 10.16V12.92ZM150.18 5.42C150.3 5.06 150.48 5.18 150.6 5.3C152.22 6.8 156.6 7.16 158.52 7.16H158.76C160.68 7.16 162.96 6.56 164.46 6.14C168.54 5 170.82 6.38 172.2 7.76C172.92 8.48 173.04 8.84 171.9 8.9C170.46 8.96 170.58 10.16 170.58 11.18L170.52 32.18C170.52 34.7 168.48 35.78 167.52 35.78C166.44 35.78 164.88 35.54 164.46 34.16C163.56 31.22 158.64 33.38 158.52 31.16H165V11.84C165 10.22 164.82 9.26 163.44 9.26H158.76L157.38 9.2L157.44 9.26C156.18 9.26 155.88 10.22 155.88 11.84V49.52C155.88 49.52 153 51.56 150.24 49.52V8.36C149.82 7.46 150.06 5.78 150.18 5.42ZM221.16 47.66C219 47.66 218.16 46.16 217.86 44.66C217.44 42.86 213.12 42.86 212.88 42.86H198.66C196.5 42.86 196.32 45.08 196.32 45.68V46.4C196.32 46.4 192.96 49.46 189.84 46.4V7.94C189.54 7.22 189.42 6.14 189.48 4.52C189.48 4.16 189.72 4.1 189.96 4.28C192.48 5.96 197.64 6.98 202.26 6.98C210.72 7.1 214.2 6.02 216 5.42C222.18 3.38 225.54 5 228.06 7.34C228.96 8.06 228.66 8.66 227.46 8.84C225.6 9.26 225.12 10.28 225.12 11.72V39.74C225.12 42.86 225.6 47.66 221.16 47.66ZM196.32 40.22H219V27.26C219 26.9 218.88 24.38 216.72 24.38H198.66C196.5 24.38 196.32 26.6 196.32 27.2V40.22ZM196.32 21.74H219V12.2C219 9.86 217.62 9.38 215.88 9.38L206.4 9.5H202.26L198.36 9.44C196.32 9.74 196.32 11.3 196.32 12.68V21.74ZM243.54 11.12C243.3 10.28 243.06 9.74 243.3 9.08C243.36 8.9 243.48 8.9 243.54 8.96C245.22 10.4 249.66 11.12 251.94 11.12H256.02C255.42 10.46 255 9.62 254.94 8.66C254.82 6.98 253.68 5.18 251.7 2.06C251.34 1.46 251.88 1.28 252.48 1.52C255.12 2.96 260.82 5.84 261.54 8.96C261.66 9.5 261.48 10.4 260.94 11.12H264L263.88 0.859997C263.88 0.619996 264.06 0.499998 264.3 0.499998C266.04 0.499998 268.56 0.439999 270.12 1.34C270.6 1.64 270.6 2.18 270 2.42C269.76 2.54 269.52 2.78 269.52 3.02V11.12H272.34C273.48 9.5 275.22 6.08 275.94 1.88C276 1.64 276.18 1.52 276.54 1.52C277.98 1.64 280.98 3.32 281.82 4.1C282.3 4.46 282.3 5.24 281.52 5.18C281.28 5.18 280.86 5.18 280.5 5.6C280.2 6.08 277.98 9.14 275.46 11.12H276C279.36 11 282.96 9.8 282.96 9.8C287.52 7.88 291.24 10.16 292.74 11.66C293.4 12.32 292.86 12.56 291.78 12.92C291.78 12.92 290.58 13.34 290.58 14.36V20.54C290.34 20.78 287.52 22.1 285.36 20.54V15.74C285.36 14.66 284.94 13.64 282.72 13.64H252.06C249.72 13.64 249.18 14.42 249.18 16.52V20.42C249.18 20.42 246.18 22.1 243.54 20.54V11.12ZM247.5 28.22C247.56 27.86 247.74 27.44 247.98 27.68C250.8 29.96 256.14 30.44 258.72 30.44H264V29.48C264 25.46 263.7 24.68 262.02 24.68H261.78H261.66H261.48C260.88 24.68 260.7 25.04 260.7 25.64C260.7 25.64 258 27.44 256.08 25.64L256.14 18.74V17.96C255.84 17.06 255.78 15.8 255.84 15.38C255.9 15.02 256.14 14.96 256.32 15.08C257.4 15.8 259.08 16.28 260.28 16.28L269.82 16.22C271.26 16.22 272.58 15.8 273.54 15.44C276.18 14.42 278.58 15.68 279.48 16.46C279.78 16.76 279.9 17.18 279.48 17.3C278.52 17.48 278.28 17.84 278.28 18.38C278.28 25.1 278.52 26.66 275.76 26.78C274.86 26.84 273.72 26.12 273.66 25.4C273.6 24.68 272.82 24.62 272.1 24.62C270.42 24.62 270.12 25.4 270.12 28.7V30.44C275.76 30.2 275.58 28.76 280.68 28.22C283.68 27.86 286.92 28.58 289.68 30.92C290.4 31.46 290.1 31.94 289.44 32.06C287.7 32.3 286.98 33.32 286.98 34.64L286.92 38.9C286.86 42.86 285.54 45.08 281.94 45.08C281.04 45.08 279.48 44 279 42.26C278.28 39.68 276.24 40.04 273.6 39.92C272.58 39.86 271.74 39.44 271.68 38.72H281.64L281.58 35.78C281.52 33.26 281.16 32.36 278.64 32.36L272.1 32.42C270.84 32.42 270.12 33.2 270.12 34.7V48.92C270.12 48.92 267.18 51.32 264 48.98V34.76C264 33.26 263.22 32.48 262.02 32.48H256.8C253.68 32.48 253.56 35.3 253.56 36.02V43.28C253.56 43.28 250.92 45.74 247.98 43.28V32.18C247.14 31.16 247.38 28.76 247.5 28.22ZM260.7 22.52L273.72 22.46V19.52C273.72 18.5 273.18 18.08 271.74 18.08L262.68 18.14C261.54 18.14 260.7 18.8 260.7 19.82V22.52ZM327.42 33.56C326.4 34.34 325.68 34.52 324.78 34.82C324.3 34.88 324 34.82 323.88 34.58C323.7 34.34 323.7 33.92 324.06 33.8C325.68 33.08 327.36 31.58 327.18 29.3C325.56 29.6 324.3 29.24 323.58 28.16C322.38 26.54 322.74 24.2 324.42 22.94C325.08 22.46 325.86 22.22 326.64 22.22C328.5 22.22 330.06 23.3 330.48 25.28C331.32 28.46 329.28 32.24 327.42 33.56ZM25.5 90.28C29.64 90.52 35.34 89.14 35.34 89.14C43.62 86.38 48.48 89.14 50.82 90.82C52.44 92.08 51.48 92.62 50.34 92.62L22.98 92.68C20.88 95.8 18.36 98.74 15.6 101.2L15.72 128.08C15.72 128.08 12.84 131.02 10.02 128.32V105.4C7.44 106.9 4.74 107.98 2.04 108.46C0.78 108.7 0.66 107.68 1.5 107.26C6.24 104.74 11.88 98.92 15.66 92.74L6.48 92.8C6.06 92.8 4.56 92.92 4.26 92.8C2.76 92.2 2.7 88.6 2.76 87.94C2.76 87.64 2.94 87.34 3.18 87.58C5.94 90.34 10.56 90.22 12.48 90.22H17.04C18.48 87.52 19.44 84.88 19.74 82.42C19.74 82.3 19.86 82.18 20.1 82.18C20.82 82.18 27.06 84.76 27.54 85.84C27.54 85.84 28.26 86.86 26.52 86.86C26.16 86.86 26.16 87.16 25.92 87.7C25.5 88.54 25.02 89.44 24.54 90.28H25.5ZM16.86 107.68C16.86 107.44 17.04 107.2 17.28 107.44C19.5 109.72 23.88 109.84 25.8 109.84H31.32V103.18H33.36C34.02 103.18 35.52 103.24 36.6 103.72C37.74 103.18 38.82 102.34 39.42 100.9C40.26 98.8 37.74 99.16 36.24 99.16L28.92 99.1C25.26 99.1 24.18 99.88 23.04 99.28C22.14 98.8 21.54 97.12 21.54 95.86C21.54 95.38 21.78 95.2 22.02 95.38C24.24 96.94 25.92 97.3 28.8 97.3H32.34C34.86 97.3 36.12 96.52 37.98 96.04C40.8 95.26 43.68 95.92 45.36 96.94C47.22 98.08 47.4 98.86 45.78 99.28C45.06 99.46 44.4 99.7 44.1 100.3C42.48 104.02 39.78 104.98 36.96 105.16C36.84 105.46 36.78 106.24 36.72 109.42C38.1 109.18 39 108.88 39 108.88C46.38 106.6 50.46 108.7 52.38 110.08C53.76 111.1 53.34 111.7 51.66 111.7H38.4C37.32 111.7 36.72 112.3 36.66 113.56V114.94V123.76C36.66 126.34 35.7 129.28 32.46 129.28C30.84 129.28 29.88 128.14 29.16 126.22C28.68 124.84 26.58 124.72 24.6 124.72C23.7 124.72 22.86 124.12 22.86 123.52H31.32V113.74C31.32 112.42 30.6 111.7 29.46 111.7H19.98C19.62 111.7 18.3 111.76 18.12 111.7C16.86 111.28 16.8 108.22 16.86 107.68ZM61.44 110.5C60.18 110.74 60.06 109.72 60.9 109.3C65.64 106.78 72.06 100 76.32 93.1L66.48 93.16C66.06 93.16 64.56 93.28 64.26 93.16C62.76 92.56 62.7 88.96 62.76 88.3C62.76 88 62.94 87.7 63.18 87.94C65.94 90.7 70.56 90.58 72.48 90.58H77.76C79.44 87.52 80.64 84.58 80.94 82.06C80.94 81.94 81.06 81.82 81.3 81.82C82.02 81.82 88.26 84.4 88.74 85.48C88.74 85.48 89.46 86.5 87.72 86.5C87.36 86.5 87.3 86.8 87.12 87.34C86.76 88.42 86.28 89.5 85.68 90.64C89.82 90.82 95.34 89.5 95.34 89.5C103.62 86.74 108.48 89.5 110.82 91.18C112.44 92.44 111.48 92.98 110.34 92.98L84.24 93.04C82.02 96.46 78.96 99.82 75.6 102.76L75.72 123.04C77.28 123.4 79.2 123.46 80.58 123.46H89.4V111.04C89.4 109.6 88.68 108.82 87.48 108.82H84.96C80.22 108.82 79.38 109.12 78.9 108.82C77.82 108.1 77.76 105.82 77.82 105.34C77.82 105.16 78 104.92 78.12 105.04C79.68 106.54 83.34 106.66 88.08 106.66H89.4V96.94C90.06 96.82 93.54 96.16 95.94 97.66C96.54 98.08 96.48 98.8 95.76 99.04C95.58 99.16 95.34 99.4 95.34 100.12V106.6C97.26 106.48 98.58 106.06 100.44 105.58C104.4 104.44 107.1 105.76 108.36 106.66C110.34 108.04 110.4 108.7 108.12 108.7L97.02 108.76C95.94 108.88 95.34 109.66 95.34 110.98V123.46H97.2C99.72 123.46 101.22 122.92 103.44 122.32C107.4 121.24 110.04 122.5 111.36 123.46C113.34 124.78 113.4 125.68 111.12 125.68L79.92 125.8L77.28 125.86C76.02 125.98 75.72 126.76 75.72 128.2V128.26C75.72 128.26 72.84 131.2 70.02 128.5V106.9C67.08 108.76 64.14 110.02 61.44 110.5ZM123.3 128.8C121.44 129.64 120.42 128.98 121.5 127.84C126.24 122.98 128.22 111.28 128.28 93.16H125.1C123.66 93.16 121.98 93.64 120.78 93.16C119.7 92.74 119.7 90.1 119.7 89.68C119.7 89.38 119.82 89.38 120.24 89.5C122.04 90.76 125.04 91.3 126.6 91.3H131.94V82.3C131.94 82.06 132.06 81.94 132.3 81.94H134.22C135.12 81.94 137.28 82 138.42 82.66C138.9 82.9 138.84 83.56 138.24 83.8C138 83.98 137.76 84.1 137.76 84.46V91.12C138.9 91 139.74 90.82 140.28 90.58C144.3 88.96 147.6 90.7 148.92 91.66C149.94 92.44 149.16 93.1 147.9 93.1L136.14 93.16C134.76 93.16 134.46 93.82 134.4 94.54C134.28 97.06 134.1 99.4 133.86 101.62C134.64 101.74 135.3 101.62 135.6 101.62C137.82 101.62 138.72 100.6 140.52 100.36C142.5 100 143.94 100.18 145.02 100.66C145.08 100.54 145.2 100.48 145.38 100.36C148.56 98.26 153.36 88.96 154.62 81.94C155.58 82.24 159.84 82.9 160.92 83.98C161.34 84.4 161.1 85 160.5 85C159.96 85 159.78 85.66 159.72 85.9L159.48 86.68C161.94 90.76 166.68 95.02 174.78 97.9C175.08 98.02 175.62 98.44 175.02 98.98C174.18 99.88 172.8 99.22 172.2 102.46C172.08 103.84 170.64 104.56 169.56 103.84C164.28 100.18 160.38 94.66 158.34 89.32C155.4 94.96 150 99.28 146.4 101.38L147.6 102.4C147.9 102.88 147.84 103.18 147.24 103.3C146.58 103.54 145.44 103.48 145.44 105.04C145.56 125.26 143.82 127.3 139.08 127.3C137.88 127.3 136.56 126.22 136.32 124.66C135.9 121.96 132 122.74 132.3 121L138 122.44C140.64 123.28 140.28 119.02 140.28 105.28C140.28 103.54 139.32 103.36 138.48 103.36L136.44 103.48C135.84 103.48 134.7 103.6 133.68 103.54C131.64 121.12 126.72 127.3 123.3 128.8ZM150.72 115.24C150.54 115.06 150.72 114.76 151.2 114.7C154.26 114.88 166.5 118.9 167.46 122.02C168.6 124.84 166.56 126.82 164.82 127.06C163.38 127.24 162.06 125.68 161.88 125.38C160.74 123.94 154.68 117.58 150.72 115.24ZM152.34 102.28C152.22 102.1 151.98 101.38 152.94 101.74C155.7 102.28 165.18 104.44 165.18 108.22C165.18 111.34 163.32 112.78 162.3 112.72C160.86 112.48 159.54 110.8 159.06 109.84C157.8 107.62 156.78 105.94 152.34 102.28ZM216 90.88C219.36 90.76 222.96 89.56 222.96 89.56C227.52 87.64 231.24 89.92 232.74 91.42C233.4 92.08 232.86 92.32 231.78 92.68C231.78 92.68 230.58 93.1 230.58 94.12V100.3C230.34 100.54 227.52 101.86 225.36 100.3V95.5C225.36 94.42 224.94 93.4 222.72 93.4H208.32C206.34 96.64 203.22 100.18 198.66 101.86C197.52 102.28 197.46 101.8 198.12 101.14C203.46 94.9 204.84 86.32 204.84 83.14C204.84 83.02 204.84 82.84 205.14 82.78C205.8 82.66 211.08 83.26 212.82 85.18C212.82 85.18 213.42 85.96 211.74 86.5C211.38 86.62 211.38 86.92 211.32 87.04C211.26 87.22 210.72 88.78 209.7 90.88H216ZM182.88 105.64C190.26 100.54 194.82 83.8 194.64 82.24C194.64 82.12 194.7 81.94 194.94 81.88C195.66 81.82 201.24 83.68 202.02 84.58C202.02 84.58 202.98 85.42 201.24 85.84C200.88 85.96 200.88 86.2 200.76 86.32C200.58 86.62 198.78 92.14 195.12 97.42L195.24 128.32C195.24 128.32 192.6 131.08 189.96 128.56V103.24C188.34 104.56 186.54 105.64 184.56 106.36C182.76 107.02 181.14 106.84 182.88 105.64ZM198.66 117.28C202.62 113.56 205.32 107.32 205.38 102.94C205.38 102.94 205.32 102.76 205.56 102.76C206.52 102.76 210.66 103.78 211.62 104.44C212.34 104.74 212.46 105.34 211.38 105.46C211.14 105.46 211.14 105.46 210.66 106.36C210.24 107.2 205.98 115.12 199.5 118.18C197.94 118.9 197.46 118.48 198.66 117.28ZM202.32 123.04H213.66V95.74H215.58C216.48 95.74 218.76 95.86 219.96 96.64C220.5 97.06 220.5 97.72 219.78 98.02C219.6 98.2 219.36 98.44 219.36 98.86V123.28C219.36 126.34 219 129.82 215.22 129.82C213.9 129.82 212.1 128.92 211.38 126.22C210.9 124.36 206.7 124.72 204.42 124.72C203.34 124.72 202.32 123.76 202.32 123.04ZM221.4 104.02C221.1 103.66 221.4 103.36 221.88 103.54C224.28 104.08 229.5 107.56 231.48 111.58C232.56 113.74 232.44 117.76 230.28 118.36C227.88 119.26 226.68 117.04 226.26 115.72C225.72 113.98 225.36 111.76 224.58 109.72C223.92 107.98 222.78 105.82 221.4 104.02ZM291.42 127.06C289.08 129.94 285.06 128.86 282.06 126.4C279.9 124.54 277.2 122.56 274.92 118.66C271.5 120.7 267.48 122.32 262.74 123.52C261.48 123.88 259.74 123.34 261.96 122.26C266.04 120.28 269.82 117.94 273.12 114.88C271.62 111.1 270.48 105.94 270 98.74L261.3 98.8C260.22 98.86 259.68 99.4 259.68 100.48V105.46C261.96 104.2 264.06 102.76 265.56 101.38C267.24 99.82 267.72 100.72 266.7 102.4C264.96 105.46 262.38 108.04 259.68 110.14V124.12C259.68 126.52 259.5 129.34 255.84 129.34C253.62 129.34 252.24 127.66 251.76 125.68C251.34 124.12 248.1 123.88 246.3 123.88C245.34 123.88 244.56 123.04 244.56 122.5H254.34V113.56C251.94 114.82 249.72 115.54 248.28 115.78C245.4 116.32 243.66 115.96 243.42 114.46C243.06 113.14 244.08 111.64 243.36 110.74C242.64 109.96 243 109.36 243.78 109.54C246.78 110.08 250.62 109.36 254.34 107.92V100.6C254.34 99.46 253.8 98.86 252.54 98.86H249.12C247.08 98.86 244.2 99.34 243.54 99.1C242.22 98.62 241.68 95.08 241.68 94.66C241.68 94.54 241.74 94.36 241.86 94.42C246 96.04 247.5 96.52 254.34 96.4V90.82C251.4 91.24 247.92 91.24 244.08 90.4C242.88 90.16 243.06 89.44 244.02 89.38C252.36 89.08 261.06 83.44 263.16 81.58C263.28 81.46 263.28 81.22 263.46 81.4C264.06 81.82 266.4 85.84 266.52 87.64C266.58 88.6 265.32 89.2 264.12 88.18C263.76 87.82 263.1 88.24 262.86 88.42C262.68 88.48 261.54 89.08 259.68 89.68V96.46C262.8 96.46 266.64 96.46 269.88 96.34C269.82 95.32 269.76 94.18 269.76 93.04L269.58 82.72C273.66 82.72 274.38 82.66 276.54 83.62C276.84 83.74 277.02 83.98 277.08 84.16H277.44C280.26 84.46 285.48 85.72 287.22 88.42C288.18 89.98 288.78 93.7 284.82 94C283.68 94.06 282.48 92.62 281.64 90.94C279.42 85.54 277.62 85.3 277.26 84.82L277.14 84.76C277.08 85.12 276.78 85.48 276.3 85.54C274.68 86.02 274.68 86.32 275.1 95.98L275.46 95.92C280.56 94.84 283.98 94 289.44 96.28C291.84 97.36 291.36 98.68 289.44 98.68L275.22 98.74C275.58 102.94 276.3 106.84 277.44 110.2C279.54 107.38 281.34 104.08 282.78 100.18C282.84 99.94 282.78 99.82 283.14 99.82C284.94 99.88 288.48 101.68 289.5 102.52C290.34 103.36 290.28 104.14 288.72 104.08C288 104.02 287.58 105.1 287.4 105.46C285.42 109.24 282.9 112.54 279.66 115.3C281.28 118.12 283.32 120.34 285.84 121.78L290.88 113.08C291.78 113.2 291.72 114.16 291.06 115.9C290.46 117.7 289.74 120.46 291.3 122.08C292.44 123.28 292.74 125.44 291.42 127.06ZM304.14 107.02C302.88 107.44 302.76 107.02 303.48 106.24C309.24 99.28 311.1 86.92 310.92 83.56C310.92 83.44 310.92 83.26 311.16 83.2C311.88 83.02 317.16 83.32 319.26 85.24C319.26 85.24 320.04 86.08 318.18 86.74C317.76 86.92 317.76 87.16 317.7 87.34C317.58 87.64 316.8 91.12 315 95.14C316.38 95.32 317.88 95.38 319.02 95.38H324.12V82.18C324.84 82.06 328.74 81.28 331.38 82.96C331.98 83.38 331.92 84.22 331.2 84.52C330.96 84.64 330.72 84.58 330.72 85.36V95.38H331.8C334.68 95.38 336.24 94.96 338.7 94.3C343.08 93.1 346.08 94.54 347.46 95.56C349.38 96.88 349.2 97.6 347.22 97.6L332.7 97.66C331.44 97.72 330.72 98.56 330.72 100.12V107.74H331.02C333.9 107.74 335.46 107.32 337.92 106.66C342.3 105.46 345.3 106.9 346.68 107.92C348.6 109.24 348.42 109.96 346.44 109.96L332.82 110.02C331.5 110.02 330.72 110.86 330.72 112.48V124.3C330.72 124.3 330.54 124.48 330.24 124.66C333.78 124.6 337.2 123.52 337.2 123.52C345.24 120.76 349.5 122.92 351.78 124.6C353.64 126.04 353.4 126.7 351.3 126.7L307.56 126.88C307.14 126.88 305.7 127 305.4 126.88C303.96 126.28 303.9 122.68 303.96 122.02C303.96 121.72 304.14 121.48 304.38 121.72C307.08 124.48 312.12 124.66 313.98 124.66H324.12V112.54C324.12 110.92 323.34 110.08 322.02 110.08H316.38C311.16 110.08 310.14 110.44 309.66 110.08C308.52 109.24 308.46 106.72 308.52 106.24C308.52 106.06 308.7 105.76 308.82 105.88C310.56 107.56 314.52 107.74 317.04 107.74H324.12V100.18C324.12 98.56 323.34 97.72 322.02 97.72H318.36C316.08 97.72 314.64 97.78 313.62 97.84C311.58 101.56 308.52 105.22 304.14 107.02ZM369.48 127C367.32 128.86 365.7 128.5 364.98 127.18C364.26 125.92 364.68 123.22 363.48 122.74C362.64 122.44 362.64 121.84 363.42 121.66C369.48 120.34 375.18 110.68 376.68 103.66C377.16 101.14 378.24 101.62 378.24 103.84C378.24 113.98 372.48 124.6 369.48 127ZM364.02 95.08C363.6 94.48 363.9 94.12 364.5 94.3C367.14 95.08 373.44 97.3 374.4 100.42C374.94 102.22 374.64 106.48 371.34 105.76C370.14 105.52 369.24 104.02 368.7 102.22C367.98 100.12 366.6 98.32 364.02 95.08ZM365.82 84.82C365.28 84.34 365.58 83.92 366.18 84.04C368.76 84.52 374.88 86.02 376.08 88.84C376.68 90.46 376.86 94.54 373.68 94.18C372.48 94 371.58 92.68 370.86 91.06C369.96 89.2 368.52 87.58 365.82 84.82ZM378 95.38C378 95.02 378.18 94.84 378.48 95.02C380.46 96.34 383.7 96.82 385.98 96.82H391.62V90.22C387.42 90.28 383.04 90.1 379.98 89.26C378.72 88.9 379.02 88.42 379.86 88.36C387 87.64 396.9 86.92 404.82 82.36C404.88 82.24 405.06 82.18 405.24 82.3C405.72 83.44 408 87.7 407.64 88.9C407.64 88.9 407.58 90.16 406.2 89.14C405.96 88.96 404.88 89.14 404.4 89.2C404.22 89.2 401.04 89.62 396.84 89.92V96.82C399.48 96.7 401.16 96.4 402.24 96.04C406.38 94.72 409.86 96.22 411.24 97.24C412.56 98.26 411.48 98.74 410.22 98.74L398.88 98.8C397.56 98.8 396.84 99.64 396.84 101.26V108.46C398.16 108.22 399.36 107.8 400.32 107.44C404.76 105.76 408.48 107.74 409.98 109.06C410.46 109.6 410.64 110.26 409.98 110.5C408.36 110.8 407.94 111.4 407.94 112.3C407.94 125.32 409.02 129.1 404.4 128.98C402.48 128.92 401.88 127.66 401.4 126.7C400.62 125.14 398.4 125.62 397.32 125.5H389.46C388.14 125.5 387.42 125.5 387.42 127.12C387.42 127.12 384.06 130.12 380.88 127.12L381 112.9V111.58C380.46 110.08 380.4 107.98 380.46 107.26C380.58 106.66 381 106.54 381.3 106.78C383.1 107.98 385.92 108.7 387.9 108.7H391.62V101.32C391.62 99.7 390.84 98.86 389.58 98.86H383.76C382.26 98.86 380.34 99.34 379.26 98.86C378 98.32 378 95.74 378 95.38ZM387.42 122.62L401.52 122.5V112.96C401.52 111.22 400.62 110.56 398.22 110.56L390.72 110.62C388.8 110.62 387.42 111.76 387.42 113.44V122.62ZM463.86 113.56C461.94 113.56 460.86 112.48 460.62 111.16C460.38 110.2 458.64 109.96 457.38 109.9H452.76C450.78 109.9 450.06 111.46 450.06 112.72V128.2C450.06 128.2 447 131.02 443.94 128.44V112.6C443.94 111.34 443.58 109.9 441.06 109.9H435.78C433.86 109.9 433.2 110.2 433.2 111.7V111.76C433.2 111.76 429.78 114.28 426.9 111.76V92.56C426.42 91.72 426.24 90.58 426.24 89.44C426.24 89.08 426.3 88.42 426.9 88.84C429.48 90.64 435.12 91.3 436.44 91.3H443.94V81.82C445.44 81.82 448.74 81.7 450.84 82.66C451.68 83.02 451.62 83.86 450.72 84.28C450.3 84.4 450.06 84.64 450.06 85.12V91.36H451.74C454.62 91.36 456.9 90.7 459.48 89.98C465.48 88.3 468.6 89.92 470.34 91.36C471.72 92.62 471.36 93.4 469.8 93.46C468.66 93.52 468.06 94.36 468.06 95.8V107.68C468.06 110.26 467.88 113.56 463.86 113.56ZM433.2 107.44H443.94V96.28C443.94 95.08 443.52 93.58 441.78 93.52H441.3L434.58 93.64C433.38 94.06 433.2 95.26 433.2 96.34V107.44ZM450.06 107.44H462.12V95.98C462.12 93.94 461.1 93.58 459.54 93.58H452.16C450.78 93.58 450.06 95.14 450.06 96.4V107.44ZM507 112.06C508.68 112.06 510.06 110.74 510.06 109C510.06 107.32 508.68 105.94 507 105.94C505.32 105.94 503.94 107.32 503.94 109C503.94 110.74 505.32 112.06 507 112.06ZM501.24 109C501.24 105.82 503.82 103.24 507 103.24C510.18 103.24 512.76 105.82 512.76 109C512.76 112.18 510.18 114.76 507 114.76C503.82 114.76 501.24 112.18 501.24 109Z" fill="#211613"/>
</svg>
