<svg width="587" height="160" viewBox="0 0 587 160" fill="none" xmlns="http://www.w3.org/2000/svg">
<path d="M81.12 20.02C81.66 20.38 81.66 20.86 81 21.16C80.76 21.28 80.52 21.46 80.52 21.82V27.76C84.12 27.64 87.54 26.62 87.54 26.62C95.82 23.86 100.68 26.32 103.02 28C104.22 28.9 103.08 29.8 102.54 29.8L86.58 29.86C89.58 30.22 90.84 30.58 91.44 30.88C92.22 31.3 92.22 32.5 91.02 32.74C90.18 32.92 90.54 33.28 90.06 35.38C88.56 41.68 86.04 46.84 82.8 51.04C88.08 55.06 94.62 58 102.24 58.12C103.68 58.12 103.14 59.08 102.36 59.2C101.34 59.44 100.68 60.4 100.5 63.82C100.38 65.74 98.52 65.62 97.14 65.38C89.76 64.18 83.52 60.52 78.6 55.48C72.3 61.06 64.2 64.12 55.32 65.38C53.04 65.68 52.62 64.48 54.18 63.94C64.08 60.58 70.68 56.26 75.06 51.34C71.64 46.66 69.12 41.32 67.62 35.8C66.96 37.54 66 39.1 65.22 40.18C64.92 40.54 64.8 40.72 65.1 41.26C65.4 41.68 64.86 42.34 64.14 42.1C62.4 41.68 60.36 40.54 58.98 39.04C62.94 36.16 64.2 35.2 67.44 31.12C67.92 30.46 68.34 30.46 68.52 30.88C69.78 35.56 73.14 41.68 78.3 46.96C81.48 41.74 82.8 35.98 83.34 29.86L64.02 29.92L59.52 30.04C57.84 30.1 56.1 30.4 55.02 30.04C53.1 29.38 53.1 25.78 53.16 25.12C53.16 24.82 53.34 24.58 53.58 24.82C56.34 27.58 61.56 27.76 63.48 27.76H74.76L74.7 19.54C74.7 19.36 74.82 19.18 75.06 19.18C76.74 19.18 79.62 19.06 81.12 20.02ZM114.3 26.98C113.7 25.84 113.76 23.44 113.94 22.54C114.06 22.18 114.18 22.12 114.3 22.24C116.46 23.98 120.42 24.4 122.7 24.4H134.76L134.7 19.18C134.7 19 134.82 18.82 135.06 18.82C136.74 18.82 139.62 18.7 141.12 19.66C141.66 20.02 141.66 20.5 141 20.8C140.76 20.92 140.52 21.1 140.52 21.46V24.4H146.7C150.06 24.28 153.66 23.08 153.66 23.08C158.22 21.16 161.94 23.44 163.44 24.94C164.1 25.6 163.56 25.84 162.48 26.2C162.48 26.2 161.28 26.62 161.28 27.64V31.96C161.04 32.2 158.52 33.64 156.36 31.96V29.02C156.36 27.94 155.94 26.92 153.72 26.92H122.58C120.24 26.92 119.7 27.7 119.7 29.8V31.84C119.7 31.84 116.94 33.52 114.3 31.96V26.98ZM114.54 42.28C114.54 41.98 114.72 41.74 114.96 41.98C117.72 44.74 122.94 44.92 124.86 44.92H135.36V38.02H137.64C138.54 38.02 140.82 38.14 142.08 38.92C143.22 38.32 144.3 37.3 144.96 35.38C145.44 34 144.96 33.76 143.16 33.76H129.3C127.92 33.76 125.28 34.42 124.68 33.76C123.9 32.86 123.72 31.36 123.66 30.4C123.66 29.98 123.9 29.86 124.08 29.98C126.3 31.42 129.3 31.12 132.84 31.12H139.26C143.04 31.12 144.42 30.7 145.92 30.34C148.8 29.68 150.9 30.16 152.22 31.18C154.14 32.62 153.48 33.64 152.28 33.76C151.5 33.82 151.14 34.24 150.96 34.66C149.16 38.56 145.08 40.66 141.48 40.9C141.42 40.96 141.42 41.02 141.42 41.14V44.8C144.3 44.5 146.7 43.78 146.7 43.78C155.58 41.02 160.44 43.48 162.78 45.16C164.4 46.36 163.92 47.02 161.88 47.02L143.1 47.08C142.02 47.2 141.42 48.04 141.42 49.48V60.28C141.42 63.34 140.34 66.82 136.56 66.82C134.64 66.82 133.5 65.56 132.72 63.22C132.18 61.6 128.04 61.42 125.76 61.42C124.68 61.42 123.66 60.76 123.66 60.04H135.36V49.54C135.36 47.92 134.58 47.08 133.26 47.08L118.26 47.14C117.84 47.14 116.34 47.26 116.04 47.14C114.54 46.54 114.48 42.94 114.54 42.28ZM193.74 45.1C191.94 45.1 191.34 44.44 190.5 42.88C190.14 42.22 189.36 41.98 188.52 41.86H182.76C181.62 41.86 181.38 43.18 181.38 44.32V53.08C184.02 52.48 187.02 51.58 190.56 50.26C189.6 49.12 188.46 47.92 187.08 46.72C186.96 46.54 187.14 46 187.62 46.18C190.98 46.72 197.46 48.4 198.36 52.24C199.02 54.88 198.6 56.86 195.9 56.98C195.18 56.98 194.4 56.5 193.92 55.54C193.68 55 193.02 53.68 191.82 52C186.84 56.26 178.86 59.14 176.76 59.86C176.28 60.1 175.92 60.16 175.92 60.88C175.92 61.6 175.08 61.9 174.3 61.18C172.92 59.62 171.66 57.1 171.3 54.64C172.8 54.52 174.24 54.34 175.74 54.16V23.8C175.32 22.9 175.56 21.22 175.68 20.86C175.8 20.5 175.98 20.62 176.1 20.74C177.72 22.24 183.48 22.6 184.2 22.6H184.44C187.68 22.6 188.58 22.06 190.08 21.64C193.56 20.68 196.38 21.22 198.42 23.2C199.08 23.86 198.66 24.28 198.12 24.34C196.68 24.52 196.8 25.6 196.8 26.62L196.74 41.5C196.74 44.02 195.12 45.1 193.74 45.1ZM181.38 38.92H191.22V34.78C191.22 33.64 190.98 32.44 189.78 32.32L182.76 32.38C181.62 32.38 181.38 33.7 181.38 34.84V38.92ZM181.38 29.92H191.22V27.16C191.22 25.54 190.86 24.58 189.48 24.58H184.74L182.94 24.52V24.58C181.92 24.58 181.38 25.54 181.38 27.16V29.92ZM201.18 22.42C201.3 22.06 201.48 22.18 201.6 22.3C203.22 23.8 207.6 24.16 209.52 24.16H209.76C211.68 24.16 213.96 23.56 215.46 23.14C219.54 22 221.82 23.38 223.2 24.76C223.92 25.48 224.04 25.84 222.9 25.9C221.46 25.96 221.58 27.16 221.58 28.18L221.52 49.18C221.52 51.7 219.48 52.78 218.52 52.78C217.44 52.78 215.88 52.54 215.46 51.16C214.56 48.22 209.64 50.38 209.52 48.16H216V28.84C216 27.22 215.82 26.26 214.44 26.26H209.76L208.38 26.2L208.44 26.26C207.18 26.26 206.88 27.22 206.88 28.84V66.52C206.88 66.52 204 68.56 201.24 66.52V25.36C200.82 24.46 201.06 22.78 201.18 22.42ZM272.16 64.66C270 64.66 269.16 63.16 268.86 61.66C268.44 59.86 264.12 59.86 263.88 59.86H249.66C247.5 59.86 247.32 62.08 247.32 62.68V63.4C247.32 63.4 243.96 66.46 240.84 63.4V24.94C240.54 24.22 240.42 23.14 240.48 21.52C240.48 21.16 240.72 21.1 240.96 21.28C243.48 22.96 248.64 23.98 253.26 23.98C261.72 24.1 265.2 23.02 267 22.42C273.18 20.38 276.54 22 279.06 24.34C279.96 25.06 279.66 25.66 278.46 25.84C276.6 26.26 276.12 27.28 276.12 28.72V56.74C276.12 59.86 276.6 64.66 272.16 64.66ZM247.32 57.22H270V44.26C270 43.9 269.88 41.38 267.72 41.38H249.66C247.5 41.38 247.32 43.6 247.32 44.2V57.22ZM247.32 38.74H270V29.2C270 26.86 268.62 26.38 266.88 26.38L257.4 26.5H253.26L249.36 26.44C247.32 26.74 247.32 28.3 247.32 29.68V38.74ZM294.54 28.12C294.3 27.28 294.06 26.74 294.3 26.08C294.36 25.9 294.48 25.9 294.54 25.96C296.22 27.4 300.66 28.12 302.94 28.12H307.02C306.42 27.46 306 26.62 305.94 25.66C305.82 23.98 304.68 22.18 302.7 19.06C302.34 18.46 302.88 18.28 303.48 18.52C306.12 19.96 311.82 22.84 312.54 25.96C312.66 26.5 312.48 27.4 311.94 28.12H315L314.88 17.86C314.88 17.62 315.06 17.5 315.3 17.5C317.04 17.5 319.56 17.44 321.12 18.34C321.6 18.64 321.6 19.18 321 19.42C320.76 19.54 320.52 19.78 320.52 20.02V28.12H323.34C324.48 26.5 326.22 23.08 326.94 18.88C327 18.64 327.18 18.52 327.54 18.52C328.98 18.64 331.98 20.32 332.82 21.1C333.3 21.46 333.3 22.24 332.52 22.18C332.28 22.18 331.86 22.18 331.5 22.6C331.2 23.08 328.98 26.14 326.46 28.12H327C330.36 28 333.96 26.8 333.96 26.8C338.52 24.88 342.24 27.16 343.74 28.66C344.4 29.32 343.86 29.56 342.78 29.92C342.78 29.92 341.58 30.34 341.58 31.36V37.54C341.34 37.78 338.52 39.1 336.36 37.54V32.74C336.36 31.66 335.94 30.64 333.72 30.64H303.06C300.72 30.64 300.18 31.42 300.18 33.52V37.42C300.18 37.42 297.18 39.1 294.54 37.54V28.12ZM298.5 45.22C298.56 44.86 298.74 44.44 298.98 44.68C301.8 46.96 307.14 47.44 309.72 47.44H315V46.48C315 42.46 314.7 41.68 313.02 41.68H312.78H312.66H312.48C311.88 41.68 311.7 42.04 311.7 42.64C311.7 42.64 309 44.44 307.08 42.64L307.14 35.74V34.96C306.84 34.06 306.78 32.8 306.84 32.38C306.9 32.02 307.14 31.96 307.32 32.08C308.4 32.8 310.08 33.28 311.28 33.28L320.82 33.22C322.26 33.22 323.58 32.8 324.54 32.44C327.18 31.42 329.58 32.68 330.48 33.46C330.78 33.76 330.9 34.18 330.48 34.3C329.52 34.48 329.28 34.84 329.28 35.38C329.28 42.1 329.52 43.66 326.76 43.78C325.86 43.84 324.72 43.12 324.66 42.4C324.6 41.68 323.82 41.62 323.1 41.62C321.42 41.62 321.12 42.4 321.12 45.7V47.44C326.76 47.2 326.58 45.76 331.68 45.22C334.68 44.86 337.92 45.58 340.68 47.92C341.4 48.46 341.1 48.94 340.44 49.06C338.7 49.3 337.98 50.32 337.98 51.64L337.92 55.9C337.86 59.86 336.54 62.08 332.94 62.08C332.04 62.08 330.48 61 330 59.26C329.28 56.68 327.24 57.04 324.6 56.92C323.58 56.86 322.74 56.44 322.68 55.72H332.64L332.58 52.78C332.52 50.26 332.16 49.36 329.64 49.36L323.1 49.42C321.84 49.42 321.12 50.2 321.12 51.7V65.92C321.12 65.92 318.18 68.32 315 65.98V51.76C315 50.26 314.22 49.48 313.02 49.48H307.8C304.68 49.48 304.56 52.3 304.56 53.02V60.28C304.56 60.28 301.92 62.74 298.98 60.28V49.18C298.14 48.16 298.38 45.76 298.5 45.22ZM311.7 39.52L324.72 39.46V36.52C324.72 35.5 324.18 35.08 322.74 35.08L313.68 35.14C312.54 35.14 311.7 35.8 311.7 36.82V39.52ZM378.42 50.56C377.4 51.34 376.68 51.52 375.78 51.82C375.3 51.88 375 51.82 374.88 51.58C374.7 51.34 374.7 50.92 375.06 50.8C376.68 50.08 378.36 48.58 378.18 46.3C376.56 46.6 375.3 46.24 374.58 45.16C373.38 43.54 373.74 41.2 375.42 39.94C376.08 39.46 376.86 39.22 377.64 39.22C379.5 39.22 381.06 40.3 381.48 42.28C382.32 45.46 380.28 49.24 378.42 50.56ZM76.5 107.28C80.64 107.52 86.34 106.14 86.34 106.14C94.62 103.38 99.48 106.14 101.82 107.82C103.44 109.08 102.48 109.62 101.34 109.62L73.98 109.68C71.88 112.8 69.36 115.74 66.6 118.2L66.72 145.08C66.72 145.08 63.84 148.02 61.02 145.32V122.4C58.44 123.9 55.74 124.98 53.04 125.46C51.78 125.7 51.66 124.68 52.5 124.26C57.24 121.74 62.88 115.92 66.66 109.74L57.48 109.8C57.06 109.8 55.56 109.92 55.26 109.8C53.76 109.2 53.7 105.6 53.76 104.94C53.76 104.64 53.94 104.34 54.18 104.58C56.94 107.34 61.56 107.22 63.48 107.22H68.04C69.48 104.52 70.44 101.88 70.74 99.42C70.74 99.3 70.86 99.18 71.1 99.18C71.82 99.18 78.06 101.76 78.54 102.84C78.54 102.84 79.26 103.86 77.52 103.86C77.16 103.86 77.16 104.16 76.92 104.7C76.5 105.54 76.02 106.44 75.54 107.28H76.5ZM67.86 124.68C67.86 124.44 68.04 124.2 68.28 124.44C70.5 126.72 74.88 126.84 76.8 126.84H82.32V120.18H84.36C85.02 120.18 86.52 120.24 87.6 120.72C88.74 120.18 89.82 119.34 90.42 117.9C91.26 115.8 88.74 116.16 87.24 116.16L79.92 116.1C76.26 116.1 75.18 116.88 74.04 116.28C73.14 115.8 72.54 114.12 72.54 112.86C72.54 112.38 72.78 112.2 73.02 112.38C75.24 113.94 76.92 114.3 79.8 114.3H83.34C85.86 114.3 87.12 113.52 88.98 113.04C91.8 112.26 94.68 112.92 96.36 113.94C98.22 115.08 98.4 115.86 96.78 116.28C96.06 116.46 95.4 116.7 95.1 117.3C93.48 121.02 90.78 121.98 87.96 122.16C87.84 122.46 87.78 123.24 87.72 126.42C89.1 126.18 90 125.88 90 125.88C97.38 123.6 101.46 125.7 103.38 127.08C104.76 128.1 104.34 128.7 102.66 128.7H89.4C88.32 128.7 87.72 129.3 87.66 130.56V131.94V140.76C87.66 143.34 86.7 146.28 83.46 146.28C81.84 146.28 80.88 145.14 80.16 143.22C79.68 141.84 77.58 141.72 75.6 141.72C74.7 141.72 73.86 141.12 73.86 140.52H82.32V130.74C82.32 129.42 81.6 128.7 80.46 128.7H70.98C70.62 128.7 69.3 128.76 69.12 128.7C67.86 128.28 67.8 125.22 67.86 124.68ZM112.44 127.5C111.18 127.74 111.06 126.72 111.9 126.3C116.64 123.78 123.06 117 127.32 110.1L117.48 110.16C117.06 110.16 115.56 110.28 115.26 110.16C113.76 109.56 113.7 105.96 113.76 105.3C113.76 105 113.94 104.7 114.18 104.94C116.94 107.7 121.56 107.58 123.48 107.58H128.76C130.44 104.52 131.64 101.58 131.94 99.06C131.94 98.94 132.06 98.82 132.3 98.82C133.02 98.82 139.26 101.4 139.74 102.48C139.74 102.48 140.46 103.5 138.72 103.5C138.36 103.5 138.3 103.8 138.12 104.34C137.76 105.42 137.28 106.5 136.68 107.64C140.82 107.82 146.34 106.5 146.34 106.5C154.62 103.74 159.48 106.5 161.82 108.18C163.44 109.44 162.48 109.98 161.34 109.98L135.24 110.04C133.02 113.46 129.96 116.82 126.6 119.76L126.72 140.04C128.28 140.4 130.2 140.46 131.58 140.46H140.4V128.04C140.4 126.6 139.68 125.82 138.48 125.82H135.96C131.22 125.82 130.38 126.12 129.9 125.82C128.82 125.1 128.76 122.82 128.82 122.34C128.82 122.16 129 121.92 129.12 122.04C130.68 123.54 134.34 123.66 139.08 123.66H140.4V113.94C141.06 113.82 144.54 113.16 146.94 114.66C147.54 115.08 147.48 115.8 146.76 116.04C146.58 116.16 146.34 116.4 146.34 117.12V123.6C148.26 123.48 149.58 123.06 151.44 122.58C155.4 121.44 158.1 122.76 159.36 123.66C161.34 125.04 161.4 125.7 159.12 125.7L148.02 125.76C146.94 125.88 146.34 126.66 146.34 127.98V140.46H148.2C150.72 140.46 152.22 139.92 154.44 139.32C158.4 138.24 161.04 139.5 162.36 140.46C164.34 141.78 164.4 142.68 162.12 142.68L130.92 142.8L128.28 142.86C127.02 142.98 126.72 143.76 126.72 145.2V145.26C126.72 145.26 123.84 148.2 121.02 145.5V123.9C118.08 125.76 115.14 127.02 112.44 127.5ZM174.3 145.8C172.44 146.64 171.42 145.98 172.5 144.84C177.24 139.98 179.22 128.28 179.28 110.16H176.1C174.66 110.16 172.98 110.64 171.78 110.16C170.7 109.74 170.7 107.1 170.7 106.68C170.7 106.38 170.82 106.38 171.24 106.5C173.04 107.76 176.04 108.3 177.6 108.3H182.94V99.3C182.94 99.06 183.06 98.94 183.3 98.94H185.22C186.12 98.94 188.28 99 189.42 99.66C189.9 99.9 189.84 100.56 189.24 100.8C189 100.98 188.76 101.1 188.76 101.46V108.12C189.9 108 190.74 107.82 191.28 107.58C195.3 105.96 198.6 107.7 199.92 108.66C200.94 109.44 200.16 110.1 198.9 110.1L187.14 110.16C185.76 110.16 185.46 110.82 185.4 111.54C185.28 114.06 185.1 116.4 184.86 118.62C185.64 118.74 186.3 118.62 186.6 118.62C188.82 118.62 189.72 117.6 191.52 117.36C193.5 117 194.94 117.18 196.02 117.66C196.08 117.54 196.2 117.48 196.38 117.36C199.56 115.26 204.36 105.96 205.62 98.94C206.58 99.24 210.84 99.9 211.92 100.98C212.34 101.4 212.1 102 211.5 102C210.96 102 210.78 102.66 210.72 102.9L210.48 103.68C212.94 107.76 217.68 112.02 225.78 114.9C226.08 115.02 226.62 115.44 226.02 115.98C225.18 116.88 223.8 116.22 223.2 119.46C223.08 120.84 221.64 121.56 220.56 120.84C215.28 117.18 211.38 111.66 209.34 106.32C206.4 111.96 201 116.28 197.4 118.38L198.6 119.4C198.9 119.88 198.84 120.18 198.24 120.3C197.58 120.54 196.44 120.48 196.44 122.04C196.56 142.26 194.82 144.3 190.08 144.3C188.88 144.3 187.56 143.22 187.32 141.66C186.9 138.96 183 139.74 183.3 138L189 139.44C191.64 140.28 191.28 136.02 191.28 122.28C191.28 120.54 190.32 120.36 189.48 120.36L187.44 120.48C186.84 120.48 185.7 120.6 184.68 120.54C182.64 138.12 177.72 144.3 174.3 145.8ZM201.72 132.24C201.54 132.06 201.72 131.76 202.2 131.7C205.26 131.88 217.5 135.9 218.46 139.02C219.6 141.84 217.56 143.82 215.82 144.06C214.38 144.24 213.06 142.68 212.88 142.38C211.74 140.94 205.68 134.58 201.72 132.24ZM203.34 119.28C203.22 119.1 202.98 118.38 203.94 118.74C206.7 119.28 216.18 121.44 216.18 125.22C216.18 128.34 214.32 129.78 213.3 129.72C211.86 129.48 210.54 127.8 210.06 126.84C208.8 124.62 207.78 122.94 203.34 119.28ZM267 107.88C270.36 107.76 273.96 106.56 273.96 106.56C278.52 104.64 282.24 106.92 283.74 108.42C284.4 109.08 283.86 109.32 282.78 109.68C282.78 109.68 281.58 110.1 281.58 111.12V117.3C281.34 117.54 278.52 118.86 276.36 117.3V112.5C276.36 111.42 275.94 110.4 273.72 110.4H259.32C257.34 113.64 254.22 117.18 249.66 118.86C248.52 119.28 248.46 118.8 249.12 118.14C254.46 111.9 255.84 103.32 255.84 100.14C255.84 100.02 255.84 99.84 256.14 99.78C256.8 99.66 262.08 100.26 263.82 102.18C263.82 102.18 264.42 102.96 262.74 103.5C262.38 103.62 262.38 103.92 262.32 104.04C262.26 104.22 261.72 105.78 260.7 107.88H267ZM233.88 122.64C241.26 117.54 245.82 100.8 245.64 99.24C245.64 99.12 245.7 98.94 245.94 98.88C246.66 98.82 252.24 100.68 253.02 101.58C253.02 101.58 253.98 102.42 252.24 102.84C251.88 102.96 251.88 103.2 251.76 103.32C251.58 103.62 249.78 109.14 246.12 114.42L246.24 145.32C246.24 145.32 243.6 148.08 240.96 145.56V120.24C239.34 121.56 237.54 122.64 235.56 123.36C233.76 124.02 232.14 123.84 233.88 122.64ZM249.66 134.28C253.62 130.56 256.32 124.32 256.38 119.94C256.38 119.94 256.32 119.76 256.56 119.76C257.52 119.76 261.66 120.78 262.62 121.44C263.34 121.74 263.46 122.34 262.38 122.46C262.14 122.46 262.14 122.46 261.66 123.36C261.24 124.2 256.98 132.12 250.5 135.18C248.94 135.9 248.46 135.48 249.66 134.28ZM253.32 140.04H264.66V112.74H266.58C267.48 112.74 269.76 112.86 270.96 113.64C271.5 114.06 271.5 114.72 270.78 115.02C270.6 115.2 270.36 115.44 270.36 115.86V140.28C270.36 143.34 270 146.82 266.22 146.82C264.9 146.82 263.1 145.92 262.38 143.22C261.9 141.36 257.7 141.72 255.42 141.72C254.34 141.72 253.32 140.76 253.32 140.04ZM272.4 121.02C272.1 120.66 272.4 120.36 272.88 120.54C275.28 121.08 280.5 124.56 282.48 128.58C283.56 130.74 283.44 134.76 281.28 135.36C278.88 136.26 277.68 134.04 277.26 132.72C276.72 130.98 276.36 128.76 275.58 126.72C274.92 124.98 273.78 122.82 272.4 121.02ZM342.42 144.06C340.08 146.94 336.06 145.86 333.06 143.4C330.9 141.54 328.2 139.56 325.92 135.66C322.5 137.7 318.48 139.32 313.74 140.52C312.48 140.88 310.74 140.34 312.96 139.26C317.04 137.28 320.82 134.94 324.12 131.88C322.62 128.1 321.48 122.94 321 115.74L312.3 115.8C311.22 115.86 310.68 116.4 310.68 117.48V122.46C312.96 121.2 315.06 119.76 316.56 118.38C318.24 116.82 318.72 117.72 317.7 119.4C315.96 122.46 313.38 125.04 310.68 127.14V141.12C310.68 143.52 310.5 146.34 306.84 146.34C304.62 146.34 303.24 144.66 302.76 142.68C302.34 141.12 299.1 140.88 297.3 140.88C296.34 140.88 295.56 140.04 295.56 139.5H305.34V130.56C302.94 131.82 300.72 132.54 299.28 132.78C296.4 133.32 294.66 132.96 294.42 131.46C294.06 130.14 295.08 128.64 294.36 127.74C293.64 126.96 294 126.36 294.78 126.54C297.78 127.08 301.62 126.36 305.34 124.92V117.6C305.34 116.46 304.8 115.86 303.54 115.86H300.12C298.08 115.86 295.2 116.34 294.54 116.1C293.22 115.62 292.68 112.08 292.68 111.66C292.68 111.54 292.74 111.36 292.86 111.42C297 113.04 298.5 113.52 305.34 113.4V107.82C302.4 108.24 298.92 108.24 295.08 107.4C293.88 107.16 294.06 106.44 295.02 106.38C303.36 106.08 312.06 100.44 314.16 98.58C314.28 98.46 314.28 98.22 314.46 98.4C315.06 98.82 317.4 102.84 317.52 104.64C317.58 105.6 316.32 106.2 315.12 105.18C314.76 104.82 314.1 105.24 313.86 105.42C313.68 105.48 312.54 106.08 310.68 106.68V113.46C313.8 113.46 317.64 113.46 320.88 113.34C320.82 112.32 320.76 111.18 320.76 110.04L320.58 99.72C324.66 99.72 325.38 99.66 327.54 100.62C327.84 100.74 328.02 100.98 328.08 101.16H328.44C331.26 101.46 336.48 102.72 338.22 105.42C339.18 106.98 339.78 110.7 335.82 111C334.68 111.06 333.48 109.62 332.64 107.94C330.42 102.54 328.62 102.3 328.26 101.82L328.14 101.76C328.08 102.12 327.78 102.48 327.3 102.54C325.68 103.02 325.68 103.32 326.1 112.98L326.46 112.92C331.56 111.84 334.98 111 340.44 113.28C342.84 114.36 342.36 115.68 340.44 115.68L326.22 115.74C326.58 119.94 327.3 123.84 328.44 127.2C330.54 124.38 332.34 121.08 333.78 117.18C333.84 116.94 333.78 116.82 334.14 116.82C335.94 116.88 339.48 118.68 340.5 119.52C341.34 120.36 341.28 121.14 339.72 121.08C339 121.02 338.58 122.1 338.4 122.46C336.42 126.24 333.9 129.54 330.66 132.3C332.28 135.12 334.32 137.34 336.84 138.78L341.88 130.08C342.78 130.2 342.72 131.16 342.06 132.9C341.46 134.7 340.74 137.46 342.3 139.08C343.44 140.28 343.74 142.44 342.42 144.06ZM355.14 124.02C353.88 124.44 353.76 124.02 354.48 123.24C360.24 116.28 362.1 103.92 361.92 100.56C361.92 100.44 361.92 100.26 362.16 100.2C362.88 100.02 368.16 100.32 370.26 102.24C370.26 102.24 371.04 103.08 369.18 103.74C368.76 103.92 368.76 104.16 368.7 104.34C368.58 104.64 367.8 108.12 366 112.14C367.38 112.32 368.88 112.38 370.02 112.38H375.12V99.18C375.84 99.06 379.74 98.28 382.38 99.96C382.98 100.38 382.92 101.22 382.2 101.52C381.96 101.64 381.72 101.58 381.72 102.36V112.38H382.8C385.68 112.38 387.24 111.96 389.7 111.3C394.08 110.1 397.08 111.54 398.46 112.56C400.38 113.88 400.2 114.6 398.22 114.6L383.7 114.66C382.44 114.72 381.72 115.56 381.72 117.12V124.74H382.02C384.9 124.74 386.46 124.32 388.92 123.66C393.3 122.46 396.3 123.9 397.68 124.92C399.6 126.24 399.42 126.96 397.44 126.96L383.82 127.02C382.5 127.02 381.72 127.86 381.72 129.48V141.3C381.72 141.3 381.54 141.48 381.24 141.66C384.78 141.6 388.2 140.52 388.2 140.52C396.24 137.76 400.5 139.92 402.78 141.6C404.64 143.04 404.4 143.7 402.3 143.7L358.56 143.88C358.14 143.88 356.7 144 356.4 143.88C354.96 143.28 354.9 139.68 354.96 139.02C354.96 138.72 355.14 138.48 355.38 138.72C358.08 141.48 363.12 141.66 364.98 141.66H375.12V129.54C375.12 127.92 374.34 127.08 373.02 127.08H367.38C362.16 127.08 361.14 127.44 360.66 127.08C359.52 126.24 359.46 123.72 359.52 123.24C359.52 123.06 359.7 122.76 359.82 122.88C361.56 124.56 365.52 124.74 368.04 124.74H375.12V117.18C375.12 115.56 374.34 114.72 373.02 114.72H369.36C367.08 114.72 365.64 114.78 364.62 114.84C362.58 118.56 359.52 122.22 355.14 124.02ZM420.48 144C418.32 145.86 416.7 145.5 415.98 144.18C415.26 142.92 415.68 140.22 414.48 139.74C413.64 139.44 413.64 138.84 414.42 138.66C420.48 137.34 426.18 127.68 427.68 120.66C428.16 118.14 429.24 118.62 429.24 120.84C429.24 130.98 423.48 141.6 420.48 144ZM415.02 112.08C414.6 111.48 414.9 111.12 415.5 111.3C418.14 112.08 424.44 114.3 425.4 117.42C425.94 119.22 425.64 123.48 422.34 122.76C421.14 122.52 420.24 121.02 419.7 119.22C418.98 117.12 417.6 115.32 415.02 112.08ZM416.82 101.82C416.28 101.34 416.58 100.92 417.18 101.04C419.76 101.52 425.88 103.02 427.08 105.84C427.68 107.46 427.86 111.54 424.68 111.18C423.48 111 422.58 109.68 421.86 108.06C420.96 106.2 419.52 104.58 416.82 101.82ZM429 112.38C429 112.02 429.18 111.84 429.48 112.02C431.46 113.34 434.7 113.82 436.98 113.82H442.62V107.22C438.42 107.28 434.04 107.1 430.98 106.26C429.72 105.9 430.02 105.42 430.86 105.36C438 104.64 447.9 103.92 455.82 99.36C455.88 99.24 456.06 99.18 456.24 99.3C456.72 100.44 459 104.7 458.64 105.9C458.64 105.9 458.58 107.16 457.2 106.14C456.96 105.96 455.88 106.14 455.4 106.2C455.22 106.2 452.04 106.62 447.84 106.92V113.82C450.48 113.7 452.16 113.4 453.24 113.04C457.38 111.72 460.86 113.22 462.24 114.24C463.56 115.26 462.48 115.74 461.22 115.74L449.88 115.8C448.56 115.8 447.84 116.64 447.84 118.26V125.46C449.16 125.22 450.36 124.8 451.32 124.44C455.76 122.76 459.48 124.74 460.98 126.06C461.46 126.6 461.64 127.26 460.98 127.5C459.36 127.8 458.94 128.4 458.94 129.3C458.94 142.32 460.02 146.1 455.4 145.98C453.48 145.92 452.88 144.66 452.4 143.7C451.62 142.14 449.4 142.62 448.32 142.5H440.46C439.14 142.5 438.42 142.5 438.42 144.12C438.42 144.12 435.06 147.12 431.88 144.12L432 129.9V128.58C431.46 127.08 431.4 124.98 431.46 124.26C431.58 123.66 432 123.54 432.3 123.78C434.1 124.98 436.92 125.7 438.9 125.7H442.62V118.32C442.62 116.7 441.84 115.86 440.58 115.86H434.76C433.26 115.86 431.34 116.34 430.26 115.86C429 115.32 429 112.74 429 112.38ZM438.42 139.62L452.52 139.5V129.96C452.52 128.22 451.62 127.56 449.22 127.56L441.72 127.62C439.8 127.62 438.42 128.76 438.42 130.44V139.62ZM514.86 130.56C512.94 130.56 511.86 129.48 511.62 128.16C511.38 127.2 509.64 126.96 508.38 126.9H503.76C501.78 126.9 501.06 128.46 501.06 129.72V145.2C501.06 145.2 498 148.02 494.94 145.44V129.6C494.94 128.34 494.58 126.9 492.06 126.9H486.78C484.86 126.9 484.2 127.2 484.2 128.7V128.76C484.2 128.76 480.78 131.28 477.9 128.76V109.56C477.42 108.72 477.24 107.58 477.24 106.44C477.24 106.08 477.3 105.42 477.9 105.84C480.48 107.64 486.12 108.3 487.44 108.3H494.94V98.82C496.44 98.82 499.74 98.7 501.84 99.66C502.68 100.02 502.62 100.86 501.72 101.28C501.3 101.4 501.06 101.64 501.06 102.12V108.36H502.74C505.62 108.36 507.9 107.7 510.48 106.98C516.48 105.3 519.6 106.92 521.34 108.36C522.72 109.62 522.36 110.4 520.8 110.46C519.66 110.52 519.06 111.36 519.06 112.8V124.68C519.06 127.26 518.88 130.56 514.86 130.56ZM484.2 124.44H494.94V113.28C494.94 112.08 494.52 110.58 492.78 110.52H492.3L485.58 110.64C484.38 111.06 484.2 112.26 484.2 113.34V124.44ZM501.06 124.44H513.12V112.98C513.12 110.94 512.1 110.58 510.54 110.58H503.16C501.78 110.58 501.06 112.14 501.06 113.4V124.44ZM558 129.06C559.68 129.06 561.06 127.74 561.06 126C561.06 124.32 559.68 122.94 558 122.94C556.32 122.94 554.94 124.32 554.94 126C554.94 127.74 556.32 129.06 558 129.06ZM552.24 126C552.24 122.82 554.82 120.24 558 120.24C561.18 120.24 563.76 122.82 563.76 126C563.76 129.18 561.18 131.76 558 131.76C554.82 131.76 552.24 129.18 552.24 126Z" fill="#211613"/>
<rect y="21" width="16" height="123" fill="black"/>
</svg>
